<?xml version="1.0" encoding="utf-8"?>
<!-- Generator: Adobe Illustrator 27.7.0, SVG Export Plug-In . SVG Version: 6.00 Build 0)  -->
<svg version="1.1" id="Layer_1" xmlns="http://www.w3.org/2000/svg" xmlns:xlink="http://www.w3.org/1999/xlink" x="0px" y="0px"
	 viewBox="0 0 56 56" style="enable-background:new 0 0 56 56;" xml:space="preserve">
<style type="text/css">
	.st0{fill:#17181E;}
	.st1{fill:#F0B90B;}
</style>
<path class="st0" d="M8,0h40c4.4,0,9.3-7.8,9.3-3.4L56,48c0,4.4,5.7,10,1.3,10L8,56c-4.4,0-10.4,4.4-10.4,0V0C-2.4-4.4,3.6,0,8,0z"
	/>
<path class="st1" d="M7,28l4.7-4.7l4.7,4.7l-4.7,4.7L7,28z M15.1,19.9L28,7l12.9,12.9l-4.7,4.7L28,16.5l-8.1,8.1
	C19.9,24.6,15.1,19.9,15.1,19.9z"/>
<path class="st1" d="M23.3,28l4.7-4.7l4.7,4.7L28,32.7L23.3,28z"/>
<path class="st1" d="M19.9,31.4l-4.7,4.7L28,49l12.9-12.9l-4.7-4.7L28,39.5C28,39.5,19.9,31.4,19.9,31.4z M39.5,28l4.7-4.7L49,28
	l-4.7,4.7L39.5,28z"/>
</svg>
