<svg xmlns="http://www.w3.org/2000/svg" viewBox="0 0 160.5 52"><title>baground</title><path d="M150.1,46.8a5.2,5.2,0,1,1,5.2,5.2h0A5.2,5.2,0,0,1,150.1,46.8ZM104.031,52a5.222,5.222,0,0,1-1.115-.12A5.222,5.222,0,0,1,101.8,52H34.18a5.2,5.2,0,1,1,0-10.4H5.2a5.2,5.2,0,0,1,0-10.4H34.923a5.2,5.2,0,0,0,0-10.4H16.347a5.2,5.2,0,1,1,0-10.4H46.07a5.2,5.2,0,0,1,0-10.4H88.423a5.2,5.2,0,1,1,0,10.4h47.555a5.2,5.2,0,0,1,0,10.4h16.348a5.2,5.2,0,1,1,0,10.4H138.209a5.2,5.2,0,0,0,0,10.4h4.458a5.2,5.2,0,0,1,0,10.4Z" fill="#101822"/></svg>