<?xml version="1.0" encoding="utf-8"?>
<!-- Generator: Adobe Illustrator 22.1.0, SVG Export Plug-In . SVG Version: 6.00 Build 0)  -->
<svg version="1.1" id="Layer_1" xmlns="http://www.w3.org/2000/svg" xmlns:xlink="http://www.w3.org/1999/xlink" x="0px" y="0px"
	 viewBox="0 0 1403.7 100.1" style="enable-background:new 0 0 1403.7 100.1;" xml:space="preserve">
<path id="XMLID_31_" d="M129.4,46c-1.7-3.7-6.3-4.3-9.9-4.6c-8.2-0.2-16.2,2.3-23.4,6.1C79,38.8,61.7,30.1,44.5,21.9
	C29.8,14.6,15.3,7,0.5,0C0.4,4.7,0.8,9.6,1.7,14.2c25.5,12.5,51.1,25,76.6,37.5c-4.8-1.2-9.1-3.7-13.7-5.2
	C44.1,38.3,23.7,29.7,3.2,21.7c1.5,5.4,3.5,10.5,6.1,15.4c12.1,5.3,24.5,10.5,37.5,15.7c6.5,2.6,12.9,5.1,19.3,7.4
	c1.4,0.5,2.8,1,4.3,1.4c0.1,0,0.1,0.1,0.1,0.1c0,0.2-3.1-0.5-5.9-1.1c-0.2-0.1-1.6-0.3-2.9-0.8C46.2,54.7,30.4,50.2,15,44.9
	c0.6,2.5,2.9,4.1,4.5,6c9.9,10.5,23.8,16.4,37.9,19c-8.9,4.7-18.1,8.7-27.3,12.7c17.8,3.3,36.2,2.3,53.5-3.1
	c15.8-5.1,30.3-13.4,42.5-24.6c0.2,0.6,0.4,1.3,0.6,1.9c0.2,0.8,0.4,1.6,0.6,2.4c0.7-1,2.4-3.2,2.9-6.7
	C130.6,49.5,129.9,47.1,129.4,46z M117.2,52.5c-2.2,0-3.9-1.8-3.9-3.9c0-2.1,1.8-3.9,3.9-3.9c2.1,0,3.9,1.8,3.9,3.9
	C121.1,50.7,119.3,52.5,117.2,52.5z"/>
<path d="M151.5,2.6c-13.1,12.8-27,24.7-41.6,35.7c6.1-1,12.6-2.1,18.6,0.2c3.1,1.3,4.8,4.5,5.6,7.6C144.2,34,151.9,18.7,151.5,2.6z"
	/>
<g>
	<path d="M243.2,59.8c0,15-12.2,19.2-28.7,19.2h-21.2V13.1h18.6c17.7,0,28.5,4.5,28.5,16.8c0,8.4-6,12.7-12.1,14.2
		C235.7,45.5,243.2,49.1,243.2,59.8z M208.9,24.1v15.3h5.8c6.5,0,9.9-2.5,9.9-8c0-5.5-3.6-7.3-11.1-7.3H208.9z M227.1,58.9
		c0-6.7-4.7-9.1-11.4-9.1h-6.8v17.9h5.7C221.9,67.7,227.1,66.2,227.1,58.9z"/>
	<path d="M284.1,27.7l-2.4,14.6c-1.6-0.4-2.9-0.7-4.6-0.7c-6.3,0-8.8,4.7-10.5,12.4v25h-15V28.5h13.1l1.2,9.8
		c2.3-7,7.2-11.2,13-11.2C281,27.1,282.5,27.3,284.1,27.7z"/>
	<path d="M330.7,58.2h-31.3c1,9,5.3,11.5,11.5,11.5c4.1,0,7.7-1.4,12.1-4.5l6.2,8.4c-5,4-11.5,7-19.7,7c-16.8,0-25.4-10.8-25.4-26.6
		c0-15.1,8.3-27.1,23.6-27.1c14.5,0,23.3,9.5,23.3,25.9C331,54.4,330.9,56.7,330.7,58.2z M316.2,48.5c-0.1-6.8-2.2-11.6-8.2-11.6
		c-5,0-8,3.2-8.7,12.3h16.8V48.5z"/>
	<path d="M382.1,70.5l-3.1,9.8c-6-0.5-9.9-2.3-12.2-7.3c-3.6,5.6-9.2,7.6-15.2,7.6c-10.1,0-16.5-6.6-16.5-15.8c0-11,8.4-17,23.7-17
		h5.1v-2.2c0-6-2.4-7.8-8.6-7.8c-3.2,0-8.2,1-13.2,2.7l-3.4-9.9c6.4-2.4,13.3-3.7,19-3.7c14.6,0,20.9,6.2,20.9,17.9v19.6
		C378.6,68.3,379.7,69.7,382.1,70.5z M363.9,65v-8.9h-3.7c-6.8,0-10.2,2.4-10.2,7.4c0,4,2.2,6.4,5.9,6.4
		C359.4,69.9,362.1,68.1,363.9,65z"/>
	<path d="M405.7,79h-15V8.4l15-1.6V79z M421.5,50.7L438.1,79h-16.9l-15-27.6l15.4-22.9h15.3L421.5,50.7z"/>
	<path d="M460.2,24.6v3.9H472L470.4,39h-10.3v40h-15V39h-7.6V28.5h7.6V24c0-9.7,6.4-17.2,19.3-17.2c5.2,0,10.1,1.3,13.8,3.2
		l-4.1,9.8c-2.9-1.4-5.7-1.9-7.9-1.9C461.9,17.9,460.2,19.8,460.2,24.6z"/>
	<path d="M509.4,27.7L507,42.3c-1.6-0.4-2.9-0.7-4.6-0.7c-6.3,0-8.8,4.7-10.5,12.4v25h-15V28.5h13.1l1.2,9.8c2.3-7,7.2-11.2,13-11.2
		C506.3,27.1,507.8,27.3,509.4,27.7z"/>
	<path d="M556,58.2h-31.3c1,9,5.3,11.5,11.5,11.5c4.1,0,7.7-1.4,12.1-4.5l6.2,8.4c-5,4-11.5,7-19.7,7c-16.8,0-25.4-10.8-25.4-26.6
		c0-15.1,8.3-27.1,23.6-27.1c14.5,0,23.3,9.5,23.3,25.9C556.3,54.4,556.2,56.7,556,58.2z M541.6,48.5c-0.1-6.8-2.2-11.6-8.2-11.6
		c-5,0-8,3.2-8.7,12.3h16.8V48.5z"/>
	<path d="M608.5,58.2h-31.3c1,9,5.3,11.5,11.5,11.5c4.1,0,7.7-1.4,12.1-4.5l6.2,8.4c-5,4-11.5,7-19.7,7c-16.8,0-25.4-10.8-25.4-26.6
		c0-15.1,8.3-27.1,23.6-27.1c14.5,0,23.3,9.5,23.3,25.9C608.8,54.4,608.7,56.7,608.5,58.2z M594.1,48.5c-0.1-6.8-2.2-11.6-8.2-11.6
		c-5,0-8,3.2-8.7,12.3h16.8V48.5z"/>
	<path d="M683.7,25.1h-16.3V79h-15.6V25.1h-17v-12h50.4L683.7,25.1z"/>
	<path d="M720.8,27.7l-2.4,14.6c-1.6-0.4-2.9-0.7-4.6-0.7c-6.3,0-8.8,4.7-10.5,12.4v25h-15V28.5h13.1l1.2,9.8
		c2.3-7,7.2-11.2,13-11.2C717.6,27.1,719.2,27.3,720.8,27.7z"/>
	<path d="M766.7,70.5l-3.1,9.8c-6-0.5-9.9-2.3-12.2-7.3c-3.6,5.6-9.2,7.6-15.2,7.6c-10.1,0-16.5-6.6-16.5-15.8c0-11,8.4-17,23.7-17
		h5.1v-2.2c0-6-2.4-7.8-8.6-7.8c-3.2,0-8.2,1-13.2,2.7l-3.4-9.9c6.4-2.4,13.3-3.7,19-3.7c14.6,0,20.9,6.2,20.9,17.9v19.6
		C763.3,68.3,764.3,69.7,766.7,70.5z M748.6,65v-8.9h-3.7c-6.8,0-10.2,2.4-10.2,7.4c0,4,2.2,6.4,5.9,6.4
		C744.1,69.9,746.7,68.1,748.6,65z"/>
	<path d="M820.6,8.4V79h-13.3l-0.8-5.9c-2.9,4.2-7.5,7.5-14.4,7.5c-12.8,0-19.2-10.7-19.2-27c0-15.6,8.2-26.7,20.6-26.7
		c4.9,0,9,1.8,12,4.8V6.8L820.6,8.4z M805.5,63.9V42.1c-2.3-2.7-4.6-4.3-7.9-4.3c-5.3,0-9.1,4.6-9.1,15.9c0,12.6,3.4,15.9,8.3,15.9
		C800.4,69.6,803.1,67.7,805.5,63.9z"/>
	<path d="M848.7,10.4c0,4.9-3.7,8.6-8.9,8.6c-5.2,0-8.8-3.7-8.8-8.6c0-4.9,3.6-8.6,8.8-8.6C845,1.9,848.7,5.6,848.7,10.4z M847.4,79
		h-15V28.5h15V79z"/>
	<path d="M902.7,42.1V79h-15V44.7c0-5.3-1.8-6.8-4.8-6.8c-3.3,0-6.1,2.4-8.8,6.6V79h-15V28.5h13.1l1,6c4.3-5,9.1-7.6,15.4-7.6
		C897.5,26.9,902.7,32.5,902.7,42.1z"/>
	<path d="M960.6,31.4c-3.5,1.4-8.2,2-14.6,2c6.4,2.8,9.5,6.5,9.5,13c0,9.8-8.1,16.9-21.2,16.9c-2.1,0-4-0.2-5.8-0.6
		c-1,0.6-1.6,1.7-1.6,2.9c0,1.5,0.7,3,5.5,3h7.6c11.8,0,19.3,6.2,19.3,14.6c0,10.4-9.1,16.7-26.4,16.7c-19.1,0-24.2-6.3-24.2-16.3
		h13.5c0,4.4,1.9,6.3,11,6.3c8.8,0,10.9-2.5,10.9-5.7c0-2.9-2.2-4.9-7.2-4.9h-7.3c-11,0-15.5-4.6-15.5-10c0-3.7,2.4-7.4,6-9.7
		c-6.5-3.4-9-7.9-9-14.5c0-11.4,8.9-18.5,22.2-18.5c11.2,0.3,17.7-2.9,23.8-6.6L960.6,31.4z M926,45.1c0,5.5,3,8.6,7.6,8.6
		c4.9,0,7.6-2.9,7.6-8.8c0-5.6-2.6-8.2-7.6-8.2C929,36.8,926,39.9,926,45.1z"/>
	<path d="M1040.1,79h-19.9l-19-51.1c0.8,6,2,14.7,2,26.9V79h-13.9V13.1h19.4l19.5,51.2c-0.9-5.3-2.1-14-2.1-24.5V13.1h14V79z"/>
	<path d="M1095.6,70.5l-3.1,9.8c-6-0.5-9.9-2.3-12.2-7.3c-3.6,5.6-9.2,7.6-15.2,7.6c-10.1,0-16.5-6.6-16.5-15.8c0-11,8.4-17,23.7-17
		h5.1v-2.2c0-6-2.4-7.8-8.6-7.8c-3.2,0-8.2,1-13.2,2.7l-3.4-9.9c6.4-2.4,13.3-3.7,19-3.7c14.6,0,20.9,6.2,20.9,17.9v19.6
		C1092.2,68.3,1093.3,69.7,1095.6,70.5z M1077.5,65v-8.9h-3.7c-6.8,0-10.2,2.4-10.2,7.4c0,4,2.2,6.4,5.9,6.4
		C1073,69.9,1075.7,68.1,1077.5,65z"/>
	<path d="M1130.4,79h-17.8l-16.3-50.5h16.4l8.9,39.1l9.3-39.1h15.3L1130.4,79z"/>
	<path d="M1167.9,10.4c0,4.9-3.7,8.6-8.9,8.6s-8.8-3.7-8.8-8.6c0-4.9,3.6-8.6,8.8-8.6S1167.9,5.6,1167.9,10.4z M1166.6,79h-15V28.5
		h15V79z"/>
	<path d="M1224.9,31.4c-3.5,1.4-8.2,2-14.6,2c6.4,2.8,9.5,6.5,9.5,13c0,9.8-8.1,16.9-21.2,16.9c-2.1,0-4-0.2-5.8-0.6
		c-1,0.6-1.6,1.7-1.6,2.9c0,1.5,0.7,3,5.5,3h7.6c11.8,0,19.3,6.2,19.3,14.6c0,10.4-9.1,16.7-26.4,16.7c-19.1,0-24.2-6.3-24.2-16.3
		h13.5c0,4.4,1.9,6.3,11,6.3c8.8,0,10.9-2.5,10.9-5.7c0-2.9-2.2-4.9-7.2-4.9h-7.3c-11,0-15.5-4.6-15.5-10c0-3.7,2.4-7.4,6-9.7
		c-6.5-3.4-9-7.9-9-14.5c0-11.4,8.9-18.5,22.2-18.5c11.2,0.3,17.7-2.9,23.8-6.6L1224.9,31.4z M1190.4,45.1c0,5.5,3,8.6,7.6,8.6
		c4.9,0,7.6-2.9,7.6-8.8c0-5.6-2.6-8.2-7.6-8.2C1193.3,36.8,1190.4,39.9,1190.4,45.1z"/>
	<path d="M1272.2,70.5l-3.1,9.8c-6-0.5-9.9-2.3-12.2-7.3c-3.6,5.6-9.2,7.6-15.2,7.6c-10.1,0-16.5-6.6-16.5-15.8c0-11,8.4-17,23.7-17
		h5.1v-2.2c0-6-2.4-7.8-8.6-7.8c-3.2,0-8.2,1-13.2,2.7l-3.4-9.9c6.4-2.4,13.3-3.7,19-3.7c14.6,0,20.9,6.2,20.9,17.9v19.6
		C1268.7,68.3,1269.8,69.7,1272.2,70.5z M1254,65v-8.9h-3.7c-6.8,0-10.2,2.4-10.2,7.4c0,4,2.2,6.4,5.9,6.4
		C1249.5,69.9,1252.2,68.1,1254,65z"/>
	<path d="M1312.4,76.6c-3.8,2.7-9.1,4-13.7,4c-11.1-0.1-16.6-6.4-16.6-18.3V39h-7.1V28.5h7.1V17.6l15-1.7v12.7h11.6l-1.6,10.5h-10
		v23.2c0,4.9,1.6,6.6,4.8,6.6c1.7,0,3.4-0.5,5.4-1.6L1312.4,76.6z"/>
	<path d="M1362.3,53.8c0,16.2-9.3,26.8-24.7,26.8c-15.3,0-24.7-9.9-24.7-26.9c0-16.2,9.3-26.8,24.7-26.8
		C1353,26.9,1362.3,36.8,1362.3,53.8z M1328.5,53.7c0,11.2,3,15.9,9.1,15.9s9.1-4.9,9.1-15.8c0-11.2-3-15.9-9.1-15.9
		S1328.5,42.8,1328.5,53.7z"/>
	<path d="M1403.7,27.7l-2.4,14.6c-1.6-0.4-2.9-0.7-4.6-0.7c-6.3,0-8.8,4.7-10.5,12.4v25h-15V28.5h13.1l1.2,9.8
		c2.3-7,7.2-11.2,13-11.2C1400.6,27.1,1402.1,27.3,1403.7,27.7z"/>
</g>
</svg>
