<?xml version="1.0" encoding="utf-8"?>
<!-- Generator: Adobe Illustrator 22.1.0, SVG Export Plug-In . SVG Version: 6.00 Build 0)  -->
<svg version="1.1" id="Layer_1" xmlns="http://www.w3.org/2000/svg" xmlns:xlink="http://www.w3.org/1999/xlink" x="0px" y="0px"
	 viewBox="0 0 1198.4 125.5" style="enable-background:new 0 0 1198.4 125.5;" xml:space="preserve">
<path id="XMLID_31_" d="M159.9,67.9c-1.7-3.7-6.3-4.3-9.9-4.6c-8.2-0.2-16.2,2.3-23.4,6.1C109.4,60.7,92.2,52.1,75,43.8
	c-14.7-7.3-29.3-14.9-44.1-21.9c-0.1,4.7,0.3,9.6,1.2,14.2c25.5,12.5,51.1,25,76.6,37.5c-4.8-1.2-9.1-3.7-13.7-5.2
	c-20.5-8.3-40.8-16.8-61.3-24.8c1.5,5.4,3.5,10.5,6.1,15.4c12.1,5.3,24.5,10.5,37.5,15.7c6.5,2.6,12.9,5.1,19.3,7.4
	c1.4,0.5,2.8,1,4.3,1.4c0.1,0,0.1,0.1,0.1,0.1c0,0.2-3.1-0.5-5.9-1.1c-0.2-0.1-1.6-0.3-2.9-0.8c-15.4-5.1-31.2-9.6-46.6-14.9
	c0.6,2.5,2.9,4.1,4.5,6c9.9,10.5,23.8,16.4,37.9,19c-8.9,4.7-18.1,8.7-27.3,12.7c17.8,3.3,36.2,2.3,53.5-3.1
	c15.8-5.1,30.3-13.4,42.5-24.6c0.2,0.6,0.4,1.3,0.6,1.9c0.2,0.8,0.4,1.6,0.6,2.4c0.7-1,2.4-3.2,2.9-6.7
	C161.1,71.4,160.3,69,159.9,67.9z M147.6,74.4c-2.2,0-3.9-1.8-3.9-3.9c0-2.1,1.8-3.9,3.9-3.9s3.9,1.8,3.9,3.9
	C151.5,72.6,149.7,74.4,147.6,74.4z"/>
<path d="M181.9,24.5c-13.1,12.8-27,24.7-41.6,35.7c6.1-1,12.6-2.1,18.6,0.2c3.1,1.3,4.8,4.5,5.6,7.6
	C174.6,55.9,182.3,40.6,181.9,24.5z"/>
<g>
	<path d="M253.7,85.7c0,12-9.8,15.4-23,15.4h-17V48.3h14.9c14.2,0,22.9,3.6,22.9,13.5c0,6.7-4.8,10.2-9.7,11.4
		C247.7,74.3,253.7,77.2,253.7,85.7z M226.2,57.1v12.3h4.6c5.2,0,7.9-2,7.9-6.4c0-4.4-2.9-5.9-8.9-5.9H226.2z M240.8,85
		c0-5.3-3.7-7.3-9.1-7.3h-5.5V92h4.6C236.6,92,240.8,90.8,240.8,85z"/>
	<path d="M286.5,60l-1.9,11.7c-1.3-0.3-2.3-0.5-3.7-0.5c-5,0-7.1,3.7-8.4,9.9v20h-12V60.6H271l1,7.9c1.8-5.6,5.8-9,10.4-9
		C284,59.5,285.2,59.6,286.5,60z"/>
	<path d="M323.8,84.4h-25.1c0.8,7.2,4.3,9.2,9.2,9.2c3.3,0,6.2-1.1,9.7-3.6l5,6.7c-4,3.2-9.2,5.6-15.8,5.6
		c-13.5,0-20.4-8.7-20.4-21.3c0-12.1,6.6-21.7,18.9-21.7C317,59.3,324,67,324,80.1C324,81.4,324,83.2,323.8,84.4z M312.2,76.6
		c-0.1-5.5-1.8-9.3-6.6-9.3c-4,0-6.4,2.6-6.9,9.8h13.5V76.6z"/>
	<path d="M365,94.3l-2.5,7.9c-4.8-0.4-7.9-1.8-9.8-5.9c-2.9,4.5-7.4,6.1-12.2,6.1c-8.1,0-13.2-5.3-13.2-12.7c0-8.8,6.7-13.6,19-13.6
		h4.1v-1.8c0-4.8-1.9-6.2-6.9-6.2c-2.6,0-6.6,0.8-10.6,2.1l-2.7-7.9c5.1-1.9,10.7-3,15.2-3c11.7,0,16.8,5,16.8,14.3v15.7
		C362.2,92.5,363.1,93.6,365,94.3z M350.4,89.9v-7.2h-3c-5.5,0-8.2,1.9-8.2,5.9c0,3.2,1.8,5.1,4.7,5.1
		C346.8,93.8,349,92.3,350.4,89.9z"/>
	<path d="M383.9,101.1h-12V44.6l12-1.3V101.1z M396.6,78.4l13.3,22.7h-13.6l-12-22.1l12.3-18.4h12.3L396.6,78.4z"/>
	<path d="M427.5,57.5v3.1h9.5l-1.3,8.4h-8.2v32.1h-12V69h-6.1v-8.4h6.1v-3.6c0-7.8,5.1-13.8,15.5-13.8c4.2,0,8.1,1.1,11.1,2.6
		l-3.3,7.9c-2.3-1.1-4.6-1.5-6.3-1.5C428.9,52.2,427.5,53.7,427.5,57.5z"/>
	<path d="M467,60l-1.9,11.7c-1.3-0.3-2.3-0.5-3.7-0.5c-5,0-7.1,3.7-8.4,9.9v20h-12V60.6h10.5l1,7.9c1.8-5.6,5.8-9,10.4-9
		C464.5,59.5,465.7,59.6,467,60z"/>
	<path d="M504.4,84.4h-25.1c0.8,7.2,4.3,9.2,9.2,9.2c3.3,0,6.2-1.1,9.7-3.6l5,6.7c-4,3.2-9.2,5.6-15.8,5.6
		c-13.5,0-20.4-8.7-20.4-21.3c0-12.1,6.6-21.7,18.9-21.7c11.6,0,18.7,7.6,18.7,20.7C504.6,81.4,504.5,83.2,504.4,84.4z M492.8,76.6
		c-0.1-5.5-1.8-9.3-6.6-9.3c-4,0-6.4,2.6-6.9,9.8h13.5V76.6z"/>
	<path d="M546.5,84.4h-25.1c0.8,7.2,4.3,9.2,9.2,9.2c3.3,0,6.2-1.1,9.7-3.6l5,6.7c-4,3.2-9.2,5.6-15.8,5.6
		c-13.5,0-20.4-8.7-20.4-21.3c0-12.1,6.6-21.7,18.9-21.7c11.6,0,18.7,7.6,18.7,20.7C546.7,81.4,546.6,83.2,546.5,84.4z M534.9,76.6
		c-0.1-5.5-1.8-9.3-6.6-9.3c-4,0-6.4,2.6-6.9,9.8h13.5V76.6z"/>
	<path d="M606.7,57.9h-13v43.2h-12.5V57.9h-13.6v-9.6h40.4L606.7,57.9z"/>
	<path d="M636.4,60l-1.9,11.7c-1.3-0.3-2.3-0.5-3.7-0.5c-5,0-7.1,3.7-8.4,9.9v20h-12V60.6h10.5l1,7.9c1.8-5.6,5.8-9,10.4-9
		C633.9,59.5,635.1,59.6,636.4,60z"/>
	<path d="M673.2,94.3l-2.5,7.9c-4.8-0.4-7.9-1.8-9.8-5.9c-2.9,4.5-7.4,6.1-12.2,6.1c-8.1,0-13.2-5.3-13.2-12.7
		c0-8.8,6.7-13.6,19-13.6h4.1v-1.8c0-4.8-1.9-6.2-6.9-6.2c-2.6,0-6.6,0.8-10.6,2.1l-2.7-7.9c5.1-1.9,10.7-3,15.2-3
		c11.7,0,16.8,5,16.8,14.3v15.7C670.5,92.5,671.3,93.6,673.2,94.3z M658.6,89.9v-7.2h-3c-5.5,0-8.2,1.9-8.2,5.9
		c0,3.2,1.8,5.1,4.7,5.1C655.1,93.8,657.2,92.3,658.6,89.9z"/>
	<path d="M716.3,44.6v56.6h-10.7l-0.6-4.7c-2.4,3.4-6,6-11.5,6c-10.3,0-15.4-8.5-15.4-21.6c0-12.5,6.6-21.4,16.5-21.4
		c4,0,7.2,1.4,9.6,3.8V43.3L716.3,44.6z M704.3,89V71.5c-1.8-2.1-3.7-3.4-6.3-3.4c-4.3,0-7.3,3.7-7.3,12.7c0,10.1,2.7,12.7,6.6,12.7
		C700.2,93.6,702.4,92,704.3,89z"/>
	<path d="M738.9,46.2c0,3.9-3,6.9-7.2,6.9c-4.2,0-7.1-3-7.1-6.9c0-3.9,2.9-6.9,7.1-6.9C735.9,39.3,738.9,42.3,738.9,46.2z
		 M737.8,101.1h-12V60.6h12V101.1z"/>
	<path d="M782.2,71.5v29.6h-12V73.6c0-4.3-1.4-5.4-3.8-5.4c-2.7,0-4.9,1.9-7,5.3v27.7h-12V60.6h10.5l0.8,4.8c3.4-4,7.3-6.1,12.3-6.1
		C778,59.3,782.2,63.8,782.2,71.5z"/>
	<path d="M828.5,63c-2.8,1.1-6.6,1.6-11.7,1.6c5.1,2.2,7.6,5.2,7.6,10.4c0,7.9-6.5,13.6-17,13.6c-1.7,0-3.2-0.2-4.6-0.5
		c-0.8,0.5-1.3,1.4-1.3,2.3c0,1.2,0.5,2.4,4.4,2.4h6.1c9.5,0,15.5,5,15.5,11.7c0,8.3-7.3,13.4-21.2,13.4c-15.3,0-19.4-5-19.4-13
		h10.8c0,3.5,1.5,5,8.8,5c7.1,0,8.8-2,8.8-4.6c0-2.4-1.8-4-5.8-4h-5.9c-8.8,0-12.4-3.7-12.4-8c0-3,1.9-5.9,4.8-7.8
		c-5.2-2.7-7.2-6.3-7.2-11.6c0-9.1,7.2-14.8,17.8-14.8c9,0.2,14.2-2.4,19.1-5.3L828.5,63z M800.9,74c0,4.4,2.4,6.9,6.1,6.9
		c4,0,6.1-2.4,6.1-7c0-4.5-2.1-6.6-6.1-6.6C803.2,67.3,800.9,69.8,800.9,74z"/>
	<path d="M892.3,101.1h-15.9l-15.2-40.9c0.6,4.8,1.6,11.8,1.6,21.6v19.4h-11.1V48.3h15.5l15.6,41c-0.7-4.3-1.7-11.2-1.7-19.7V48.3
		h11.2V101.1z"/>
	<path d="M936.8,94.3l-2.5,7.9c-4.8-0.4-7.9-1.8-9.8-5.9c-2.9,4.5-7.4,6.1-12.2,6.1c-8.1,0-13.2-5.3-13.2-12.7
		c0-8.8,6.7-13.6,19-13.6h4.1v-1.8c0-4.8-1.9-6.2-6.9-6.2c-2.6,0-6.6,0.8-10.6,2.1l-2.7-7.9c5.1-1.9,10.7-3,15.2-3
		c11.7,0,16.8,5,16.8,14.3v15.7C934,92.5,934.9,93.6,936.8,94.3z M922.2,89.9v-7.2h-3c-5.5,0-8.2,1.9-8.2,5.9c0,3.2,1.8,5.1,4.7,5.1
		C918.6,93.8,920.8,92.3,922.2,89.9z"/>
	<path d="M964.6,101.1h-14.3l-13-40.5h13.1l7.2,31.3l7.5-31.3h12.3L964.6,101.1z"/>
	<path d="M994.7,46.2c0,3.9-3,6.9-7.2,6.9c-4.2,0-7.1-3-7.1-6.9c0-3.9,2.9-6.9,7.1-6.9C991.7,39.3,994.7,42.3,994.7,46.2z
		 M993.6,101.1h-12V60.6h12V101.1z"/>
	<path d="M1040.4,63c-2.8,1.1-6.6,1.6-11.7,1.6c5.1,2.2,7.6,5.2,7.6,10.4c0,7.9-6.5,13.6-17,13.6c-1.7,0-3.2-0.2-4.6-0.5
		c-0.8,0.5-1.3,1.4-1.3,2.3c0,1.2,0.5,2.4,4.4,2.4h6.1c9.5,0,15.5,5,15.5,11.7c0,8.3-7.3,13.4-21.2,13.4c-15.3,0-19.4-5-19.4-13
		h10.8c0,3.5,1.5,5,8.8,5c7.1,0,8.8-2,8.8-4.6c0-2.4-1.8-4-5.8-4h-5.9c-8.8,0-12.4-3.7-12.4-8c0-3,1.9-5.9,4.8-7.8
		c-5.2-2.7-7.2-6.3-7.2-11.6c0-9.1,7.2-14.8,17.8-14.8c9,0.2,14.2-2.4,19.1-5.3L1040.4,63z M1012.7,74c0,4.4,2.4,6.9,6.1,6.9
		c4,0,6.1-2.4,6.1-7c0-4.5-2.1-6.6-6.1-6.6C1015,67.3,1012.7,69.8,1012.7,74z"/>
	<path d="M1078.2,94.3l-2.5,7.9c-4.8-0.4-7.9-1.8-9.8-5.9c-2.9,4.5-7.4,6.1-12.2,6.1c-8.1,0-13.2-5.3-13.2-12.7
		c0-8.8,6.7-13.6,19-13.6h4.1v-1.8c0-4.8-1.9-6.2-6.9-6.2c-2.6,0-6.6,0.8-10.6,2.1l-2.7-7.9c5.1-1.9,10.7-3,15.2-3
		c11.7,0,16.8,5,16.8,14.3v15.7C1075.5,92.5,1076.3,93.6,1078.2,94.3z M1063.7,89.9v-7.2h-3c-5.5,0-8.2,1.9-8.2,5.9
		c0,3.2,1.8,5.1,4.7,5.1C1060.1,93.8,1062.2,92.3,1063.7,89.9z"/>
	<path d="M1110.5,99.2c-3,2.1-7.3,3.2-11,3.2c-8.9-0.1-13.3-5.1-13.3-14.6V69h-5.7v-8.4h5.7v-8.8l12-1.4v10.1h9.3l-1.3,8.4h-8v18.6
		c0,3.9,1.3,5.3,3.8,5.3c1.4,0,2.7-0.4,4.3-1.3L1110.5,99.2z"/>
	<path d="M1150.5,80.9c0,13-7.5,21.5-19.8,21.5c-12.3,0-19.8-7.9-19.8-21.6c0-13,7.5-21.5,19.8-21.5
		C1143,59.3,1150.5,67.3,1150.5,80.9z M1123.4,80.8c0,9,2.4,12.7,7.3,12.7s7.3-3.9,7.3-12.7c0-9-2.4-12.7-7.3-12.7
		S1123.4,72.1,1123.4,80.8z"/>
	<path d="M1183.6,60l-1.9,11.7c-1.3-0.3-2.3-0.5-3.7-0.5c-5,0-7.1,3.7-8.4,9.9v20h-12V60.6h10.5l1,7.9c1.8-5.6,5.8-9,10.4-9
		C1181.1,59.5,1182.3,59.6,1183.6,60z"/>
</g>
</svg>
