<?xml version="1.0" encoding="UTF-8" standalone="no"?>
<svg
   xmlns:dc="http://purl.org/dc/elements/1.1/"
   xmlns:cc="http://creativecommons.org/ns#"
   xmlns:rdf="http://www.w3.org/1999/02/22-rdf-syntax-ns#"
   xmlns:svg="http://www.w3.org/2000/svg"
   xmlns="http://www.w3.org/2000/svg"
   xmlns:sodipodi="http://sodipodi.sourceforge.net/DTD/sodipodi-0.dtd"
   xmlns:inkscape="http://www.inkscape.org/namespaces/inkscape"
   version="1.1"
   id="Layer_1"
   x="0px"
   y="0px"
   viewBox="0 0 151.02991 84.493806"
   xml:space="preserve"
   sodipodi:docname="bftnavigatorlogo.svg"
   width="151.02991"
   height="84.493805"
   inkscape:version="1.0.1 (3bc2e813f5, 2020-09-07)"><metadata
   id="metadata62"><rdf:RDF><cc:Work
       rdf:about=""><dc:format>image/svg+xml</dc:format><dc:type
         rdf:resource="http://purl.org/dc/dcmitype/StillImage" /><dc:title></dc:title></cc:Work></rdf:RDF></metadata><defs
   id="defs60" /><sodipodi:namedview
   pagecolor="#ffffff"
   bordercolor="#666666"
   borderopacity="1"
   objecttolerance="10"
   gridtolerance="10"
   guidetolerance="10"
   inkscape:pageopacity="0"
   inkscape:pageshadow="2"
   inkscape:window-width="3840"
   inkscape:window-height="2080"
   id="namedview58"
   showgrid="false"
   inkscape:zoom="1.002351"
   inkscape:cx="701.36498"
   inkscape:cy="50.049999"
   inkscape:window-x="-11"
   inkscape:window-y="-11"
   inkscape:window-maximized="1"
   inkscape:current-layer="Layer_1" />
<path
   id="XMLID_31_"
   d="m 128.915,46 c -1.7,-3.7 -6.3,-4.3 -9.9,-4.6 -8.2,-0.2 -16.2,2.3 -23.4,6.1 -17.1,-8.7 -34.4,-17.4 -51.6,-25.6 -14.7,-7.3 -29.2,-14.9 -44,-21.9 -0.1,4.7 0.3,9.6 1.2,14.2 25.5,12.5 51.1,25 76.6,37.5 -4.8,-1.2 -9.1,-3.7 -13.7,-5.2 -20.5,-8.2 -40.9,-16.8 -61.4,-24.8 1.5,5.4 3.5,10.5 6.1,15.4 12.1,5.3 24.5,10.5 37.5,15.7 6.5,2.6 12.9,5.1 19.3,7.4 1.4,0.5 2.8,1 4.3,1.4 0.1,0 0.1,0.1 0.1,0.1 0,0.2 -3.1,-0.5 -5.9,-1.1 -0.2,-0.1 -1.6,-0.3 -2.9,-0.8 -15.5,-5.1 -31.3,-9.6 -46.7,-14.9 0.6,2.5 2.9,4.1 4.5,6 9.9,10.5 23.8,16.4 37.9,19 -8.9,4.7 -18.1,8.7 -27.3,12.7 17.8,3.3 36.2,2.3 53.5,-3.1 15.8,-5.1 30.3,-13.4 42.5,-24.6 0.2,0.6 0.4,1.3 0.6,1.9 0.2,0.8 0.4,1.6 0.6,2.4 0.7,-1 2.4,-3.2 2.9,-6.7 0.4,-3 -0.3,-5.4 -0.8,-6.5 z m -12.2,6.5 c -2.2,0 -3.9,-1.8 -3.9,-3.9 0,-2.1 1.8,-3.9 3.9,-3.9 2.1,0 3.9,1.8 3.9,3.9 0,2.1 -1.8,3.9 -3.9,3.9 z" />
<path
   d="m 151.015,2.6 c -13.1,12.8 -27,24.7 -41.6,35.7 6.1,-1 12.6,-2.1 18.6,0.2 3.1,1.3 4.8,4.5 5.6,7.6 10.1,-12.1 17.8,-27.4 17.4,-43.5 z"
   id="path3" />

</svg>
