<?xml version="1.0" encoding="utf-8"?>
<!-- Generator: Adobe Illustrator 22.1.0, SVG Export Plug-In . SVG Version: 6.00 Build 0)  -->
<svg version="1.1" id="Layer_1" xmlns="http://www.w3.org/2000/svg" xmlns:xlink="http://www.w3.org/1999/xlink" x="0px" y="0px"
	 viewBox="0 0 1248.8 125.5" style="enable-background:new 0 0 1248.8 125.5;" xml:space="preserve">
<path id="XMLID_31_" d="M159.9,67.9c-1.7-3.7-6.3-4.3-9.9-4.6c-8.2-0.2-16.2,2.3-23.4,6.1C109.4,60.7,92.2,52.1,75,43.8
	c-14.7-7.3-29.3-14.9-44.1-21.9c-0.1,4.7,0.3,9.6,1.2,14.2c25.5,12.5,51.1,25,76.6,37.5c-4.8-1.2-9.1-3.7-13.7-5.2
	c-20.5-8.3-40.8-16.8-61.3-24.8c1.5,5.4,3.5,10.5,6.1,15.4c12.1,5.3,24.5,10.5,37.5,15.7c6.5,2.6,12.9,5.1,19.3,7.4
	c1.4,0.5,2.8,1,4.3,1.4c0.1,0,0.1,0.1,0.1,0.1c0,0.2-3.1-0.5-5.9-1.1c-0.2-0.1-1.6-0.3-2.9-0.8c-15.4-5.1-31.2-9.6-46.6-14.9
	c0.6,2.5,2.9,4.1,4.5,6c9.9,10.5,23.8,16.4,37.9,19c-8.9,4.7-18.1,8.7-27.3,12.7c17.8,3.3,36.2,2.3,53.5-3.1
	c15.8-5.1,30.3-13.4,42.5-24.6c0.2,0.6,0.4,1.3,0.6,1.9c0.2,0.8,0.4,1.6,0.6,2.4c0.7-1,2.4-3.2,2.9-6.7
	C161.1,71.4,160.3,69,159.9,67.9z M147.6,74.4c-2.2,0-3.9-1.8-3.9-3.9c0-2.1,1.8-3.9,3.9-3.9s3.9,1.8,3.9,3.9
	C151.5,72.6,149.7,74.4,147.6,74.4z"/>
<path d="M181.9,24.5c-13.1,12.8-27,24.7-41.6,35.7c6.1-1,12.6-2.1,18.6,0.2c3.1,1.3,4.8,4.5,5.6,7.6
	C174.6,55.9,182.3,40.6,181.9,24.5z"/>
<g>
	<path d="M266,87.9c0,12.7-10.3,16.3-24.3,16.3h-18V48.3h15.8c15,0,24.2,3.8,24.2,14.3c0,7.1-5.1,10.8-10.2,12
		C259.6,75.8,266,78.9,266,87.9z M236.9,57.7v13h4.9c5.5,0,8.4-2.1,8.4-6.8c0-4.7-3.1-6.2-9.4-6.2H236.9z M252.4,87.1
		c0-5.6-3.9-7.7-9.7-7.7h-5.8v15.1h4.8C247.9,94.6,252.4,93.3,252.4,87.1z"/>
	<path d="M300.6,60.7l-2,12.3c-1.4-0.3-2.4-0.6-3.9-0.6c-5.3,0-7.5,3.9-8.9,10.5v21.2h-12.7V61.4h11.1l1,8.3c1.9-6,6.1-9.5,11-9.5
		C297.9,60.2,299.2,60.3,300.6,60.7z"/>
	<path d="M340.1,86.5h-26.5c0.9,7.7,4.5,9.7,9.7,9.7c3.5,0,6.5-1.2,10.2-3.8l5.2,7.1c-4.3,3.4-9.7,6-16.7,6
		c-14.3,0-21.5-9.2-21.5-22.6c0-12.8,7-23,20-23c12.2,0,19.7,8.1,19.7,21.9C340.3,83.3,340.2,85.2,340.1,86.5z M327.8,78.3
		c-0.1-5.8-1.9-9.8-6.9-9.8c-4.3,0-6.8,2.7-7.3,10.4h14.3V78.3z"/>
	<path d="M383.6,97l-2.7,8.3c-5.1-0.4-8.4-1.9-10.3-6.2c-3.1,4.8-7.8,6.4-12.9,6.4c-8.5,0-13.9-5.6-13.9-13.4
		c0-9.3,7.1-14.4,20.1-14.4h4.4v-1.9c0-5.1-2-6.6-7.3-6.6c-2.7,0-6.9,0.8-11.2,2.3l-2.9-8.4c5.4-2,11.3-3.1,16.1-3.1
		c12.4,0,17.7,5.2,17.7,15.1v16.6C380.7,95,381.6,96.3,383.6,97z M368.2,92.3v-7.6H365c-5.8,0-8.6,2-8.6,6.3c0,3.4,1.9,5.4,5,5.4
		C364.4,96.4,366.7,94.9,368.2,92.3z"/>
	<path d="M403.5,104.1h-12.7V44.4l12.7-1.4V104.1z M417,80.1l14,24h-14.3l-12.7-23.4L417,61.4h13L417,80.1z"/>
	<path d="M449.7,58.1v3.3h10.1l-1.4,8.9h-8.7v33.9H437V70.2h-6.4v-8.9h6.4v-3.8c0-8.2,5.4-14.6,16.4-14.6c4.4,0,8.5,1.1,11.7,2.7
		l-3.5,8.3c-2.4-1.2-4.8-1.6-6.7-1.6C451.2,52.4,449.7,54,449.7,58.1z"/>
	<path d="M491.4,60.7l-2,12.3c-1.4-0.3-2.4-0.6-3.9-0.6c-5.3,0-7.5,3.9-8.9,10.5v21.2H464V61.4h11.1l1,8.3c1.9-6,6.1-9.5,11-9.5
		C488.8,60.2,490.1,60.3,491.4,60.7z"/>
	<path d="M530.9,86.5h-26.5c0.9,7.7,4.5,9.7,9.7,9.7c3.5,0,6.5-1.2,10.2-3.8l5.2,7.1c-4.3,3.4-9.7,6-16.7,6
		c-14.3,0-21.5-9.2-21.5-22.6c0-12.8,7-23,20-23c12.2,0,19.7,8.1,19.7,21.9C531.1,83.3,531.1,85.2,530.9,86.5z M518.7,78.3
		c-0.1-5.8-1.9-9.8-6.9-9.8c-4.3,0-6.8,2.7-7.3,10.4h14.3V78.3z"/>
	<path d="M575.4,86.5h-26.5c0.9,7.7,4.5,9.7,9.7,9.7c3.5,0,6.5-1.2,10.2-3.8l5.2,7.1c-4.3,3.4-9.7,6-16.7,6
		c-14.3,0-21.5-9.2-21.5-22.6c0-12.8,7-23,20-23c12.2,0,19.7,8.1,19.7,21.9C575.6,83.3,575.5,85.2,575.4,86.5z M563.1,78.3
		c-0.1-5.8-1.9-9.8-6.9-9.8c-4.3,0-6.8,2.7-7.3,10.4h14.3V78.3z"/>
	<path d="M639,58.5h-13.8v45.7H612V58.5h-14.4V48.3h42.7L639,58.5z"/>
	<path d="M670.4,60.7l-2,12.3c-1.4-0.3-2.4-0.6-3.9-0.6c-5.3,0-7.5,3.9-8.9,10.5v21.2h-12.7V61.4h11.1l1,8.3c1.9-6,6.1-9.5,11-9.5
		C667.7,60.2,669,60.3,670.4,60.7z"/>
	<path d="M709.3,97l-2.7,8.3c-5.1-0.4-8.4-1.9-10.3-6.2c-3.1,4.8-7.8,6.4-12.9,6.4c-8.5,0-13.9-5.6-13.9-13.4
		c0-9.3,7.1-14.4,20.1-14.4h4.4v-1.9c0-5.1-2-6.6-7.3-6.6c-2.7,0-6.9,0.8-11.2,2.3l-2.9-8.4c5.4-2,11.3-3.1,16.1-3.1
		c12.4,0,17.7,5.2,17.7,15.1v16.6C706.4,95,707.3,96.3,709.3,97z M693.9,92.3v-7.6h-3.1c-5.8,0-8.6,2-8.6,6.3c0,3.4,1.9,5.4,5,5.4
		C690.1,96.4,692.4,94.9,693.9,92.3z"/>
	<path d="M754.9,44.4v59.8h-11.3l-0.6-5c-2.5,3.5-6.4,6.4-12.2,6.4c-10.9,0-16.3-9-16.3-22.9c0-13.2,6.9-22.6,17.5-22.6
		c4.2,0,7.7,1.5,10.1,4V43L754.9,44.4z M742.2,91.3V72.9c-1.9-2.3-3.9-3.6-6.7-3.6c-4.5,0-7.7,3.9-7.7,13.5c0,10.6,2.9,13.5,7,13.5
		C737.8,96.2,740.2,94.6,742.2,91.3z"/>
	<path d="M778.7,46.1c0,4.1-3.1,7.2-7.6,7.2c-4.4,0-7.5-3.1-7.5-7.2c0-4.1,3.1-7.3,7.5-7.3C775.6,38.8,778.7,42,778.7,46.1z
		 M777.6,104.1h-12.7V61.4h12.7V104.1z"/>
	<path d="M824.5,72.9v31.3h-12.7V75.1c0-4.5-1.5-5.7-4-5.7c-2.8,0-5.2,2-7.4,5.6v29.2h-12.7V61.4h11.1l0.9,5.1
		c3.6-4.3,7.7-6.4,13.1-6.4C820.1,60,824.5,64.8,824.5,72.9z"/>
	<path d="M873.5,63.9c-3,1.2-6.9,1.7-12.3,1.7c5.4,2.3,8.1,5.5,8.1,11c0,8.3-6.8,14.3-18,14.3c-1.8,0-3.4-0.2-4.9-0.5
		c-0.9,0.5-1.4,1.5-1.4,2.4c0,1.3,0.6,2.6,4.7,2.6h6.4c10,0,16.4,5.2,16.4,12.4c0,8.8-7.7,14.2-22.4,14.2
		c-16.2,0-20.5-5.3-20.5-13.8H841c0,3.7,1.6,5.3,9.3,5.3c7.5,0,9.3-2.1,9.3-4.8c0-2.5-1.9-4.2-6.1-4.2h-6.2
		c-9.3,0-13.1-3.9-13.1-8.5c0-3.1,2-6.3,5.1-8.2c-5.5-2.9-7.7-6.7-7.7-12.2c0-9.7,7.6-15.6,18.8-15.6c9.5,0.2,15-2.5,20.1-5.6
		L873.5,63.9z M844.2,75.5c0,4.7,2.6,7.3,6.4,7.3c4.2,0,6.4-2.5,6.4-7.4c0-4.8-2.2-6.9-6.4-6.9C846.7,68.4,844.2,71,844.2,75.5z"/>
	<path d="M940.8,104.1H924l-16.1-43.3c0.6,5.1,1.7,12.5,1.7,22.8v20.5h-11.8V48.3h16.4l16.5,43.3c-0.7-4.5-1.8-11.8-1.8-20.8V48.3
		h11.8V104.1z"/>
	<path d="M987.9,97l-2.7,8.3c-5.1-0.4-8.4-1.9-10.3-6.2c-3.1,4.8-7.8,6.4-12.9,6.4c-8.5,0-13.9-5.6-13.9-13.4
		c0-9.3,7.1-14.4,20.1-14.4h4.4v-1.9c0-5.1-2-6.6-7.3-6.6c-2.7,0-6.9,0.8-11.2,2.3l-2.9-8.4c5.4-2,11.3-3.1,16.1-3.1
		c12.4,0,17.7,5.2,17.7,15.1v16.6C985,95,985.8,96.3,987.9,97z M972.5,92.3v-7.6h-3.1c-5.8,0-8.6,2-8.6,6.3c0,3.4,1.9,5.4,5,5.4
		C968.7,96.4,970.9,94.9,972.5,92.3z"/>
	<path d="M1017.3,104.1h-15.1l-13.8-42.8h13.9l7.6,33.1l7.9-33.1h13L1017.3,104.1z"/>
	<path d="M1049.1,46.1c0,4.1-3.1,7.2-7.6,7.2s-7.5-3.1-7.5-7.2c0-4.1,3.1-7.3,7.5-7.3S1049.1,42,1049.1,46.1z M1047.9,104.1h-12.7
		V61.4h12.7V104.1z"/>
	<path d="M1097.3,63.9c-3,1.2-6.9,1.7-12.3,1.7c5.4,2.3,8.1,5.5,8.1,11c0,8.3-6.8,14.3-18,14.3c-1.8,0-3.4-0.2-4.9-0.5
		c-0.9,0.5-1.4,1.5-1.4,2.4c0,1.3,0.6,2.6,4.7,2.6h6.4c10,0,16.4,5.2,16.4,12.4c0,8.8-7.7,14.2-22.4,14.2
		c-16.2,0-20.5-5.3-20.5-13.8h11.4c0,3.7,1.6,5.3,9.3,5.3c7.5,0,9.3-2.1,9.3-4.8c0-2.5-1.9-4.2-6.1-4.2h-6.2
		c-9.3,0-13.1-3.9-13.1-8.5c0-3.1,2-6.3,5.1-8.2c-5.5-2.9-7.7-6.7-7.7-12.2c0-9.7,7.6-15.6,18.8-15.6c9.5,0.2,15-2.5,20.1-5.6
		L1097.3,63.9z M1068.1,75.5c0,4.7,2.6,7.3,6.4,7.3c4.2,0,6.4-2.5,6.4-7.4c0-4.8-2.2-6.9-6.4-6.9C1070.6,68.4,1068.1,71,1068.1,75.5
		z"/>
	<path d="M1137.4,97l-2.7,8.3c-5.1-0.4-8.4-1.9-10.3-6.2c-3.1,4.8-7.8,6.4-12.9,6.4c-8.5,0-13.9-5.6-13.9-13.4
		c0-9.3,7.1-14.4,20.1-14.4h4.4v-1.9c0-5.1-2-6.6-7.3-6.6c-2.7,0-6.9,0.8-11.2,2.3l-2.9-8.4c5.4-2,11.3-3.1,16.1-3.1
		c12.4,0,17.7,5.2,17.7,15.1v16.6C1134.5,95,1135.3,96.3,1137.4,97z M1122,92.3v-7.6h-3.1c-5.8,0-8.6,2-8.6,6.3c0,3.4,1.9,5.4,5,5.4
		C1118.2,96.4,1120.4,94.9,1122,92.3z"/>
	<path d="M1171.4,102.1c-3.2,2.3-7.7,3.4-11.6,3.4c-9.4-0.1-14-5.4-14-15.5V70.2h-6v-8.9h6v-9.3l12.7-1.4v10.7h9.8l-1.4,8.9h-8.5
		v19.7c0,4.1,1.4,5.6,4,5.6c1.5,0,2.9-0.4,4.6-1.4L1171.4,102.1z"/>
	<path d="M1213.7,82.8c0,13.7-7.9,22.7-20.9,22.7c-13,0-20.9-8.4-20.9-22.8c0-13.7,7.9-22.7,20.9-22.7
		C1205.8,60,1213.7,68.4,1213.7,82.8z M1185,82.7c0,9.5,2.6,13.5,7.7,13.5s7.7-4.1,7.7-13.4c0-9.5-2.6-13.5-7.7-13.5
		S1185,73.5,1185,82.7z"/>
	<path d="M1248.8,60.7l-2,12.3c-1.4-0.3-2.4-0.6-3.9-0.6c-5.3,0-7.5,3.9-8.9,10.5v21.2h-12.7V61.4h11.1l1,8.3c1.9-6,6.1-9.5,11-9.5
		C1246.1,60.2,1247.4,60.3,1248.8,60.7z"/>
</g>
</svg>
