<?xml version="1.0" encoding="utf-8"?>
<!-- Generator: Adobe Illustrator 22.1.0, SVG Export Plug-In . SVG Version: 6.00 Build 0)  -->
<svg version="1.1" id="Layer_1" xmlns="http://www.w3.org/2000/svg" xmlns:xlink="http://www.w3.org/1999/xlink" x="0px" y="0px"
	 viewBox="0 0 1839.1 125.5" style="enable-background:new 0 0 1839.1 125.5;" xml:space="preserve">
<path id="XMLID_31_" d="M159.9,67.9c-1.7-3.7-6.3-4.3-9.9-4.6c-8.2-0.2-16.2,2.3-23.4,6.1C109.4,60.7,92.2,52.1,75,43.8
	c-14.7-7.3-29.3-14.9-44.1-21.9c-0.1,4.7,0.3,9.6,1.2,14.2c25.5,12.5,51.1,25,76.6,37.5c-4.8-1.2-9.1-3.7-13.7-5.2
	c-20.5-8.3-40.8-16.8-61.3-24.8c1.5,5.4,3.5,10.5,6.1,15.4c12.1,5.3,24.5,10.5,37.5,15.7c6.5,2.6,12.9,5.1,19.3,7.4
	c1.4,0.5,2.8,1,4.3,1.4c0.1,0,0.1,0.1,0.1,0.1c0,0.2-3.1-0.5-5.9-1.1c-0.2-0.1-1.6-0.3-2.9-0.8c-15.4-5.1-31.2-9.6-46.6-14.9
	c0.6,2.5,2.9,4.1,4.5,6c9.9,10.5,23.8,16.4,37.9,19c-8.9,4.7-18.1,8.7-27.3,12.7c17.8,3.3,36.2,2.3,53.5-3.1
	c15.8-5.1,30.3-13.4,42.5-24.6c0.2,0.6,0.4,1.3,0.6,1.9c0.2,0.8,0.4,1.6,0.6,2.4c0.7-1,2.4-3.2,2.9-6.7
	C161.1,71.4,160.3,69,159.9,67.9z M147.6,74.4c-2.2,0-3.9-1.8-3.9-3.9c0-2.1,1.8-3.9,3.9-3.9s3.9,1.8,3.9,3.9
	C151.5,72.6,149.7,74.4,147.6,74.4z"/>
<path d="M181.9,24.5c-13.1,12.8-27,24.7-41.6,35.7c6.1-1,12.6-2.1,18.6,0.2c3.1,1.3,4.8,4.5,5.6,7.6
	C174.6,55.9,182.3,40.6,181.9,24.5z"/>
<g>
	<path d="M273.6,81.7c0,15-12.2,19.2-28.7,19.2h-21.2V35h18.6c17.7,0,28.5,4.5,28.5,16.8c0,8.4-6,12.7-12.1,14.2
		C266.1,67.4,273.6,71,273.6,81.7z M239.3,46v15.3h5.8c6.5,0,9.9-2.5,9.9-8c0-5.5-3.6-7.3-11.1-7.3H239.3z M257.5,80.8
		c0-6.7-4.7-9.1-11.4-9.1h-6.8v17.9h5.7C252.3,89.6,257.5,88.1,257.5,80.8z"/>
	<path d="M314.5,49.6l-2.4,14.6c-1.6-0.4-2.9-0.7-4.6-0.7c-6.3,0-8.8,4.7-10.5,12.4v25h-15V50.4h13.1l1.2,9.8
		c2.3-7,7.2-11.2,13-11.2C311.4,49,312.9,49.2,314.5,49.6z"/>
	<path d="M361.1,80.1h-31.3c1,9,5.3,11.5,11.5,11.5c4.1,0,7.7-1.4,12.1-4.5l6.2,8.4c-5,4-11.5,7-19.7,7c-16.8,0-25.4-10.8-25.4-26.6
		c0-15.1,8.3-27.1,23.6-27.1c14.5,0,23.3,9.5,23.3,25.9C361.4,76.3,361.3,78.6,361.1,80.1z M346.7,70.4c-0.1-6.8-2.2-11.6-8.2-11.6
		c-5,0-8,3.2-8.7,12.3h16.8V70.4z"/>
	<path d="M412.5,92.4l-3.1,9.8c-6-0.5-9.9-2.3-12.2-7.3c-3.6,5.6-9.2,7.6-15.2,7.6c-10.1,0-16.5-6.6-16.5-15.8c0-11,8.4-17,23.7-17
		h5.1v-2.2c0-6-2.4-7.8-8.6-7.8c-3.2,0-8.2,1-13.2,2.7l-3.4-9.9c6.4-2.4,13.3-3.7,19-3.7c14.6,0,20.9,6.2,20.9,17.9v19.6
		C409.1,90.2,410.1,91.6,412.5,92.4z M394.3,86.9V78h-3.7c-6.8,0-10.2,2.4-10.2,7.4c0,4,2.2,6.4,5.9,6.4
		C389.8,91.8,392.5,90,394.3,86.9z"/>
	<path d="M436.1,100.9h-15V30.3l15-1.6V100.9z M452,72.6l16.6,28.3h-16.9l-15-27.6L452,50.4h15.3L452,72.6z"/>
	<path d="M490.6,46.5v3.9h11.9l-1.6,10.5h-10.3v40h-15v-40h-7.6V50.4h7.6v-4.5c0-9.7,6.4-17.2,19.3-17.2c5.2,0,10.1,1.3,13.8,3.2
		l-4.1,9.8c-2.9-1.4-5.7-1.9-7.9-1.9C492.3,39.8,490.6,41.7,490.6,46.5z"/>
	<path d="M539.8,49.6l-2.4,14.6c-1.6-0.4-2.9-0.7-4.6-0.7c-6.3,0-8.8,4.7-10.5,12.4v25h-15V50.4h13.1l1.2,9.8
		c2.3-7,7.2-11.2,13-11.2C536.7,49,538.2,49.2,539.8,49.6z"/>
	<path d="M586.5,80.1h-31.3c1,9,5.3,11.5,11.5,11.5c4.1,0,7.7-1.4,12.1-4.5l6.2,8.4c-5,4-11.5,7-19.7,7c-16.8,0-25.4-10.8-25.4-26.6
		c0-15.1,8.3-27.1,23.6-27.1c14.5,0,23.3,9.5,23.3,25.9C586.7,76.3,586.6,78.6,586.5,80.1z M572,70.4c-0.1-6.8-2.2-11.6-8.2-11.6
		c-5,0-8,3.2-8.7,12.3H572V70.4z"/>
	<path d="M639,80.1h-31.3c1,9,5.3,11.5,11.5,11.5c4.1,0,7.7-1.4,12.1-4.5l6.2,8.4c-5,4-11.5,7-19.7,7c-16.8,0-25.4-10.8-25.4-26.6
		c0-15.1,8.3-27.1,23.6-27.1c14.5,0,23.3,9.5,23.3,25.9C639.2,76.3,639.1,78.6,639,80.1z M624.5,70.4c-0.1-6.8-2.2-11.6-8.2-11.6
		c-5,0-8,3.2-8.7,12.3h16.8V70.4z"/>
	<path d="M714.1,47h-16.3v53.9h-15.6V47h-17V35h50.4L714.1,47z"/>
	<path d="M751.2,49.6l-2.4,14.6c-1.6-0.4-2.9-0.7-4.6-0.7c-6.3,0-8.8,4.7-10.5,12.4v25h-15V50.4h13.1l1.2,9.8
		c2.3-7,7.2-11.2,13-11.2C748.1,49,749.6,49.2,751.2,49.6z"/>
	<path d="M797.1,92.4l-3.1,9.8c-6-0.5-9.9-2.3-12.2-7.3c-3.6,5.6-9.2,7.6-15.2,7.6c-10.1,0-16.5-6.6-16.5-15.8c0-11,8.4-17,23.7-17
		h5.1v-2.2c0-6-2.4-7.8-8.6-7.8c-3.2,0-8.2,1-13.2,2.7l-3.4-9.9c6.4-2.4,13.3-3.7,19-3.7c14.6,0,20.9,6.2,20.9,17.9v19.6
		C793.7,90.2,794.8,91.6,797.1,92.4z M779,86.9V78h-3.7c-6.8,0-10.2,2.4-10.2,7.4c0,4,2.2,6.4,5.9,6.4C774.5,91.8,777.2,90,779,86.9
		z"/>
	<path d="M851,30.3v70.6h-13.3l-0.8-5.9c-2.9,4.2-7.5,7.5-14.4,7.5c-12.8,0-19.2-10.7-19.2-27c0-15.6,8.2-26.7,20.6-26.7
		c4.9,0,9,1.8,12,4.8V28.7L851,30.3z M835.9,85.8V64c-2.3-2.7-4.6-4.3-7.9-4.3c-5.3,0-9.1,4.6-9.1,15.9c0,12.6,3.4,15.9,8.3,15.9
		C830.8,91.5,833.6,89.6,835.9,85.8z"/>
	<path d="M879.1,32.3c0,4.9-3.7,8.6-8.9,8.6c-5.2,0-8.8-3.7-8.8-8.6c0-4.9,3.6-8.6,8.8-8.6C875.4,23.8,879.1,27.5,879.1,32.3z
		 M877.8,100.9h-15V50.4h15V100.9z"/>
	<path d="M933.2,64v36.9h-15V66.6c0-5.3-1.8-6.8-4.8-6.8c-3.3,0-6.1,2.4-8.8,6.6v34.5h-15V50.4h13.1l1,6c4.3-5,9.1-7.6,15.4-7.6
		C927.9,48.8,933.2,54.4,933.2,64z"/>
	<path d="M991,53.4c-3.5,1.4-8.2,2-14.6,2c6.4,2.8,9.5,6.5,9.5,13c0,9.8-8.1,16.9-21.2,16.9c-2.1,0-4-0.2-5.8-0.6
		c-1,0.6-1.6,1.7-1.6,2.9c0,1.5,0.7,3,5.5,3h7.6c11.8,0,19.3,6.2,19.3,14.6c0,10.4-9.1,16.7-26.4,16.7c-19.1,0-24.2-6.3-24.2-16.3
		h13.5c0,4.4,1.9,6.3,11,6.3c8.8,0,10.9-2.5,10.9-5.7c0-2.9-2.2-4.9-7.2-4.9h-7.3c-11,0-15.5-4.6-15.5-10c0-3.7,2.4-7.4,6-9.7
		c-6.5-3.4-9-7.9-9-14.5c0-11.4,8.9-18.5,22.2-18.5c11.2,0.3,17.7-2.9,23.8-6.6L991,53.4z M956.5,67c0,5.5,3,8.6,7.6,8.6
		c4.9,0,7.6-2.9,7.6-8.8c0-5.6-2.6-8.2-7.6-8.2C959.4,58.7,956.5,61.8,956.5,67z"/>
	<path d="M1070.5,100.9h-19.9l-19-51.1c0.8,6,2,14.7,2,26.9v24.2h-13.9V35h19.4l19.5,51.2c-0.9-5.3-2.1-14-2.1-24.5V35h14V100.9z"/>
	<path d="M1126.1,92.4l-3.1,9.8c-6-0.5-9.9-2.3-12.2-7.3c-3.6,5.6-9.2,7.6-15.2,7.6c-10.1,0-16.5-6.6-16.5-15.8c0-11,8.4-17,23.7-17
		h5.1v-2.2c0-6-2.4-7.8-8.6-7.8c-3.2,0-8.2,1-13.2,2.7l-3.4-9.9c6.4-2.4,13.3-3.7,19-3.7c14.6,0,20.9,6.2,20.9,17.9v19.6
		C1122.6,90.2,1123.7,91.6,1126.1,92.4z M1107.9,86.9V78h-3.7c-6.8,0-10.2,2.4-10.2,7.4c0,4,2.2,6.4,5.9,6.4
		C1103.4,91.8,1106.1,90,1107.9,86.9z"/>
	<path d="M1160.8,100.9H1143l-16.3-50.5h16.4l8.9,39.1l9.3-39.1h15.3L1160.8,100.9z"/>
	<path d="M1198.3,32.3c0,4.9-3.7,8.6-8.9,8.6s-8.8-3.7-8.8-8.6c0-4.9,3.6-8.6,8.8-8.6S1198.3,27.5,1198.3,32.3z M1197,100.9h-15
		V50.4h15V100.9z"/>
	<path d="M1255.3,53.4c-3.5,1.4-8.2,2-14.6,2c6.4,2.8,9.5,6.5,9.5,13c0,9.8-8.1,16.9-21.2,16.9c-2.1,0-4-0.2-5.8-0.6
		c-1,0.6-1.6,1.7-1.6,2.9c0,1.5,0.7,3,5.5,3h7.6c11.8,0,19.3,6.2,19.3,14.6c0,10.4-9.1,16.7-26.4,16.7c-19.1,0-24.2-6.3-24.2-16.3
		h13.5c0,4.4,1.9,6.3,11,6.3c8.8,0,10.9-2.5,10.9-5.7c0-2.9-2.2-4.9-7.2-4.9h-7.3c-11,0-15.5-4.6-15.5-10c0-3.7,2.4-7.4,6-9.7
		c-6.5-3.4-9-7.9-9-14.5c0-11.4,8.9-18.5,22.2-18.5c11.2,0.3,17.7-2.9,23.8-6.6L1255.3,53.4z M1220.8,67c0,5.5,3,8.6,7.6,8.6
		c4.9,0,7.6-2.9,7.6-8.8c0-5.6-2.6-8.2-7.6-8.2C1223.7,58.7,1220.8,61.8,1220.8,67z"/>
	<path d="M1302.6,92.4l-3.1,9.8c-6-0.5-9.9-2.3-12.2-7.3c-3.6,5.6-9.2,7.6-15.2,7.6c-10.1,0-16.5-6.6-16.5-15.8c0-11,8.4-17,23.7-17
		h5.1v-2.2c0-6-2.4-7.8-8.6-7.8c-3.2,0-8.2,1-13.2,2.7l-3.4-9.9c6.4-2.4,13.3-3.7,19-3.7c14.6,0,20.9,6.2,20.9,17.9v19.6
		C1299.2,90.2,1300.2,91.6,1302.6,92.4z M1284.4,86.9V78h-3.7c-6.8,0-10.2,2.4-10.2,7.4c0,4,2.2,6.4,5.9,6.4
		C1280,91.8,1282.6,90,1284.4,86.9z"/>
	<path d="M1342.8,98.5c-3.8,2.7-9.1,4-13.7,4c-11.1-0.1-16.6-6.4-16.6-18.3V60.9h-7.1V50.4h7.1V39.5l15-1.7v12.7h11.6l-1.6,10.5h-10
		v23.2c0,4.9,1.6,6.6,4.8,6.6c1.7,0,3.4-0.5,5.4-1.6L1342.8,98.5z"/>
	<path d="M1392.8,75.7c0,16.2-9.3,26.8-24.7,26.8c-15.3,0-24.7-9.9-24.7-26.9c0-16.2,9.3-26.8,24.7-26.8
		C1383.4,48.8,1392.8,58.7,1392.8,75.7z M1358.9,75.6c0,11.2,3,15.9,9.1,15.9s9.1-4.9,9.1-15.8c0-11.2-3-15.9-9.1-15.9
		S1358.9,64.7,1358.9,75.6z"/>
	<path d="M1434.1,49.6l-2.4,14.6c-1.6-0.4-2.9-0.7-4.6-0.7c-6.3,0-8.8,4.7-10.5,12.4v25h-15V50.4h13.1l1.2,9.8
		c2.3-7,7.2-11.2,13-11.2C1431,49,1432.5,49.2,1434.1,49.6z"/>
</g>
</svg>
