<svg version="1.1" id="Layer_1" xmlns="http://www.w3.org/2000/svg" xmlns:xlink="http://www.w3.org/1999/xlink" x="0px" y="0px"
                    viewBox="0 0 1198.4 125.5" style="enable-background:new 0 0 1198.4 125.5;" xml:space="preserve">
               <path id="XMLID_31_" d="M172.9,68.8c-2.1-4.6-7.8-5.3-12.3-5.7c-10.2-0.3-20.2,2.9-29.1,7.6c-21.4-10.8-42.8-21.6-64.2-31.9
                   C49,29.7,30.9,20.3,12.5,11.6c-0.1,5.9,0.4,11.9,1.5,17.7C45.7,44.9,77.5,60.4,109.3,76c-6-1.5-11.3-4.6-17.1-6.5
                   C66.7,59.2,41.4,48.6,15.9,38.6c1.9,6.7,4.4,13.1,7.6,19.2c15,6.6,30.5,13.1,46.6,19.5c8.1,3.2,16.1,6.3,24,9.2
                   c1.8,0.6,3.5,1.2,5.3,1.8c0.1,0,0.1,0.1,0.1,0.1c0,0.2-3.9-0.6-7.4-1.4c-0.2-0.1-2-0.4-3.6-1c-19.2-6.4-38.8-11.9-58-18.5
                   c0.8,3.1,3.6,5.1,5.6,7.5c12.3,13,29.6,20.4,47.2,23.6c-11.1,5.8-22.5,10.8-33.9,15.8c22.2,4.1,45,2.8,66.6-3.9
                   c19.7-6.3,37.7-16.7,52.9-30.6c0.2,0.8,0.5,1.6,0.7,2.4c0.3,1,0.5,2,0.7,3c0.9-1.2,3-4,3.6-8.3C174.4,73.2,173.5,70.2,172.9,68.8z
                    M157.7,76.9c-2.7,0-4.8-2.2-4.8-4.8s2.2-4.8,4.8-4.8s4.8,2.2,4.8,4.8S160.3,76.9,157.7,76.9z"/>
               <path d="M200.3,14.8c-16.3,15.9-33.6,30.7-51.7,44.4c7.6-1.3,15.7-2.6,23.1,0.3c3.9,1.6,6,5.6,7,9.5
                   C191.2,53.9,200.8,34.8,200.3,14.8z"/>
               <g>
                   <path d="M277.2,70.9c0,11.6-9.4,14.8-22.2,14.8h-16.4V34.8h14.4c13.7,0,22,3.5,22,13c0,6.5-4.6,9.8-9.3,10.9
                       C271.4,59.9,277.2,62.7,277.2,70.9z M250.7,43.3v11.8h4.5c5,0,7.6-1.9,7.6-6.2c0-4.3-2.8-5.7-8.6-5.7H250.7z M264.8,70.2
                       c0-5.1-3.6-7.1-8.8-7.1h-5.3V77h4.4C260.8,77,264.8,75.8,264.8,70.2z"/>
                   <path d="M308.8,46.1L307,57.4c-1.2-0.3-2.2-0.5-3.5-0.5c-4.8,0-6.8,3.6-8.1,9.5v19.3h-11.6v-39h10.1l1,7.6
                       c1.8-5.4,5.6-8.7,10.1-8.7C306.4,45.6,307.6,45.8,308.8,46.1z"/>
                   <path d="M344.8,69.6h-24.2c0.8,7,4.1,8.9,8.9,8.9c3.2,0,5.9-1.1,9.3-3.5l4.8,6.5c-3.9,3.1-8.9,5.4-15.2,5.4
                       c-13,0-19.6-8.4-19.6-20.6c0-11.7,6.4-20.9,18.2-20.9c11.2,0,18,7.3,18,20C345,66.7,345,68.5,344.8,69.6z M333.7,62.1
                       c-0.1-5.3-1.7-9-6.3-9c-3.9,0-6.2,2.5-6.7,9.5h13V62.1z"/>
                   <path d="M384.5,79.2l-2.4,7.6c-4.6-0.4-7.6-1.8-9.4-5.7c-2.8,4.3-7.1,5.9-11.8,5.9c-7.8,0-12.7-5.1-12.7-12.2
                       c0-8.5,6.5-13.1,18.3-13.1h4v-1.7c0-4.6-1.8-6-6.6-6c-2.5,0-6.3,0.7-10.2,2.1l-2.6-7.6c4.9-1.8,10.3-2.9,14.7-2.9
                       c11.3,0,16.2,4.8,16.2,13.8v15.1C381.8,77.4,382.6,78.5,384.5,79.2z M370.5,74.9V68h-2.9c-5.3,0-7.9,1.8-7.9,5.7
                       c0,3.1,1.7,4.9,4.6,4.9C367,78.7,369.1,77.3,370.5,74.9z"/>
                   <path d="M402.7,85.7h-11.6V31.2l11.6-1.2V85.7z M415,63.8l12.8,21.9h-13.1l-11.6-21.3L415,46.7h11.8L415,63.8z"/>
                   <path d="M444.8,43.7v3h9.2l-1.2,8.1h-7.9v30.9h-11.6V54.8h-5.9v-8.1h5.9v-3.5c0-7.5,4.9-13.3,14.9-13.3c4,0,7.8,1,10.7,2.5
                       l-3.2,7.6c-2.2-1.1-4.4-1.5-6.1-1.5C446.1,38.6,444.8,40,444.8,43.7z"/>
                   <path d="M482.8,46.1L481,57.4c-1.2-0.3-2.2-0.5-3.5-0.5c-4.8,0-6.8,3.6-8.1,9.5v19.3h-11.6v-39h10.1l1,7.6
                       c1.8-5.4,5.6-8.7,10.1-8.7C480.4,45.6,481.6,45.8,482.8,46.1z"/>
                   <path d="M518.8,69.6h-24.2c0.8,7,4.1,8.9,8.9,8.9c3.2,0,5.9-1.1,9.3-3.5l4.8,6.5c-3.9,3.1-8.9,5.4-15.2,5.4
                       c-13,0-19.6-8.4-19.6-20.6c0-11.7,6.4-20.9,18.2-20.9c11.2,0,18,7.3,18,20C519,66.7,519,68.5,518.8,69.6z M507.7,62.1
                       c-0.1-5.3-1.7-9-6.3-9c-3.9,0-6.2,2.5-6.7,9.5h13V62.1z"/>
                   <path d="M559.4,69.6h-24.2c0.8,7,4.1,8.9,8.9,8.9c3.2,0,5.9-1.1,9.3-3.5l4.8,6.5c-3.9,3.1-8.9,5.4-15.2,5.4
                       c-13,0-19.6-8.4-19.6-20.6c0-11.7,6.4-20.9,18.2-20.9c11.2,0,18,7.3,18,20C559.6,66.7,559.5,68.5,559.4,69.6z M548.2,62.1
                       c-0.1-5.3-1.7-9-6.3-9c-3.9,0-6.2,2.5-6.7,9.5h13V62.1z"/>
                   <path d="M617.4,44.1h-12.6v41.6h-12V44.1h-13.1v-9.3h38.9L617.4,44.1z"/>
                   <path d="M646,46.1l-1.8,11.2c-1.2-0.3-2.2-0.5-3.5-0.5c-4.8,0-6.8,3.6-8.1,9.5v19.3H621v-39h10.1l1,7.6c1.8-5.4,5.6-8.7,10.1-8.7
                       C643.6,45.6,644.8,45.8,646,46.1z"/>
                   <path d="M681.5,79.2l-2.4,7.6c-4.6-0.4-7.6-1.8-9.4-5.7c-2.8,4.3-7.1,5.9-11.8,5.9c-7.8,0-12.7-5.1-12.7-12.2
                       c0-8.5,6.5-13.1,18.3-13.1h4v-1.7c0-4.6-1.8-6-6.6-6c-2.5,0-6.3,0.7-10.2,2.1l-2.6-7.6c4.9-1.8,10.3-2.9,14.7-2.9
                       c11.3,0,16.2,4.8,16.2,13.8v15.1C678.9,77.4,679.7,78.5,681.5,79.2z M667.5,74.9V68h-2.9c-5.3,0-7.9,1.8-7.9,5.7
                       c0,3.1,1.7,4.9,4.6,4.9C664,78.7,666.1,77.3,667.5,74.9z"/>
                   <path d="M723.1,31.2v54.5h-10.3l-0.6-4.6c-2.3,3.2-5.8,5.8-11.1,5.8c-9.9,0-14.8-8.2-14.8-20.9c0-12,6.3-20.6,15.9-20.6
                       c3.8,0,7,1.4,9.3,3.7V30L723.1,31.2z M711.5,74V57.2c-1.8-2.1-3.5-3.3-6.1-3.3c-4.1,0-7.1,3.5-7.1,12.3c0,9.7,2.6,12.3,6.4,12.3
                       C707.5,78.4,709.7,77,711.5,74z"/>
                   <path d="M744.8,32.8c0,3.7-2.9,6.6-6.9,6.6s-6.8-2.9-6.8-6.6c0-3.7,2.8-6.6,6.8-6.6S744.8,29,744.8,32.8z M743.8,85.7h-11.6v-39
                       h11.6V85.7z"/>
                   <path d="M786.6,57.2v28.5H775V59.2c0-4.1-1.4-5.2-3.7-5.2c-2.6,0-4.7,1.8-6.8,5.1v26.7h-11.6v-39h10.1l0.8,4.6
                       c3.3-3.9,7.1-5.9,11.9-5.9C782.5,45.5,786.6,49.8,786.6,57.2z"/>
                   <path d="M831.2,49c-2.7,1.1-6.3,1.5-11.2,1.5c4.9,2.1,7.3,5,7.3,10.1c0,7.6-6.2,13.1-16.4,13.1c-1.6,0-3.1-0.1-4.5-0.4
                       c-0.8,0.4-1.2,1.3-1.2,2.2c0,1.2,0.5,2.4,4.3,2.4h5.9c9.1,0,14.9,4.8,14.9,11.3c0,8-7.1,12.9-20.4,12.9c-14.8,0-18.7-4.8-18.7-12.6
                       h10.4c0,3.4,1.5,4.8,8.5,4.8c6.8,0,8.4-1.9,8.4-4.4c0-2.3-1.7-3.8-5.6-3.8h-5.7c-8.5,0-12-3.5-12-7.7c0-2.9,1.8-5.7,4.6-7.5
                       c-5-2.6-7-6.1-7-11.2c0-8.8,6.9-14.3,17.1-14.3c8.7,0.2,13.7-2.3,18.4-5.1L831.2,49z M804.6,59.6c0,4.3,2.4,6.6,5.9,6.6
                       c3.8,0,5.9-2.3,5.9-6.8c0-4.3-2-6.3-5.9-6.3C806.8,53.1,804.6,55.5,804.6,59.6z"/>
                   <path d="M892.6,85.7h-15.4l-14.7-39.4c0.6,4.6,1.5,11.4,1.5,20.8v18.7h-10.7V34.8h15l15.1,39.5c-0.7-4.1-1.6-10.8-1.6-19V34.8h10.8
                       V85.7z"/>
                   <path d="M935.5,79.2l-2.4,7.6c-4.6-0.4-7.6-1.8-9.4-5.7c-2.8,4.3-7.1,5.9-11.8,5.9c-7.8,0-12.7-5.1-12.7-12.2
                       c0-8.5,6.5-13.1,18.3-13.1h4v-1.7c0-4.6-1.8-6-6.6-6c-2.5,0-6.3,0.7-10.2,2.1l-2.6-7.6c4.9-1.8,10.3-2.9,14.7-2.9
                       c11.3,0,16.2,4.8,16.2,13.8v15.1C932.9,77.4,933.7,78.5,935.5,79.2z M921.5,74.9V68h-2.9c-5.3,0-7.9,1.8-7.9,5.7
                       c0,3.1,1.7,4.9,4.6,4.9C918,78.7,920.1,77.3,921.5,74.9z"/>
                   <path d="M962.3,85.7h-13.7l-12.6-39h12.6l6.9,30.2l7.2-30.2h11.8L962.3,85.7z"/>
                   <path d="M991.3,32.8c0,3.7-2.9,6.6-6.9,6.6s-6.8-2.9-6.8-6.6c0-3.7,2.8-6.6,6.8-6.6S991.3,29,991.3,32.8z M990.3,85.7h-11.6v-39
                       h11.6V85.7z"/>
                   <path d="M1035.3,49c-2.7,1.1-6.3,1.5-11.2,1.5c4.9,2.1,7.3,5,7.3,10.1c0,7.6-6.2,13.1-16.4,13.1c-1.6,0-3.1-0.1-4.5-0.4
                       c-0.8,0.4-1.2,1.3-1.2,2.2c0,1.2,0.5,2.4,4.3,2.4h5.9c9.1,0,14.9,4.8,14.9,11.3c0,8-7.1,12.9-20.4,12.9c-14.8,0-18.7-4.8-18.7-12.6
                       h10.4c0,3.4,1.5,4.8,8.5,4.8c6.8,0,8.4-1.9,8.4-4.4c0-2.3-1.7-3.8-5.6-3.8h-5.7c-8.5,0-12-3.5-12-7.7c0-2.9,1.8-5.7,4.6-7.5
                       c-5-2.6-7-6.1-7-11.2c0-8.8,6.9-14.3,17.1-14.3c8.7,0.2,13.7-2.3,18.4-5.1L1035.3,49z M1008.7,59.6c0,4.3,2.4,6.6,5.9,6.6
                       c3.8,0,5.9-2.3,5.9-6.8c0-4.3-2-6.3-5.9-6.3C1011,53.1,1008.7,55.5,1008.7,59.6z"/>
                   <path d="M1071.8,79.2l-2.4,7.6c-4.6-0.4-7.6-1.8-9.4-5.7c-2.8,4.3-7.1,5.9-11.8,5.9c-7.8,0-12.7-5.1-12.7-12.2
                       c0-8.5,6.5-13.1,18.3-13.1h4v-1.7c0-4.6-1.8-6-6.6-6c-2.5,0-6.3,0.7-10.2,2.1l-2.6-7.6c4.9-1.8,10.3-2.9,14.7-2.9
                       c11.3,0,16.2,4.8,16.2,13.8v15.1C1069.2,77.4,1070,78.5,1071.8,79.2z M1057.8,74.9V68h-2.9c-5.3,0-7.9,1.8-7.9,5.7
                       c0,3.1,1.7,4.9,4.6,4.9C1054.4,78.7,1056.4,77.3,1057.8,74.9z"/>
                   <path d="M1102.9,83.9c-2.9,2.1-7.1,3.1-10.6,3.1c-8.6-0.1-12.8-4.9-12.8-14.1V54.8h-5.5v-8.1h5.5v-8.4l11.6-1.3v9.8h9l-1.2,8.1
                       h-7.7v17.9c0,3.7,1.2,5.1,3.7,5.1c1.3,0,2.6-0.4,4.2-1.2L1102.9,83.9z"/>
                   <path d="M1141.5,66.3c0,12.5-7.2,20.7-19.1,20.7c-11.8,0-19.1-7.6-19.1-20.8c0-12.5,7.2-20.7,19.1-20.7
                       C1134.3,45.5,1141.5,53.1,1141.5,66.3z M1115.3,66.2c0,8.7,2.4,12.3,7.1,12.3s7.1-3.7,7.1-12.2c0-8.7-2.4-12.3-7.1-12.3
                       S1115.3,57.7,1115.3,66.2z"/>
                   <path d="M1173.4,46.1l-1.8,11.2c-1.2-0.3-2.2-0.5-3.5-0.5c-4.8,0-6.8,3.6-8.1,9.5v19.3h-11.6v-39h10.1l1,7.6
                       c1.8-5.4,5.6-8.7,10.1-8.7C1171,45.6,1172.2,45.8,1173.4,46.1z"/>
               </g>
               </svg>