<?xml version="1.0" encoding="utf-8"?>
<!-- Generator: Adobe Illustrator 22.1.0, SVG Export Plug-In . SVG Version: 6.00 Build 0)  -->
<svg version="1.1" id="Layer_1" xmlns="http://www.w3.org/2000/svg" xmlns:xlink="http://www.w3.org/1999/xlink" x="0px" y="0px"
	 viewBox="0 0 1198.4 125.5" style="enable-background:new 0 0 1198.4 125.5;" xml:space="preserve">
<path id="XMLID_31_" d="M159.9,67.9c-1.7-3.7-6.3-4.3-9.9-4.6c-8.2-0.2-16.2,2.3-23.4,6.1C109.4,60.7,92.2,52.1,75,43.8
	c-14.7-7.3-29.3-14.9-44.1-21.9c-0.1,4.7,0.3,9.6,1.2,14.2c25.5,12.5,51.1,25,76.6,37.5c-4.8-1.2-9.1-3.7-13.7-5.2
	c-20.5-8.3-40.8-16.8-61.3-24.8c1.5,5.4,3.5,10.5,6.1,15.4c12.1,5.3,24.5,10.5,37.5,15.7c6.5,2.6,12.9,5.1,19.3,7.4
	c1.4,0.5,2.8,1,4.3,1.4c0.1,0,0.1,0.1,0.1,0.1c0,0.2-3.1-0.5-5.9-1.1c-0.2-0.1-1.6-0.3-2.9-0.8c-15.4-5.1-31.2-9.6-46.6-14.9
	c0.6,2.5,2.9,4.1,4.5,6c9.9,10.5,23.8,16.4,37.9,19c-8.9,4.7-18.1,8.7-27.3,12.7c17.8,3.3,36.2,2.3,53.5-3.1
	c15.8-5.1,30.3-13.4,42.5-24.6c0.2,0.6,0.4,1.3,0.6,1.9c0.2,0.8,0.4,1.6,0.6,2.4c0.7-1,2.4-3.2,2.9-6.7
	C161.1,71.4,160.3,69,159.9,67.9z M147.6,74.4c-2.2,0-3.9-1.8-3.9-3.9c0-2.1,1.8-3.9,3.9-3.9s3.9,1.8,3.9,3.9
	C151.5,72.6,149.7,74.4,147.6,74.4z"/>
<path d="M181.9,24.5c-13.1,12.8-27,24.7-41.6,35.7c6.1-1,12.6-2.1,18.6,0.2c3.1,1.3,4.8,4.5,5.6,7.6
	C174.6,55.9,182.3,40.6,181.9,24.5z"/>
<g>
	<path d="M252.2,89.9c0,11.6-9.4,14.8-22.2,14.8h-16.4V53.8h14.4c13.7,0,22,3.5,22,13c0,6.5-4.6,9.8-9.3,10.9
		C246.4,78.9,252.2,81.7,252.2,89.9z M225.7,62.3v11.8h4.5c5,0,7.6-1.9,7.6-6.2c0-4.3-2.8-5.7-8.6-5.7H225.7z M239.8,89.2
		c0-5.1-3.6-7.1-8.8-7.1h-5.3V96h4.4C235.8,96,239.8,94.8,239.8,89.2z"/>
	<path d="M283.8,65.1L282,76.4c-1.2-0.3-2.2-0.5-3.5-0.5c-4.8,0-6.8,3.6-8.1,9.5v19.3h-11.6v-39h10.1l1,7.6
		c1.8-5.4,5.6-8.7,10.1-8.7C281.4,64.6,282.6,64.8,283.8,65.1z"/>
	<path d="M319.8,88.6h-24.2c0.8,7,4.1,8.9,8.9,8.9c3.2,0,5.9-1.1,9.3-3.5l4.8,6.5c-3.9,3.1-8.9,5.4-15.2,5.4
		c-13,0-19.6-8.4-19.6-20.6c0-11.7,6.4-20.9,18.2-20.9c11.2,0,18,7.3,18,20C320,85.7,320,87.5,319.8,88.6z M308.7,81.1
		c-0.1-5.3-1.7-9-6.3-9c-3.9,0-6.2,2.5-6.7,9.5h13V81.1z"/>
	<path d="M359.5,98.2l-2.4,7.6c-4.6-0.4-7.6-1.8-9.4-5.7c-2.8,4.3-7.1,5.9-11.8,5.9c-7.8,0-12.7-5.1-12.7-12.2
		c0-8.5,6.5-13.1,18.3-13.1h4v-1.7c0-4.6-1.8-6-6.6-6c-2.5,0-6.3,0.7-10.2,2.1l-2.6-7.6c4.9-1.8,10.3-2.9,14.7-2.9
		c11.3,0,16.2,4.8,16.2,13.8v15.1C356.8,96.4,357.6,97.5,359.5,98.2z M345.5,93.9V87h-2.9c-5.3,0-7.9,1.8-7.9,5.7
		c0,3.1,1.7,4.9,4.6,4.9C342,97.7,344.1,96.3,345.5,93.9z"/>
	<path d="M377.7,104.7h-11.6V50.2l11.6-1.2V104.7z M390,82.8l12.8,21.9h-13.1l-11.6-21.3L390,65.7h11.8L390,82.8z"/>
	<path d="M419.8,62.7v3h9.2l-1.2,8.1h-7.9v30.9h-11.6V73.8h-5.9v-8.1h5.9v-3.5c0-7.5,4.9-13.3,14.9-13.3c4,0,7.8,1,10.7,2.5
		l-3.2,7.6c-2.2-1.1-4.4-1.5-6.1-1.5C421.1,57.6,419.8,59,419.8,62.7z"/>
	<path d="M457.8,65.1L456,76.4c-1.2-0.3-2.2-0.5-3.5-0.5c-4.8,0-6.8,3.6-8.1,9.5v19.3h-11.6v-39h10.1l1,7.6
		c1.8-5.4,5.6-8.7,10.1-8.7C455.4,64.6,456.6,64.8,457.8,65.1z"/>
	<path d="M493.8,88.6h-24.2c0.8,7,4.1,8.9,8.9,8.9c3.2,0,5.9-1.1,9.3-3.5l4.8,6.5c-3.9,3.1-8.9,5.4-15.2,5.4
		c-13,0-19.6-8.4-19.6-20.6c0-11.7,6.4-20.9,18.2-20.9c11.2,0,18,7.3,18,20C494,85.7,494,87.5,493.8,88.6z M482.7,81.1
		c-0.1-5.3-1.7-9-6.3-9c-3.9,0-6.2,2.5-6.7,9.5h13V81.1z"/>
	<path d="M534.4,88.6h-24.2c0.8,7,4.1,8.9,8.9,8.9c3.2,0,5.9-1.1,9.3-3.5l4.8,6.5c-3.9,3.1-8.9,5.4-15.2,5.4
		c-13,0-19.6-8.4-19.6-20.6c0-11.7,6.4-20.9,18.2-20.9c11.2,0,18,7.3,18,20C534.6,85.7,534.5,87.5,534.4,88.6z M523.2,81.1
		c-0.1-5.3-1.7-9-6.3-9c-3.9,0-6.2,2.5-6.7,9.5h13V81.1z"/>
	<path d="M592.4,63.1h-12.6v41.6h-12V63.1h-13.1v-9.3h38.9L592.4,63.1z"/>
	<path d="M621,65.1l-1.8,11.2c-1.2-0.3-2.2-0.5-3.5-0.5c-4.8,0-6.8,3.6-8.1,9.5v19.3H596v-39h10.1l1,7.6c1.8-5.4,5.6-8.7,10.1-8.7
		C618.6,64.6,619.8,64.8,621,65.1z"/>
	<path d="M656.5,98.2l-2.4,7.6c-4.6-0.4-7.6-1.8-9.4-5.7c-2.8,4.3-7.1,5.9-11.8,5.9c-7.8,0-12.7-5.1-12.7-12.2
		c0-8.5,6.5-13.1,18.3-13.1h4v-1.7c0-4.6-1.8-6-6.6-6c-2.5,0-6.3,0.7-10.2,2.1l-2.6-7.6c4.9-1.8,10.3-2.9,14.7-2.9
		c11.3,0,16.2,4.8,16.2,13.8v15.1C653.9,96.4,654.7,97.5,656.5,98.2z M642.5,93.9V87h-2.9c-5.3,0-7.9,1.8-7.9,5.7
		c0,3.1,1.7,4.9,4.6,4.9C639,97.7,641.1,96.3,642.5,93.9z"/>
	<path d="M698.1,50.2v54.5h-10.3l-0.6-4.6c-2.3,3.2-5.8,5.8-11.1,5.8c-9.9,0-14.8-8.2-14.8-20.9c0-12,6.3-20.6,15.9-20.6
		c3.8,0,7,1.4,9.3,3.7V49L698.1,50.2z M686.5,93V76.2c-1.8-2.1-3.5-3.3-6.1-3.3c-4.1,0-7.1,3.5-7.1,12.3c0,9.7,2.6,12.3,6.4,12.3
		C682.5,97.4,684.7,96,686.5,93z"/>
	<path d="M719.8,51.8c0,3.7-2.9,6.6-6.9,6.6s-6.8-2.9-6.8-6.6c0-3.7,2.8-6.6,6.8-6.6S719.8,48,719.8,51.8z M718.8,104.7h-11.6v-39
		h11.6V104.7z"/>
	<path d="M761.6,76.2v28.5H750V78.2c0-4.1-1.4-5.2-3.7-5.2c-2.6,0-4.7,1.8-6.8,5.1v26.7h-11.6v-39h10.1l0.8,4.6
		c3.3-3.9,7.1-5.9,11.9-5.9C757.5,64.5,761.6,68.8,761.6,76.2z"/>
	<path d="M806.2,68c-2.7,1.1-6.3,1.5-11.2,1.5c4.9,2.1,7.3,5,7.3,10.1c0,7.6-6.2,13.1-16.4,13.1c-1.6,0-3.1-0.1-4.5-0.4
		c-0.8,0.4-1.2,1.3-1.2,2.2c0,1.2,0.5,2.4,4.3,2.4h5.9c9.1,0,14.9,4.8,14.9,11.3c0,8-7.1,12.9-20.4,12.9c-14.8,0-18.7-4.8-18.7-12.6
		h10.4c0,3.4,1.5,4.8,8.5,4.8c6.8,0,8.4-1.9,8.4-4.4c0-2.3-1.7-3.8-5.6-3.8h-5.7c-8.5,0-12-3.5-12-7.7c0-2.9,1.8-5.7,4.6-7.5
		c-5-2.6-7-6.1-7-11.2c0-8.8,6.9-14.3,17.1-14.3c8.7,0.2,13.7-2.3,18.4-5.1L806.2,68z M779.6,78.6c0,4.3,2.4,6.6,5.9,6.6
		c3.8,0,5.9-2.3,5.9-6.8c0-4.3-2-6.3-5.9-6.3C781.8,72.1,779.6,74.5,779.6,78.6z"/>
	<path d="M867.6,104.7h-15.4l-14.7-39.4c0.6,4.6,1.5,11.4,1.5,20.8v18.7h-10.7V53.8h15l15.1,39.5c-0.7-4.1-1.6-10.8-1.6-19V53.8
		h10.8V104.7z"/>
	<path d="M910.5,98.2l-2.4,7.6c-4.6-0.4-7.6-1.8-9.4-5.7c-2.8,4.3-7.1,5.9-11.8,5.9c-7.8,0-12.7-5.1-12.7-12.2
		c0-8.5,6.5-13.1,18.3-13.1h4v-1.7c0-4.6-1.8-6-6.6-6c-2.5,0-6.3,0.7-10.2,2.1l-2.6-7.6c4.9-1.8,10.3-2.9,14.7-2.9
		c11.3,0,16.2,4.8,16.2,13.8v15.1C907.9,96.4,908.7,97.5,910.5,98.2z M896.5,93.9V87h-2.9c-5.3,0-7.9,1.8-7.9,5.7
		c0,3.1,1.7,4.9,4.6,4.9C893,97.7,895.1,96.3,896.5,93.9z"/>
	<path d="M937.3,104.7h-13.7l-12.6-39h12.6l6.9,30.2l7.2-30.2h11.8L937.3,104.7z"/>
	<path d="M966.3,51.8c0,3.7-2.9,6.6-6.9,6.6s-6.8-2.9-6.8-6.6c0-3.7,2.8-6.6,6.8-6.6S966.3,48,966.3,51.8z M965.3,104.7h-11.6v-39
		h11.6V104.7z"/>
	<path d="M1010.3,68c-2.7,1.1-6.3,1.5-11.2,1.5c4.9,2.1,7.3,5,7.3,10.1c0,7.6-6.2,13.1-16.4,13.1c-1.6,0-3.1-0.1-4.5-0.4
		c-0.8,0.4-1.2,1.3-1.2,2.2c0,1.2,0.5,2.4,4.3,2.4h5.9c9.1,0,14.9,4.8,14.9,11.3c0,8-7.1,12.9-20.4,12.9c-14.8,0-18.7-4.8-18.7-12.6
		h10.4c0,3.4,1.5,4.8,8.5,4.8c6.8,0,8.4-1.9,8.4-4.4c0-2.3-1.7-3.8-5.6-3.8h-5.7c-8.5,0-12-3.5-12-7.7c0-2.9,1.8-5.7,4.6-7.5
		c-5-2.6-7-6.1-7-11.2c0-8.8,6.9-14.3,17.1-14.3c8.7,0.2,13.7-2.3,18.4-5.1L1010.3,68z M983.7,78.6c0,4.3,2.4,6.6,5.9,6.6
		c3.8,0,5.9-2.3,5.9-6.8c0-4.3-2-6.3-5.9-6.3C986,72.1,983.7,74.5,983.7,78.6z"/>
	<path d="M1046.8,98.2l-2.4,7.6c-4.6-0.4-7.6-1.8-9.4-5.7c-2.8,4.3-7.1,5.9-11.8,5.9c-7.8,0-12.7-5.1-12.7-12.2
		c0-8.5,6.5-13.1,18.3-13.1h4v-1.7c0-4.6-1.8-6-6.6-6c-2.5,0-6.3,0.7-10.2,2.1l-2.6-7.6c4.9-1.8,10.3-2.9,14.7-2.9
		c11.3,0,16.2,4.8,16.2,13.8v15.1C1044.2,96.4,1045,97.5,1046.8,98.2z M1032.8,93.9V87h-2.9c-5.3,0-7.9,1.8-7.9,5.7
		c0,3.1,1.7,4.9,4.6,4.9C1029.4,97.7,1031.4,96.3,1032.8,93.9z"/>
	<path d="M1077.9,102.9c-2.9,2.1-7.1,3.1-10.6,3.1c-8.6-0.1-12.8-4.9-12.8-14.1V73.8h-5.5v-8.1h5.5v-8.4l11.6-1.3v9.8h9l-1.2,8.1
		h-7.7v17.9c0,3.7,1.2,5.1,3.7,5.1c1.3,0,2.6-0.4,4.2-1.2L1077.9,102.9z"/>
	<path d="M1116.5,85.3c0,12.5-7.2,20.7-19.1,20.7c-11.8,0-19.1-7.6-19.1-20.8c0-12.5,7.2-20.7,19.1-20.7
		C1109.3,64.5,1116.5,72.1,1116.5,85.3z M1090.3,85.2c0,8.7,2.4,12.3,7.1,12.3s7.1-3.7,7.1-12.2c0-8.7-2.4-12.3-7.1-12.3
		S1090.3,76.7,1090.3,85.2z"/>
	<path d="M1148.4,65.1l-1.8,11.2c-1.2-0.3-2.2-0.5-3.5-0.5c-4.8,0-6.8,3.6-8.1,9.5v19.3h-11.6v-39h10.1l1,7.6
		c1.8-5.4,5.6-8.7,10.1-8.7C1146,64.6,1147.2,64.8,1148.4,65.1z"/>
</g>
</svg>
