<svg xmlns="http://www.w3.org/2000/svg" xmlns:xlink="http://www.w3.org/1999/xlink" viewBox="0 0 418 371.07">
    <style type="text/css">
        .st1{stroke-width:0.5;stroke-miterlimit:10;stroke-dasharray:2;animation: dash 6s linear infinite;}
        .st2{stroke-width:1;stroke-miterlimit:10;stroke-dasharray:2;animation: dash 6s linear infinite;}
        .st3{stroke-width:1;stroke-miterlimit:10;stroke-dasharray:3;animation: dash 6s linear infinite;}

        @keyframes dash {
        to {
        stroke-dashoffset: 300;
        }
        }
    </style>
    <defs>
        <radialGradient id="a" cx="209" cy="237.58" r="175.357" gradientUnits="userSpaceOnUse">
            <stop offset="0.162" stop-color="#a2defe"/>
            <stop offset="0.328" stop-color="#8ccdfd"/>
            <stop offset="0.712" stop-color="#5ea9fc"/>
            <stop offset="0.905" stop-color="#4c9bfb"/>
        </radialGradient>
        <linearGradient id="b" x1="197.467" y1="346.583" x2="197.467" y2="133.463" gradientUnits="userSpaceOnUse">
            <stop offset="0" stop-color="#3d61cc"/>
            <stop offset="0.208" stop-color="#2342b6"/>
            <stop offset="0.508" stop-color="#001999"/>
            <stop offset="1" stop-color="#3d61cc"/>
        </linearGradient>
        <linearGradient id="c" x1="197.467" y1="330.057" x2="197.467" y2="149.989" xlink:href="#b"/>
        <linearGradient id="d" x1="684.26" y1="445.122" x2="376.444" y2="218.879"
                        gradientTransform="matrix(-1, 0, 0, 1, 592.102, 0)" gradientUnits="userSpaceOnUse">
            <stop offset="0" stop-color="#514ddf"/>
            <stop offset="0.216" stop-color="#5152e1"/>
            <stop offset="0.47" stop-color="#4f60e6"/>
            <stop offset="0.743" stop-color="#4d78ef"/>
            <stop offset="1" stop-color="#4b95fa"/>
        </linearGradient>
        <linearGradient id="e" x1="49.2" y1="228.924" x2="500.096" y2="228.924"
                        gradientTransform="matrix(-1, 0, 0, 1, 592.102, 0)" gradientUnits="userSpaceOnUse">
            <stop offset="0" stop-color="#4c9bfb"/>
            <stop offset="0.154" stop-color="#4996f7"/>
            <stop offset="0.336" stop-color="#4188ec"/>
            <stop offset="0.531" stop-color="#3370db"/>
            <stop offset="0.737" stop-color="#1f4fc2"/>
            <stop offset="0.948" stop-color="#0725a2"/>
            <stop offset="1" stop-color="#001999"/>
        </linearGradient>
        <linearGradient id="f" x1="196.72" y1="154.952" x2="196.72" y2="302.896" gradientUnits="userSpaceOnUse">
            <stop offset="0" stop-color="#fff"/>
            <stop offset="1"/>
        </linearGradient>
        <linearGradient id="g" x1="262.04" y1="248.91" x2="490.983" y2="248.91"
                        gradientTransform="matrix(-1, 0, 0, 1, 592.102, 0)" gradientUnits="userSpaceOnUse">
            <stop offset="0" stop-color="#514ddf"/>
            <stop offset="0.207" stop-color="#5054e2"/>
            <stop offset="0.509" stop-color="#4f68e9"/>
            <stop offset="0.869" stop-color="#4c88f5"/>
            <stop offset="1" stop-color="#4b95fa"/>
        </linearGradient>
        <linearGradient id="h" x1="326.832" y1="217.973" x2="464.249" y2="217.973"
                        gradientTransform="matrix(-1, 0, 0, 1, 592.102, 0)" gradientUnits="userSpaceOnUse">
            <stop offset="0" stop-color="#a2defe"/>
            <stop offset="0.145" stop-color="#9fd9fd"/>
            <stop offset="0.315" stop-color="#97cbfa"/>
            <stop offset="0.499" stop-color="#8ab3f5"/>
            <stop offset="0.692" stop-color="#7792ee"/>
            <stop offset="0.89" stop-color="#6068e5"/>
            <stop offset="1" stop-color="#514ddf"/>
        </linearGradient>
        <linearGradient id="i" x1="395.54" y1="193.137" x2="464.249" y2="193.137" xlink:href="#h"/>
        <linearGradient id="j" x1="326.832" y1="193.136" x2="395.542" y2="193.136" xlink:href="#h"/>
        <linearGradient id="k" x1="326.832" y1="207.97" x2="464.249" y2="207.97" xlink:href="#h"/>
        <linearGradient id="l" x1="395.542" y1="232.806" x2="464.249" y2="232.806" xlink:href="#h"/>
        <linearGradient id="m" x1="326.832" y1="232.805" x2="395.542" y2="232.805" xlink:href="#h"/>
        <linearGradient id="n" x1="196.562" y1="247.639" x2="196.562" gradientUnits="userSpaceOnUse">
            <stop offset="0" stop-color="#66c6fe" stop-opacity="0.4"/>
            <stop offset="0.188" stop-color="#66c6fe" stop-opacity="0.33"/>
            <stop offset="0.564" stop-color="#66c6fe" stop-opacity="0.148"/>
            <stop offset="0.838" stop-color="#66c6fe" stop-opacity="0"/>
        </linearGradient>
    </defs>
    <title>Admin-panel</title>
    <g style="isolation:isolate">
        <path d="M366.837,264.152l-.071-.04H281.448L233,236.136l9.165-5.291,35.125,20.28.071.04h98.856l33.068,19.093.613-.355-33.446-19.31-.07-.041H303.255l19.156-11.06h51.728a1.569,1.569,0,0,0,.749.81,4.277,4.277,0,0,0,3.87,0,1.179,1.179,0,0,0,0-2.234,4.277,4.277,0,0,0-3.87,0,1.571,1.571,0,0,0-.749.811H322.247l-20.219,11.673H277.521L242.774,230.49l8.067-4.657,30.751,17.754.071.04h12.384l25.13-14.508h75.781L418,215.817l-.613-.354-22.593,13.044H319.013l-25.131,14.507H281.827L259.5,230.124h11.161l10.821,6.247.071.041h8.456l18.815-10.863a4.333,4.333,0,0,0,3.473-.187,1.179,1.179,0,0,0,0-2.234,4.271,4.271,0,0,0-3.87,0c-.982.567-1.05,1.454-.227,2.074l-18.355,10.6h-8.128l-10.82-6.247-.071-.041H258.439l-6.984-4.032,11.357-6.557H279.56l20.74-11.975a4.329,4.329,0,0,0,3.533-.159,1.18,1.18,0,0,0,0-2.235,4.279,4.279,0,0,0-3.871,0c-.963.557-1.05,1.422-.275,2.04L279.4,218.31H263.874l4.879-2.817.46-.266-8.3-4.791,22.456-12.965h23.614l24.908,14.381c-.774.617-.687,1.482.276,2.039a4.279,4.279,0,0,0,3.871,0,1.18,1.18,0,0,0,0-2.235,4.332,4.332,0,0,0-3.534-.159l-12.829-7.407h46.58l13.393-7.732H384.3l-1.062-.613h-3.749l-13.393,7.732H318.615L307.221,196.9l-.071-.04H284.433l9.312-5.377h53.436l13.79-7.962h1.086l-1.156-.667-13.885,8.016H293.581L260.3,210.081l-15.508-8.954,38.716-22.353h41.666l14.333-8.276-.613-.353-13.885,8.016H284.57l34.1-19.69-.613-.354-73.882,42.656-13.343-7.7,54.489-31.46.153-.089V139.305l-.613-.354v22.215l-54.643,31.549-8.233-4.754,40.487-23.376v-38.56l-.613-.354v38.56l-40.488,23.376-11.108-6.413,30.977-17.886V113.766l-.613-.354v11.37L225.1,115.814V104.445l-.613-.354v12.077l16.145,9.321v16.425l-20.436-11.8c.714-.615.6-1.454-.338-2a4.283,4.283,0,0,0-3.87,0,1.18,1.18,0,0,0,0,2.235,4.312,4.312,0,0,0,3.609.123l21.035,12.145v20.331l-30.978,17.886-9.892-5.711,15.054-8.691V153.632l-3.8-2.194V144.91l-27.135-15.667V118.182l-17.489-10.1-.613.354,17.489,10.1V129.6L210.4,145.263v5.821l-45.609-26.332c.714-.614.6-1.453-.337-2a4.279,4.279,0,0,0-3.871,0,1.18,1.18,0,0,0,0,2.235,4.319,4.319,0,0,0,3.61.123l36.563,21.11H182.411l-21.039-12.147c.774-.617.688-1.483-.276-2.039a4.274,4.274,0,0,0-3.87,0,1.179,1.179,0,0,0,0,2.234,4.325,4.325,0,0,0,3.533.159l21.487,12.406h19.517v-.033l12.439,7.182v12.1l-15.055,8.692-2.832-1.635-.153-.088-3.879,2.239-63.214-36.5-.071-.041h-15.73l-1.062.613h16.628l62.835,36.278-9.61,5.548L129.53,150.865c.774-.618.688-1.483-.276-2.04a4.277,4.277,0,0,0-3.87,0,1.18,1.18,0,0,0,0,2.235,4.329,4.329,0,0,0,3.533.159l52.529,30.328-9.954,5.746-71.149-41.077-.612.353,71.148,41.079-10.935,6.312L88.8,152.883l-.614.354,71.149,41.078-8.849,5.108L79.333,158.346l-.613.354,71.148,41.077-7.79,4.5L71.9,163.758l-.071-.041h-1.8l-1.061.613h2.694l10.383,5.995H58.586l-1.062.612H83.108l26.175,15.112L99,191.988H80.753l-17.086,9.865a4.327,4.327,0,0,0-3.532.159,1.18,1.18,0,0,0,0,2.235,4.277,4.277,0,0,0,3.87,0c.964-.557,1.05-1.422.276-2.04L80.918,192.6H97.937L58.173,215.559H21.4L.893,203.717a1.733,1.733,0,0,0,.212-.206l-1.1.638a1.875,1.875,0,0,0,.279-.078l20.889,12.06.07.041h37.1L109.9,186.405l21.912,12.65h-12.1l-9.739,5.624a4.32,4.32,0,0,0-3.575.139,1.18,1.18,0,0,0,0,2.235,4.279,4.279,0,0,0,3.871,0c.95-.549,1.05-1.4.31-2.016l9.3-5.369H132.87l8.594,4.962-17.892,10.329-.46.266,5.75,3.319L97.21,236.82H86.647l-12.606-7.278c.774-.618.688-1.484-.276-2.04a4.277,4.277,0,0,0-3.87,0,1.179,1.179,0,0,0,0,2.234,4.327,4.327,0,0,0,3.532.16l12.985,7.5.071.041H97.374l23-13.279v12.158L98.807,248.763a4.329,4.329,0,0,0-3.533.159,1.179,1.179,0,0,0,0,2.234,4.271,4.271,0,0,0,3.87,0c.964-.556,1.051-1.421.277-2.039l21.566-12.451V223.8l8.49-4.9,29.856,17.237-13.851,8H127.522l-28.4,16.395H77.58l-29.958-17.3c.774-.618.688-1.483-.276-2.04a4.277,4.277,0,0,0-3.87,0,1.18,1.18,0,0,0,0,2.235,4.329,4.329,0,0,0,3.533.159L77.345,261.1l.071.041H99.289l28.4-16.395H144.42l-83.2,48.037H27.539l1.061.612H61.383l98.562-56.9,11.185,6.458L71.619,300.4l-.153.088v17.654l.613.354V300.844L171.744,243.3l11.747,6.783-58.374,33.7-.153.089v29.468l99.983,57.726h4.477c-.014-.008-.024-.018-.038-.027a4.329,4.329,0,0,0-3.533-.159l-73.727-42.567h22.162l39.754,22.954c-.773.618-.687,1.483.277,2.039a4.277,4.277,0,0,0,3.87,0,1.179,1.179,0,0,0,0-2.234,4.325,4.325,0,0,0-3.533-.16l-40.133-23.171-.071-.041H151.065l-25.487-14.715V284.23L172.57,257.1v14.615l-29.028,16.759v14.8a3.791,3.791,0,0,0-1.629.446,1.179,1.179,0,0,0,0,2.234,4.277,4.277,0,0,0,3.87,0,1.179,1.179,0,0,0,0-2.234,3.787,3.787,0,0,0-1.628-.446V288.827l29.028-16.759V256.745l10.922-6.306,11.906,6.874.153.087,7.318-4.225,0,31.915-25.468,14.7a4.321,4.321,0,0,0-3.533.159,1.179,1.179,0,0,0,0,2.234,4.279,4.279,0,0,0,3.871,0c.963-.556,1.05-1.421.276-2.039l25.466-14.7V272.423l19.041,10.992v12.353l-41.528,23.976a4.329,4.329,0,0,0-3.533.159,1.18,1.18,0,0,0,0,2.235,4.279,4.279,0,0,0,3.871,0c.964-.556,1.05-1.422.276-2.039L223.6,296.211l.153-.088V283.061L204.1,271.714V252.821l10.42-6.015,8.812,5.088V263.45l13.356,7.711c-.774.618-.688,1.483.276,2.039a4.274,4.274,0,0,0,3.87,0,1.18,1.18,0,0,0,0-2.235,4.333,4.333,0,0,0-3.533-.16L223.941,263.1V252.248l29.135,16.82V294.4L209.234,319.71l-.153.089v9.539l24.793,14.314c-.774.618-.688,1.483.276,2.04a4.279,4.279,0,0,0,3.871,0,1.179,1.179,0,0,0,0-2.234,4.325,4.325,0,0,0-3.533-.16l-24.794-14.314v-8.83l43.841-25.312.154-.088V268.713l-38.559-22.261,7.79-4.5,50.006,28.871v47.5l14.6,8.428v13.8l.613-.354V327.107l11.339,6.547.613-.355-26.549-15.328v-47.5L223.533,241.6l8.848-5.108,48.678,28.1-.154.267L327.222,291.6v5.845l9.4,5.427v9.332l.613-.354v-8.624l7.468,4.312.613-.354-17.481-10.094v-5.845L281.9,264.725h21.331l57.818,33.381.614-.354-57.2-33.027H366.6l26.13,15.086.613-.354Zm-170.673-7.459-71.826-41.468,71.824-41.467,71.825,41.468Z"
              fill="url(#a)"/>
        <g opacity="0.1">
            <polygon points="197.47 346.583 12.899 240.022 197.465 133.463 382.035 240.025 197.47 346.583"
                     fill="url(#b)"/>
        </g>
        <g opacity="0.1">
            <polygon points="197.469 330.057 41.523 240.022 197.465 149.989 353.411 240.025 197.469 330.057"
                     fill="url(#c)"/>
        </g>
        <g opacity="0.9">
            <polygon points="197.469 310.855 74.782 240.022 197.465 169.191 320.152 240.024 197.469 310.855"
                     fill="#3d61cc"/>
        </g>
        <path d="M197.023,320.039a12.174,12.174,0,0,1-5.921-1.475L61.419,243.692c-1.686-.974-2.652-2.288-2.652-3.605a3.344,3.344,0,0,1,1.922-2.832l131.148-75.718c2.693-1.555,7.405-1.366,10.5.422l129.683,74.872c1.686.974,2.652,2.287,2.652,3.6a3.347,3.347,0,0,1-1.922,2.832L201.6,318.986h0A9.351,9.351,0,0,1,197.023,320.039Zm-.6-158.917a8.673,8.673,0,0,0-4.257.977L61.013,237.817a2.734,2.734,0,0,0-1.6,2.27c0,1.08.849,2.188,2.329,3.043L191.427,318c2.918,1.684,7.338,1.875,9.851.421l131.148-75.719a2.73,2.73,0,0,0,1.6-2.27c0-1.08-.849-2.188-2.329-3.042L202.013,162.521A11.491,11.491,0,0,0,196.418,161.122Zm5.023,157.583h0Z"
              fill="#a2defe"/>
        <path d="M59.09,228.924l7.912,0L192,156.76c2.608-1.5,7.164-1.316,10.176.422l124.488,71.874,7.685,0v6.311h0a3.013,3.013,0,0,1-1.755,2.56L201.44,313.648c-2.608,1.506-7.164,1.317-10.176-.422L61.582,238.354c-1.689-.975-2.533-2.231-2.489-3.411h0Z"
              fill="url(#d)"/>
        <path d="M201.44,307.368l131.148-75.719c2.609-1.5,2.281-4.136-.73-5.875L202.175,150.9c-3.012-1.739-7.568-1.928-10.176-.422L60.851,226.2c-2.608,1.5-2.281,4.136.731,5.875l129.682,74.872C194.276,308.685,198.832,308.874,201.44,307.368Z"
              fill="url(#e)"/>
        <path d="M201.114,301.949,323.2,231.461c2.428-1.4,2.123-3.85-.681-5.469L201.8,156.291c-2.8-1.618-7.045-1.794-9.473-.392L70.236,226.387c-2.428,1.4-2.124,3.85.68,5.469l120.725,69.7C194.445,303.175,198.686,303.351,201.114,301.949Z"
              opacity="0.1" fill="url(#f)"/>
        <path d="M61.582,231.348,191.264,306.22c3.012,1.739,7.568,1.928,10.176.422l131.148-75.718a3.176,3.176,0,0,0,1.727-2.2,2.887,2.887,0,0,1-1.727,2.925L201.44,307.368c-2.608,1.506-7.164,1.317-10.176-.422L61.582,232.074c-1.816-1.049-2.649-2.421-2.457-3.676A4.492,4.492,0,0,0,61.582,231.348Z"
              fill="#fff"/>
        <path class="st1" d="M205.863,173.762a2.293,2.293,0,0,1-1.157-.3,2.93,2.93,0,0,1-1.272-2.7v-2.8a1.694,1.694,0,0,0-2.82-1.627l-2.428,1.4a.474.474,0,1,1-.474-.822l2.428-1.4a2.615,2.615,0,0,1,4.243,2.449v2.8a1.695,1.695,0,0,0,2.82,1.629l11.626-6.713a.475.475,0,0,1,.474.823l-11.626,6.712A3.677,3.677,0,0,1,205.863,173.762Z"
              fill="none" stroke="#a2defe" style="mix-blend-mode:lighten"/>
        <path class="st1" d="M210.383,176.362a2.277,2.277,0,0,1-1.155-.3,2.927,2.927,0,0,1-1.272-2.7v-2.8a1.694,1.694,0,0,0-2.82-1.628l-2.429,1.4a.474.474,0,0,1-.474-.822l2.428-1.4a2.615,2.615,0,0,1,4.243,2.45v2.8a1.694,1.694,0,0,0,2.821,1.627l11.625-6.711a.474.474,0,0,1,.474.822L212.2,175.814A3.681,3.681,0,0,1,210.383,176.362Z"
              fill="none" stroke="#a2defe" style="mix-blend-mode:lighten"/>
        <path class="st1" d="M214.905,178.963a2.281,2.281,0,0,1-1.156-.3,2.928,2.928,0,0,1-1.271-2.7v-2.8a1.694,1.694,0,0,0-2.821-1.628l-2.427,1.4a.475.475,0,1,1-.475-.822l2.428-1.4a2.615,2.615,0,0,1,4.243,2.45v2.8a1.694,1.694,0,0,0,2.821,1.627l11.624-6.711a.474.474,0,1,1,.474.822l-11.624,6.712A3.682,3.682,0,0,1,214.905,178.963Z"
              fill="none" stroke="#a2defe" style="mix-blend-mode:lighten"/>
        <path class="st1" d="M219.427,181.565a2.286,2.286,0,0,1-1.157-.3,2.927,2.927,0,0,1-1.271-2.7v-2.8a1.694,1.694,0,0,0-2.82-1.627l-2.428,1.4a.475.475,0,0,1-.474-.823l2.428-1.4a2.615,2.615,0,0,1,4.243,2.45v2.8a1.694,1.694,0,0,0,2.82,1.627l11.625-6.711a.475.475,0,1,1,.475.822l-11.626,6.712A3.678,3.678,0,0,1,219.427,181.565Z"
              fill="none" stroke="#a2defe" style="mix-blend-mode:lighten"/>
        <path class="st1" d="M223.949,184.166a2.292,2.292,0,0,1-1.158-.3,2.931,2.931,0,0,1-1.27-2.7v-2.8a1.694,1.694,0,0,0-2.821-1.627l-2.428,1.4a.474.474,0,0,1-.474-.822l2.428-1.4a2.614,2.614,0,0,1,4.243,2.449v2.8a1.7,1.7,0,0,0,2.821,1.629l11.625-6.713a.475.475,0,0,1,.474.823l-11.625,6.712A3.678,3.678,0,0,1,223.949,184.166Z"
              fill="none" stroke="#a2defe" style="mix-blend-mode:lighten"/>
        <path class="st1" d="M228.47,186.766a2.281,2.281,0,0,1-1.156-.3,2.928,2.928,0,0,1-1.271-2.7v-2.8a1.695,1.695,0,0,0-2.821-1.628l-2.428,1.4a.474.474,0,1,1-.474-.822l2.428-1.4a2.615,2.615,0,0,1,4.243,2.45v2.8a1.694,1.694,0,0,0,2.82,1.627l11.625-6.711a.474.474,0,0,1,.474.822l-11.624,6.711A3.687,3.687,0,0,1,228.47,186.766Z"
              fill="none" stroke="#a2defe" style="mix-blend-mode:lighten"/>
        <path class="st1" d="M232.991,189.367a2.28,2.28,0,0,1-1.155-.3,2.927,2.927,0,0,1-1.272-2.7v-2.8a1.694,1.694,0,0,0-2.82-1.628l-2.428,1.4a.474.474,0,0,1-.474-.822l2.428-1.4a2.615,2.615,0,0,1,4.243,2.45v2.8a1.694,1.694,0,0,0,2.82,1.627l11.624-6.711a.474.474,0,0,1,.474.822l-11.624,6.712A3.676,3.676,0,0,1,232.991,189.367Z"
              fill="none" stroke="#a2defe" style="mix-blend-mode:lighten"/>
        <path class="st1" d="M237.513,191.969a2.291,2.291,0,0,1-1.156-.3,2.928,2.928,0,0,1-1.272-2.7v-2.8a1.694,1.694,0,0,0-2.82-1.627l-2.428,1.4a.475.475,0,0,1-.474-.823l2.428-1.4a2.615,2.615,0,0,1,4.243,2.45v2.8a1.694,1.694,0,0,0,2.82,1.628l11.626-6.712a.474.474,0,0,1,.474.822l-11.626,6.712A3.678,3.678,0,0,1,237.513,191.969Z"
              fill="none" stroke="#a2defe" style="mix-blend-mode:lighten"/>
        <path class="st1" d="M242.035,194.57a2.285,2.285,0,0,1-1.157-.3,2.931,2.931,0,0,1-1.271-2.7v-2.8a1.694,1.694,0,0,0-2.82-1.627l-2.429,1.4a.474.474,0,1,1-.474-.822l2.428-1.4a2.614,2.614,0,0,1,4.243,2.449v2.8a1.7,1.7,0,0,0,2.821,1.629L255,186.487a.475.475,0,0,1,.474.823l-11.625,6.712A3.678,3.678,0,0,1,242.035,194.57Z"
              fill="none" stroke="#a2defe" style="mix-blend-mode:lighten"/>
        <path class="st1" d="M246.556,197.171a2.284,2.284,0,0,1-1.156-.3,2.931,2.931,0,0,1-1.271-2.7v-2.8a1.695,1.695,0,0,0-2.821-1.629l-2.427,1.4a.475.475,0,0,1-.475-.822l2.428-1.4a2.615,2.615,0,0,1,4.243,2.451v2.8A1.695,1.695,0,0,0,247.9,195.8l11.624-6.712a.474.474,0,1,1,.474.822l-11.624,6.712A3.671,3.671,0,0,1,246.556,197.171Z"
              fill="none" stroke="#a2defe" style="mix-blend-mode:lighten"/>
        <path class="st1" d="M251.078,199.771a2.281,2.281,0,0,1-1.156-.3,2.927,2.927,0,0,1-1.272-2.7v-2.8a1.694,1.694,0,0,0-2.82-1.629l-2.428,1.4a.474.474,0,1,1-.474-.822l2.428-1.4a2.615,2.615,0,0,1,4.243,2.451v2.8a1.694,1.694,0,0,0,2.82,1.627l11.625-6.711a.475.475,0,1,1,.475.822l-11.626,6.712A3.676,3.676,0,0,1,251.078,199.771Z"
              fill="none" stroke="#a2defe" style="mix-blend-mode:lighten"/>
        <path class="st1" d="M255.6,202.373a2.287,2.287,0,0,1-1.155-.3,2.925,2.925,0,0,1-1.272-2.7v-2.8a1.694,1.694,0,0,0-2.82-1.627l-2.429,1.4a.474.474,0,1,1-.474-.822l2.428-1.4a2.615,2.615,0,0,1,4.243,2.45v2.8A1.694,1.694,0,0,0,256.94,201l11.626-6.712a.474.474,0,1,1,.474.822l-11.626,6.712A3.678,3.678,0,0,1,255.6,202.373Z"
              fill="none" stroke="#a2defe" style="mix-blend-mode:lighten"/>
        <path class="st1" d="M260.121,204.974a2.282,2.282,0,0,1-1.156-.3,2.927,2.927,0,0,1-1.271-2.7v-2.8a1.694,1.694,0,0,0-2.821-1.627l-2.427,1.4a.475.475,0,1,1-.475-.822l2.428-1.4a2.615,2.615,0,0,1,4.243,2.449v2.8a1.694,1.694,0,0,0,2.82,1.629l11.625-6.712a.475.475,0,0,1,.474.823l-11.624,6.711A3.681,3.681,0,0,1,260.121,204.974Z"
              fill="none" stroke="#a2defe" style="mix-blend-mode:lighten"/>
        <path class="st1" d="M264.643,207.575a2.285,2.285,0,0,1-1.157-.3,2.931,2.931,0,0,1-1.271-2.7v-2.8a1.695,1.695,0,0,0-2.82-1.629l-2.428,1.4a.474.474,0,0,1-.474-.822l2.428-1.4a2.615,2.615,0,0,1,4.243,2.451v2.8a1.694,1.694,0,0,0,2.82,1.628l11.624-6.712a.474.474,0,1,1,.474.822l-11.624,6.712A3.668,3.668,0,0,1,264.643,207.575Z"
              fill="none" stroke="#a2defe" style="mix-blend-mode:lighten"/>
        <path class="st1" d="M269.164,210.175a2.283,2.283,0,0,1-1.156-.3,2.926,2.926,0,0,1-1.271-2.7v-2.8a1.7,1.7,0,0,0-2.821-1.629l-2.428,1.4a.475.475,0,0,1-.474-.823l2.428-1.4a2.615,2.615,0,0,1,4.243,2.451v2.8a1.694,1.694,0,0,0,2.82,1.627l11.626-6.711a.474.474,0,1,1,.474.822l-11.626,6.712A3.676,3.676,0,0,1,269.164,210.175Z"
              fill="none" stroke="#a2defe" style="mix-blend-mode:lighten"/>
        <path class="st1" d="M273.685,212.777a2.29,2.29,0,0,1-1.155-.3,2.93,2.93,0,0,1-1.272-2.7v-2.8a1.694,1.694,0,0,0-2.82-1.627l-2.429,1.4a.474.474,0,0,1-.474-.822l2.429-1.4a2.615,2.615,0,0,1,4.242,2.45v2.8a1.695,1.695,0,0,0,2.821,1.628l11.625-6.712a.474.474,0,1,1,.474.822L275.5,212.229A3.688,3.688,0,0,1,273.685,212.777Z"
              fill="none" stroke="#a2defe" style="mix-blend-mode:lighten"/>
        <path class="st1" d="M278.207,215.378a2.282,2.282,0,0,1-1.156-.3,2.926,2.926,0,0,1-1.271-2.7v-2.805a1.694,1.694,0,0,0-2.821-1.627l-2.427,1.4a.474.474,0,0,1-.474-.822l2.427-1.4a2.614,2.614,0,0,1,4.243,2.449v2.805a1.694,1.694,0,0,0,2.821,1.627l11.624-6.711a.474.474,0,1,1,.474.822l-11.624,6.711A3.684,3.684,0,0,1,278.207,215.378Z"
              fill="none" stroke="#a2defe" style="mix-blend-mode:lighten"/>
        <path class="st1" d="M282.73,217.979a2.283,2.283,0,0,1-1.157-.3,2.929,2.929,0,0,1-1.272-2.7v-2.8a1.694,1.694,0,0,0-2.82-1.628l-2.428,1.4a.474.474,0,0,1-.474-.822l2.428-1.4a2.615,2.615,0,0,1,4.243,2.45v2.8a1.694,1.694,0,0,0,2.82,1.628L295.7,209.9a.474.474,0,0,1,.474.822l-11.626,6.712A3.667,3.667,0,0,1,282.73,217.979Z"
              fill="none" stroke="#a2defe" style="mix-blend-mode:lighten"/>
        <path class="st1" d="M287.25,220.579a2.277,2.277,0,0,1-1.155-.3,2.925,2.925,0,0,1-1.272-2.7v-2.8A1.695,1.695,0,0,0,282,213.15l-2.429,1.4a.475.475,0,0,1-.474-.823l2.428-1.4a2.616,2.616,0,0,1,4.243,2.451v2.8a1.694,1.694,0,0,0,2.82,1.627l11.626-6.711a.474.474,0,1,1,.474.822l-11.626,6.712A3.676,3.676,0,0,1,287.25,220.579Z"
              fill="none" stroke="#a2defe" style="mix-blend-mode:lighten"/>
        <path class="st1" d="M291.771,223.181a2.29,2.29,0,0,1-1.155-.3,2.93,2.93,0,0,1-1.272-2.7v-2.8a1.694,1.694,0,0,0-2.82-1.627l-2.429,1.4a.474.474,0,0,1-.474-.822l2.429-1.4a2.614,2.614,0,0,1,4.242,2.449v2.8a1.695,1.695,0,0,0,2.821,1.628l11.625-6.712a.475.475,0,0,1,.474.823l-11.624,6.711A3.685,3.685,0,0,1,291.771,223.181Z"
              fill="none" stroke="#a2defe" style="mix-blend-mode:lighten"/>
        <path class="st1" d="M187.335,173.974a3.679,3.679,0,0,1-1.815-.547L173.9,166.714a.474.474,0,0,1,.474-.822l11.625,6.712a1.695,1.695,0,0,0,2.821-1.628v-2.8a2.615,2.615,0,0,1,4.242-2.451l2.428,1.4a.474.474,0,1,1-.474.822l-2.428-1.4a1.695,1.695,0,0,0-2.82,1.629v2.8a2.929,2.929,0,0,1-1.272,2.7A2.282,2.282,0,0,1,187.335,173.974Z"
              fill="none" stroke="#a2defe" style="mix-blend-mode:lighten"/>
        <path class="st1" d="M182.814,176.575a3.678,3.678,0,0,1-1.815-.548l-11.626-6.712a.474.474,0,0,1,.474-.822l11.626,6.712a1.694,1.694,0,0,0,2.82-1.628v-2.8a2.616,2.616,0,0,1,4.243-2.451l2.428,1.4a.475.475,0,0,1-.474.823l-2.428-1.4a1.695,1.695,0,0,0-2.82,1.629v2.8a2.926,2.926,0,0,1-1.272,2.7A2.282,2.282,0,0,1,182.814,176.575Z"
              fill="none" stroke="#a2defe" style="mix-blend-mode:lighten"/>
        <path class="st1" d="M178.293,179.176a3.681,3.681,0,0,1-1.816-.548l-11.625-6.711a.475.475,0,0,1,.474-.823l11.625,6.712a1.695,1.695,0,0,0,2.821-1.628v-2.8a2.614,2.614,0,0,1,4.243-2.449l2.428,1.4a.474.474,0,1,1-.474.822l-2.429-1.4a1.694,1.694,0,0,0-2.82,1.627v2.8a2.928,2.928,0,0,1-1.272,2.7A2.274,2.274,0,0,1,178.293,179.176Z"
              fill="none" stroke="#a2defe" style="mix-blend-mode:lighten"/>
        <path class="st1" d="M173.771,181.777a3.684,3.684,0,0,1-1.816-.548l-11.624-6.711a.474.474,0,0,1,.474-.822l11.624,6.711a1.694,1.694,0,0,0,2.821-1.627v-2.805a2.614,2.614,0,0,1,4.243-2.449l2.427,1.4a.474.474,0,1,1-.474.822l-2.427-1.4a1.694,1.694,0,0,0-2.821,1.627v2.805a2.926,2.926,0,0,1-1.271,2.7A2.282,2.282,0,0,1,173.771,181.777Z"
              fill="none" stroke="#a2defe" style="mix-blend-mode:lighten"/>
        <path class="st1" d="M169.248,184.378a3.675,3.675,0,0,1-1.814-.547l-11.626-6.713a.474.474,0,1,1,.474-.822l11.626,6.712a1.694,1.694,0,0,0,2.82-1.628v-2.8a2.615,2.615,0,0,1,4.243-2.45l2.428,1.4a.474.474,0,1,1-.474.822l-2.428-1.4a1.694,1.694,0,0,0-2.82,1.628v2.8a2.929,2.929,0,0,1-1.272,2.7A2.283,2.283,0,0,1,169.248,184.378Z"
              fill="none" stroke="#a2defe" style="mix-blend-mode:lighten"/>
        <path class="st1" d="M164.728,186.979a3.681,3.681,0,0,1-1.816-.548l-11.625-6.712a.474.474,0,0,1,.474-.822l11.625,6.712a1.695,1.695,0,0,0,2.821-1.628v-2.8a2.616,2.616,0,0,1,4.243-2.451l2.428,1.4a.475.475,0,0,1-.474.823l-2.428-1.4a1.695,1.695,0,0,0-2.821,1.628v2.8a2.928,2.928,0,0,1-1.271,2.7A2.282,2.282,0,0,1,164.728,186.979Z"
              fill="none" stroke="#a2defe" style="mix-blend-mode:lighten"/>
        <path class="st1" d="M160.206,189.58a3.678,3.678,0,0,1-1.815-.548l-11.625-6.711a.475.475,0,0,1,.474-.823l11.625,6.712a1.694,1.694,0,0,0,2.82-1.628v-2.8a2.615,2.615,0,0,1,4.243-2.449l2.428,1.4a.474.474,0,1,1-.474.822l-2.428-1.4a1.694,1.694,0,0,0-2.821,1.627v2.8a2.929,2.929,0,0,1-1.271,2.7A2.281,2.281,0,0,1,160.206,189.58Z"
              fill="none" stroke="#a2defe" style="mix-blend-mode:lighten"/>
        <path class="st1" d="M155.685,192.181a3.681,3.681,0,0,1-1.816-.548l-11.624-6.711a.474.474,0,0,1,.474-.822l11.624,6.711a1.694,1.694,0,0,0,2.821-1.627v-2.8a2.614,2.614,0,0,1,4.242-2.45l2.428,1.4a.474.474,0,1,1-.474.822l-2.428-1.4a1.694,1.694,0,0,0-2.82,1.628v2.8a2.928,2.928,0,0,1-1.271,2.7A2.284,2.284,0,0,1,155.685,192.181Z"
              fill="none" stroke="#a2defe" style="mix-blend-mode:lighten"/>
        <path class="st1" d="M151.162,194.782a3.675,3.675,0,0,1-1.814-.547l-11.626-6.713a.474.474,0,0,1,.474-.822l11.626,6.712a1.694,1.694,0,0,0,2.82-1.628v-2.8a2.615,2.615,0,0,1,4.243-2.45l2.428,1.4a.474.474,0,1,1-.474.822l-2.428-1.4a1.695,1.695,0,0,0-2.821,1.628v2.8a2.928,2.928,0,0,1-1.271,2.7A2.283,2.283,0,0,1,151.162,194.782Z"
              fill="none" stroke="#a2defe" style="mix-blend-mode:lighten"/>
        <path class="st1" d="M146.642,197.383a3.681,3.681,0,0,1-1.816-.548L133.2,190.123a.474.474,0,1,1,.474-.822l11.625,6.712a1.695,1.695,0,0,0,2.821-1.628v-2.8a2.615,2.615,0,0,1,4.242-2.451l2.429,1.4a.475.475,0,0,1-.474.823l-2.429-1.4a1.694,1.694,0,0,0-2.82,1.628v2.8a2.929,2.929,0,0,1-1.272,2.7A2.284,2.284,0,0,1,146.642,197.383Z"
              fill="none" stroke="#a2defe" style="mix-blend-mode:lighten"/>
        <path class="st1" d="M142.12,199.984a3.681,3.681,0,0,1-1.816-.548l-11.624-6.711a.475.475,0,0,1,.474-.823l11.624,6.712a1.695,1.695,0,0,0,2.821-1.628v-2.8a2.615,2.615,0,0,1,4.243-2.449l2.427,1.4a.474.474,0,1,1-.474.822l-2.427-1.4a1.694,1.694,0,0,0-2.821,1.627v2.8a2.929,2.929,0,0,1-1.271,2.7A2.281,2.281,0,0,1,142.12,199.984Z"
              fill="none" stroke="#a2defe" style="mix-blend-mode:lighten"/>
        <path class="st1" d="M137.6,202.585a3.678,3.678,0,0,1-1.815-.548l-11.626-6.711a.474.474,0,0,1,.474-.822l11.626,6.711a1.694,1.694,0,0,0,2.82-1.627v-2.8a2.615,2.615,0,0,1,4.243-2.45l2.428,1.4a.474.474,0,1,1-.474.822l-2.428-1.4a1.694,1.694,0,0,0-2.82,1.628v2.8a2.928,2.928,0,0,1-1.271,2.7A2.285,2.285,0,0,1,137.6,202.585Z"
              fill="none" stroke="#a2defe" style="mix-blend-mode:lighten"/>
        <path class="st1" d="M133.076,205.186a3.675,3.675,0,0,1-1.814-.547l-11.626-6.713a.474.474,0,0,1,.474-.822l11.626,6.712a1.694,1.694,0,0,0,2.82-1.628v-2.8a2.615,2.615,0,0,1,4.243-2.45l2.428,1.4a.474.474,0,0,1-.474.822l-2.428-1.4a1.695,1.695,0,0,0-2.821,1.628v2.8a2.928,2.928,0,0,1-1.271,2.7A2.285,2.285,0,0,1,133.076,205.186Z"
              fill="none" stroke="#a2defe" style="mix-blend-mode:lighten"/>
        <path class="st1" d="M128.555,207.787a3.684,3.684,0,0,1-1.816-.548l-11.624-6.712a.474.474,0,0,1,.474-.822l11.624,6.712a1.695,1.695,0,0,0,2.821-1.628v-2.8a2.616,2.616,0,0,1,4.243-2.451l2.428,1.4a.475.475,0,1,1-.475.822l-2.427-1.4a1.695,1.695,0,0,0-2.821,1.628v2.8a2.929,2.929,0,0,1-1.271,2.7A2.291,2.291,0,0,1,128.555,207.787Z"
              fill="none" stroke="#a2defe" style="mix-blend-mode:lighten"/>
        <path class="st1" d="M124.033,210.388a3.678,3.678,0,0,1-1.815-.548l-11.624-6.711a.475.475,0,1,1,.474-.823l11.624,6.712a1.694,1.694,0,0,0,2.82-1.628v-2.8a2.615,2.615,0,0,1,4.243-2.449l2.428,1.4a.474.474,0,1,1-.474.822l-2.428-1.4a1.694,1.694,0,0,0-2.82,1.627v2.8a2.928,2.928,0,0,1-1.272,2.7A2.281,2.281,0,0,1,124.033,210.388Z"
              fill="none" stroke="#a2defe" style="mix-blend-mode:lighten"/>
        <path class="st1" d="M119.512,212.989a3.668,3.668,0,0,1-1.815-.548l-11.626-6.711a.474.474,0,0,1,.474-.822l11.626,6.711a1.694,1.694,0,0,0,2.82-1.627v-2.8a2.615,2.615,0,0,1,4.243-2.45l2.428,1.4a.474.474,0,0,1-.474.822l-2.428-1.4a1.695,1.695,0,0,0-2.821,1.628v2.8a2.926,2.926,0,0,1-1.271,2.7A2.281,2.281,0,0,1,119.512,212.989Z"
              fill="none" stroke="#a2defe" style="mix-blend-mode:lighten"/>
        <path class="st1" d="M114.99,215.59a3.676,3.676,0,0,1-1.815-.547L101.55,208.33a.474.474,0,1,1,.474-.822l11.625,6.712a1.695,1.695,0,0,0,2.821-1.628v-2.8a2.615,2.615,0,0,1,4.242-2.45l2.429,1.4a.475.475,0,0,1-.474.823l-2.429-1.4a1.694,1.694,0,0,0-2.82,1.628v2.8a2.928,2.928,0,0,1-1.271,2.7A2.288,2.288,0,0,1,114.99,215.59Z"
              fill="none" stroke="#a2defe" style="mix-blend-mode:lighten"/>
        <path class="st1" d="M110.469,218.192a3.681,3.681,0,0,1-1.816-.548l-11.624-6.713a.474.474,0,1,1,.474-.822l11.624,6.713a1.7,1.7,0,0,0,2.821-1.629v-2.8a2.615,2.615,0,0,1,4.243-2.451l2.427,1.4a.474.474,0,1,1-.474.822l-2.427-1.4a1.695,1.695,0,0,0-2.821,1.628v2.8a2.931,2.931,0,0,1-1.271,2.7A2.294,2.294,0,0,1,110.469,218.192Z"
              fill="none" stroke="#a2defe" style="mix-blend-mode:lighten"/>
        <path class="st1" d="M105.947,220.792a3.678,3.678,0,0,1-1.815-.548l-11.626-6.711a.474.474,0,1,1,.474-.822l11.626,6.711a1.694,1.694,0,0,0,2.82-1.627v-2.8a2.615,2.615,0,0,1,4.243-2.45l2.428,1.4a.474.474,0,0,1-.474.822l-2.428-1.4a1.694,1.694,0,0,0-2.82,1.628v2.8a2.927,2.927,0,0,1-1.272,2.7A2.281,2.281,0,0,1,105.947,220.792Z"
              fill="none" stroke="#a2defe" style="mix-blend-mode:lighten"/>
        <path class="st1" d="M101.426,223.393a3.668,3.668,0,0,1-1.815-.548l-11.626-6.711a.474.474,0,0,1,.474-.822l11.626,6.711a1.694,1.694,0,0,0,2.82-1.627v-2.8a2.615,2.615,0,0,1,4.243-2.45l2.428,1.4a.474.474,0,1,1-.474.822l-2.428-1.4a1.695,1.695,0,0,0-2.821,1.628v2.8a2.925,2.925,0,0,1-1.272,2.7A2.277,2.277,0,0,1,101.426,223.393Z"
              fill="none" stroke="#a2defe" style="mix-blend-mode:lighten"/>
        <polygon points="107.231 217.962 107.231 228.285 196.56 279.859 285.893 228.283 285.893 217.96 107.231 217.962"
                 fill="url(#g)"/>
        <polygon points="196.56 269.536 285.893 217.96 196.563 166.386 107.231 217.962 196.56 269.536" fill="#4b95fa"/>
        <polygon
                points="196.56 268.33 284.848 217.357 285.893 217.96 196.56 269.536 107.231 217.962 108.275 217.359 196.56 268.33"
                fill="#66c6fe"/>
        <polygon points="196.561 257.641 265.269 217.972 196.563 178.304 127.854 217.973 196.561 257.641"
                 fill="#4164cd"/>
        <polygon points="196.561 257.642 265.27 217.972 196.563 178.304 127.853 217.974 196.561 257.642" opacity="0.5"
                 fill="url(#h)"/>
        <polygon points="196.563 168.301 127.853 207.97 127.853 217.973 196.563 178.303 196.563 168.301" opacity="0.5"
                 fill="url(#i)"/>
        <polygon points="196.561 178.303 265.27 217.972 265.27 207.969 196.563 168.301 196.561 178.303" opacity="0.5"
                 fill="url(#j)"/>
        <polygon points="196.561 247.639 265.27 207.969 196.563 168.301 127.853 207.97 196.561 247.639" opacity="0.5"
                 fill="url(#k)"/>
        <polygon points="196.561 223.821 224.016 207.97 196.562 192.119 169.107 207.97 196.561 223.821" fill="#a2defe"
                 opacity="0.5"/>
        <polygon
                points="196.562 193.577 170.37 208.699 169.107 207.97 196.562 192.119 224.016 207.97 222.753 208.699 196.562 193.577"
                fill="#a2defe" opacity="0.5"/>
        <polygon points="196.561 247.639 196.561 257.641 127.853 217.973 127.853 207.97 196.561 247.639" opacity="0.5"
                 fill="url(#l)"/>
        <polygon points="265.27 207.969 265.27 217.972 196.561 257.641 196.561 247.639 265.27 207.969" opacity="0.5"
                 fill="url(#m)"/>
        <polygon
                points="196.561 246.547 264.325 207.423 265.27 207.969 196.561 247.639 127.853 207.97 128.798 207.424 196.561 246.547"
                fill="#a2defe" opacity="0.8"/>
        <path class="st1" d="M174.132,292.309a.474.474,0,0,1-.237-.885l11.625-6.712a7.289,7.289,0,0,0,3.295-5.7v-2.8a8.224,8.224,0,0,1,3.768-6.529l2.428-1.4a.474.474,0,1,1,.474.822l-2.428,1.4a7.3,7.3,0,0,0-3.294,5.707v2.8a8.219,8.219,0,0,1-3.769,6.528l-11.625,6.711A.473.473,0,0,1,174.132,292.309Z"
              fill="none" stroke="#a2defe" style="mix-blend-mode:lighten"/>
        <path class="st1" d="M169.61,289.7a.475.475,0,0,1-.237-.886L181,282.107a7.293,7.293,0,0,0,3.294-5.706v-2.8a8.222,8.222,0,0,1,3.769-6.528l2.428-1.4a.475.475,0,0,1,.474.823l-2.428,1.4a7.288,7.288,0,0,0-3.294,5.7v2.8a8.22,8.22,0,0,1-3.769,6.528l-11.626,6.712A.481.481,0,0,1,169.61,289.7Z"
              fill="none" stroke="#a2defe" style="mix-blend-mode:lighten"/>
        <path class="st1" d="M165.089,287.1a.474.474,0,0,1-.237-.885l11.625-6.712a7.286,7.286,0,0,0,3.295-5.7v-2.8a8.219,8.219,0,0,1,3.768-6.528l2.429-1.4a.474.474,0,1,1,.474.822l-2.428,1.4a7.291,7.291,0,0,0-3.295,5.706v2.8a8.216,8.216,0,0,1-3.769,6.528l-11.625,6.711A.473.473,0,0,1,165.089,287.1Z"
              fill="none" stroke="#a2defe" style="mix-blend-mode:lighten"/>
        <path class="st1" d="M160.568,284.492a.474.474,0,0,1-.237-.885l11.624-6.711a7.288,7.288,0,0,0,3.295-5.706v-2.8a8.219,8.219,0,0,1,3.769-6.528l2.427-1.4a.474.474,0,1,1,.474.822l-2.427,1.4a7.292,7.292,0,0,0-3.295,5.705v2.8a8.216,8.216,0,0,1-3.769,6.528l-11.624,6.711A.473.473,0,0,1,160.568,284.492Z"
              fill="none" stroke="#a2defe" style="mix-blend-mode:lighten"/>
        <path class="st1" d="M156.045,281.887a.474.474,0,0,1-.237-.885l11.626-6.712a7.291,7.291,0,0,0,3.294-5.705v-2.8a8.223,8.223,0,0,1,3.769-6.528l2.428-1.4a.474.474,0,1,1,.474.822l-2.428,1.4a7.293,7.293,0,0,0-3.294,5.706v2.8a8.221,8.221,0,0,1-3.769,6.527l-11.626,6.712A.468.468,0,0,1,156.045,281.887Z"
              fill="none" stroke="#a2defe" style="mix-blend-mode:lighten"/>
        <path class="st1" d="M151.524,279.281a.474.474,0,0,1-.237-.885l11.625-6.711a7.3,7.3,0,0,0,3.295-5.706v-2.8a8.219,8.219,0,0,1,3.769-6.528l2.428-1.4a.474.474,0,1,1,.474.822l-2.428,1.4a7.293,7.293,0,0,0-3.295,5.706v2.8a8.219,8.219,0,0,1-3.769,6.528l-11.625,6.711A.47.47,0,0,1,151.524,279.281Z"
              fill="none" stroke="#a2defe" style="mix-blend-mode:lighten"/>
        <path class="st1" d="M147,276.676a.474.474,0,0,1-.237-.885l11.625-6.712a7.292,7.292,0,0,0,3.294-5.7v-2.805a8.216,8.216,0,0,1,3.769-6.527l2.428-1.4a.474.474,0,1,1,.474.822l-2.428,1.4a7.292,7.292,0,0,0-3.295,5.705v2.805a8.217,8.217,0,0,1-3.768,6.527l-11.625,6.712A.484.484,0,0,1,147,276.676Z"
              fill="none" stroke="#a2defe" style="mix-blend-mode:lighten"/>
        <path class="st1" d="M142.482,274.07a.474.474,0,0,1-.237-.885l11.624-6.711a7.293,7.293,0,0,0,3.295-5.706v-2.8a8.224,8.224,0,0,1,3.768-6.528l2.428-1.4a.474.474,0,1,1,.474.822l-2.428,1.4a7.294,7.294,0,0,0-3.294,5.706v2.8a8.222,8.222,0,0,1-3.769,6.528l-11.624,6.711A.473.473,0,0,1,142.482,274.07Z"
              fill="none" stroke="#a2defe" style="mix-blend-mode:lighten"/>
        <path class="st1" d="M137.959,271.465a.475.475,0,0,1-.237-.886l11.626-6.711a7.293,7.293,0,0,0,3.294-5.706v-2.8a8.219,8.219,0,0,1,3.769-6.527l2.428-1.4a.475.475,0,0,1,.474.823l-2.428,1.4a7.289,7.289,0,0,0-3.295,5.705v2.8a8.222,8.222,0,0,1-3.768,6.528L138.2,271.4A.481.481,0,0,1,137.959,271.465Z"
              fill="none" stroke="#a2defe" style="mix-blend-mode:lighten"/>
        <path class="st1" d="M133.438,268.859a.474.474,0,0,1-.237-.885l11.625-6.712a7.292,7.292,0,0,0,3.3-5.705v-2.8a8.221,8.221,0,0,1,3.768-6.528l2.429-1.4a.474.474,0,1,1,.474.822l-2.429,1.4a7.293,7.293,0,0,0-3.294,5.706v2.8a8.219,8.219,0,0,1-3.769,6.528L133.675,268.8A.473.473,0,0,1,133.438,268.859Z"
              fill="none" stroke="#a2defe" style="mix-blend-mode:lighten"/>
        <path class="st1" d="M128.917,266.254a.475.475,0,0,1-.237-.886l11.624-6.711a7.291,7.291,0,0,0,3.295-5.706v-2.8a8.219,8.219,0,0,1,3.769-6.528l2.427-1.4a.475.475,0,1,1,.474.823l-2.427,1.4a7.292,7.292,0,0,0-3.3,5.7v2.8a8.217,8.217,0,0,1-3.769,6.528l-11.624,6.712A.484.484,0,0,1,128.917,266.254Z"
              fill="none" stroke="#a2defe" style="mix-blend-mode:lighten"/>
        <path class="st1" d="M124.394,263.648a.474.474,0,0,1-.237-.885l11.626-6.712a7.291,7.291,0,0,0,3.294-5.7v-2.8a8.22,8.22,0,0,1,3.769-6.528l2.428-1.4a.474.474,0,1,1,.474.822l-2.428,1.4a7.29,7.29,0,0,0-3.294,5.706v2.8a8.225,8.225,0,0,1-3.769,6.528l-11.626,6.711A.468.468,0,0,1,124.394,263.648Z"
              fill="none" stroke="#a2defe" style="mix-blend-mode:lighten"/>
        <path class="st1" d="M119.873,261.042a.474.474,0,0,1-.237-.885l11.626-6.711a7.293,7.293,0,0,0,3.294-5.706v-2.8a8.219,8.219,0,0,1,3.769-6.528l2.428-1.4a.475.475,0,0,1,.474.823l-2.428,1.4a7.289,7.289,0,0,0-3.3,5.705v2.8a8.224,8.224,0,0,1-3.768,6.528l-11.626,6.711A.473.473,0,0,1,119.873,261.042Z"
              fill="none" stroke="#a2defe" style="mix-blend-mode:lighten"/>
        <path class="st1" d="M115.352,258.437a.474.474,0,0,1-.237-.885l11.624-6.712a7.289,7.289,0,0,0,3.295-5.705v-2.8A8.216,8.216,0,0,1,133.8,235.8l2.427-1.4a.475.475,0,1,1,.475.822l-2.428,1.4a7.294,7.294,0,0,0-3.295,5.706v2.8a8.216,8.216,0,0,1-3.769,6.527l-11.624,6.712A.473.473,0,0,1,115.352,258.437Z"
              fill="none" stroke="#a2defe" style="mix-blend-mode:lighten"/>
        <path class="st1" d="M110.831,255.831a.474.474,0,0,1-.237-.885l11.624-6.711a7.292,7.292,0,0,0,3.294-5.706v-2.8a8.225,8.225,0,0,1,3.769-6.528l2.428-1.4a.474.474,0,1,1,.474.822l-2.428,1.4a7.294,7.294,0,0,0-3.294,5.706v2.8a8.222,8.222,0,0,1-3.769,6.528l-11.624,6.711A.473.473,0,0,1,110.831,255.831Z"
              fill="none" stroke="#a2defe" style="mix-blend-mode:lighten"/>
        <path class="st1" d="M106.308,253.226a.475.475,0,0,1-.237-.886l11.626-6.711a7.291,7.291,0,0,0,3.294-5.7v-2.805a8.22,8.22,0,0,1,3.769-6.527l2.428-1.4a.474.474,0,1,1,.474.822l-2.428,1.4a7.289,7.289,0,0,0-3.3,5.705v2.805a8.22,8.22,0,0,1-3.768,6.527l-11.626,6.712A.47.47,0,0,1,106.308,253.226Z"
              fill="none" stroke="#a2defe" style="mix-blend-mode:lighten"/>
        <path class="st1" d="M101.787,250.62a.474.474,0,0,1-.237-.885l11.625-6.711a7.3,7.3,0,0,0,3.3-5.706v-2.8a8.218,8.218,0,0,1,3.768-6.528l2.429-1.4a.474.474,0,1,1,.474.822l-2.429,1.4a7.291,7.291,0,0,0-3.294,5.706v2.8a8.219,8.219,0,0,1-3.769,6.528l-11.625,6.711A.473.473,0,0,1,101.787,250.62Z"
              fill="none" stroke="#a2defe" style="mix-blend-mode:lighten"/>
        <path class="st1" d="M97.266,248.015a.475.475,0,0,1-.237-.886l11.624-6.711a7.291,7.291,0,0,0,3.295-5.705v-2.805a8.213,8.213,0,0,1,3.769-6.527l2.427-1.4a.475.475,0,1,1,.474.823l-2.427,1.4a7.286,7.286,0,0,0-3.3,5.7v2.805a8.216,8.216,0,0,1-3.769,6.527L97.5,247.952A.484.484,0,0,1,97.266,248.015Z"
              fill="none" stroke="#a2defe" style="mix-blend-mode:lighten"/>
        <path class="st1" d="M92.743,245.409a.474.474,0,0,1-.237-.885l11.626-6.712a7.291,7.291,0,0,0,3.294-5.705v-2.8a8.219,8.219,0,0,1,3.769-6.528l2.428-1.4a.474.474,0,1,1,.474.822l-2.428,1.4a7.29,7.29,0,0,0-3.294,5.706v2.8a8.225,8.225,0,0,1-3.769,6.528L92.98,245.346A.468.468,0,0,1,92.743,245.409Z"
              fill="none" stroke="#a2defe" style="mix-blend-mode:lighten"/>
        <path class="st1" d="M88.222,242.8a.475.475,0,0,1-.237-.886l11.626-6.711a7.293,7.293,0,0,0,3.294-5.706v-2.8a8.219,8.219,0,0,1,3.769-6.528l2.428-1.4a.475.475,0,0,1,.474.823l-2.428,1.4a7.289,7.289,0,0,0-3.3,5.705v2.8a8.222,8.222,0,0,1-3.768,6.528l-11.626,6.712A.484.484,0,0,1,88.222,242.8Z"
              fill="none" stroke="#a2defe" style="mix-blend-mode:lighten"/>
        <path class="st1" d="M219.307,292.309a.473.473,0,0,1-.237-.063l-11.625-6.711a8.218,8.218,0,0,1-3.768-6.528v-2.8a7.3,7.3,0,0,0-3.294-5.707l-2.429-1.4a.474.474,0,1,1,.474-.822l2.429,1.4a8.224,8.224,0,0,1,3.768,6.529v2.8a7.288,7.288,0,0,0,3.294,5.7l11.625,6.712a.474.474,0,0,1-.237.885Z"
              fill="none" stroke="#a2defe" style="mix-blend-mode:lighten"/>
        <path class="st1" d="M223.829,289.7a.484.484,0,0,1-.237-.063l-11.625-6.712A8.217,8.217,0,0,1,208.2,276.4v-2.8a7.291,7.291,0,0,0-3.294-5.7l-2.428-1.4a.475.475,0,1,1,.474-.823l2.428,1.4a8.224,8.224,0,0,1,3.768,6.528v2.8a7.291,7.291,0,0,0,3.3,5.706l11.625,6.711a.475.475,0,0,1-.237.886Z"
              fill="none" stroke="#a2defe" style="mix-blend-mode:lighten"/>
        <path class="st1" d="M228.351,287.1a.468.468,0,0,1-.237-.063l-11.625-6.711a8.217,8.217,0,0,1-3.77-6.528v-2.8a7.29,7.29,0,0,0-3.294-5.706l-2.428-1.4a.474.474,0,1,1,.474-.822l2.428,1.4a8.22,8.22,0,0,1,3.769,6.528v2.8a7.286,7.286,0,0,0,3.295,5.7l11.625,6.712a.474.474,0,0,1-.237.885Z"
              fill="none" stroke="#a2defe" style="mix-blend-mode:lighten"/>
        <path class="st1" d="M232.872,284.492a.473.473,0,0,1-.237-.063l-11.625-6.711a8.218,8.218,0,0,1-3.768-6.528v-2.8a7.29,7.29,0,0,0-3.3-5.705l-2.427-1.4a.474.474,0,1,1,.474-.822l2.428,1.4a8.219,8.219,0,0,1,3.769,6.528v2.8a7.29,7.29,0,0,0,3.294,5.706l11.625,6.711a.474.474,0,0,1-.237.885Z"
              fill="none" stroke="#a2defe" style="mix-blend-mode:lighten"/>
        <path class="st1" d="M237.394,281.887a.473.473,0,0,1-.237-.063l-11.626-6.712a8.22,8.22,0,0,1-3.768-6.527v-2.8a7.293,7.293,0,0,0-3.294-5.706l-2.429-1.4a.475.475,0,1,1,.475-.822l2.428,1.4a8.222,8.222,0,0,1,3.768,6.528v2.8a7.289,7.289,0,0,0,3.295,5.705L237.631,281a.474.474,0,0,1-.237.885Z"
              fill="none" stroke="#a2defe" style="mix-blend-mode:lighten"/>
        <path class="st1" d="M241.915,279.281a.473.473,0,0,1-.237-.063l-11.625-6.711a8.222,8.222,0,0,1-3.769-6.528v-2.8a7.294,7.294,0,0,0-3.294-5.706l-2.428-1.4a.474.474,0,0,1,.474-.822l2.428,1.4a8.225,8.225,0,0,1,3.769,6.528v2.8a7.294,7.294,0,0,0,3.294,5.706l11.626,6.711a.474.474,0,0,1-.238.885Z"
              fill="none" stroke="#a2defe" style="mix-blend-mode:lighten"/>
        <path class="st1" d="M246.437,276.676a.481.481,0,0,1-.237-.063L234.575,269.9a8.216,8.216,0,0,1-3.769-6.527v-2.805a7.289,7.289,0,0,0-3.3-5.705l-2.428-1.4a.474.474,0,0,1,.474-.822l2.428,1.4a8.216,8.216,0,0,1,3.769,6.527v2.805a7.294,7.294,0,0,0,3.3,5.7l11.625,6.712a.474.474,0,0,1-.237.885Z"
              fill="none" stroke="#a2defe" style="mix-blend-mode:lighten"/>
        <path class="st1" d="M250.958,274.07a.473.473,0,0,1-.237-.063L239.1,267.3a8.221,8.221,0,0,1-3.768-6.528v-2.8a7.294,7.294,0,0,0-3.3-5.706l-2.427-1.4a.474.474,0,0,1,.474-.822l2.428,1.4a8.219,8.219,0,0,1,3.769,6.528v2.8a7.294,7.294,0,0,0,3.294,5.706l11.625,6.711a.474.474,0,0,1-.237.885Z"
              fill="none" stroke="#a2defe" style="mix-blend-mode:lighten"/>
        <path class="st1" d="M255.48,271.465a.484.484,0,0,1-.237-.063l-11.625-6.712a8.22,8.22,0,0,1-3.769-6.528v-2.8a7.291,7.291,0,0,0-3.294-5.705l-2.428-1.4a.475.475,0,0,1,.474-.823l2.428,1.4a8.22,8.22,0,0,1,3.768,6.527v2.8a7.291,7.291,0,0,0,3.3,5.706l11.625,6.711a.474.474,0,0,1-.237.886Z"
              fill="none" stroke="#a2defe" style="mix-blend-mode:lighten"/>
        <path class="st1" d="M260,268.859a.468.468,0,0,1-.237-.063l-11.625-6.711a8.22,8.22,0,0,1-3.77-6.528v-2.8a7.29,7.29,0,0,0-3.294-5.706l-2.428-1.4a.474.474,0,1,1,.474-.822l2.428,1.4a8.219,8.219,0,0,1,3.769,6.528v2.8a7.292,7.292,0,0,0,3.3,5.705l11.625,6.712a.474.474,0,0,1-.237.885Z"
              fill="none" stroke="#a2defe" style="mix-blend-mode:lighten"/>
        <path class="st1" d="M264.523,266.254a.484.484,0,0,1-.237-.063l-11.625-6.712a8.219,8.219,0,0,1-3.768-6.528v-2.8a7.29,7.29,0,0,0-3.3-5.7l-2.427-1.4a.475.475,0,0,1,.474-.823l2.428,1.4a8.219,8.219,0,0,1,3.769,6.528v2.8a7.293,7.293,0,0,0,3.294,5.706l11.625,6.711a.475.475,0,0,1-.237.886Z"
              fill="none" stroke="#a2defe" style="mix-blend-mode:lighten"/>
        <path class="st1" d="M269.045,263.648a.473.473,0,0,1-.237-.063l-11.626-6.711a8.224,8.224,0,0,1-3.768-6.528v-2.8a7.293,7.293,0,0,0-3.294-5.706l-2.428-1.4a.474.474,0,1,1,.474-.822l2.428,1.4a8.222,8.222,0,0,1,3.768,6.528v2.8a7.289,7.289,0,0,0,3.295,5.7l11.625,6.712a.474.474,0,0,1-.237.885Z"
              fill="none" stroke="#a2defe" style="mix-blend-mode:lighten"/>
        <path class="st1" d="M273.566,261.042a.473.473,0,0,1-.237-.063L261.7,254.268a8.225,8.225,0,0,1-3.769-6.528v-2.8a7.288,7.288,0,0,0-3.294-5.705l-2.428-1.4a.475.475,0,0,1,.474-.823l2.428,1.4a8.225,8.225,0,0,1,3.769,6.528v2.8a7.293,7.293,0,0,0,3.294,5.706l11.626,6.711a.474.474,0,0,1-.238.885Z"
              fill="none" stroke="#a2defe" style="mix-blend-mode:lighten"/>
        <path class="st1" d="M278.088,258.437a.473.473,0,0,1-.237-.063l-11.625-6.712a8.216,8.216,0,0,1-3.769-6.527v-2.8a7.291,7.291,0,0,0-3.3-5.706l-2.428-1.4a.474.474,0,1,1,.474-.822l2.428,1.4a8.216,8.216,0,0,1,3.769,6.528v2.8a7.292,7.292,0,0,0,3.3,5.705l11.625,6.712a.474.474,0,0,1-.237.885Z"
              fill="none" stroke="#a2defe" style="mix-blend-mode:lighten"/>
        <path class="st1" d="M282.609,255.831a.473.473,0,0,1-.237-.063l-11.625-6.711a8.221,8.221,0,0,1-3.768-6.528v-2.8a7.3,7.3,0,0,0-3.295-5.706l-2.428-1.4a.474.474,0,1,1,.474-.822l2.428,1.4a8.219,8.219,0,0,1,3.769,6.528v2.8a7.293,7.293,0,0,0,3.295,5.706l11.624,6.711a.474.474,0,0,1-.237.885Z"
              fill="none" stroke="#a2defe" style="mix-blend-mode:lighten"/>
        <path class="st1" d="M287.131,253.226a.473.473,0,0,1-.237-.063l-11.625-6.712a8.219,8.219,0,0,1-3.769-6.527v-2.805a7.291,7.291,0,0,0-3.294-5.705l-2.428-1.4a.474.474,0,1,1,.474-.822l2.428,1.4a8.223,8.223,0,0,1,3.769,6.527v2.805a7.288,7.288,0,0,0,3.294,5.7l11.625,6.711a.474.474,0,0,1-.237.886Z"
              fill="none" stroke="#a2defe" style="mix-blend-mode:lighten"/>
        <path class="st1" d="M291.653,250.62a.47.47,0,0,1-.237-.063l-11.625-6.711a8.219,8.219,0,0,1-3.769-6.528v-2.8a7.29,7.29,0,0,0-3.3-5.706l-2.428-1.4a.474.474,0,1,1,.474-.822l2.428,1.4a8.216,8.216,0,0,1,3.769,6.528v2.8a7.3,7.3,0,0,0,3.295,5.706l11.625,6.711a.474.474,0,0,1-.237.885Z"
              fill="none" stroke="#a2defe" style="mix-blend-mode:lighten"/>
        <path class="st1" d="M296.174,248.015a.484.484,0,0,1-.237-.063l-11.625-6.712a8.217,8.217,0,0,1-3.768-6.527v-2.805a7.285,7.285,0,0,0-3.3-5.7l-2.427-1.4a.475.475,0,0,1,.474-.823l2.428,1.4a8.213,8.213,0,0,1,3.769,6.527v2.805a7.292,7.292,0,0,0,3.294,5.705l11.625,6.711a.475.475,0,0,1-.237.886Z"
              fill="none" stroke="#a2defe" style="mix-blend-mode:lighten"/>
        <path class="st1" d="M300.7,245.409a.473.473,0,0,1-.237-.063l-11.624-6.711a8.222,8.222,0,0,1-3.769-6.528v-2.8a7.293,7.293,0,0,0-3.294-5.706l-2.428-1.4a.474.474,0,1,1,.474-.822l2.428,1.4a8.221,8.221,0,0,1,3.768,6.528v2.8a7.289,7.289,0,0,0,3.3,5.705l11.624,6.712a.474.474,0,0,1-.237.885Z"
              fill="none" stroke="#a2defe" style="mix-blend-mode:lighten"/>
        <path class="st1" d="M305.218,242.8a.478.478,0,0,1-.237-.063l-11.626-6.712a8.223,8.223,0,0,1-3.769-6.528v-2.8a7.288,7.288,0,0,0-3.294-5.705l-2.428-1.4a.475.475,0,0,1,.474-.823l2.428,1.4a8.222,8.222,0,0,1,3.769,6.528v2.8a7.293,7.293,0,0,0,3.294,5.706l11.626,6.711a.475.475,0,0,1-.237.886Z"
              fill="none" stroke="#a2defe" style="mix-blend-mode:lighten"/>
        <path d="M174.025,214.645a4.5,4.5,0,1,1,4.532,4.465A4.5,4.5,0,0,1,174.025,214.645Z" fill="#3d61cc"/>
        <path d="M140.944,174.283a4.5,4.5,0,1,1,4.532,4.466A4.5,4.5,0,0,1,140.944,174.283Z" fill="#3d61cc"/>
        <path d="M200.3,135.48a4.84,4.84,0,1,1,4.875,4.8A4.84,4.84,0,0,1,200.3,135.48Z" fill="#3d61cc"/>
        <path d="M194.081,148.9a2.89,2.89,0,1,1,2.911,2.869A2.889,2.889,0,0,1,194.081,148.9Z" fill="#3d61cc"/>
        <path d="M203.376,148.309a1.86,1.86,0,1,1,1.873,1.846A1.86,1.86,0,0,1,203.376,148.309Z" fill="#3d61cc"/>
        <path d="M164.988,167.747a1.86,1.86,0,1,1,1.873,1.846A1.858,1.858,0,0,1,164.988,167.747Z" fill="#3d61cc"/>
        <path d="M221.61,150.035a.565.565,0,1,1,.569.559A.565.565,0,0,1,221.61,150.035Z" fill="#3d61cc"/>
        <path d="M202.361,163.689a.564.564,0,1,1,.568.56A.564.564,0,0,1,202.361,163.689Z" fill="#3d61cc"/>
        <path d="M165.145,189.086a.564.564,0,1,1,.568.56A.564.564,0,0,1,165.145,189.086Z" fill="#3d61cc"/>
        <path d="M173.828,187.936a.564.564,0,1,1,.568.56A.565.565,0,0,1,173.828,187.936Z" fill="#3d61cc"/>
        <path d="M211.863,178.26a6.868,6.868,0,1,1,6.918,6.817A6.867,6.867,0,0,1,211.863,178.26Z" fill="#3d61cc"/>
        <path d="M227.7,214.249a3.416,3.416,0,1,1,3.441,3.391A3.416,3.416,0,0,1,227.7,214.249Z" fill="#3d61cc"/>
        <path d="M185.14,169.459a3.416,3.416,0,1,1,3.441,3.39A3.415,3.415,0,0,1,185.14,169.459Z" fill="#3d61cc"/>
        <path d="M243.069,148.542a3.416,3.416,0,1,1,3.441,3.391A3.416,3.416,0,0,1,243.069,148.542Z" fill="#3d61cc"/>
        <path d="M255.064,196.725a3.416,3.416,0,1,1,3.441,3.39A3.416,3.416,0,0,1,255.064,196.725Z" fill="#3d61cc"/>
        <path d="M166.489,119.174a3.416,3.416,0,1,1,3.441,3.391A3.417,3.417,0,0,1,166.489,119.174Z" fill="#3d61cc"/>
        <path d="M226.823,95.805a3.416,3.416,0,1,1,3.441,3.39A3.415,3.415,0,0,1,226.823,95.805Z" fill="#3d61cc"/>
        <path d="M191.16,67.647a1.646,1.646,0,1,1,1.658,1.634A1.646,1.646,0,0,1,191.16,67.647Z" fill="#3d61cc"/>
        <path d="M175.326,199.314a2,2,0,1,1,2.017,1.987A2,2,0,0,1,175.326,199.314Z" fill="#3d61cc"/>
        <path d="M219.067,163a2,2,0,1,1,2.016,1.987A2,2,0,0,1,219.067,163Z" fill="#3d61cc"/>
        <path d="M237.31,181.04a1.352,1.352,0,1,1,1.362,1.342A1.352,1.352,0,0,1,237.31,181.04Z" fill="#3d61cc"/>
        <path d="M240.034,183.752a1.962,1.962,0,1,1,1.976,1.947A1.961,1.961,0,0,1,240.034,183.752Z" fill="#3d61cc"/>
        <path d="M237.12,187.47a1.086,1.086,0,1,1,1.094,1.078A1.085,1.085,0,0,1,237.12,187.47Z" fill="#3d61cc"/>
        <path d="M200.748,196.1a1.411,1.411,0,1,1,1.421,1.4A1.411,1.411,0,0,1,200.748,196.1Z" fill="#3d61cc"/>
        <path d="M168.22,170.3a1.411,1.411,0,1,1,1.421,1.4A1.411,1.411,0,0,1,168.22,170.3Z" fill="#3d61cc"/>
        <path d="M193.126,191.268a3.474,3.474,0,1,1,3.5,3.449A3.473,3.473,0,0,1,193.126,191.268Z" fill="#3d61cc"/>
        <polygon points="265.27 207.969 265.27 0 127.853 0 127.853 207.97 196.561 247.639 265.27 207.969"
                 fill="url(#n)"/>
    </g>
</svg>