<svg xmlns="http://www.w3.org/2000/svg" viewBox="0 0 171.664 112.17"><title>Empty-ilustration-transparent</title><g opacity="0.5"><path d="M22.932,105.348H153.455a3.411,3.411,0,0,1,3.411,3.411h0a3.411,3.411,0,0,1-3.411,3.411H22.932a3.411,3.411,0,0,1-3.411-3.411h0A3.411,3.411,0,0,1,22.932,105.348Z" fill="#242424"/><path d="M36.364,28.832H140.022a5,5,0,0,1,5,5v71.56H31.364V33.832A5,5,0,0,1,36.364,28.832Z" fill="#191919"/><path d="M77.116,105.437H99.27a3.748,3.748,0,0,1-3.748,3.748H80.864a3.748,3.748,0,0,1-3.748-3.748Z" fill="#191919"/><polygon points="31.364 46.742 31.364 42.455 41.653 28.788 44.88 28.788 31.364 46.742" fill="#242424"/><polygon points="31.364 57.685 31.364 49.805 47.186 28.788 53.117 28.788 31.364 57.685" fill="#242424"/><path d="M63.216,75.541V20.854A11.092,11.092,0,0,1,74.308,9.762h46.656l12.317,12.317v52.4a11.094,11.094,0,0,1-11.093,11.093H55.229a9.193,9.193,0,0,0,7.987-9.118v-2.41" fill="#242424"/><path d="M121.907,85.573H55.873a8.966,8.966,0,0,0-8.966,8.966h0v10.9H116.24v-10.9C116.24,90.754,118.59,86.888,121.907,85.573Z" fill="#242424"/><path d="M121.907,85.573H55.873a8.966,8.966,0,0,0-8.966,8.966h0V95.3H116.24v-.756C116.24,90.754,118.59,86.888,121.907,85.573Z" fill="#282828"/><polyline points="133.281 22.079 120.657 22.079 120.657 9.295" fill="#191919"/><rect x="72.285" y="31.125" width="38.494" height="1.84" rx="0.92" ry="0.92" fill="#1b1b1b"/><rect x="72.285" y="37.625" width="19.56" height="1.84" rx="0.92" ry="0.92" fill="#1b1b1b"/><path d="M57.583,92H94.237a.92.92,0,0,1,.92.92h0a.92.92,0,0,1-.92.92H57.583a.92.92,0,0,1-.92-.92h0A.92.92,0,0,1,57.583,92Z" fill="#191919"/><path d="M57.583,98.5H75.3a.92.92,0,0,1,.92.92h0a.92.92,0,0,1-.92.92H57.583a.92.92,0,0,1-.92-.92h0A.92.92,0,0,1,57.583,98.5Z" fill="#1b1b1b"/><rect x="72.285" y="54.42" width="22.872" height="1.84" rx="0.92" ry="0.92" fill="#1b1b1b"/><rect x="72.285" y="59.858" width="12.639" height="1.84" rx="0.92" ry="0.92" fill="#1b1b1b"/><path d="M123.487,70.135H102.455a.92.92,0,0,1-.92-.92h0a.92.92,0,0,1,.92-.92h21.032a.92.92,0,0,1,.92.92h0A.92.92,0,0,1,123.487,70.135Z" fill="#1b1b1b"/><path d="M123.487,75.572h-10.8a.92.92,0,0,1-.92-.92h0a.92.92,0,0,1,.92-.92h10.8a.92.92,0,0,1,.92.92h0A.92.92,0,0,1,123.487,75.572Z" fill="#1b1b1b"/><rect x="72.285" y="48.375" width="33.766" height="1.84" rx="0.92" ry="0.92" fill="#1b1b1b"/><path d="M8,72.35a1.5,1.5,0,0,1-1.5,1.5h-1v1a1.5,1.5,0,0,1-3,0v-1h-1a1.5,1.5,0,0,1,0-3h1v-1a1.5,1.5,0,0,1,3,0v1h1A1.5,1.5,0,0,1,8,72.35Z" fill="#191919"/><path d="M40.318,8a4,4,0,1,1,4-4A4,4,0,0,1,40.318,8Zm0-5a1,1,0,1,0,1,1A1,1,0,0,0,40.318,3Z" fill="#191919"/><path d="M159.365,85.132a3.5,3.5,0,1,1,3.5-3.5A3.5,3.5,0,0,1,159.365,85.132Zm0-5a1.5,1.5,0,1,0,1.5,1.5A1.5,1.5,0,0,0,159.365,80.132Z" fill="#191919"/><path d="M170.665,31.57h-6.039a1,1,0,0,1-.866-1.5l3.019-5.229a1.04,1.04,0,0,1,1.442-.29,1.027,1.027,0,0,1,.29.29l3.02,5.229a1,1,0,0,1-.866,1.5Zm-4.307-2h2.575l-1.288-2.229Z" fill="#191919"/></g></svg>