<svg xmlns="http://www.w3.org/2000/svg" viewBox="0 0 97.77 52.181"><title>empty-ilustration</title><path d="M26.929,48.083a4.1,4.1,0,0,1,0-8.2H4.1a4.1,4.1,0,1,1,0-8.2H27.514a4.1,4.1,0,1,0,0-8.2H12.879a4.1,4.1,0,1,1,0-8.2H36.3a4.1,4.1,0,0,1,0-8.2H93.67a4.1,4.1,0,0,1,0,8.2H70.249a4.1,4.1,0,0,1,0,8.2H83.129a4.1,4.1,0,0,1,0,8.2H77.172c-2.854,0-5.166,1.835-5.166,4.1s3.512,4.1,3.512,4.1a4.1,4.1,0,0,1,0,8.2Zm62.639-20.49a4.1,4.1,0,1,1,4.1,4.1h0A4.1,4.1,0,0,1,89.568,27.593Z" fill="#192431"/><path d="M32.381,19.556,27.087,35.209V49.681h43V35.209L64.8,19.556H32.381m-.534-2.5H65.33a1.756,1.756,0,0,1,1.664,1.194l5.6,16.548V50.424a1.757,1.757,0,0,1-1.756,1.757H26.343a1.757,1.757,0,0,1-1.756-1.757V34.8l5.6-16.548A1.755,1.755,0,0,1,31.847,17.056ZM48.562,44.068h-.068a8.421,8.421,0,0,1-5.926-2.418,8.189,8.189,0,0,1-2.475-5.791,1.25,1.25,0,0,1,.15-2.491H56.759a1.25,1.25,0,0,1,.2,2.484,8.188,8.188,0,0,1-2.481,5.8A8.417,8.417,0,0,1,48.562,44.068Zm-.034-2.5c.012,0,.022,0,.034,0a5.943,5.943,0,0,0,4.178-1.7,5.685,5.685,0,0,0,1.724-4H42.593a5.685,5.685,0,0,0,1.719,3.991,5.944,5.944,0,0,0,4.182,1.709Zm8.255-29.259a1.25,1.25,0,0,1-.933-2.082l6.5-7.29A1.25,1.25,0,1,1,64.215,4.6l-6.5,7.29A1.242,1.242,0,0,1,56.783,12.309Zm-17.5,0a1.246,1.246,0,0,1-.933-.418L31.85,4.6a1.25,1.25,0,1,1,1.865-1.664l6.5,7.29a1.249,1.249,0,0,1-.932,2.082Zm8.8-9.809a1.25,1.25,0,0,1-.01-2.5h.01a1.25,1.25,0,0,1,0,2.5Z" fill="#8798ad"/></svg>