<svg xmlns="http://www.w3.org/2000/svg" xmlns:xlink="http://www.w3.org/1999/xlink" preserveAspectRatio="xMidYMid" width="258" height="258" viewBox="0 0 258 258">
  <defs>
    <style>
      .cls-1 {
        fill: #4c537a;
      }

      .cls-2 {
        fill: #3674ee;
      }

      .cls-2, .cls-3, .cls-5, .cls-6 {
        fill-rule: evenodd;
      }

      .cls-3, .cls-4 {
        fill: #292d42;
      }

      .cls-5 {
        fill: #2355b5;
      }

      .cls-6 {
        fill: #fff;
      }
    </style>
  </defs>
  <g>
    <circle cx="129.203" cy="129.063" r="129.203" class="cls-1"/>
    <path d="M192.816,78.919 C177.972,59.973 154.887,47.781 128.937,47.781 C84.151,47.781 47.844,84.053 47.844,128.797 C47.844,173.541 84.151,209.812 128.937,209.812 C154.187,209.812 176.739,198.281 191.612,180.205 L211.109,200.112 L255.401,156.819 C242.688,214.756 191.020,258.125 129.203,258.125 C57.846,258.125 -0.000,200.342 -0.000,129.063 C-0.000,57.783 57.846,0.000 129.203,0.000 C168.485,0.000 203.668,17.516 227.365,45.150 L192.816,78.919 Z" class="cls-2"/>
    <path d="M180.562,232.596 L99.178,150.696 L162.515,135.370 L241.854,128.543 L257.505,140.694 L180.562,232.596 Z" class="cls-3"/>
    <ellipse cx="128.922" cy="128.797" rx="37.109" ry="37.078" class="cls-4"/>
    <path d="M190.504,242.688 L153.767,205.913 C185.696,195.655 208.991,166.166 209.975,131.097 L240.755,124.150 L257.838,140.953 C253.808,185.006 227.625,222.658 190.504,242.688 Z" class="cls-5"/>
    <path d="M207.811,209.447 C203.413,213.845 196.282,213.845 191.884,209.447 C187.485,205.049 187.485,197.918 191.884,193.520 C196.282,189.121 203.413,189.121 207.811,193.520 C212.209,197.918 212.209,205.049 207.811,209.447 ZM127.426,242.744 C121.206,242.744 116.163,237.702 116.163,231.482 C116.163,225.262 121.206,220.219 127.426,220.219 C133.646,220.219 138.688,225.262 138.688,231.482 C138.688,237.702 133.646,242.744 127.426,242.744 ZM127.426,37.902 C121.206,37.902 116.163,32.860 116.163,26.640 C116.163,20.420 121.206,15.377 127.426,15.377 C133.646,15.377 138.688,20.420 138.688,26.640 C138.688,32.860 133.646,37.902 127.426,37.902 ZM62.968,209.447 C58.569,213.845 51.439,213.845 47.040,209.447 C42.642,205.049 42.642,197.918 47.040,193.520 C51.439,189.121 58.569,189.121 62.968,193.520 C67.366,197.918 67.366,205.049 62.968,209.447 ZM62.968,64.602 C58.569,69.000 51.439,69.000 47.040,64.602 C42.642,60.204 42.642,53.073 47.040,48.674 C51.439,44.276 58.569,44.276 62.968,48.674 C67.366,53.073 67.366,60.204 62.968,64.602 ZM25.006,140.323 C18.786,140.323 13.744,135.281 13.744,129.061 C13.744,122.841 18.786,117.798 25.006,117.798 C31.226,117.798 36.268,122.841 36.268,129.061 C36.268,135.281 31.226,140.323 25.006,140.323 Z" class="cls-6"/>
    <path d="M125.875,119.187 L232.563,119.187 C238.016,119.187 242.438,123.609 242.438,129.063 C242.438,134.516 238.016,138.938 232.563,138.938 L125.875,138.938 C120.421,138.938 116.000,134.516 116.000,129.063 C116.000,123.609 120.421,119.187 125.875,119.187 Z" class="cls-6"/>
  </g>
</svg>
