<svg xmlns="http://www.w3.org/2000/svg" viewBox="0 0 600.1 110.3"><title>Ресурс 1</title><path d="M340.4,8.8h10L404.8,88h.3V8.8H414v93.4H404L349.5,23h-.3v79.2h-8.9V8.7h.1Zm-14.6,93.6h9.5L298.7,8.9h-10l-37.8,93.5h9.5l8-20.5h49.3l8.1,20.5ZM271.6,74.2l21.7-55.7,21.5,55.7ZM205.7,6.6c-27.9,0-47.5,21.8-47.5,48.6s19.7,48.6,47.5,48.6c28.3,0,47.6-21.8,47.6-48.6C253.3,28.3,233.4,6.6,205.7,6.6Zm0,89.1c-23.2,0-39.6-18.1-39.6-40.6,0-22.3,16.3-40.6,39.6-40.6,23.2,0,39.7,18.1,39.7,40.6S229.2,95.7,205.7,95.7ZM426.1,8.8h29.7c28.1.7,47,22.3,47,48.3,0,24.1-18.9,45.2-47,45.2H426.1ZM435,94.2h20.4c25.3,0,39.1-19.2,39.1-37.6,0-19.5-12.5-39.7-39.1-39.7H435Zm154.4,8.2h10.7L521.6,8.9h-9v93.5h8.9V81.9h50.9Zm-68-28.2V22.5h.8l43.5,51.7Z"/><path d="M39.3,108a55.371,55.371,0,0,0,47.1-7.4L39.3,44.8ZM0,55.3A55,55,0,0,0,15.8,93.9V16.7A54.4,54.4,0,0,0,0,55.3ZM39.3,8.8l63.1,75.1A55.2,55.2,0,0,0,25.5,8.7C25.5,8.6,39.3,8.8,39.3,8.8Z" fill="#97d700"/></svg>