<?xml version="1.0" encoding="UTF-8" standalone="no"?>
<svg
   xmlns:dc="http://purl.org/dc/elements/1.1/"
   xmlns:cc="http://creativecommons.org/ns#"
   xmlns:rdf="http://www.w3.org/1999/02/22-rdf-syntax-ns#"
   xmlns:svg="http://www.w3.org/2000/svg"
   xmlns="http://www.w3.org/2000/svg"
   xmlns:sodipodi="http://sodipodi.sourceforge.net/DTD/sodipodi-0.dtd"
   xmlns:inkscape="http://www.inkscape.org/namespaces/inkscape"
   width="193.34518mm"
   height="28.137026mm"
   viewBox="0 0 193.34519 28.137026"
   version="1.1"
   id="svg16"
   inkscape:version="1.0.1 (3bc2e813f5, 2020-09-07)"
   sodipodi:docname="SWING2.svg">
  <defs
     id="defs10">
    <marker
       style="overflow:visible"
       id="Arrow1Lend"
       refX="0"
       refY="0"
       orient="auto"
       inkscape:stockid="Arrow1Lend"
       inkscape:isstock="true">
      <path
         transform="matrix(-0.8,0,0,-0.8,-10,0)"
         style="fill:#000000;fill-opacity:1;fill-rule:evenodd;stroke:#000000;stroke-width:1pt;stroke-opacity:1"
         d="M 0,0 5,-5 -12.5,0 5,5 Z"
         id="path974" />
    </marker>
    <marker
       style="overflow:visible"
       id="Arrow1Mstart"
       refX="0"
       refY="0"
       orient="auto"
       inkscape:stockid="Arrow1Mstart"
       inkscape:isstock="true">
      <path
         transform="matrix(0.4,0,0,0.4,4,0)"
         style="fill:#000000;fill-opacity:1;fill-rule:evenodd;stroke:#000000;stroke-width:1pt;stroke-opacity:1"
         d="M 0,0 5,-5 -12.5,0 5,5 Z"
         id="path977" />
    </marker>
    <inkscape:path-effect
       effect="powerstroke"
       id="path-effect961"
       is_visible="true"
       lpeversion="1"
       offset_points="7,1.40607"
       sort_points="true"
       interpolator_type="CubicBezierJohan"
       interpolator_beta="0.2"
       start_linecap_type="zerowidth"
       linejoin_type="extrp_arc"
       miter_limit="4"
       scale_width="1"
       end_linecap_type="zerowidth" />
    <inkscape:path-effect
       effect="powerstroke"
       id="path-effect949"
       is_visible="true"
       lpeversion="1"
       offset_points="9,1.40607"
       sort_points="true"
       interpolator_type="CubicBezierJohan"
       interpolator_beta="0.2"
       start_linecap_type="zerowidth"
       linejoin_type="extrp_arc"
       miter_limit="4"
       scale_width="1"
       end_linecap_type="zerowidth" />
    <inkscape:path-effect
       effect="powerstroke"
       id="path-effect941"
       is_visible="true"
       lpeversion="1"
       offset_points="6,0.1322915"
       sort_points="true"
       interpolator_type="CubicBezierJohan"
       interpolator_beta="0.2"
       start_linecap_type="zerowidth"
       linejoin_type="extrp_arc"
       miter_limit="4"
       scale_width="1"
       end_linecap_type="zerowidth" />
    <inkscape:path-effect
       effect="powerstroke"
       id="path-effect937"
       is_visible="true"
       lpeversion="1"
       offset_points="4,0.1322915"
       sort_points="true"
       interpolator_type="CubicBezierJohan"
       interpolator_beta="0.2"
       start_linecap_type="zerowidth"
       linejoin_type="extrp_arc"
       miter_limit="4"
       scale_width="1"
       end_linecap_type="zerowidth" />
    <inkscape:path-effect
       effect="powerstroke"
       id="path-effect925"
       is_visible="true"
       lpeversion="1"
       offset_points="4,0.1322915"
       sort_points="true"
       interpolator_type="CubicBezierJohan"
       interpolator_beta="0.2"
       start_linecap_type="zerowidth"
       linejoin_type="extrp_arc"
       miter_limit="4"
       scale_width="1"
       end_linecap_type="zerowidth" />
    <inkscape:path-effect
       effect="powerstroke"
       id="path-effect34"
       is_visible="true"
       lpeversion="1"
       offset_points="1,0.1322915"
       sort_points="true"
       interpolator_type="CubicBezierJohan"
       interpolator_beta="0.2"
       start_linecap_type="zerowidth"
       linejoin_type="extrp_arc"
       miter_limit="4"
       scale_width="1"
       end_linecap_type="zerowidth" />
    <inkscape:path-effect
       effect="bspline"
       id="path-effect32"
       is_visible="true"
       lpeversion="1"
       weight="33.333333"
       steps="2"
       helper_size="0"
       apply_no_weight="true"
       apply_with_weight="true"
       only_selected="false" />
    <inkscape:path-effect
       effect="powerstroke"
       id="path-effect28"
       is_visible="true"
       lpeversion="1"
       offset_points="1,0.1322915"
       sort_points="true"
       interpolator_type="CubicBezierJohan"
       interpolator_beta="0.2"
       start_linecap_type="zerowidth"
       linejoin_type="extrp_arc"
       miter_limit="4"
       scale_width="1"
       end_linecap_type="zerowidth" />
  </defs>
  <sodipodi:namedview
     id="base"
     pagecolor="#ffffff"
     bordercolor="#666666"
     borderopacity="1.0"
     inkscape:pageopacity="0.0"
     inkscape:pageshadow="2"
     inkscape:zoom="0.98994949"
     inkscape:cx="531.24412"
     inkscape:cy="240.17327"
     inkscape:document-units="mm"
     inkscape:current-layer="layer1"
     inkscape:document-rotation="0"
     showgrid="false"
     inkscape:window-width="1906"
     inkscape:window-height="2054"
     inkscape:window-x="274"
     inkscape:window-y="63"
     inkscape:window-maximized="0"
     inkscape:snap-text-baseline="true"
     showguides="true"
     inkscape:guide-bbox="true"
     inkscape:snap-nodes="true"
     inkscape:snap-bbox="false"
     inkscape:object-nodes="false"
     inkscape:snap-global="true">
    <sodipodi:guide
       position="113.57892,-73.500165"
       orientation="1,0"
       id="guide905" />
    <sodipodi:guide
       position="125.60605,-102.63254"
       orientation="1,0"
       id="guide907" />
  </sodipodi:namedview>
  <metadata
     id="metadata13">
    <rdf:RDF>
      <cc:Work
         rdf:about="">
        <dc:format>image/svg+xml</dc:format>
        <dc:type
           rdf:resource="http://purl.org/dc/dcmitype/StillImage" />
        <dc:title></dc:title>
      </cc:Work>
    </rdf:RDF>
  </metadata>
  <g
     inkscape:label="Layer 1"
     inkscape:groupmode="layer"
     id="layer1"
     transform="translate(147.87524,-119.64835)">
    <path
       id="rect18"
       style="fill:#000000;stroke-width:0.792942;stroke-miterlimit:4;stroke-dasharray:none"
       d="m -23.071001,145.04396 h 68.273675 v 3.16894 h -68.273675 z" />
    <g
       aria-label="Swing"
       id="text865"
       style="font-style:normal;font-variant:normal;font-weight:bold;font-stretch:normal;font-size:38.6606px;line-height:1.25;font-family:'Fira Sans';-inkscape-font-specification:'Fira Sans Bold';fill:#000000;fill-opacity:1;stroke:none;stroke-width:0.966521">
      <g
         aria-label="SWING"
         transform="scale(1.0173877,0.98290947)"
         id="text2631"
         style="font-style:normal;font-weight:normal;font-size:37.857px;line-height:1.25;font-family:sans-serif;fill:#000000;fill-opacity:1;stroke:none;stroke-width:0.914741">
        <path
           d="m -135.08873,121.72875 c -5.29998,0 -9.16139,2.91499 -9.16139,7.38212 0,3.97498 2.27142,6.2464 7.94997,8.02568 3.97498,1.21143 4.99712,2.11999 4.99712,4.20213 0,2.30928 -1.81714,3.59641 -4.50498,3.59641 -2.68785,0 -4.76999,-0.98428 -6.70069,-2.61213 l -2.83928,3.14213 c 2.15785,2.11999 5.33784,3.67213 9.69139,3.67213 6.35998,0 10.14568,-3.36927 10.14568,-8.17711 0,-4.8457 -3.02856,-6.81426 -7.76068,-8.32854 -4.27785,-1.32499 -5.26213,-2.08213 -5.26213,-3.89927 0,-1.85499 1.55214,-2.83928 3.82356,-2.83928 2.11999,0 3.93713,0.68143 5.79212,2.19571 l 2.64999,-3.06642 c -2.27142,-2.11999 -4.92141,-3.29356 -8.82068,-3.29356 z"
           style="font-style:normal;font-variant:normal;font-weight:600;font-stretch:normal;font-family:'Fira Sans';-inkscape-font-specification:'Fira Sans Semi-Bold';stroke-width:0.914741"
           id="path2697" />
        <path
           d="m -93.483949,122.33447 h -5.262123 l -3.369278,21.88134 -3.82355,-21.88134 h -5.86784 l -3.97498,21.88134 -2.9907,-21.88134 h -5.56498 l 4.54284,26.19704 h 7.0414 l 3.82356,-20.48064 3.63427,20.48064 h 7.230684 z"
           style="font-style:normal;font-variant:normal;font-weight:600;font-stretch:normal;font-family:'Fira Sans';-inkscape-font-specification:'Fira Sans Semi-Bold';stroke-width:0.914741"
           id="path2699" />
        <path
           d="m -84.625447,122.33447 h -5.564979 v 26.19704 h 5.564979 z"
           style="font-style:normal;font-variant:normal;font-weight:600;font-stretch:normal;font-family:'Fira Sans';-inkscape-font-specification:'Fira Sans Semi-Bold';stroke-width:0.914741"
           id="path2701" />
        <path
           d="m -59.299167,122.33447 h -5.034981 v 11.50852 c 0,3.89927 0.492141,7.53355 0.75714,9.31283 l -8.479968,-20.82135 h -7.003545 v 26.19704 h 5.034981 v -10.18353 c 0,-4.8457 -0.454284,-8.25283 -0.75714,-10.59996 l 8.32854,20.78349 h 7.154973 z"
           style="font-style:normal;font-variant:normal;font-weight:600;font-stretch:normal;font-family:'Fira Sans';-inkscape-font-specification:'Fira Sans Semi-Bold';stroke-width:0.914741"
           id="path2703" />
        <path
           d="m -42.831396,121.72875 c -6.776403,0 -12.265667,4.80784 -12.265667,13.66638 0,9.00997 4.050699,13.74209 11.773526,13.74209 3.331416,0 6.549261,-1.02214 9.199251,-2.64999 V 133.578 h -9.653535 l 0.567855,4.05069 h 3.672129 v 6.39784 c -1.173567,0.64357 -2.498562,0.94642 -3.899271,0.94642 -3.861414,0 -5.829978,-2.53642 -5.829978,-9.53996 0,-6.81426 2.952846,-9.57782 6.662832,-9.57782 2.157849,0 3.634272,0.68142 5.413551,2.04428 l 2.914989,-3.02856 c -2.195706,-1.855 -4.807839,-3.14214 -8.555682,-3.14214 z"
           style="font-style:normal;font-variant:normal;font-weight:600;font-stretch:normal;font-family:'Fira Sans';-inkscape-font-specification:'Fira Sans Semi-Bold';stroke-width:0.914741"
           id="path2705" />
      </g>
    </g>
    <path
       style="font-style:normal;font-variant:normal;font-weight:bold;font-stretch:normal;font-size:38.6606px;line-height:1.25;font-family:'Fira Sans';-inkscape-font-specification:'Fira Sans Bold';fill:#000000;fill-opacity:1;fill-rule:nonzero;stroke:#000000;stroke-width:2.5;stroke-linecap:butt;stroke-linejoin:miter;stroke-miterlimit:4;stroke-dasharray:none;stroke-opacity:1"
       d="m -22.210458,121.41799 c 1.585185,3.52284 3.812514,8.48562 6.419697,14.30017 0.01144,0.0255 0.02288,0.051 0.03433,0.0765 1.2e-5,3e-5 0.0088,0.0196 0.0088,0.0197 -3e-6,0 0.01741,-0.0172 0.01741,-0.0172 2.793193,-2.75682 5.893292,-5.81524 9.1405935,-9.0183 3.3933785,6.03824 6.9256272,12.32431 10.4578699,18.61038 l 0.057778,0.10286 0.066551,-0.1008 c 2.9818577,-4.51727 5.9637151,-9.03456 8.8295116,-13.37661 3.119632,4.99818 6.098525,9.77011 8.785482,14.07265 l 0.09337,0.14947 c -10e-6,3e-5 0.121475,-0.14123 0.121455,-0.14121 1.35148,-1.57138 2.671659,-3.10643 3.957098,-4.60116 6.853491,-7.96936 12.71945,-14.79259 17.076657,-19.86477 l -0.11711,-0.0405 -0.117109,-0.0405 c -5.149981,5.99505 -12.397924,14.43969 -20.887181,24.3337 -2.6994,-4.29952 -5.690928,-9.06246 -8.822741,-14.04794 3e-5,4e-5 -0.08561,-0.13628 -0.08561,-0.13624 2e-5,-3e-5 -0.08873,0.13532 -0.08873,0.13528 -2.8559855,4.3554 -5.8285757,8.88924 -8.8020339,13.4244 -3.53982546,-6.26428 -7.0788896,-12.52722 -10.4781255,-18.5434 -5.75e-5,-1e-4 -0.026953,-0.0477 -0.027014,-0.0478 9.1e-6,-1e-5 -0.043046,0.0428 -0.043036,0.0428 -3.2403702,3.21839 -6.3350496,6.29153 -9.1248336,9.06071 -2.635288,-5.83596 -4.882749,-10.81768 -6.4731,-14.352 z"
       id="path939"
       sodipodi:nodetypes="csccccccscsccsccccccccsscccc" />
  </g>
</svg>
