<?xml version="1.0" encoding="UTF-8" standalone="no"?>
<svg
   xmlns:dc="http://purl.org/dc/elements/1.1/"
   xmlns:cc="http://creativecommons.org/ns#"
   xmlns:rdf="http://www.w3.org/1999/02/22-rdf-syntax-ns#"
   xmlns:svg="http://www.w3.org/2000/svg"
   xmlns="http://www.w3.org/2000/svg"
   xmlns:sodipodi="http://sodipodi.sourceforge.net/DTD/sodipodi-0.dtd"
   xmlns:inkscape="http://www.inkscape.org/namespaces/inkscape"
   width="133.82542mm"
   height="8.2126408mm"
   viewBox="0 0 133.82542 8.2126408"
   version="1.1"
   id="svg8"
   inkscape:version="1.0.1 (3bc2e813f5, 2020-09-07)"
   sodipodi:docname="tradeguard.svg">
  <defs
     id="defs2" />
  <sodipodi:namedview
     id="base"
     pagecolor="#ffffff"
     bordercolor="#666666"
     borderopacity="1.0"
     inkscape:pageopacity="0.0"
     inkscape:pageshadow="2"
     inkscape:zoom="1.979899"
     inkscape:cx="197.43557"
     inkscape:cy="155.24347"
     inkscape:document-units="mm"
     inkscape:current-layer="layer1"
     inkscape:document-rotation="0"
     showgrid="false"
     inkscape:window-width="1624"
     inkscape:window-height="1228"
     inkscape:window-x="359"
     inkscape:window-y="198"
     inkscape:window-maximized="0" />
  <metadata
     id="metadata5">
    <rdf:RDF>
      <cc:Work
         rdf:about="">
        <dc:format>image/svg+xml</dc:format>
        <dc:type
           rdf:resource="http://purl.org/dc/dcmitype/StillImage" />
        <dc:title></dc:title>
      </cc:Work>
    </rdf:RDF>
  </metadata>
  <g
     inkscape:label="Layer 1"
     inkscape:groupmode="layer"
     id="layer1"
     transform="translate(-2.780984,-3.0745792)">
    <g
       aria-label="TradeGuard Pre-trade Score"
       id="text835"
       style="font-style:normal;font-weight:normal;font-size:10.5833px;line-height:0;font-family:sans-serif;fill:#000000;fill-opacity:1;stroke:none;stroke-width:0.264583">
      <path
         d="M 8.6017988,3.7413271 H 2.7386508 V 5.3711552 H 4.5272284 V 11.107304 H 6.7073881 V 5.3711552 h 1.6721614 z"
         style="font-style:normal;font-variant:normal;font-weight:900;font-stretch:normal;line-height:1.25;font-family:'Fira Sans';-inkscape-font-specification:'Fira Sans Heavy'"
         id="path1652" />
      <path
         d="m 12.104852,5.2759055 c -0.624414,0 -1.195912,0.4974151 -1.428745,1.2382461 l -0.169333,-1.05833 H 8.6758633 V 11.107304 H 10.771357 V 8.5355618 c 0.158749,-0.7196644 0.380998,-1.2276628 1.05833,-1.2276628 0.179916,0 0.338665,0.03175 0.518581,0.084666 l 0.328083,-2.0214102 c -0.201083,-0.0635 -0.349249,-0.09525 -0.571499,-0.09525 z"
         style="font-style:normal;font-variant:normal;font-weight:900;font-stretch:normal;line-height:1.25;font-family:'Fira Sans';-inkscape-font-specification:'Fira Sans Heavy'"
         id="path1654" />
      <path
         d="M 17.534064,9.2763928 V 7.3290656 c 0,-1.3969955 -0.740831,-2.08491 -2.539992,-2.08491 -0.645581,0 -1.523995,0.1587495 -2.233076,0.4444986 L 13.216078,7.02215 c 0.560915,-0.1904994 1.132413,-0.2963324 1.460495,-0.2963324 0.624415,0 0.814915,0.1481662 0.814915,0.7196643 v 0.1375829 h -0.402166 c -1.777994,0 -2.730491,0.6879145 -2.730491,1.9367439 0,1.0477463 0.730248,1.7991613 1.862661,1.7991613 0.645581,0 1.291162,-0.201083 1.703911,-0.825498 0.317499,0.539749 0.793747,0.730248 1.523995,0.783164 L 17.87273,9.9325574 C 17.618731,9.8373077 17.534064,9.6785582 17.534064,9.2763928 Z M 14.867073,9.847891 c -0.285749,0 -0.465665,-0.211666 -0.465665,-0.529165 0,-0.4444986 0.275165,-0.6455813 0.86783,-0.6455813 h 0.22225 V 9.5092254 C 15.353905,9.6997248 15.131655,9.847891 14.867073,9.847891 Z"
         style="font-style:normal;font-variant:normal;font-weight:900;font-stretch:normal;line-height:1.25;font-family:'Fira Sans';-inkscape-font-specification:'Fira Sans Heavy'"
         id="path1656" />
      <path
         d="M 21.852037,3.0216627 V 5.6886542 C 21.534538,5.4029051 21.111206,5.2441556 20.624374,5.2441556 c -1.407578,0 -2.360075,1.2488294 -2.360075,3.0056571 0,1.8626603 0.677331,3.0691573 2.148409,3.0691573 0.814914,0 1.301746,-0.402166 1.598079,-0.793748 l 0.07408,0.582082 h 1.862661 V 3.2333287 Z M 21.12179,9.8161411 c -0.380999,0 -0.709082,-0.1904994 -0.709082,-1.5451618 0,-1.1429963 0.359833,-1.5345784 0.814914,-1.5345784 0.254,0 0.433916,0.1164163 0.624415,0.317499 V 9.318726 C 21.650954,9.6679749 21.396955,9.8161411 21.12179,9.8161411 Z"
         style="font-style:normal;font-variant:normal;font-weight:900;font-stretch:normal;line-height:1.25;font-family:'Fira Sans';-inkscape-font-specification:'Fira Sans Heavy'"
         id="path1658" />
      <path
         d="m 30.159926,8.2074795 c 0,-1.8944106 -1.100663,-2.9633239 -2.772825,-2.9633239 -1.873244,0 -2.815158,1.3969956 -2.815158,3.0479903 0,1.7462441 0.973664,3.0268241 3.047991,3.0268241 0.984247,0 1.767411,-0.380999 2.328326,-0.836081 L 29.101596,9.3398926 c -0.486832,0.3386656 -0.878414,0.4974151 -1.28058,0.4974151 -0.613831,0 -1.015996,-0.1481662 -1.132413,-0.9630803 h 3.428989 c 0.02117,-0.2010827 0.04233,-0.4868318 0.04233,-0.6667479 z M 28.096182,7.6888978 H 26.67802 c 0.07408,-0.8678305 0.306916,-1.1218297 0.751414,-1.1218297 0.539749,0 0.656165,0.4762485 0.666748,1.0477466 z"
         style="font-style:normal;font-variant:normal;font-weight:900;font-stretch:normal;line-height:1.25;font-family:'Fira Sans';-inkscape-font-specification:'Fira Sans Heavy'"
         id="path1660" />
      <path
         d="m 34.213321,3.5296611 c -2.127243,0 -3.714738,1.3864122 -3.714738,3.8840709 0,2.5082421 1.079497,3.905238 3.545406,3.905238 0.920747,0 1.98966,-0.306916 2.783407,-0.846664 V 6.7787341 h -3.037407 l 0.201083,1.4710786 h 0.740831 v 1.3440791 c -0.232833,0.1164163 -0.465665,0.1799161 -0.751414,0.1799161 -0.857247,0 -1.238246,-0.529165 -1.238246,-2.3494926 0,-1.6192448 0.582081,-2.3706591 1.598078,-2.3706591 0.560915,0 0.941914,0.1904994 1.428745,0.5397483 l 1.05833,-1.1006632 C 36.224148,3.9635764 35.345734,3.5296611 34.213321,3.5296611 Z"
         style="font-style:normal;font-variant:normal;font-weight:900;font-stretch:normal;line-height:1.25;font-family:'Fira Sans';-inkscape-font-specification:'Fira Sans Heavy'"
         id="path1662" />
      <path
         d="m 42.743461,5.4558216 h -2.095494 v 3.8734877 c -0.190499,0.3280823 -0.423332,0.4656652 -0.613831,0.4656652 -0.201083,0 -0.349249,-0.105833 -0.349249,-0.5503316 V 5.4558216 h -2.095493 v 4.0639871 c 0,1.0794963 0.476248,1.7991613 1.576911,1.7991613 0.709081,0 1.28058,-0.275166 1.672162,-0.825498 l 0.07408,0.613832 h 1.830911 z"
         style="font-style:normal;font-variant:normal;font-weight:900;font-stretch:normal;line-height:1.25;font-family:'Fira Sans';-inkscape-font-specification:'Fira Sans Heavy'"
         id="path1664" />
      <path
         d="M 48.521941,9.2763928 V 7.3290656 c 0,-1.3969955 -0.740831,-2.08491 -2.539992,-2.08491 -0.645581,0 -1.523995,0.1587495 -2.233076,0.4444986 L 44.203955,7.02215 c 0.560915,-0.1904994 1.132413,-0.2963324 1.460495,-0.2963324 0.624415,0 0.814914,0.1481662 0.814914,0.7196643 v 0.1375829 h -0.402165 c -1.777994,0 -2.730491,0.6879145 -2.730491,1.9367439 0,1.0477463 0.730247,1.7991613 1.86266,1.7991613 0.645582,0 1.291163,-0.201083 1.703912,-0.825498 0.317499,0.539749 0.793747,0.730248 1.523995,0.783164 L 48.860607,9.9325574 C 48.606608,9.8373077 48.521941,9.6785582 48.521941,9.2763928 Z M 45.85495,9.847891 c -0.285749,0 -0.465665,-0.211666 -0.465665,-0.529165 0,-0.4444986 0.275165,-0.6455813 0.86783,-0.6455813 h 0.222249 V 9.5092254 C 46.341782,9.6997248 46.119532,9.847891 45.85495,9.847891 Z"
         style="font-style:normal;font-variant:normal;font-weight:900;font-stretch:normal;line-height:1.25;font-family:'Fira Sans';-inkscape-font-specification:'Fira Sans Heavy'"
         id="path1666" />
      <path
         d="m 52.892829,5.2759055 c -0.624415,0 -1.195913,0.4974151 -1.428746,1.2382461 l -0.169333,-1.05833 h -1.83091 v 5.6514824 h 2.095493 V 8.5355618 c 0.158749,-0.7196644 0.380999,-1.2276628 1.05833,-1.2276628 0.179916,0 0.338665,0.03175 0.518582,0.084666 l 0.328082,-2.0214102 c -0.201083,-0.0635 -0.349249,-0.09525 -0.571498,-0.09525 z"
         style="font-style:normal;font-variant:normal;font-weight:900;font-stretch:normal;line-height:1.25;font-family:'Fira Sans';-inkscape-font-specification:'Fira Sans Heavy'"
         id="path1668" />
      <path
         d="M 56.861557,3.0216627 V 5.6886542 C 56.544058,5.4029051 56.120726,5.2441556 55.633894,5.2441556 c -1.407579,0 -2.360076,1.2488294 -2.360076,3.0056571 0,1.8626603 0.677331,3.0691573 2.14841,3.0691573 0.814914,0 1.301746,-0.402166 1.598078,-0.793748 l 0.07408,0.582082 H 58.95705 V 3.2333287 Z m -0.730248,6.7944784 c -0.380999,0 -0.709081,-0.1904994 -0.709081,-1.5451618 0,-1.1429963 0.359832,-1.5345784 0.814914,-1.5345784 0.253999,0 0.433915,0.1164163 0.624415,0.317499 V 9.318726 c -0.201083,0.3492489 -0.455082,0.4974151 -0.730248,0.4974151 z"
         style="font-style:normal;font-variant:normal;font-weight:900;font-stretch:normal;line-height:1.25;font-family:'Fira Sans';-inkscape-font-specification:'Fira Sans Heavy'"
         id="path1670" />
      <path
         d="m 64.947194,3.7836603 h -2.264826 v 7.3236437 h 1.555745 V 8.6096449 h 0.83608 c 1.672162,0 2.878658,-0.7725809 2.878658,-2.4659088 0,-1.5980783 -1.142997,-2.3600758 -3.005657,-2.3600758 z m 0,3.6829882 H 64.238113 V 4.90549 h 0.687914 c 0.910164,0 1.418162,0.3809988 1.418162,1.2382461 0,0.9948302 -0.539748,1.3229124 -1.396995,1.3229124 z"
         style="font-style:normal;font-variant:normal;font-weight:600;font-stretch:normal;line-height:1.25;font-family:'Fira Sans';-inkscape-font-specification:'Fira Sans Semi-Bold'"
         id="path1672" />
      <path
         d="m 71.635822,5.3394053 c -0.656164,0 -1.195913,0.4656652 -1.460495,1.2488294 L 70.037744,5.4981548 h -1.301746 v 5.6091492 h 1.502829 V 8.2074795 c 0.201082,-0.8995805 0.518581,-1.4075788 1.206496,-1.4075788 0.190499,0 0.328082,0.03175 0.497415,0.074083 l 0.253999,-1.4499121 c -0.190499,-0.052917 -0.359832,-0.084666 -0.560915,-0.084666 z"
         style="font-style:normal;font-variant:normal;font-weight:600;font-stretch:normal;line-height:1.25;font-family:'Fira Sans';-inkscape-font-specification:'Fira Sans Semi-Bold'"
         id="path1674" />
      <path
         d="m 77.36138,8.1757296 c 0,-1.7885776 -0.941913,-2.8469076 -2.529408,-2.8469076 -1.640412,0 -2.550576,1.3123292 -2.550576,3.0056571 0,1.7568279 0.941914,2.9421569 2.741075,2.9421569 0.878414,0 1.576912,-0.317499 2.127243,-0.761997 L 76.5253,9.6679749 c -0.486832,0.3386651 -0.888998,0.4868321 -1.365246,0.4868321 -0.719665,0 -1.227663,-0.3174993 -1.333496,-1.3969959 H 77.32963 C 77.340214,8.5990616 77.36138,8.366229 77.36138,8.1757296 Z M 75.869135,7.8158974 h -2.042577 c 0.07408,-1.0583299 0.444499,-1.4604953 1.037163,-1.4604953 0.719665,0 1.005414,0.5503316 1.005414,1.3969955 z"
         style="font-style:normal;font-variant:normal;font-weight:600;font-stretch:normal;line-height:1.25;font-family:'Fira Sans';-inkscape-font-specification:'Fira Sans Semi-Bold'"
         id="path1676" />
      <path
         d="m 78.218612,8.3873956 h 3.280823 V 7.2020661 h -3.280823 z"
         style="font-style:normal;font-variant:normal;font-weight:600;font-stretch:normal;line-height:1.25;font-family:'Fira Sans';-inkscape-font-specification:'Fira Sans Semi-Bold'"
         id="path1678" />
      <path
         d="m 85.531643,9.8902242 c -0.232833,0.1269998 -0.433916,0.1904998 -0.634998,0.1904998 -0.380999,0 -0.560915,-0.2116664 -0.560915,-0.761998 V 6.5564848 h 1.142996 l 0.148166,-1.05833 H 84.33573 V 4.090576 l -1.502829,0.1799161 v 1.2276627 h -0.83608 v 1.05833 h 0.83608 v 2.7939911 c 0,1.2488291 0.592665,1.9155771 1.756828,1.9261601 0.497415,0 1.047747,-0.148166 1.460495,-0.433915 z"
         style="font-style:normal;font-variant:normal;font-weight:600;font-stretch:normal;line-height:1.25;font-family:'Fira Sans';-inkscape-font-specification:'Fira Sans Semi-Bold'"
         id="path1680" />
      <path
         d="m 89.616787,5.3394053 c -0.656165,0 -1.195913,0.4656652 -1.460495,1.2488294 L 88.018709,5.4981548 h -1.301746 v 5.6091492 h 1.502828 V 8.2074795 c 0.201083,-0.8995805 0.518582,-1.4075788 1.206497,-1.4075788 0.190499,0 0.328082,0.03175 0.497415,0.074083 l 0.253999,-1.4499121 c -0.1905,-0.052917 -0.359832,-0.084666 -0.560915,-0.084666 z"
         style="font-style:normal;font-variant:normal;font-weight:600;font-stretch:normal;line-height:1.25;font-family:'Fira Sans';-inkscape-font-specification:'Fira Sans Semi-Bold'"
         id="path1682" />
      <path
         d="M 94.834323,9.5515586 V 7.2867325 c 0,-1.269996 -0.666748,-1.9579105 -2.222493,-1.9579105 -0.634998,0 -1.375829,0.1375829 -2.074327,0.4127487 l 0.338666,1.0054135 c 0.571498,-0.1904994 1.111246,-0.2963324 1.481661,-0.2963324 0.709082,0 1.005414,0.2222493 1.005414,0.920747 v 0.2751658 h -0.645581 c -1.661578,0 -2.582325,0.6667479 -2.582325,1.8944107 0,1.0159967 0.698497,1.7356607 1.820327,1.7356607 0.666748,0 1.280579,-0.232832 1.682745,-0.846664 0.232832,0.560915 0.656164,0.772581 1.291162,0.825498 l 0.317499,-0.99483 c -0.275166,-0.09525 -0.412748,-0.254 -0.412748,-0.7090814 z M 92.368414,10.19714 c -0.465665,0 -0.719665,-0.2857492 -0.719665,-0.7831643 0,-0.6138314 0.402166,-0.9101638 1.21708,-0.9101638 h 0.497415 V 9.5727252 C 93.130411,9.9748906 92.802329,10.19714 92.368414,10.19714 Z"
         style="font-style:normal;font-variant:normal;font-weight:600;font-stretch:normal;line-height:1.25;font-family:'Fira Sans';-inkscape-font-specification:'Fira Sans Semi-Bold'"
         id="path1684" />
      <path
         d="M 99.692047,3.0957458 V 5.8897369 C 99.353382,5.5616546 98.8983,5.328822 98.326801,5.328822 c -1.386412,0 -2.275409,1.2382461 -2.275409,2.9739072 0,1.7885778 0.719664,2.9739068 2.127243,2.9739068 0.751415,0 1.269996,-0.370415 1.608662,-0.857247 l 0.08467,0.687915 h 1.322917 V 3.2650786 Z m -1.068913,7.0590612 c -0.603248,0 -1.005414,-0.4444989 -1.005414,-1.8520778 0,-1.3123291 0.444499,-1.8626607 1.100664,-1.8626607 0.412748,0 0.698497,0.2010827 0.973663,0.529165 v 2.508242 c -0.296332,0.4444986 -0.613831,0.6773315 -1.068913,0.6773315 z"
         style="font-style:normal;font-variant:normal;font-weight:600;font-stretch:normal;line-height:1.25;font-family:'Fira Sans';-inkscape-font-specification:'Fira Sans Semi-Bold'"
         id="path1686" />
      <path
         d="m 107.41785,8.1757296 c 0,-1.7885776 -0.94192,-2.8469076 -2.52941,-2.8469076 -1.64041,0 -2.55058,1.3123292 -2.55058,3.0056571 0,1.7568279 0.94192,2.9421569 2.74108,2.9421569 0.87841,0 1.57691,-0.317499 2.12724,-0.761997 l -0.62442,-0.8466641 c -0.48683,0.3386651 -0.88899,0.4868321 -1.36524,0.4868321 -0.71967,0 -1.22766,-0.3174993 -1.3335,-1.3969959 h 3.50308 c 0.0106,-0.1587495 0.0318,-0.3915821 0.0318,-0.5820815 z M 105.9256,7.8158974 h -2.04258 c 0.0741,-1.0583299 0.4445,-1.4604953 1.03717,-1.4604953 0.71966,0 1.00541,0.5503316 1.00541,1.3969955 z"
         style="font-style:normal;font-variant:normal;font-weight:600;font-stretch:normal;line-height:1.25;font-family:'Fira Sans';-inkscape-font-specification:'Fira Sans Semi-Bold'"
         id="path1688" />
      <path
         d="m 113.35506,3.6143275 c -1.48166,0 -2.56116,0.814914 -2.56116,2.0637434 0,1.1112465 0.635,1.7462444 2.22249,2.2436595 1.11125,0.3386656 1.397,0.5926648 1.397,1.1747463 0,0.6455813 -0.508,1.0054133 -1.25942,1.0054133 -0.75141,0 -1.33349,-0.2751656 -1.87324,-0.7302475 l -0.79375,0.8784135 c 0.60325,0.592665 1.49225,1.02658 2.70933,1.02658 1.77799,0 2.83632,-0.941913 2.83632,-2.2859923 0,-1.3546624 -0.84666,-1.9049939 -2.16957,-2.3283259 -1.19592,-0.3704155 -1.47108,-0.5820815 -1.47108,-1.0900799 0,-0.5185817 0.43391,-0.7937475 1.06891,-0.7937475 0.59266,0 1.10066,0.1904994 1.61924,0.6138314 l 0.74084,-0.8572473 c -0.635,-0.5926647 -1.37583,-0.920747 -2.46591,-0.920747 z"
         style="font-style:normal;font-variant:normal;font-weight:600;font-stretch:normal;line-height:1.25;font-family:'Fira Sans';-inkscape-font-specification:'Fira Sans Semi-Bold'"
         id="path1690" />
      <path
         d="m 119.40869,5.328822 c -1.64041,0 -2.67757,1.2382461 -2.67757,3.0162404 0,1.7885776 1.02658,2.9315736 2.69874,2.9315736 0.74083,0 1.3335,-0.243415 1.84149,-0.656164 l -0.65616,-0.9419138 c -0.41275,0.2645825 -0.6985,0.3915818 -1.11125,0.3915818 -0.70908,0 -1.18533,-0.433915 -1.18533,-1.7356609 0,-1.3017458 0.4445,-1.8414941 1.19592,-1.8414941 0.41275,0 0.74083,0.1269996 1.10066,0.4021654 l 0.65616,-0.8889972 C 120.74219,5.5510713 120.16011,5.328822 119.40869,5.328822 Z"
         style="font-style:normal;font-variant:normal;font-weight:600;font-stretch:normal;line-height:1.25;font-family:'Fira Sans';-inkscape-font-specification:'Fira Sans Semi-Bold'"
         id="path1692" />
      <path
         d="m 124.27699,5.328822 c -1.69333,0 -2.69874,1.1853296 -2.69874,2.9739072 0,1.8626608 1.016,2.9739068 2.68816,2.9739068 1.68274,0 2.68815,-1.195912 2.68815,-2.9739068 0,-1.8626607 -1.00541,-2.9739072 -2.67757,-2.9739072 z m 0,1.1218298 c 0.73025,0 1.11125,0.5609149 1.11125,1.8520774 0,1.2805793 -0.381,1.8520778 -1.12183,1.8520778 -0.74083,0 -1.12183,-0.5609152 -1.12183,-1.8520778 0,-1.2805792 0.381,-1.8520774 1.13241,-1.8520774 z"
         style="font-style:normal;font-variant:normal;font-weight:600;font-stretch:normal;line-height:1.25;font-family:'Fira Sans';-inkscape-font-specification:'Fira Sans Semi-Bold'"
         id="path1694" />
      <path
         d="m 130.99739,5.3394053 c -0.65617,0 -1.19592,0.4656652 -1.4605,1.2488294 l -0.13758,-1.0900799 h -1.30175 v 5.6091492 h 1.50283 V 8.2074795 c 0.20108,-0.8995805 0.51858,-1.4075788 1.2065,-1.4075788 0.1905,0 0.32808,0.03175 0.49741,0.074083 l 0.254,-1.4499121 c -0.1905,-0.052917 -0.35983,-0.084666 -0.56091,-0.084666 z"
         style="font-style:normal;font-variant:normal;font-weight:600;font-stretch:normal;line-height:1.25;font-family:'Fira Sans';-inkscape-font-specification:'Fira Sans Semi-Bold'"
         id="path1696" />
      <path
         d="m 136.72294,8.1757296 c 0,-1.7885776 -0.94192,-2.8469076 -2.52941,-2.8469076 -1.64041,0 -2.55058,1.3123292 -2.55058,3.0056571 0,1.7568279 0.94192,2.9421569 2.74108,2.9421569 0.87841,0 1.57691,-0.317499 2.12724,-0.761997 l -0.62441,-0.8466641 c -0.48684,0.3386651 -0.889,0.4868321 -1.36525,0.4868321 -0.71966,0 -1.22766,-0.3174993 -1.33349,-1.3969959 h 3.50307 c 0.0106,-0.1587495 0.0317,-0.3915821 0.0317,-0.5820815 z m -1.49225,-0.3598322 h -2.04257 c 0.0741,-1.0583299 0.44449,-1.4604953 1.03716,-1.4604953 0.71966,0 1.00541,0.5503316 1.00541,1.3969955 z"
         style="font-style:normal;font-variant:normal;font-weight:600;font-stretch:normal;line-height:1.25;font-family:'Fira Sans';-inkscape-font-specification:'Fira Sans Semi-Bold'"
         id="path1698" />
    </g>
  </g>
</svg>
