<?xml version="1.0" encoding="UTF-8" standalone="no"?>
<svg
   xmlns:dc="http://purl.org/dc/elements/1.1/"
   xmlns:cc="http://creativecommons.org/ns#"
   xmlns:rdf="http://www.w3.org/1999/02/22-rdf-syntax-ns#"
   xmlns:svg="http://www.w3.org/2000/svg"
   xmlns="http://www.w3.org/2000/svg"
   xmlns:sodipodi="http://sodipodi.sourceforge.net/DTD/sodipodi-0.dtd"
   xmlns:inkscape="http://www.inkscape.org/namespaces/inkscape"
   width="133.82542mm"
   height="8.2126408mm"
   viewBox="0 0 133.82542 8.2126408"
   version="1.1"
   id="svg8"
   inkscape:version="1.0.1 (3bc2e813f5, 2020-09-07)"
   sodipodi:docname="tradeguard2.svg">
  <defs
     id="defs2" />
  <sodipodi:namedview
     id="base"
     pagecolor="#ffffff"
     bordercolor="#666666"
     borderopacity="1.0"
     inkscape:pageopacity="0.0"
     inkscape:pageshadow="2"
     inkscape:zoom="1.979899"
     inkscape:cx="284.20877"
     inkscape:cy="155.24347"
     inkscape:document-units="mm"
     inkscape:current-layer="text835"
     inkscape:document-rotation="0"
     showgrid="false"
     inkscape:window-width="1624"
     inkscape:window-height="1228"
     inkscape:window-x="359"
     inkscape:window-y="198"
     inkscape:window-maximized="0" />
  <metadata
     id="metadata5">
    <rdf:RDF>
      <cc:Work
         rdf:about="">
        <dc:format>image/svg+xml</dc:format>
        <dc:type
           rdf:resource="http://purl.org/dc/dcmitype/StillImage" />
        <dc:title></dc:title>
      </cc:Work>
    </rdf:RDF>
  </metadata>
  <g
     inkscape:label="Layer 1"
     inkscape:groupmode="layer"
     id="layer1"
     transform="translate(-2.780984,-3.0745792)">
    <g
       aria-label="TradeGuard Pre-trade Score"
       id="text835"
       style="font-style:normal;font-weight:normal;font-size:10.5833px;line-height:0;font-family:sans-serif;fill:#000000;fill-opacity:1;stroke:none;stroke-width:0.264583">
      <path
         id="path1698"
         style="font-style:normal;font-variant:normal;font-weight:600;font-stretch:normal;line-height:1.25;font-family:'Fira Sans';-inkscape-font-specification:'Fira Sans Semi-Bold'"
         sodipodi:type="inkscape:offset"
         inkscape:radius="0"
         inkscape:original="M 21.851562 3.0214844 L 21.851562 5.6894531 C 21.534064 5.403704 21.111832 5.2441406 20.625 5.2441406 C 19.217422 5.2441406 18.263672 6.4931723 18.263672 8.25 C 18.263672 10.11266 18.941031 11.318359 20.412109 11.318359 C 21.227023 11.318359 21.715386 10.916973 22.011719 10.525391 L 22.083984 11.107422 L 23.947266 11.107422 L 23.947266 3.2324219 L 21.851562 3.0214844 z M 56.861328 3.0214844 L 56.861328 5.6894531 C 56.543829 5.403704 56.121598 5.2441406 55.634766 5.2441406 C 54.227187 5.2441406 53.273438 6.4931723 53.273438 8.25 C 53.273438 10.11266 53.950796 11.318359 55.421875 11.318359 C 56.236789 11.318359 56.723199 10.916973 57.019531 10.525391 L 57.09375 11.107422 L 58.957031 11.107422 L 58.957031 3.2324219 L 56.861328 3.0214844 z M 99.691406 3.0957031 L 99.691406 5.890625 C 99.352741 5.5625427 98.897671 5.328125 98.326172 5.328125 C 96.93976 5.328125 96.050781 6.5670733 96.050781 8.3027344 C 96.050781 10.091312 96.770155 11.277344 98.177734 11.277344 C 98.929149 11.277344 99.448443 10.906754 99.787109 10.419922 L 99.871094 11.107422 L 101.19531 11.107422 L 101.19531 3.265625 L 99.691406 3.0957031 z M 34.212891 3.5292969 C 32.085648 3.5292969 30.498047 4.9164038 30.498047 7.4140625 C 30.498047 9.9223046 31.579013 11.318359 34.044922 11.318359 C 34.965669 11.318359 36.034378 11.012404 36.828125 10.472656 L 36.828125 6.7792969 L 33.789062 6.7792969 L 33.990234 8.25 L 34.732422 8.25 L 34.732422 9.59375 C 34.499589 9.7101663 34.266218 9.7734375 33.980469 9.7734375 C 33.123222 9.7734375 32.742187 9.2441557 32.742188 7.4238281 C 32.742188 5.8045833 33.323847 5.0527344 34.339844 5.0527344 C 34.900759 5.0527344 35.2827 5.2445011 35.769531 5.59375 L 36.828125 4.4921875 C 36.224877 3.9630226 35.345304 3.5292969 34.212891 3.5292969 z M 113.35547 3.6152344 C 111.87381 3.6152344 110.79297 4.428905 110.79297 5.6777344 C 110.79297 6.7889809 111.42813 7.4244599 113.01562 7.921875 C 114.12687 8.2605406 114.41406 8.5136216 114.41406 9.0957031 C 114.41406 9.7412844 113.90572 10.101563 113.1543 10.101562 C 112.40289 10.101562 111.821 9.8261756 111.28125 9.3710938 L 110.48633 10.25 C 111.08958 10.842665 111.98019 11.277344 113.19727 11.277344 C 114.97526 11.277344 116.0332 10.334313 116.0332 8.9902344 C 116.0332 7.635572 115.18619 7.0854414 113.86328 6.6621094 C 112.66736 6.2916939 112.39258 6.080264 112.39258 5.5722656 C 112.39258 5.0536839 112.82594 4.7792969 113.46094 4.7792969 C 114.0536 4.7792969 114.5615 4.9692461 115.08008 5.3925781 L 115.82031 4.5351562 C 115.18531 3.9424915 114.44555 3.6152344 113.35547 3.6152344 z M 2.7382812 3.7421875 L 2.7382812 5.3710938 L 4.5273438 5.3710938 L 4.5273438 11.107422 L 6.7070312 11.107422 L 6.7070312 5.3710938 L 8.3789062 5.3710938 L 8.6015625 3.7421875 L 2.7382812 3.7421875 z M 62.681641 3.7832031 L 62.681641 11.107422 L 64.238281 11.107422 L 64.238281 8.609375 L 65.074219 8.609375 C 66.746381 8.609375 67.953125 7.8378591 67.953125 6.1445312 C 67.953125 4.5464529 66.809926 3.7832031 64.947266 3.7832031 L 62.681641 3.7832031 z M 84.335938 4.0898438 L 82.832031 4.2695312 L 82.832031 5.4980469 L 81.996094 5.4980469 L 81.996094 6.5566406 L 82.832031 6.5566406 L 82.832031 9.3496094 C 82.832031 10.598438 83.425681 11.266761 84.589844 11.277344 C 85.087259 11.277344 85.638033 11.127546 86.050781 10.841797 L 85.53125 9.890625 C 85.298417 10.017625 85.097566 10.080078 84.896484 10.080078 C 84.515485 10.080078 84.335938 9.868691 84.335938 9.3183594 L 84.335938 6.5566406 L 85.478516 6.5566406 L 85.626953 5.4980469 L 84.335938 5.4980469 L 84.335938 4.0898438 z M 64.238281 4.90625 L 64.925781 4.90625 C 65.835945 4.90625 66.34375 5.2872839 66.34375 6.1445312 C 66.34375 7.1393614 65.804513 7.4667969 64.947266 7.4667969 L 64.238281 7.4667969 L 64.238281 4.90625 z M 14.994141 5.2441406 C 14.34856 5.2441406 13.4708 5.403704 12.761719 5.6894531 L 13.216797 7.0214844 C 13.777712 6.830985 14.347699 6.7265625 14.675781 6.7265625 C 15.300196 6.7265625 15.492188 6.8738144 15.492188 7.4453125 L 15.492188 7.5839844 L 15.089844 7.5839844 C 13.31185 7.5839844 12.359375 8.2707019 12.359375 9.5195312 C 12.359375 10.567278 13.08829 11.318359 14.220703 11.318359 C 14.866284 11.318359 15.513032 11.118556 15.925781 10.494141 C 16.24328 11.03389 16.718971 11.224428 17.449219 11.277344 L 17.873047 9.9316406 C 17.619048 9.8363909 17.533203 9.6795091 17.533203 9.2773438 L 17.533203 7.328125 C 17.533203 5.9311295 16.793302 5.2441406 14.994141 5.2441406 z M 27.386719 5.2441406 C 25.513475 5.2441406 24.572266 6.6419741 24.572266 8.2929688 C 24.572266 10.039213 25.544814 11.318359 27.619141 11.318359 C 28.603388 11.318359 29.388304 10.937504 29.949219 10.482422 L 29.101562 9.3398438 C 28.614731 9.6785094 28.222479 9.8378906 27.820312 9.8378906 C 27.206481 9.8378906 26.80587 9.6899141 26.689453 8.875 L 30.117188 8.875 C 30.138358 8.6739173 30.160156 8.3869473 30.160156 8.2070312 C 30.160156 6.3126206 29.058881 5.2441406 27.386719 5.2441406 z M 45.982422 5.2441406 C 45.336841 5.2441406 44.457128 5.403704 43.748047 5.6894531 L 44.203125 7.0214844 C 44.76404 6.830985 45.33598 6.7265625 45.664062 6.7265625 C 46.288477 6.7265625 46.478516 6.8738144 46.478516 7.4453125 L 46.478516 7.5839844 L 46.078125 7.5839844 C 44.300131 7.5839844 43.347656 8.2707019 43.347656 9.5195312 C 43.347656 10.567278 44.076571 11.318359 45.208984 11.318359 C 45.854566 11.318359 46.501313 11.118556 46.914062 10.494141 C 47.231561 11.03389 47.707252 11.224428 48.4375 11.277344 L 48.861328 9.9316406 C 48.607329 9.8363909 48.521484 9.6795091 48.521484 9.2773438 L 48.521484 7.328125 C 48.521484 5.9311295 47.781583 5.2441406 45.982422 5.2441406 z M 12.105469 5.2753906 C 11.481055 5.2753906 10.908614 5.7728409 10.675781 6.5136719 L 10.505859 5.4550781 L 8.6757812 5.4550781 L 8.6757812 11.107422 L 10.771484 11.107422 L 10.771484 8.5351562 C 10.930233 7.8154918 11.152746 7.3085938 11.830078 7.3085938 C 12.009994 7.3085938 12.16774 7.3396621 12.347656 7.3925781 L 12.675781 5.3710938 C 12.474698 5.3075937 12.327719 5.2753899 12.105469 5.2753906 z M 52.892578 5.2753906 C 52.268163 5.2753906 51.697677 5.7728409 51.464844 6.5136719 L 51.294922 5.4550781 L 49.462891 5.4550781 L 49.462891 11.107422 L 51.558594 11.107422 L 51.558594 8.5351562 C 51.717343 7.8154918 51.939857 7.3085938 52.617188 7.3085938 C 52.797103 7.3085938 52.956802 7.3396621 53.136719 7.3925781 L 53.464844 5.3710938 C 53.263761 5.3075937 53.114827 5.2753899 52.892578 5.2753906 z M 74.832031 5.328125 C 73.191619 5.328125 72.28125 6.6406565 72.28125 8.3339844 C 72.28125 10.090812 73.224277 11.277344 75.023438 11.277344 C 75.901852 11.277344 76.60006 10.95817 77.150391 10.513672 L 76.525391 9.6679688 C 76.038559 10.006634 75.636404 10.154297 75.160156 10.154297 C 74.440491 10.154297 73.932005 9.8373091 73.826172 8.7578125 L 77.330078 8.7578125 C 77.340662 8.599063 77.361328 8.3662807 77.361328 8.1757812 C 77.361328 6.3872037 76.419526 5.328125 74.832031 5.328125 z M 92.611328 5.328125 C 91.97633 5.328125 91.235607 5.4670217 90.537109 5.7421875 L 90.876953 6.7460938 C 91.448451 6.5555943 91.987007 6.4511719 92.357422 6.4511719 C 93.066504 6.4511719 93.363281 6.6725961 93.363281 7.3710938 L 93.363281 7.6464844 L 92.716797 7.6464844 C 91.055219 7.6464844 90.134766 8.3133528 90.134766 9.5410156 C 90.134766 10.557012 90.833248 11.277344 91.955078 11.277344 C 92.621826 11.277344 93.236506 11.04352 93.638672 10.429688 C 93.871504 10.990602 94.294689 11.202942 94.929688 11.255859 L 95.248047 10.259766 C 94.972881 10.164516 94.833984 10.005863 94.833984 9.5507812 L 94.833984 7.2871094 C 94.833984 6.0171134 94.167073 5.328125 92.611328 5.328125 z M 104.88867 5.328125 C 103.24826 5.328125 102.33789 6.6406565 102.33789 8.3339844 C 102.33789 10.090812 103.27896 11.277344 105.07812 11.277344 C 105.95654 11.277344 106.6567 10.95817 107.20703 10.513672 L 106.58203 9.6679688 C 106.0952 10.006634 105.69305 10.154297 105.2168 10.154297 C 104.49713 10.154297 103.98865 9.8373091 103.88281 8.7578125 L 107.38672 8.7578125 C 107.39732 8.599063 107.41797 8.3662807 107.41797 8.1757812 C 107.41797 6.3872037 106.47616 5.328125 104.88867 5.328125 z M 119.4082 5.328125 C 117.76779 5.328125 116.73047 6.5677088 116.73047 8.3457031 C 116.73047 10.13428 117.75753 11.277344 119.42969 11.277344 C 120.17052 11.277344 120.76349 11.033843 121.27148 10.621094 L 120.61523 9.6777344 C 120.20248 9.9423169 119.91666 10.070312 119.50391 10.070312 C 118.79483 10.070312 118.31836 9.6357303 118.31836 8.3339844 C 118.31836 7.0322386 118.76225 6.4921875 119.51367 6.4921875 C 119.92642 6.4921875 120.2554 6.6193654 120.61523 6.8945312 L 121.27148 6.0058594 C 120.74232 5.5507772 120.15962 5.3281247 119.4082 5.328125 z M 124.27734 5.328125 C 122.58401 5.328125 121.57813 6.5141568 121.57812 8.3027344 C 121.57812 10.165395 122.59347 11.277344 124.26562 11.277344 C 125.94836 11.277344 126.95508 10.080729 126.95508 8.3027344 C 126.95508 6.4400737 125.9495 5.328125 124.27734 5.328125 z M 134.19336 5.328125 C 132.55295 5.328125 131.64258 6.6406565 131.64258 8.3339844 C 131.64258 10.090812 132.58561 11.277344 134.38477 11.277344 C 135.26318 11.277344 135.96139 10.95817 136.51172 10.513672 L 135.88672 9.6679688 C 135.39988 10.006634 134.99773 10.154297 134.52148 10.154297 C 133.80182 10.154297 133.29333 9.8373091 133.1875 8.7578125 L 136.69141 8.7578125 C 136.70201 8.599063 136.72266 8.3662807 136.72266 8.1757812 C 136.72266 6.3872037 135.78085 5.328125 134.19336 5.328125 z M 71.636719 5.3398438 C 70.980555 5.3398438 70.440363 5.8047264 70.175781 6.5878906 L 70.037109 5.4980469 L 68.736328 5.4980469 L 68.736328 11.107422 L 70.238281 11.107422 L 70.238281 8.2070312 C 70.439363 7.3074508 70.757398 6.8007813 71.445312 6.8007812 C 71.635812 6.8007812 71.774026 6.8307139 71.943359 6.8730469 L 72.197266 5.4238281 C 72.006767 5.3709111 71.837802 5.339844 71.636719 5.3398438 z M 89.617188 5.3398438 C 88.961022 5.3398438 88.420832 5.8047264 88.15625 6.5878906 L 88.019531 5.4980469 L 86.716797 5.4980469 L 86.716797 11.107422 L 88.220703 11.107422 L 88.220703 8.2070312 C 88.421786 7.3074508 88.737866 6.8007813 89.425781 6.8007812 C 89.61628 6.8007812 89.754495 6.8307139 89.923828 6.8730469 L 90.177734 5.4238281 C 89.987234 5.3709111 89.81827 5.339844 89.617188 5.3398438 z M 130.99805 5.3398438 C 130.34188 5.3398438 129.80169 5.8047264 129.53711 6.5878906 L 129.39844 5.4980469 L 128.09766 5.4980469 L 128.09766 11.107422 L 129.59961 11.107422 L 129.59961 8.2070312 C 129.80069 7.3074508 130.11872 6.8007813 130.80664 6.8007812 C 130.99714 6.8007812 131.13536 6.8307139 131.30469 6.8730469 L 131.55859 5.4238281 C 131.36809 5.3709111 131.19913 5.3398441 130.99805 5.3398438 z M 37.589844 5.4550781 L 37.589844 9.5195312 C 37.589844 10.599028 38.065353 11.318359 39.166016 11.318359 C 39.875097 11.318359 40.446309 11.044473 40.837891 10.494141 L 40.912109 11.107422 L 42.744141 11.107422 L 42.744141 5.4550781 L 40.648438 5.4550781 L 40.648438 9.3300781 C 40.457938 9.6581604 40.223702 9.7949219 40.033203 9.7949219 C 39.83212 9.7949219 39.685547 9.6886392 39.685547 9.2441406 L 39.685547 5.4550781 L 37.589844 5.4550781 z M 74.863281 6.3554688 C 75.582946 6.3554688 75.869141 6.9052892 75.869141 7.7519531 L 75.869141 7.8164062 L 73.826172 7.8164062 C 73.900252 6.7580764 74.270617 6.3554687 74.863281 6.3554688 z M 104.91992 6.3554688 C 105.63958 6.3554688 105.92578 6.9052892 105.92578 7.7519531 L 105.92578 7.8164062 L 103.88281 7.8164062 C 103.95691 6.7580764 104.32725 6.3554687 104.91992 6.3554688 z M 134.22461 6.3554688 C 134.94427 6.3554688 135.23047 6.9052892 135.23047 7.7519531 L 135.23047 7.8164062 L 133.1875 7.8164062 C 133.2616 6.7580763 133.63194 6.3554687 134.22461 6.3554688 z M 98.71875 6.4394531 C 99.131498 6.4394531 99.41624 6.6406677 99.691406 6.96875 L 99.691406 9.4765625 C 99.395074 9.9210611 99.078129 10.154297 98.623047 10.154297 C 98.019799 10.154297 97.617188 9.7103133 97.617188 8.3027344 C 97.617188 6.9904053 98.062585 6.4394531 98.71875 6.4394531 z M 124.27734 6.4511719 C 125.00759 6.4511719 125.38867 7.0115719 125.38867 8.3027344 C 125.38867 9.5833137 125.00646 10.154297 124.26562 10.154297 C 123.52479 10.154297 123.14453 9.593897 123.14453 8.3027344 C 123.14453 7.0221552 123.52593 6.4511719 124.27734 6.4511719 z M 27.429688 6.5664062 C 27.969437 6.5664062 28.08512 7.0437363 28.095703 7.6152344 L 28.095703 7.6894531 L 26.677734 7.6894531 C 26.751814 6.8216226 26.985189 6.5664063 27.429688 6.5664062 z M 21.228516 6.7363281 C 21.482516 6.7363281 21.661063 6.8536048 21.851562 7.0546875 L 21.851562 9.3183594 C 21.650479 9.6676083 21.396259 9.8164063 21.121094 9.8164062 C 20.740095 9.8164062 20.412109 9.6261468 20.412109 8.2714844 C 20.412109 7.1284881 20.773435 6.7363281 21.228516 6.7363281 z M 56.236328 6.7363281 C 56.490327 6.7363281 56.670828 6.8536048 56.861328 7.0546875 L 56.861328 9.3183594 C 56.660245 9.6676083 56.406025 9.8164063 56.130859 9.8164062 C 55.74986 9.8164062 55.421875 9.6261468 55.421875 8.2714844 C 55.421875 7.1284881 55.781246 6.7363281 56.236328 6.7363281 z M 78.21875 7.2011719 L 78.21875 8.3867188 L 81.5 8.3867188 L 81.5 7.2011719 L 78.21875 7.2011719 z M 92.865234 8.5039062 L 93.363281 8.5039062 L 93.363281 9.5722656 C 93.130448 9.974431 92.803056 10.197266 92.369141 10.197266 C 91.903476 10.197266 91.648437 9.9114776 91.648438 9.4140625 C 91.648438 8.8002311 92.05032 8.5039062 92.865234 8.5039062 z M 15.269531 8.6738281 L 15.492188 8.6738281 L 15.492188 9.5097656 C 15.354604 9.700265 15.131769 9.8476563 14.867188 9.8476562 C 14.581439 9.8476562 14.402344 9.6358584 14.402344 9.3183594 C 14.402344 8.8738608 14.676866 8.6738281 15.269531 8.6738281 z M 46.257812 8.6738281 L 46.478516 8.6738281 L 46.478516 9.5097656 C 46.340934 9.700265 46.120051 9.8476563 45.855469 9.8476562 C 45.56972 9.8476562 45.388672 9.6358584 45.388672 9.3183594 C 45.388672 8.8738608 45.665147 8.6738281 46.257812 8.6738281 z "
         d="M 21.851562,3.0214844 V 5.6894531 C 21.534064,5.403704 21.111832,5.2441406 20.625,5.2441406 c -1.407578,0 -2.361328,1.2490317 -2.361328,3.0058594 0,1.86266 0.677359,3.068359 2.148437,3.068359 0.814914,0 1.303277,-0.401386 1.59961,-0.792968 l 0.07227,0.582031 h 1.863282 V 3.2324219 Z m 35.009766,0 V 5.6894531 C 56.543829,5.403704 56.121598,5.2441406 55.634766,5.2441406 c -1.407579,0 -2.361328,1.2490317 -2.361328,3.0058594 0,1.86266 0.677358,3.068359 2.148437,3.068359 0.814914,0 1.301324,-0.401386 1.597656,-0.792968 l 0.07422,0.582031 h 1.863281 V 3.2324219 Z m 42.830078,0.074219 V 5.890625 c -0.338665,-0.3280823 -0.793735,-0.5625 -1.365234,-0.5625 -1.386412,0 -2.275391,1.2389483 -2.275391,2.9746094 0,1.7885776 0.719374,2.9746096 2.126953,2.9746096 0.751415,0 1.270709,-0.37059 1.609375,-0.857422 l 0.08398,0.6875 h 1.324216 V 3.265625 Z M 34.212891,3.5292969 c -2.127243,0 -3.714844,1.3871069 -3.714844,3.8847656 0,2.5082421 1.080966,3.9042965 3.546875,3.9042965 0.920747,0 1.989456,-0.305955 2.783203,-0.845703 V 6.7792969 H 33.789062 L 33.990234,8.25 h 0.742188 v 1.34375 c -0.232833,0.1164163 -0.466204,0.1796875 -0.751953,0.1796875 -0.857247,0 -1.238282,-0.5292818 -1.238281,-2.3496094 0,-1.6192448 0.581659,-2.3710937 1.597656,-2.3710937 0.560915,0 0.942856,0.1917667 1.429687,0.5410156 L 36.828125,4.4921875 C 36.224877,3.9630226 35.345304,3.5292969 34.212891,3.5292969 Z m 79.142579,0.085937 c -1.48166,0 -2.5625,0.8136706 -2.5625,2.0625 0,1.1112465 0.63516,1.7467255 2.22265,2.2441406 1.11125,0.3386656 1.39844,0.5917466 1.39844,1.1738281 0,0.6455813 -0.50834,1.0058599 -1.25976,1.0058589 -0.75141,0 -1.3333,-0.2753864 -1.87305,-0.7304682 L 110.48633,10.25 c 0.60325,0.592665 1.49386,1.027344 2.71094,1.027344 1.77799,0 2.83593,-0.943031 2.83593,-2.2871096 0,-1.3546624 -0.84701,-1.904793 -2.16992,-2.328125 -1.19592,-0.3704155 -1.4707,-0.5818454 -1.4707,-1.0898438 0,-0.5185817 0.43336,-0.7929687 1.06836,-0.7929687 0.59266,0 1.10056,0.1899492 1.61914,0.6132812 l 0.74023,-0.8574219 c -0.635,-0.5926647 -1.37476,-0.9199218 -2.46484,-0.9199218 z M 2.7382812,3.7421875 V 5.3710938 H 4.5273438 V 11.107422 H 6.7070312 V 5.3710938 h 1.671875 L 8.6015625,3.7421875 Z m 59.9433598,0.041016 v 7.3242189 h 1.55664 V 8.609375 h 0.835938 c 1.672162,0 2.878906,-0.7715159 2.878906,-2.4648438 0,-1.5980783 -1.143199,-2.3613281 -3.005859,-2.3613281 z m 21.654297,0.3066407 -1.503907,0.1796874 v 1.2285157 h -0.835937 v 1.0585937 h 0.835937 v 2.7929688 c 0,1.2488286 0.59365,1.9171516 1.757813,1.9277346 0.497415,0 1.048189,-0.149798 1.460937,-0.435547 L 85.53125,9.890625 c -0.232833,0.127 -0.433684,0.189453 -0.634766,0.189453 -0.380999,0 -0.560546,-0.211387 -0.560546,-0.7617186 V 6.5566406 h 1.142578 L 85.626953,5.4980469 H 84.335938 Z M 64.238281,4.90625 h 0.6875 c 0.910164,0 1.417969,0.3810339 1.417969,1.2382812 0,0.9948302 -0.539237,1.3222657 -1.396484,1.3222657 h -0.708985 z m -49.24414,0.3378906 c -0.645581,0 -1.523341,0.1595634 -2.232422,0.4453125 l 0.455078,1.3320313 c 0.560915,-0.1904994 1.130902,-0.2949219 1.458984,-0.2949219 0.624415,0 0.816407,0.1472519 0.816407,0.71875 v 0.1386719 h -0.402344 c -1.777994,0 -2.730469,0.6867175 -2.730469,1.9355468 0,1.0477468 0.728915,1.7988278 1.861328,1.7988278 0.645581,0 1.292329,-0.199803 1.705078,-0.824218 0.317499,0.539749 0.79319,0.730287 1.523438,0.783203 L 17.873047,9.9316406 C 17.619048,9.8363909 17.533203,9.6795091 17.533203,9.2773438 V 7.328125 c 0,-1.3969955 -0.739901,-2.0839844 -2.539062,-2.0839844 z m 12.392578,0 c -1.873244,0 -2.814453,1.3978335 -2.814453,3.0488282 0,1.7462442 0.972548,3.0253902 3.046875,3.0253902 0.984247,0 1.769163,-0.380855 2.330078,-0.835937 L 29.101562,9.3398438 c -0.486831,0.3386656 -0.879083,0.4980468 -1.28125,0.4980468 -0.613831,0 -1.014442,-0.1479765 -1.130859,-0.9628906 h 3.427735 c 0.02117,-0.2010827 0.04297,-0.4880527 0.04297,-0.6679688 0,-1.8944106 -1.101275,-2.9628906 -2.773437,-2.9628906 z m 18.595703,0 c -0.645581,0 -1.525294,0.1595634 -2.234375,0.4453125 l 0.455078,1.3320313 C 44.76404,6.830985 45.33598,6.7265625 45.664062,6.7265625 c 0.624415,0 0.814454,0.1472519 0.814454,0.71875 v 0.1386719 h -0.400391 c -1.777994,0 -2.730469,0.6867175 -2.730469,1.9355468 0,1.0477468 0.728915,1.7988278 1.861328,1.7988278 0.645582,0 1.292329,-0.199803 1.705078,-0.824218 0.317499,0.539749 0.79319,0.730287 1.523438,0.783203 L 48.861328,9.9316406 C 48.607329,9.8363909 48.521484,9.6795091 48.521484,9.2773438 V 7.328125 c 0,-1.3969955 -0.739901,-2.0839844 -2.539062,-2.0839844 z m -33.876953,0.03125 c -0.624414,0 -1.196855,0.4974503 -1.429688,1.2382813 L 10.505859,5.4550781 H 8.6757812 V 11.107422 H 10.771484 V 8.5351562 c 0.158749,-0.7196644 0.381262,-1.2265624 1.058594,-1.2265624 0.179916,0 0.337662,0.031068 0.517578,0.083984 l 0.328125,-2.0214843 c -0.201083,-0.0635 -0.348062,-0.095704 -0.570312,-0.095703 z m 40.787109,0 c -0.624415,0 -1.194901,0.4974503 -1.427734,1.2382813 L 51.294922,5.4550781 h -1.832031 v 5.6523439 h 2.095703 V 8.5351562 c 0.158749,-0.7196644 0.381263,-1.2265624 1.058594,-1.2265624 0.179915,0 0.339614,0.031068 0.519531,0.083984 l 0.328125,-2.0214843 c -0.201083,-0.0635 -0.350017,-0.095704 -0.572266,-0.095703 z m 21.939453,0.052734 c -1.640412,0 -2.550781,1.3125315 -2.550781,3.0058594 0,1.7568276 0.943027,2.9433596 2.742188,2.9433596 0.878414,0 1.576622,-0.319174 2.126953,-0.763672 l -0.625,-0.8457032 c -0.486832,0.3386652 -0.888987,0.4863282 -1.365235,0.4863282 -0.719665,0 -1.228151,-0.3169879 -1.333984,-1.3964845 h 3.503906 c 0.01058,-0.1587495 0.03125,-0.3915318 0.03125,-0.5820313 0,-1.7885775 -0.941802,-2.8476562 -2.529297,-2.8476562 z m 17.779297,0 c -0.634998,0 -1.375721,0.1388967 -2.074219,0.4140625 l 0.339844,1.0039063 c 0.571498,-0.1904995 1.110054,-0.2949219 1.480469,-0.2949219 0.709082,0 1.005859,0.2214242 1.005859,0.9199219 v 0.2753906 h -0.646484 c -1.661578,0 -2.582031,0.6668684 -2.582031,1.8945312 0,1.0159964 0.698482,1.7363284 1.820312,1.7363284 0.666748,0 1.281428,-0.233824 1.683594,-0.847656 0.232832,0.560914 0.656017,0.773254 1.291016,0.826171 l 0.318359,-0.996093 C 94.972881,10.164516 94.833984,10.005863 94.833984,9.5507812 V 7.2871094 c 0,-1.269996 -0.666911,-1.9589844 -2.222656,-1.9589844 z m 12.277342,0 c -1.64041,0 -2.55078,1.3125315 -2.55078,3.0058594 0,1.7568276 0.94107,2.9433596 2.74023,2.9433596 0.87842,0 1.57858,-0.319174 2.12891,-0.763672 l -0.625,-0.8457032 c -0.48683,0.3386652 -0.88898,0.4863282 -1.36523,0.4863282 -0.71967,0 -1.22815,-0.3169879 -1.33399,-1.3964845 h 3.50391 c 0.0106,-0.1587495 0.0312,-0.3915318 0.0312,-0.5820313 0,-1.7885775 -0.94181,-2.8476562 -2.5293,-2.8476562 z m 14.51953,0 c -1.64041,0 -2.67773,1.2395838 -2.67773,3.0175781 0,1.7885769 1.02706,2.9316409 2.69922,2.9316409 0.74083,0 1.3338,-0.243501 1.84179,-0.65625 l -0.65625,-0.9433596 c -0.41275,0.2645825 -0.69857,0.3925776 -1.11132,0.3925776 -0.70908,0 -1.18555,-0.4345817 -1.18555,-1.7363276 0,-1.3017458 0.44389,-1.8417969 1.19531,-1.8417969 0.41275,0 0.74173,0.1271779 1.10156,0.4023437 l 0.65625,-0.8886718 C 120.74232,5.5507772 120.15962,5.3281247 119.4082,5.328125 Z m 4.86914,0 c -1.69333,0 -2.69921,1.1860318 -2.69922,2.9746094 0,1.8626606 1.01535,2.9746096 2.6875,2.9746096 1.68274,0 2.68946,-1.196615 2.68946,-2.9746096 0,-1.8626607 -1.00558,-2.9746094 -2.67774,-2.9746094 z m 9.91602,0 c -1.64041,0 -2.55078,1.3125315 -2.55078,3.0058594 0,1.7568276 0.94303,2.9433596 2.74219,2.9433596 0.87841,0 1.57662,-0.319174 2.12695,-0.763672 l -0.625,-0.8457032 c -0.48684,0.3386652 -0.88899,0.4863282 -1.36524,0.4863282 -0.71966,0 -1.22815,-0.3169879 -1.33398,-1.3964845 h 3.50391 c 0.0106,-0.1587495 0.0312,-0.3915318 0.0312,-0.5820313 0,-1.7885775 -0.94181,-2.8476562 -2.5293,-2.8476562 z m -62.556641,0.011719 c -0.656164,0 -1.196356,0.4648826 -1.460938,1.2480468 L 70.037109,5.4980469 h -1.300781 v 5.6093751 h 1.501953 V 8.2070312 c 0.201082,-0.8995804 0.519117,-1.4062499 1.207031,-1.40625 0.1905,0 0.328714,0.029933 0.498047,0.072266 L 72.197266,5.4238281 C 72.006767,5.3709111 71.837802,5.339844 71.636719,5.3398438 Z m 17.980469,0 c -0.656166,0 -1.196356,0.4648826 -1.460938,1.2480468 L 88.019531,5.4980469 h -1.302734 v 5.6093751 h 1.503906 V 8.2070312 c 0.201083,-0.8995804 0.517163,-1.4062499 1.205078,-1.40625 0.190499,0 0.328714,0.029933 0.498047,0.072266 l 0.253906,-1.4492188 c -0.1905,-0.052917 -0.359464,-0.083984 -0.560546,-0.083984 z m 41.380862,0 c -0.65617,0 -1.19636,0.4648826 -1.46094,1.2480468 l -0.13867,-1.0898437 h -1.30078 v 5.6093751 h 1.50195 V 8.2070312 c 0.20108,-0.8995804 0.51911,-1.4062499 1.20703,-1.40625 0.1905,0 0.32872,0.029933 0.49805,0.072266 l 0.2539,-1.4492188 c -0.1905,-0.052917 -0.35946,-0.083984 -0.56054,-0.083984 z M 37.589844,5.4550781 v 4.0644531 c 0,1.0794968 0.475509,1.7988278 1.576172,1.7988278 0.709081,0 1.280293,-0.273886 1.671875,-0.824218 l 0.07422,0.613281 h 1.832032 V 5.4550781 h -2.095703 v 3.875 c -0.1905,0.3280823 -0.424736,0.4648438 -0.615235,0.4648438 -0.201083,0 -0.347656,-0.1062827 -0.347656,-0.5507813 V 5.4550781 Z m 37.273437,0.9003907 c 0.719665,0 1.00586,0.5498204 1.00586,1.3964843 v 0.064453 h -2.042969 c 0.07408,-1.0583298 0.444445,-1.4609375 1.037109,-1.4609374 z m 30.056639,0 c 0.71966,0 1.00586,0.5498204 1.00586,1.3964843 v 0.064453 h -2.04297 c 0.0741,-1.0583298 0.44444,-1.4609375 1.03711,-1.4609374 z m 29.30469,0 c 0.71966,0 1.00586,0.5498204 1.00586,1.3964843 v 0.064453 h -2.04297 c 0.0741,-1.0583299 0.44444,-1.4609375 1.03711,-1.4609374 z m -35.50586,0.083984 c 0.412748,0 0.69749,0.2012146 0.972656,0.5292969 v 2.5078125 c -0.296332,0.4444986 -0.613277,0.6777345 -1.068359,0.6777345 -0.603248,0 -1.005859,-0.4439837 -1.005859,-1.8515626 0,-1.3123291 0.445397,-1.8632813 1.101562,-1.8632813 z m 25.55859,0.011719 c 0.73025,0 1.11133,0.5604 1.11133,1.8515625 0,1.2805793 -0.38221,1.8515626 -1.12305,1.8515626 -0.74083,0 -1.12109,-0.5604 -1.12109,-1.8515626 0,-1.2805792 0.3814,-1.8515625 1.13281,-1.8515625 z M 27.429688,6.5664062 c 0.539749,0 0.655432,0.4773301 0.666015,1.0488282 v 0.074219 h -1.417969 c 0.07408,-0.8678305 0.307455,-1.1230468 0.751954,-1.1230469 z m -6.201172,0.1699219 c 0.254,0 0.432547,0.1172767 0.623046,0.3183594 v 2.2636719 c -0.201083,0.3492489 -0.455303,0.4980469 -0.730468,0.4980468 -0.380999,0 -0.708985,-0.1902594 -0.708985,-1.5449218 0,-1.1429963 0.361326,-1.5351563 0.816407,-1.5351563 z m 35.007812,0 c 0.253999,0 0.4345,0.1172767 0.625,0.3183594 v 2.2636719 c -0.201083,0.3492489 -0.455303,0.4980469 -0.730469,0.4980468 -0.380999,0 -0.708984,-0.1902594 -0.708984,-1.5449218 0,-1.1429963 0.359371,-1.5351563 0.814453,-1.5351563 z M 78.21875,7.2011719 V 8.3867188 H 81.5 V 7.2011719 Z m 14.646484,1.3027343 h 0.498047 v 1.0683594 c -0.232833,0.4021654 -0.560225,0.6250004 -0.99414,0.6250004 -0.465665,0 -0.720704,-0.2857884 -0.720703,-0.7832035 0,-0.6138314 0.401882,-0.9101563 1.216796,-0.9101563 z M 15.269531,8.6738281 h 0.222657 v 0.8359375 c -0.137584,0.1904994 -0.360419,0.3378907 -0.625,0.3378906 -0.285749,0 -0.464844,-0.2117978 -0.464844,-0.5292968 0,-0.4444986 0.274522,-0.6445313 0.867187,-0.6445313 z m 30.988281,0 h 0.220704 v 0.8359375 c -0.137582,0.1904994 -0.358465,0.3378907 -0.623047,0.3378906 -0.285749,0 -0.466797,-0.2117978 -0.466797,-0.5292968 0,-0.4444986 0.276475,-0.6445313 0.86914,-0.6445313 z" />
    </g>
  </g>
</svg>
