<?xml version="1.0" encoding="UTF-8" standalone="no"?>
<svg
   xmlns:dc="http://purl.org/dc/elements/1.1/"
   xmlns:cc="http://creativecommons.org/ns#"
   xmlns:rdf="http://www.w3.org/1999/02/22-rdf-syntax-ns#"
   xmlns:svg="http://www.w3.org/2000/svg"
   xmlns="http://www.w3.org/2000/svg"
   xmlns:sodipodi="http://sodipodi.sourceforge.net/DTD/sodipodi-0.dtd"
   xmlns:inkscape="http://www.inkscape.org/namespaces/inkscape"
   aria-hidden="true"
   focusable="false"
   data-prefix="fas"
   data-icon="camera-viewfinder"
   class="svg-inline--fa fa-camera-viewfinder"
   role="img"
   viewBox="0 0 512 512"
   version="1.1"
   id="svg4"
   sodipodi:docname="view.svg"
   inkscape:version="1.0.1 (3bc2e813f5, 2020-09-07)">
  <metadata
     id="metadata10">
    <rdf:RDF>
      <cc:Work
         rdf:about="">
        <dc:format>image/svg+xml</dc:format>
        <dc:type
           rdf:resource="http://purl.org/dc/dcmitype/StillImage" />
        <dc:title></dc:title>
      </cc:Work>
    </rdf:RDF>
  </metadata>
  <defs
     id="defs8" />
  <sodipodi:namedview
     pagecolor="#ffffff"
     bordercolor="#666666"
     borderopacity="1"
     objecttolerance="10"
     gridtolerance="10"
     guidetolerance="10"
     inkscape:pageopacity="0"
     inkscape:pageshadow="2"
     inkscape:window-width="1853"
     inkscape:window-height="965"
     id="namedview6"
     showgrid="false"
     inkscape:zoom="0.69605824"
     inkscape:cx="-75.420579"
     inkscape:cy="413.95631"
     inkscape:window-x="0"
     inkscape:window-y="0"
     inkscape:window-maximized="0"
     inkscape:current-layer="svg4" />
  <path
     fill="currentColor"
     d="M 0,24 C 0,10.75 10.75,0 24,0 h 112 c 13.3,0 24,10.75 24,24 0,13.25 -10.7,24 -24,24 H 48 v 88 C 48,149.3 37.25,160 24,160 10.75,160 0,149.3 0,136 Z M 488,0 c 13.3,0 24,10.75 24,24 v 112 c 0,13.3 -10.7,24 -24,24 -13.3,0 -24,-10.7 -24,-24 V 48 H 376 C 362.7,48 352,37.25 352,24 352,10.75 362.7,0 376,0 Z M 0,376 c 0,-13.3 10.75,-24 24,-24 13.25,0 24,10.7 24,24 v 88 h 88 c 13.3,0 24,10.7 24,24 0,13.3 -10.7,24 -24,24 H 24 C 10.75,512 0,501.3 0,488 Z m 376,136 c -13.3,0 -24,-10.7 -24,-24 0,-13.3 10.7,-24 24,-24 h 88 v -88 c 0,-13.3 10.7,-24 24,-24 13.3,0 24,10.7 24,24 v 112 c 0,13.3 -10.7,24 -24,24 z"
     id="path2"
     sodipodi:nodetypes="ssssscssssssssscssssssscssssssssscssssss" />
</svg>
