<svg xmlns="http://www.w3.org/2000/svg" viewBox="0 0 2393.505 863.151"><path d="M1550.445,436.212l6.51-14.137-8.819.078c-130.657,1.115-395.1,45.187-496.314,66.6l14.5-25.628L699.356,504.8,881.685,314.348H829.624l303.038-294.79L823,55.433l20.013-41.218L532.02,55.926,520.321,0,306.54,231.822s196.259-30.609,249.4-34.617l-32.256,43.41,14.487-3.1c30.959-6.627,153.965-24.577,205.6-28.455L398.224,459.065s74.939-6.355,95.081-5.707C416.226,512.643,24.889,837.211,0,863.151c0,0,706.891-234.74,826.615-249.668l-24.046,33.384,16.225-5.253c91.684-29.8,424.319-116.442,552.4-124.574l-19.559,29.986,14.059-3.749C1551.314,493.94,1993.959,413.255,2351.444,402c-177.893-33.358-720.535,24.5-801,34.214Z"/><path d="M438.43,443.748,778.393,197.776l-16.212-.6c-29.052-1.077-161.875,17.9-212.172,26.743l28.572-38.468S389.819,206.18,337.8,214.416L513.849,23.527l9.39,44.85L823.891,28.054,808.509,59.713l-4.448,9.157,10.116-1.181,287.189-33.254L802.128,325.515h53.4l-185.6,193.846,375.9-42.683L1029.8,505.043l12.257-2.737c88.038-19.688,358.8-65.821,497.338-68.856l-7.5,16.29,9.96-1.246c5.474-.687,488.519-60.529,729.575-49.09-333.7,16.77-715.464,83.564-894.641,129.412l15.525-23.8-10.661.311c-114.017,3.346-437.042,85.938-550.268,120.606L849.014,601.4H838.119C759.133,601.4,193.885,781,51.438,833.113c94.018-81.839,436.018-364.5,460.375-379.573l13.449-8.327-15.693-1.945c-14.863-1.829-43.527-1.557-71.139.479Z"/><path d="M1025.169,156.688,1233.736,143.8,1190.378,227l-92.565,5.862-16.407,30.466,92.578-5.849-26.951,51.542-93.745,7.042-15.227,30.453,93.732-7.029-46.872,89.063L859.947,450.79l165.222-294.1Zm122.344,264.687,147.622-282.391,107.221-5.862,24.6,99.011,54.486-103.68,123.032-7.043-142.94,273.027-93.759,8.183-30.44-116L1271.7,410.83l-124.185,10.545Zm374.009-31.75,142.94-273,123.044-7.042L1644.527,382.024l-123.005,7.6ZM1825.041,107.2c31.633-1.18,171.058-9.39,236.7-8.21L2009.3,198.878l-57.119,1.168-88.454,169.605-124.2,5.863,91.67-172.252-58.312.882L1825.04,107.2Zm124.38,255.388,139.45-263.637h119.517L2163.85,183.3h65.64L2274,98.946h119.5L2256.441,359.068l-120.71,1.167,49.221-91.385h-66.8l-48.027,92.565-120.709,1.168Zm-630.655,199.41a34.647,34.647,0,1,0,10.129,24.4,33.035,33.035,0,0,0-10.129-24.4Zm-3.437,45.589a29.624,29.624,0,0,1-42.1,0,30.141,30.141,0,0,1,.026-42.269,29.7,29.7,0,0,1,50.738,21.063A29.034,29.034,0,0,1,1315.329,607.582Z"/><path d="M1309.674,604.806a5.849,5.849,0,0,1-.324-1.971c-.052-1-.1-1.933-.1-2.828v-2.775a10.374,10.374,0,0,0-2.075-5.9,9.185,9.185,0,0,0-6.537-3.723,13.911,13.911,0,0,0,5.5-1.841c2.477-1.6,3.722-4.086,3.722-7.5,0-4.76-1.945-7.963-5.875-9.6q-3.307-1.362-10.363-1.362h-13.294v37.976h6.693V590.319h5.265c3.567,0,6.057.389,7.471,1.219,2.386,1.414,3.567,4.319,3.567,8.716v3.022l.155,1.219c.021.139.047.277.078.415l.1.376h6.277l-.259-.48Zm-10.285-20.025a17.881,17.881,0,0,1-6.355.843H1287V571.863h5.719c3.7,0,6.382.454,8.055,1.414,1.7.934,2.529,2.788,2.529,5.551a5.826,5.826,0,0,1-3.917,5.953Z"/></svg>