<svg xmlns="http://www.w3.org/2000/svg" width="26" height="26" viewBox="0 0 26 26"><title>add-document</title><path d="M11.841,17.462l1.186-1.186,2.305-2.3,1.541-1.541a2.714,2.714,0,0,0,.238-.264,3.515,3.515,0,0,0,.266-.374,3.475,3.475,0,0,0,.193-.415,2.784,2.784,0,0,0,.174-.731,2.863,2.863,0,0,0-2.362-3.133,2.9,2.9,0,0,0-1.481.13,3.061,3.061,0,0,0-1.051.668l-.112.112-1.606,1.606L8.8,12.361,7.242,13.92a4.288,4.288,0,0,0-.828,1.1,4.219,4.219,0,0,0-.373,2.734A4.006,4.006,0,0,0,7.4,20.03a4.315,4.315,0,0,0,1.3.741,4.048,4.048,0,0,0,1.3.228,3.968,3.968,0,0,0,1.316-.2,4.3,4.3,0,0,0,1.319-.722,5.817,5.817,0,0,0,.52-.484l1.76-1.76,2.313-2.312L18.6,14.143a5.339,5.339,0,0,0-1.12-8.46,5.351,5.351,0,0,0-6.453.933l-.567.568L8.291,9.352,6.325,11.318l-.314.314a.71.71,0,1,0,1,1l.541-.541,1.283-1.284L10.361,9.29l1.25-1.25c.207-.208.411-.422.627-.621.094-.087.194-.168.295-.246l-.144.112A4.71,4.71,0,0,1,13.4,6.692l-.171.071a4.817,4.817,0,0,1,1.2-.328c-.062.009-.126.018-.188.025a4.824,4.824,0,0,1,1.236,0c-.062-.009-.126-.018-.188-.025a4.726,4.726,0,0,1,1.2.328l-.17-.071a4.638,4.638,0,0,1,1.011.593l-.144-.112a4.782,4.782,0,0,1,.835.835l-.112-.144A4.71,4.71,0,0,1,18.5,8.875c-.023-.057-.048-.113-.071-.17a4.81,4.81,0,0,1,.328,1.2c-.009-.062-.018-.126-.025-.188a4.824,4.824,0,0,1,0,1.236c.009-.062.018-.126.025-.188a4.733,4.733,0,0,1-.328,1.2c.023-.057.048-.114.071-.171a4.615,4.615,0,0,1-.593,1.011l.112-.144a9.8,9.8,0,0,1-.844.9L15.79,14.948l-1.74,1.739-1.485,1.486c-.21.209-.419.42-.63.63a3.938,3.938,0,0,1-.328.289l.144-.112a3.4,3.4,0,0,1-.733.427l.171-.071a3.552,3.552,0,0,1-.871.24c.062-.009.126-.018.188-.025a3.471,3.471,0,0,1-.922,0c.062.009.126.018.188.025a3.552,3.552,0,0,1-.871-.24l.171.071a3.4,3.4,0,0,1-.733-.427l.144.112a3.5,3.5,0,0,1-.617-.617l.112.143a3.439,3.439,0,0,1-.428-.732c.023.057.048.113.071.17a3.5,3.5,0,0,1-.239-.87c.009.062.018.125.025.188a3.479,3.479,0,0,1,0-.923c-.009.063-.018.126-.025.188a3.5,3.5,0,0,1,.239-.87c-.023.057-.048.113-.071.17a3.439,3.439,0,0,1,.428-.732l-.112.143a9.48,9.48,0,0,1,.769-.81l1.383-1.383,1.711-1.711L13.2,9.974q.33-.33.661-.661a2.411,2.411,0,0,1,.215-.188l-.144.112a2.241,2.241,0,0,1,.476-.277l-.171.071a2.232,2.232,0,0,1,.543-.149c-.062.009-.126.018-.188.025a2.277,2.277,0,0,1,.606,0c-.062-.009-.125-.018-.188-.025a2.245,2.245,0,0,1,.543.149l-.17-.071a2.234,2.234,0,0,1,.475.277l-.144-.112a2.238,2.238,0,0,1,.4.4L16,9.382a2.234,2.234,0,0,1,.277.475c-.023-.056-.048-.113-.071-.17a2.232,2.232,0,0,1,.149.543c-.009-.062-.018-.126-.025-.188a2.277,2.277,0,0,1,0,.606c.009-.062.018-.126.025-.188A2.257,2.257,0,0,1,16.21,11c.023-.057.048-.114.071-.17a2.234,2.234,0,0,1-.277.475l.112-.144a7.522,7.522,0,0,1-.624.651l-1.2,1.2L12.8,14.51l-1.3,1.3c-.213.213-.429.422-.638.638l-.009.009a.706.706,0,1,0,1,1Z" fill="#ddd"/></svg>