<svg xmlns="http://www.w3.org/2000/svg" width="26" height="26" viewBox="0 0 26 26"><title>alert-edit</title><path d="M18.714,11.629H17.36a4.168,4.168,0,0,0-.309-.738l.96-.96a.281.281,0,0,0,0-.4L16.474,7.989a.292.292,0,0,0-.405,0l-.96.96a4.168,4.168,0,0,0-.738-.309V7.286A.283.283,0,0,0,14.086,7H11.914a.283.283,0,0,0-.285.286V8.64a4.168,4.168,0,0,0-.738.309l-.96-.96a.292.292,0,0,0-.4,0L7.989,9.526a.276.276,0,0,0-.086.205.263.263,0,0,0,.086.2l.96.96a4.168,4.168,0,0,0-.309.738H7.286A.283.283,0,0,0,7,11.914v2.172a.283.283,0,0,0,.286.285H8.64a4.168,4.168,0,0,0,.309.738l-.96.96a.263.263,0,0,0-.086.2.276.276,0,0,0,.086.205l1.537,1.537a.281.281,0,0,0,.4,0l.96-.96a4.168,4.168,0,0,0,.738.309v1.354a.283.283,0,0,0,.285.286h2.172a.283.283,0,0,0,.285-.286V17.36a4.168,4.168,0,0,0,.738-.309l.96.96a.281.281,0,0,0,.405,0l1.537-1.537a.281.281,0,0,0,0-.405l-.96-.96a4.168,4.168,0,0,0,.309-.738h1.354A.283.283,0,0,0,19,14.086V11.914A.283.283,0,0,0,18.714,11.629ZM13,14.617A1.617,1.617,0,1,1,14.617,13,1.621,1.621,0,0,1,13,14.617Z" fill="#323232"/></svg>