<svg xmlns="http://www.w3.org/2000/svg" width="26" height="26" viewBox="0 0 26 26"><title>alert</title><path d="M21,15.05V10.5a4.193,4.193,0,0,0-.03-.5A7.486,7.486,0,0,0,6.03,10a4.193,4.193,0,0,0-.03.5v4.55A2.5,2.5,0,0,0,4.5,19a2.527,2.527,0,0,0,1.5.95,2.734,2.734,0,0,0,.5.05H9.03a4.5,4.5,0,0,0,8.94,0H20.5a2.734,2.734,0,0,0,.5-.05,2.5,2.5,0,0,0,2-2.45A2.5,2.5,0,0,0,21,15.05ZM13.5,23a3.5,3.5,0,0,1-3.46-3h6.92A3.5,3.5,0,0,1,13.5,23ZM21,18.91a1.386,1.386,0,0,1-.5.09H6.5a1.386,1.386,0,0,1-.5-.09,1.494,1.494,0,0,1,0-2.82,1.434,1.434,0,0,1,1,0V10.5a6.5,6.5,0,0,1,13,0v5.59a1.434,1.434,0,0,1,1,0,1.494,1.494,0,0,1,0,2.82Z" fill="#323232"/></svg>