<svg xmlns="http://www.w3.org/2000/svg" width="26" height="26" viewBox="0 0 26 26"><title>app-members</title><path d="M9.48,3.03A3.471,3.471,0,0,0,8,9.64a4.559,4.559,0,0,1,.16-.98,2.531,2.531,0,1,1,3.48-3.48,4.559,4.559,0,0,1,.98-.16A3.5,3.5,0,0,0,9.48,3.03ZM8.36,11.92a6.422,6.422,0,0,0-5.42,6.33h1a5.408,5.408,0,0,1,4.94-5.38A5.845,5.845,0,0,1,8.36,11.92ZM12.98,16a7.008,7.008,0,0,0-7,7h1a6,6,0,0,1,12,0h1A7.008,7.008,0,0,0,12.98,16Zm0-10a4,4,0,1,0,4,4A4,4,0,0,0,12.98,6Zm0,7a3,3,0,1,1,3-3A3.009,3.009,0,0,1,12.98,13Zm10.5,1.5a.5.5,0,0,1-.5.5h-2v2a.5.5,0,0,1-1,0V15h-2a.5.5,0,0,1,0-1h2V12a.5.5,0,0,1,1,0v2h2A.5.5,0,0,1,23.48,14.5Z" fill="#323232"/></svg>