<svg xmlns="http://www.w3.org/2000/svg" width="26" height="26" viewBox="0 0 26 26"><title>backtest</title><path d="M21.45,11.38l-2.82,2.83-1.42-1.42-.71.71,1.42,1.41.71.71,3.53-3.53ZM22.58,3H16.42A1.425,1.425,0,0,0,15,4.42V22.58A1.425,1.425,0,0,0,16.42,24h6.16A1.425,1.425,0,0,0,24,22.58V4.42A1.425,1.425,0,0,0,22.58,3ZM23,22.58a.423.423,0,0,1-.42.42H16.42a.423.423,0,0,1-.42-.42V4.42A.423.423,0,0,1,16.42,4h6.16a.423.423,0,0,1,.42.42Zm-4.37-8.37-1.42-1.42-.71.71,1.42,1.41.71.71,3.53-3.53-.71-.71ZM10.58,3H4.42A1.425,1.425,0,0,0,3,4.42V22.58A1.425,1.425,0,0,0,4.42,24h6.16A1.425,1.425,0,0,0,12,22.58V4.42A1.425,1.425,0,0,0,10.58,3ZM11,22.58a.423.423,0,0,1-.42.42H4.42A.423.423,0,0,1,4,22.58V4.42A.423.423,0,0,1,4.42,4h6.16a.423.423,0,0,1,.42.42Zm10.45-11.2-2.82,2.83-1.42-1.42-.71.71,1.42,1.41.71.71,3.53-3.53ZM8.21,13.5l2.12,2.12-.71.71L7.5,14.21,5.38,16.33l-.71-.71L6.79,13.5,4.67,11.38l.71-.71L7.5,12.79l2.12-2.12.71.71Z" fill="#323232"/></svg>