<svg xmlns="http://www.w3.org/2000/svg" width="26" height="26" viewBox="0 0 26 26"><title>blockchains</title><path d="M17.34,13.24A4,4,0,0,0,15,6V3.5a.5.5,0,0,0-1,0V6H12V3.5a.5.5,0,0,0-1,0V6H6.5a.5.5,0,0,0-.5.5.5.5,0,0,0,.5.5H9V20H6.5a.5.5,0,0,0-.5.5.5.5,0,0,0,.5.5H11v2.5a.5.5,0,0,0,1,0V21h2v2.5a.5.5,0,0,0,1,0V21h.5a5.614,5.614,0,0,0,1.659-.171,3.983,3.983,0,0,0,1.165-.575A3.991,3.991,0,0,0,20,17,3.977,3.977,0,0,0,17.34,13.24ZM10,7h4.872a3.089,3.089,0,0,1,2.374,1.008A3,3,0,0,1,15,13H10Zm5.987,12.991c-.406.025-.813.023-1.218.02Q12.8,20,10.824,20H10V14h.851q2.117,0,4.234-.01a3.877,3.877,0,0,1,3.1.948,3.007,3.007,0,0,1,.663,1.1,3.046,3.046,0,0,1-.917,3.259,2.757,2.757,0,0,1-1.367.636C16.37,19.961,16.178,19.979,15.987,19.991Z" fill="#323232"/></svg>