<svg xmlns="http://www.w3.org/2000/svg" width="26" height="26" viewBox="0 0 26 26"><title>currencies</title><path d="M16.1,13c-.088,0-.176,0-.264,0-.537.006-1.075,0-1.613,0H14V7h2a3.009,3.009,0,0,1,3,3,.5.5,0,0,0,1,0,4,4,0,0,0-4-4H14V3.5a.5.5,0,0,0-1,0V6H11a4,4,0,0,0-2.228,7.323A5.768,5.768,0,0,0,12.137,14H13v6H11a3.009,3.009,0,0,1-3-3,.5.5,0,0,0-1,0,4,4,0,0,0,4,4h2v2.5a.5.5,0,0,0,1,0V21h2a4,4,0,0,0,2.228-7.323A4.109,4.109,0,0,0,16.1,13ZM11,13a3,3,0,0,1,0-6h2v6Zm5,7H14V14h2a3,3,0,0,1,0,6Z" fill="#323232"/></svg>