<svg xmlns="http://www.w3.org/2000/svg" width="26" height="26" viewBox="0 0 26 26"><title>data-consolidator</title><path d="M18.15,17.85a.508.508,0,0,1-.36.15H5.5l2.62,2.63a.483.483,0,0,1,0,.7.5.5,0,0,1-.71,0L4,17.92V23.5a.5.5,0,0,1-1,0V3.5a.5.5,0,0,1,1,0V17.08l3.42-3.42a.469.469,0,0,1,.35-.15.463.463,0,0,1,.35.16.483.483,0,0,1,0,.7l-2.21,2.2L5.49,17h12.3a.469.469,0,0,1,.35.15A.5.5,0,0,1,18.15,17.85ZM23.5,3a.5.5,0,0,0-.5.5V9.09L19.58,5.67a.5.5,0,0,0-.71.69.01.01,0,0,0,.01.01L21.5,9H9.21a.475.475,0,0,0-.36.15.5.5,0,0,0,0,.7.491.491,0,0,0,.36.15H21.5l-2.63,2.63a.5.5,0,0,0,0,.7.48.48,0,0,0,.69.02l.02-.02L23,9.91V23.5a.5.5,0,0,0,1,0V3.5A.5.5,0,0,0,23.5,3Z" fill="#323232"/></svg>