<svg xmlns="http://www.w3.org/2000/svg" width="26" height="26" viewBox="0 0 26 26"><title>deposits</title><path d="M8.469,17.281a.5.5,0,0,1-.354-.853l9-9a.5.5,0,1,1,.707.707l-9,9A.5.5,0,0,1,8.469,17.281ZM12,8.5A2.5,2.5,0,1,0,9.5,11,2.5,2.5,0,0,0,12,8.5Zm-1,0A1.5,1.5,0,1,1,9.5,7,1.5,1.5,0,0,1,11,8.5Zm9,7A2.5,2.5,0,1,0,17.5,18,2.5,2.5,0,0,0,20,15.5Zm-1,0A1.5,1.5,0,1,1,17.5,14,1.5,1.5,0,0,1,19,15.5Zm5-11v16A1.5,1.5,0,0,1,22.5,22H21v2H16V22H11v2H6V22H4.5A1.5,1.5,0,0,1,3,20.5V4.5A1.5,1.5,0,0,1,4.5,3h18A1.5,1.5,0,0,1,24,4.5ZM10,22H7v1h3Zm10,0H17v1h3ZM23,4.5a.5.5,0,0,0-.5-.5H4.5a.5.5,0,0,0-.5.5v16a.5.5,0,0,0,.5.5h18a.5.5,0,0,0,.5-.5Z" fill="#323232"/></svg>