<svg xmlns="http://www.w3.org/2000/svg" width="26" height="26" viewBox="5.5 5.5 15 15"><title>edit</title><path d="M16.881,20h-8.3a.5.5,0,0,1,0-1h8.3a.5.5,0,0,1,0,1ZM18,8.3v.01l-5.2,8.507-.168.165-2.489,1.467a.512.512,0,0,1-.517,0,.51.51,0,0,1-.239-.458l.169-2.855a.481.481,0,0,1,.07-.259c.01-.01.01-.02.02-.03L14,7.733v-.01l.01-.01.826-1.353a.688.688,0,0,1,.945-.229l1.99,1.224a.682.682,0,0,1,.309.428A.674.674,0,0,1,18,8.3Zm-6.812,8.27-.91-.56-.07,1.13Zm4.69-7.02-1.49-.9-3.87,6.33,1.48.91Zm.93-1.52-1.48-.91-.41.67,1.48.91Z" fill="#323232"/></svg>