<svg xmlns="http://www.w3.org/2000/svg" width="26" height="26" viewBox="0 0 26 26"><title>email</title><path d="M5.218,8.494A2.426,2.426,0,0,1,7.551,7H18.43a2.454,2.454,0,0,1,2.342,1.44.435.435,0,0,1-.1.606h0a.439.439,0,0,1-.132.065l-7.214,3.761a.6.6,0,0,1-.6,0L5.419,9.08a.38.38,0,0,1-.256-.472v0A.389.389,0,0,1,5.218,8.494ZM21,15.768V11.246a.38.38,0,0,0-.33-.424h0a.373.373,0,0,0-.169.018.8.8,0,0,0-.2.083q-3.4,1.745-6.784,3.52a.991.991,0,0,1-1.009,0q-3.4-1.78-6.82-3.555A.429.429,0,0,0,5,11.3v5.225A2.5,2.5,0,0,0,7.527,19H18.506a2.439,2.439,0,0,0,2.445-2.061A7.159,7.159,0,0,0,21,15.768Z" fill="#ddd"/></svg>