<svg xmlns="http://www.w3.org/2000/svg" width="26" height="26" viewBox="0 0 26 26"><title>exchange-members</title><path d="M13,14a4,4,0,1,1,4-4A4,4,0,0,1,13,14Zm0-7a3,3,0,1,0,3,3A3,3,0,0,0,13,7Zm0,9a7.009,7.009,0,0,0-7,7H7a6,6,0,0,1,12,0h1A7.009,7.009,0,0,0,13,16Zm10.08,2.25a6.4,6.4,0,0,0-5.46-6.33,4.787,4.787,0,0,1-.52.94,5.415,5.415,0,0,1,4.98,5.39ZM19.03,6.5a2.555,2.555,0,0,1-1.21,2.16,4.559,4.559,0,0,1,.16.98,3.471,3.471,0,1,0-4.62-4.62,4.559,4.559,0,0,1,.98.16A2.531,2.531,0,0,1,19.03,6.5ZM8.38,11.92a6.422,6.422,0,0,0-5.42,6.33h1A5.408,5.408,0,0,1,8.9,12.87,5.845,5.845,0,0,1,8.38,11.92Zm3.28-6.74a4.559,4.559,0,0,1,.98-.16A3.471,3.471,0,1,0,8.02,9.64a4.559,4.559,0,0,1,.16-.98,2.531,2.531,0,1,1,3.48-3.48Z" fill="#323232"/></svg>