<svg xmlns="http://www.w3.org/2000/svg" width="26" height="26" viewBox="0 0 14 13.5"><title>filled-star</title><path fill="#323232" d="M10.893 9.512l.458 3.624c.014.105-.006.16-.02.176-.028.03-.109.005-.182-.03L7.812 11.73a1.973 1.973 0 0 0-.811-.16c-.302 0-.59.057-.81.16l-3.338 1.552c-.118.056-.164.051-.182.03-.014-.016-.034-.07-.02-.178L3.11 9.51c.06-.503-.162-1.18-.505-1.54L.087 5.302c-.085-.091-.09-.148-.086-.158.003-.01.04-.053.16-.077l3.621-.689c.491-.09 1.069-.506 1.315-.948L7.004 0l1.902 3.43c.246.442.824.859 1.312.947l3.617.69c.123.024.162.068.164.077.003.01-.003.066-.089.157L11.4 7.97c-.348.367-.57 1.045-.506 1.543z"/></svg>