<svg xmlns="http://www.w3.org/2000/svg" width="26" height="26" viewBox="0 0 26 26"><title>group-chat</title><path d="M22.21,19.135l.02-.05a8.349,8.349,0,0,0,1.13-4.76,8.47,8.47,0,0,0-4.76-7.14,8.444,8.444,0,0,0-1.64-2.17,8.326,8.326,0,0,0-5.85-2.35,5.245,5.245,0,0,0-.58.02,8.472,8.472,0,0,0-7.89,7.97,8.349,8.349,0,0,0,1.13,4.76l.03.05-.92,2.82a.872.872,0,0,0,.21.88.853.853,0,0,0,.87.23l2.95-.84c.17.09.34.18.51.26a8.589,8.589,0,0,0,7.25,4.51l.25.01a8.741,8.741,0,0,0,4.17-1.11l2.95.84a.855.855,0,0,0,.88-.23.886.886,0,0,0,.2-.89ZM7.39,17.675a.735.735,0,0,0-.52-.12.818.818,0,0,0-.21.03l-2.76.79.87-2.68a.8.8,0,0,0,0-.53v-.14l-.13-.09a7.5,7.5,0,0,1,5.99-11.25,3.934,3.934,0,0,1,.48-.02,7.35,7.35,0,0,1,5.16,2.07,7.047,7.047,0,0,1,.77.87,6.668,6.668,0,0,1,.82,1.35,7.456,7.456,0,0,1,.73,3.36,7.557,7.557,0,0,1-7.28,7.34l-.23.01a7.447,7.447,0,0,1-2.91-.61A7.03,7.03,0,0,1,7.39,17.675Zm11.96,3.58a.883.883,0,0,0-.73.08,7.613,7.613,0,0,1-3.7,1l-.23-.01A7.449,7.449,0,0,1,9,19.385a7.832,7.832,0,0,0,2.08.28l.26-.01a8.57,8.57,0,0,0,8.25-8.32,8.256,8.256,0,0,0-.36-2.62,7.5,7.5,0,0,1,3.14,5.67,7.388,7.388,0,0,1-1.03,4.25l-.11.11v.1a.773.773,0,0,0,0,.52l.87,2.68ZM15,11a3.657,3.657,0,0,1-.13,1,3.993,3.993,0,1,1-1.03-3.82l-.71.71A3,3,0,1,0,13.82,12H11V11Z" fill="#323232"/></svg>