<?xml version="1.0" encoding="UTF-8"?>
<svg width="14px" height="14px" viewBox="0 0 14 14" version="1.1" xmlns="http://www.w3.org/2000/svg" xmlns:xlink="http://www.w3.org/1999/xlink">
    <!-- Generator: sketchtool 49 (51002) - http://www.bohemiancoding.com/sketch -->
    <title>C9591F29-E4CD-4A2D-BECD-EE9CB23AECD3</title>
    <desc>Created with sketchtool.</desc>
    <defs></defs>
    <g id="Page-1" stroke="none" stroke-width="1" fill="none" fill-rule="evenodd">
        <g id="TradingPlatformDesigner_history-data-manager" transform="translate(-365.000000, -198.000000)" fill="#323232">
            <g id="Group-3" transform="translate(255.000000, 130.000000)">
                <g id="Group-67" transform="translate(24.000000, 67.000000)">
                    <path d="M88.527787,4 L91,4 L91,5 L88,5 L87,5 L87,1 L88,1 L88,3.10101726 C89.270517,1.80446721 91.0413118,1 93,1 C96.8659932,1 100,4.13400675 100,8 C100,11.8659932 96.8659932,15 93,15 C89.1340068,15 86,11.8659932 86,8 L87,8 C87,11.3137085 89.6862915,14 93,14 C96.3137085,14 99,11.3137085 99,8 C99,4.6862915 96.3137085,2 93,2 C91.2230004,2 89.6264281,2.77250128 88.527787,4 Z M93.5,7.5 L96,7.5 L96,8.5 L93.5,8.5 L92.5,8.5 L92.5,4 L93.5,4 L93.5,7.5 Z" id="history"></path>
                </g>
            </g>
        </g>
    </g>
</svg>