<svg xmlns="http://www.w3.org/2000/svg" width="26" height="26" viewBox="0 0 26 26"><title>layaut</title><path d="M11.5,24h-7A1.5,1.5,0,0,1,3,22.5V4.5A1.5,1.5,0,0,1,4.5,3h7A1.5,1.5,0,0,1,13,4.5v18A1.5,1.5,0,0,1,11.5,24ZM4.5,4a.5.5,0,0,0-.5.5v18a.5.5,0,0,0,.5.5h7a.5.5,0,0,0,.5-.5V4.5a.5.5,0,0,0-.5-.5Zm18,5h-6A1.5,1.5,0,0,1,15,7.5v-3A1.5,1.5,0,0,1,16.5,3h6A1.5,1.5,0,0,1,24,4.5v3A1.5,1.5,0,0,1,22.5,9Zm-6-5a.5.5,0,0,0-.5.5v3a.5.5,0,0,0,.5.5h6a.5.5,0,0,0,.5-.5v-3a.5.5,0,0,0-.5-.5Zm6,12h-6A1.5,1.5,0,0,1,15,14.5v-2A1.5,1.5,0,0,1,16.5,11h6A1.5,1.5,0,0,1,24,12.5v2A1.5,1.5,0,0,1,22.5,16Zm-6-4a.5.5,0,0,0-.5.5v2a.5.5,0,0,0,.5.5h6a.5.5,0,0,0,.5-.5v-2a.5.5,0,0,0-.5-.5Zm6,12h-6A1.5,1.5,0,0,1,15,22.5v-3A1.5,1.5,0,0,1,16.5,18h6A1.5,1.5,0,0,1,24,19.5v3A1.5,1.5,0,0,1,22.5,24Zm-6-5a.5.5,0,0,0-.5.5v3a.5.5,0,0,0,.5.5h6a.5.5,0,0,0,.5-.5v-3a.5.5,0,0,0-.5-.5Z" fill="#323232"/></svg>