<svg xmlns="http://www.w3.org/2000/svg" width="26" height="26" viewBox="0 0 26 26"><title>logout</title><path d="M9.252,14a.5.5,0,0,1-.354-.146.51.51,0,0,1-.007-.707A.5.5,0,0,1,9.252,13H21.54l-2.621-2.628a.475.475,0,0,1-.147-.353.49.49,0,0,1,.147-.354.5.5,0,0,1,.707,0l3.482,3.482a.518.518,0,0,1,0,.707l-3.486,3.487a.5.5,0,0,1-.354.147.477.477,0,0,1-.353-.153.5.5,0,0,1-.147-.354.513.513,0,0,1,.147-.353l2.211-2.2L21.553,14ZM18,22.5V18H17v4.5a.5.5,0,0,1-.5.5H4.5a.5.5,0,0,1-.5-.5V4.5A.5.5,0,0,1,4.5,4h12a.5.5,0,0,1,.5.5V9h1V4.5A1.5,1.5,0,0,0,16.5,3H4.5A1.5,1.5,0,0,0,3,4.5v18A1.5,1.5,0,0,0,4.5,24h12A1.5,1.5,0,0,0,18,22.5Z" fill="#323232"/></svg>