<svg xmlns="http://www.w3.org/2000/svg" xmlns:xlink="http://www.w3.org/1999/xlink" viewBox="0 0 100 100"><defs><linearGradient id="a" x1="25.194" y1="16.314" x2="90.712" y2="-7.481" gradientUnits="userSpaceOnUse"><stop offset="0" stop-color="#3d61cc"/><stop offset="1" stop-color="#00488a"/></linearGradient><linearGradient id="b" x1="34.64" y1="42.321" x2="100.157" y2="18.526" xlink:href="#a"/><linearGradient id="c" x1="47.61" y1="78.035" x2="113.128" y2="54.24" xlink:href="#a"/></defs><title>Logo-a</title><path d="M61.127,3.6A6.4,6.4,0,0,0,55.7,0H42.18a6.385,6.385,0,0,0-5.425,3.607l-6.3,15.145c-.82,1.989.208,3.159,2.285,2.6L61.158,13.7a3.349,3.349,0,0,0,2.276-4.63Z" fill="url(#a)"/><path d="M67.744,19.562c-.324-.8-2.185-.705-4.136.2l-37.8,17.577a11.407,11.407,0,0,0-5,5.282L14,59.723c-.795,2-.019,2.6,1.723,1.341L65.781,24.825A6.138,6.138,0,0,0,67.744,19.562Z" fill="url(#b)"/><path d="M72.76,31.986a2.4,2.4,0,0,0-4.219-.866l-9.435,9.436a6.616,6.616,0,0,0-1.387,6.426L61.393,56.8a2.545,2.545,0,0,1-2.551,3.667H43.112a10.879,10.879,0,0,0-6.678,2.766L2.428,97.234C.907,98.756,1.422,100,3.574,100H17.785a5.837,5.837,0,0,0,5.163-3.706l4.819-14.239a5.875,5.875,0,0,1,5.182-3.7H64.182a5.9,5.9,0,0,1,5.193,3.695L74.246,96.3A5.859,5.859,0,0,0,79.42,100H95.707A2.5,2.5,0,0,0,98.2,96.356Z" fill="url(#c)"/></svg>