<svg xmlns="http://www.w3.org/2000/svg" width="26" height="26" viewBox="0 0 26 26"><title>map</title><path d="M12.784,5A5.776,5.776,0,0,0,7.425,9.612c-.442,2.046.442,3.593,1.29,5.079.087.15.173.3.256.45l3.5,5.568a.627.627,0,0,0,1.055,0l3-4.684.014-.023c.161-.287.332-.574.5-.863a8.762,8.762,0,0,0,1.647-4.451A5.7,5.7,0,0,0,12.784,5Zm2.064,6.409L13.58,12.681a.823.823,0,0,1-1.162,0l-1.267-1.268a.821.821,0,0,1,0-1.162l1.267-1.267a.821.821,0,0,1,1.162,0l1.268,1.267A.821.821,0,0,1,14.848,11.413Z" fill="#ddd"/></svg>