<svg xmlns="http://www.w3.org/2000/svg" width="26" height="26" viewBox="0 0 26 26"><title>market-trend</title><path d="M7,21H3V20H7Zm4-4H7v1h4Zm4-3H11v1h4Zm4-3H15v1h4Zm4-3H19V9h4ZM4.361,7.6l.011-.01L7,4.97V15H8V4.97L10.628,7.6a.516.516,0,0,0,.707,0,.49.49,0,0,0,.012-.694l-.012-.013L7.854,3.4a.505.505,0,0,0-.708,0C5.439,5.116,3.932,6.623,3.665,6.883a.505.505,0,0,0,0,.708A.492.492,0,0,0,4.361,7.6ZM21.639,19.5l-.011.01L19,22.13V14H18v8.13L15.372,19.5a.516.516,0,0,0-.707,0,.49.49,0,0,0-.012.694l.012.013L18.146,23.7a.505.505,0,0,0,.708,0c1.707-1.714,3.214-3.221,3.481-3.481a.505.505,0,0,0,0-.708A.492.492,0,0,0,21.639,19.5Z" fill="#323232"/></svg>