<svg xmlns="http://www.w3.org/2000/svg" width="26" height="26" viewBox="0 0 26 26"><title>markets</title><path d="M22.77,10.26a.484.484,0,0,0-.68.17l-2.71,4.5-1.79-2.39,4.84-8.29a.5.5,0,0,0-.86-.5l-4.63,7.93L13.66,7.3a.517.517,0,0,0-.42-.2.494.494,0,0,0-.4.23L11.15,9.97,9.04,6.81a.463.463,0,0,0-.42-.22.474.474,0,0,0-.41.23L3.06,15.05a.513.513,0,0,0,.16.69.5.5,0,0,0,.69-.16L8.64,8.01l1.92,2.87L3.58,21.73a.5.5,0,0,0,.15.69A.53.53,0,0,0,4,22.5a.494.494,0,0,0,.42-.23l6.74-10.48,3.22,4.83a.508.508,0,0,0,.42.22h.01a.488.488,0,0,0,.42-.25l1.81-3.11,1.99,2.65a.5.5,0,0,0,.42.2.507.507,0,0,0,.41-.25l3.08-5.14A.484.484,0,0,0,22.77,10.26Zm-8,5.14-3.02-4.53,1.54-2.4,3.11,4.14Z" fill="#323232"/></svg>