<svg xmlns="http://www.w3.org/2000/svg" width="26" height="26" viewBox="0 0 26 26"><title>midle-delete</title><path d="M15.5,10a.5.5,0,0,1,0,1h-5a.5.5,0,0,1,0-1Zm-5,3a.5.5,0,0,0,0,1h5a.5.5,0,0,0,0-1Zm0,3a.5.5,0,0,0,0,1h3a.5.5,0,0,0,0-1ZM21,7.5a.5.5,0,0,1-.36.48A.59.59,0,0,1,20.5,8H19V19.5A1.5,1.5,0,0,1,17.5,21h-9A1.5,1.5,0,0,1,7,19.5V8H5.5a.415.415,0,0,1-.16-.03A.486.486,0,0,1,5,7.5.5.5,0,0,1,5.5,7h.81l2-2h9.35l.34.34L19.66,7h.84A.5.5,0,0,1,21,7.5ZM7.72,7H18.25l-1-1H8.72ZM18,8H8V19.5a.5.5,0,0,0,.5.5h9a.5.5,0,0,0,.5-.5Z" fill="#323232"/></svg>