<svg xmlns="http://www.w3.org/2000/svg" width="26" height="26" viewBox="0 0 26 26"><title>market-trades</title><path d="M3,10.58V4.42A1.422,1.422,0,0,1,4.42,3H22.58A1.422,1.422,0,0,1,24,4.42v6.16A1.422,1.422,0,0,1,22.58,12H4.42A1.422,1.422,0,0,1,3,10.58ZM23,4.42A.42.42,0,0,0,22.58,4H4.42A.421.421,0,0,0,4,4.42v6.16a.421.421,0,0,0,.42.42H22.58a.42.42,0,0,0,.42-.42ZM3,22.58V16.42A1.422,1.422,0,0,1,4.42,15H22.58A1.422,1.422,0,0,1,24,16.42v6.16A1.422,1.422,0,0,1,22.58,24H4.42A1.422,1.422,0,0,1,3,22.58Zm20-6.16a.42.42,0,0,0-.42-.42H4.42a.421.421,0,0,0-.42.42v6.16a.421.421,0,0,0,.42.42H22.58a.42.42,0,0,0,.42-.42Zm-8.39,3.62a1.453,1.453,0,0,0-.41-.49,3.871,3.871,0,0,0-.84-.45,4.041,4.041,0,0,1-.65-.31.741.741,0,0,1-.24-.22.54.54,0,0,1-.06-.27.438.438,0,0,1,.16-.36.769.769,0,0,1,.52-.14,2.972,2.972,0,0,1,1.14.27l.12.05.35-.9-.11-.05a3.723,3.723,0,0,0-1.48-.32,2.02,2.02,0,0,0-1.27.38,1.35,1.35,0,0,0-.49,1.08,1.458,1.458,0,0,0,.31.94,2.49,2.49,0,0,0,1.01.67,3.386,3.386,0,0,1,.84.43.538.538,0,0,1,.17.39.49.49,0,0,1-.18.4,1.766,1.766,0,0,1-1.33.06,3.4,3.4,0,0,1-.7-.24l-.18-.08v1.04l.07.04a3.364,3.364,0,0,0,1.44.27,2.21,2.21,0,0,0,1.41-.4,1.392,1.392,0,0,0,.53-1.15A1.435,1.435,0,0,0,14.61,20.04Zm.17-12.31a1.247,1.247,0,0,0-.49-.33,1.067,1.067,0,0,0,.37-.3,1.345,1.345,0,0,0,.25-.81,1.156,1.156,0,0,0-.52-1.05,2.862,2.862,0,0,0-1.56-.32H11.22v5.25h1.93a2.152,2.152,0,0,0,1.39-.41,1.433,1.433,0,0,0,.52-1.16A1.335,1.335,0,0,0,14.78,7.73Zm-2.49.17h.7a1.29,1.29,0,0,1,.74.16.532.532,0,0,1,.22.48.6.6,0,0,1-.22.52,1.181,1.181,0,0,1-.7.17h-.74Zm1.34-1.06a1.168,1.168,0,0,1-.68.14h-.66V5.85h.58a1.527,1.527,0,0,1,.75.14.426.426,0,0,1,.19.4A.5.5,0,0,1,13.63,6.84Z" fill="#323232"/></svg>