<svg xmlns="http://www.w3.org/2000/svg" width="26" height="26" viewBox="0 0 26 26"><title>news</title><path d="M22.5,24H4.5A1.5,1.5,0,0,1,3,22.5V4.5A1.5,1.5,0,0,1,4.5,3h18A1.5,1.5,0,0,1,24,4.5v18A1.5,1.5,0,0,1,22.5,24ZM4.5,4a.5.5,0,0,0-.5.5v18a.5.5,0,0,0,.5.5h18a.5.5,0,0,0,.5-.5V4.5a.5.5,0,0,0-.5-.5ZM20,12H7V7H20ZM8,11H19V8H8Zm5,8.5a.5.5,0,0,0-.5-.5h-5a.5.5,0,0,0,0,1h5A.5.5,0,0,0,13,19.5Zm7,0a.5.5,0,0,0-.5-.5h-5a.5.5,0,0,0,0,1h5A.5.5,0,0,0,20,19.5Zm-7-4a.5.5,0,0,0-.5-.5h-5a.5.5,0,0,0,0,1h5A.5.5,0,0,0,13,15.5Zm7,0a.5.5,0,0,0-.5-.5h-5a.5.5,0,0,0,0,1h5A.5.5,0,0,0,20,15.5Z" fill="#323232"/></svg>