<svg xmlns="http://www.w3.org/2000/svg" width="26" height="26" viewBox="0 0 26 26"><title>order-book</title><path d="M22.5,6.972H4.5A1.473,1.473,0,0,1,3.028,5.5v-1A1.473,1.473,0,0,1,4.5,3.028h18A1.473,1.473,0,0,1,23.972,4.5v1A1.473,1.473,0,0,1,22.5,6.972Zm-18-3a.529.529,0,0,0-.528.528v1a.529.529,0,0,0,.528.528h18a.529.529,0,0,0,.528-.528v-1a.529.529,0,0,0-.528-.528ZM11.829,15H4.171A1.172,1.172,0,0,1,3,13.829V12.171A1.172,1.172,0,0,1,4.171,11h7.658A1.172,1.172,0,0,1,13,12.171v1.658A1.172,1.172,0,0,1,11.829,15ZM4.171,12A.17.17,0,0,0,4,12.171v1.658A.17.17,0,0,0,4.171,14h7.658A.17.17,0,0,0,12,13.829V12.171A.17.17,0,0,0,11.829,12ZM17.634,24H4.366A1.368,1.368,0,0,1,3,22.634V21.366A1.368,1.368,0,0,1,4.366,20H17.634A1.368,1.368,0,0,1,19,21.366v1.268A1.368,1.368,0,0,1,17.634,24ZM4.366,21A.366.366,0,0,0,4,21.366v1.268A.366.366,0,0,0,4.366,23H17.634A.366.366,0,0,0,18,22.634V21.366A.366.366,0,0,0,17.634,21Z" fill="#323232"/></svg>