<svg xmlns="http://www.w3.org/2000/svg" width="26" height="26" viewBox="0 0 26 26"><title>order-exchange</title><path d="M23.86,7.15A.469.469,0,0,0,23.51,7H11.45l.42-.43,2.16-2.2a.483.483,0,0,0,0-.7.442.442,0,0,0-.34-.16.469.469,0,0,0-.35.15L10.91,6.14a4.016,4.016,0,1,0-.25,2.46l2.68,2.73a.472.472,0,0,0,.69,0,.509.509,0,0,0,.15-.35.469.469,0,0,0-.15-.35L11.46,8H23.51a.469.469,0,0,0,.35-.15A.5.5,0,0,0,23.86,7.15ZM7,10a3,3,0,1,1,3-3v.07a2.848,2.848,0,0,1-.11.72A3.006,3.006,0,0,1,7,10Zm13,6a3.982,3.982,0,0,0-3.66,2.4c-1.36-1.38-2.46-2.51-2.68-2.73a.472.472,0,0,0-.69,0,.489.489,0,0,0-.01.69l.01.01L15.54,19H3.49a.469.469,0,0,0-.35.15.5.5,0,0,0,0,.7.469.469,0,0,0,.35.15H15.54l-2.58,2.63a.521.521,0,0,0,0,.7.469.469,0,0,0,.68.02l.02-.02,2.43-2.48A4,4,0,1,0,20,16Zm0,7a3.009,3.009,0,0,1-3-3v-.07A3,3,0,1,1,20,23Z" fill="#323232"/></svg>