<svg xmlns="http://www.w3.org/2000/svg" width="26" height="26" viewBox="0 0 26 26"><title>permission-instrument</title><path d="M13,23.62l-.3-.231c-7.2-5.507-8.7-14.514-8.991-17.143l-.051-.467.463-.08a21.5,21.5,0,0,0,8.6-3.117L13,2.38l.288.2A21.292,21.292,0,0,0,21.883,5.7l.463.08-.051.467c-.288,2.629-1.787,11.636-8.991,17.143ZM4.755,6.6C5.142,9.546,6.737,17.362,13,22.356,19.263,17.362,20.858,9.547,21.245,6.6A22.74,22.74,0,0,1,13,3.6,22.9,22.9,0,0,1,4.755,6.6Zm11.891,3.884,1.225,1.371a.5.5,0,1,0,.746-.666L16.386,8.7,13.463,14.87,9.6,6.844,7.311,11.322a.5.5,0,1,0,.89.455L9.574,9.094l3.9,8.1Z" fill="#323232"/></svg>