<svg xmlns="http://www.w3.org/2000/svg" width="30" height="30" viewBox="0 0 30 30"><title>phone-contur</title><path d="M20.156,5c.121,0,.389.255.561.75H9.28c.172-.5.44-.75.561-.75H20.153m.719,4.125v9H9.122v-9h11.75m0,12.375v2.667a.784.784,0,0,1-.719.833H17.134a2.922,2.922,0,0,0,0-3.5h3.74m-8.012,0a2.922,2.922,0,0,0,0,3.5H9.843a.783.783,0,0,1-.718-.833V21.5h3.74M20.156,4H9.844C8.9,4,8.125,5.237,8.125,6.75h13.75C21.875,5.237,21.1,4,20.156,4Zm1.719,4.125H8.125v11h13.75Zm0,12.375H8.125v3.667A1.778,1.778,0,0,0,9.844,26H20.156a1.778,1.778,0,0,0,1.719-1.833ZM15,25.083a1.837,1.837,0,1,1,1.719-1.833A1.784,1.784,0,0,1,15,25.083Z" fill="#323232"/></svg>