<svg xmlns="http://www.w3.org/2000/svg" width="26" height="26" viewBox="0 0 26 26"><title>platform</title><path d="M22.32,22.41l-9.24-9.24h-.01a.179.179,0,0,0-.07-.05V8h8.52A.474.474,0,0,0,22,7.52V2.48A.474.474,0,0,0,21.52,2H12.48a.474.474,0,0,0-.48.48V13.23a.6.6,0,0,0,.07.27L3.16,22.41a.912.912,0,0,0-.24.58A.952.952,0,0,0,3.81,24H21.67a.942.942,0,0,0,.57-.24A.961.961,0,0,0,22.32,22.41ZM21,7H13V3h8Zm-8.26,7.13,3.87,3.84a2.26,2.26,0,0,0-.26-.01,2.7,2.7,0,0,0-2.06,1.03,1.743,1.743,0,0,1-1.36.74,1.778,1.778,0,0,1-1.38-.75,2.611,2.611,0,0,0-2.04-1.03,2.933,2.933,0,0,0-.73.12ZM3.83,23l2.5-2.49a.476.476,0,0,0,.4.09,2.846,2.846,0,0,0,1.45-.95,1.769,1.769,0,0,1,1.35-.74,1.715,1.715,0,0,1,1.36.74,2.672,2.672,0,0,0,2.04,1.03,2.658,2.658,0,0,0,2-1,1.768,1.768,0,0,1,1.38-.74,1.451,1.451,0,0,1,1.07.45,3.549,3.549,0,0,1,.33.34,5.524,5.524,0,0,0,.53.43.481.481,0,0,0,.59.02h.01L21.67,23ZM16,5H15V4h1Zm0,1V7H15V6Z" fill="#323232"/></svg>