<svg xmlns="http://www.w3.org/2000/svg" width="26" height="26" viewBox="0 0 26 26"><title>platform-alert</title><path d="M21,16H19v1h2Zm2.56-7.09L23,8.59,15.06,4l-.56-.32L14,3.391a1,1,0,0,0-1,0l-.5.289L11.94,4,4,8.59l-.56.32L3,9.16V22.5A1.5,1.5,0,0,0,4.5,24h18A1.5,1.5,0,0,0,24,22.5V9.16ZM14,4.549,22.56,9.49,19,11.55V10.5a.5.5,0,0,0-.5-.5H8.5a.5.5,0,0,0-.5.5v1.05L4.44,9.49,13,4.549A1,1,0,0,1,14,4.549ZM18,11v1.12l-4,2.311a1,1,0,0,1-1,0L9,12.12V11Zm5,11.5a.5.5,0,0,1-.5.5H4.5a.5.5,0,0,1-.5-.5V10.39L8,12.7l1,.57,3.5,2.02.5.289a1,1,0,0,0,1,0l.5-.289L18,13.27l1-.57,4-2.31Z" fill="#323232"/></svg>