<svg xmlns="http://www.w3.org/2000/svg" width="26" height="26" viewBox="0 0 26 26"><title>qr-code</title><path d="M16.525,4h3.233A1.242,1.242,0,0,1,21,5.242V8.485a.5.5,0,0,0,.5.5.461.461,0,0,0,.354-.152A.431.431,0,0,0,22,8.475V5.217A2.218,2.218,0,0,0,19.783,3H16.525a.5.5,0,0,0-.475.475.493.493,0,0,0,.132.363A.548.548,0,0,0,16.525,4ZM9.818,3.838a.493.493,0,0,0,.132-.363A.5.5,0,0,0,9.475,3H6.217A2.218,2.218,0,0,0,4,5.217V8.475a.431.431,0,0,0,.141.353A.461.461,0,0,0,4.5,8.98a.5.5,0,0,0,.5-.5V5.242A1.242,1.242,0,0,1,6.242,4H9.475A.548.548,0,0,0,9.818,3.838Zm6.364,18.324a.493.493,0,0,0-.132.363.5.5,0,0,0,.475.475h3.258A2.218,2.218,0,0,0,22,20.783V17.525a.431.431,0,0,0-.141-.353.461.461,0,0,0-.354-.152.5.5,0,0,0-.5.5v3.243A1.242,1.242,0,0,1,19.758,22H16.525A.548.548,0,0,0,16.182,22.162ZM9.475,22H6.242A1.242,1.242,0,0,1,5,20.758V17.515a.5.5,0,0,0-.5-.5.461.461,0,0,0-.354.152A.431.431,0,0,0,4,17.525v3.258A2.218,2.218,0,0,0,6.217,23H9.475a.5.5,0,0,0,.475-.475.493.493,0,0,0-.132-.363A.548.548,0,0,0,9.475,22ZM22.86,12H3.14c-.14.3-.26.42-.26.57s.12.26.26.43H22.86c.14-.17.26-.29.26-.43S23,12.3,22.86,12Z" fill="#323232"/></svg>