<svg xmlns="http://www.w3.org/2000/svg" width="26" height="26" viewBox="0 0 26 26"><title>question-vote</title><path fill="#323232" d="M11.537,14l-.84,3H9.653L12.37,9h1.247l2.73,8h-1.08L14.4,14Zm2.713-1-.832-2.447C13.228,10,13.1,9.492,12.976,9h-.025c-.127.5-.265,1.022-.429,1.539L11.689,13ZM13.031,23.5c-.107,0-.213,0-.319,0A10.506,10.506,0,0,1,5.766,5.4a10.329,10.329,0,0,1,7.226-2.9,5.386,5.386,0,0,1,.718.034,10.481,10.481,0,0,1,9.749,9.846A10.347,10.347,0,0,1,21.976,18.4l0,0a.378.378,0,0,0-.038.343l1.235,3.8a.5.5,0,0,1-.613.635l-3.91-1.118a.479.479,0,0,0-.438.053A10.653,10.653,0,0,1,13.031,23.5Zm.021-20h-.06A9.342,9.342,0,0,0,6.459,6.123,9.5,9.5,0,0,0,17.69,21.264a1.441,1.441,0,0,1,1.24-.159l3,.857-.943-2.9a1.383,1.383,0,0,1,.137-1.182,9.35,9.35,0,0,0,1.338-5.443,9.492,9.492,0,0,0-8.853-8.91A4.056,4.056,0,0,0,13.052,3.5Z"/></svg>