<?xml version="1.0" encoding="UTF-8"?>
<svg width="14px" height="14px" viewBox="0 0 14 14" version="1.1" xmlns="http://www.w3.org/2000/svg" xmlns:xlink="http://www.w3.org/1999/xlink">
    <!-- Generator: sketchtool 49 (51002) - http://www.bohemiancoding.com/sketch -->
    <title>B40A08D6-ED77-4278-9EC8-3E456C05ACDB</title>
    <desc>Created with sketchtool.</desc>
    <defs></defs>
    <g id="Page-1" stroke="none" stroke-width="1" fill="none" fill-rule="evenodd">
        <g id="TradingPlatformDesigner_history-data-manager" transform="translate(-741.000000, -198.000000)" fill="#323232">
            <g id="Group-3" transform="translate(255.000000, 130.000000)">
                <g id="Group-67" transform="translate(24.000000, 67.000000)">
                    <path d="M475,7 L475,13 L475,14 C475,14.5522847 474.552285,15 474,15 L468,15 C467.447715,15 467,14.5522847 467,14 L467,12 L467,7 L466.5,7 C466.223858,7 466,6.77614237 466,6.5 C466,6.22385763 466.223858,6 466.5,6 L469,6 L469.707107,5.29289322 C469.894643,5.10535684 470.148997,5 470.414214,5 L471.585786,5 C471.851003,5 472.105357,5.10535684 472.292893,5.29289322 L473,6 L475.5,6 C475.776142,6 476,6.22385763 476,6.5 C476,6.77614237 475.776142,7 475.5,7 L475,7 Z M468,7 L468,14 L474,14 L474,7 L468,7 Z M475,5 L474,5 L474,2 L463,2 L463,13 L466,13 L466,14 L463,14 C462.447715,14 462,13.5522847 462,13 L462,2 C462,1.44771525 462.447715,1 463,1 L474,1 C474.552285,1 475,1.44771525 475,2 L475,5 Z M469.5,8 C469.776142,8 470,8.22385763 470,8.5 L470,12.5 C470,12.7761424 469.776142,13 469.5,13 C469.223858,13 469,12.7761424 469,12.5 L469,8.5 C469,8.22385763 469.223858,8 469.5,8 Z M472.5,8 C472.776142,8 473,8.22385763 473,8.5 L473,12.5 C473,12.7761424 472.776142,13 472.5,13 C472.223858,13 472,12.7761424 472,12.5 L472,8.5 C472,8.22385763 472.223858,8 472.5,8 Z" id="remove_records"></path>
                </g>
            </g>
        </g>
    </g>
</svg>