<?xml version="1.0" encoding="UTF-8"?>
<svg width="14px" height="14px" viewBox="0 0 14 14" version="1.1" xmlns="http://www.w3.org/2000/svg" xmlns:xlink="http://www.w3.org/1999/xlink">
    <!-- Generator: sketchtool 49 (51002) - http://www.bohemiancoding.com/sketch -->
    <title>40DAC8B3-00B9-4B40-B976-6004586AA01A</title>
    <desc>Created with sketchtool.</desc>
    <defs></defs>
    <g id="Page-1" stroke="none" stroke-width="1" fill="none" fill-rule="evenodd">
        <g id="TradingPlatformDesigner_history-data-manager" transform="translate(-875.000000, -198.000000)" fill="#323232">
            <g id="Group-3" transform="translate(255.000000, 130.000000)">
                <g id="Group-67" transform="translate(24.000000, 67.000000)">
                    <path d="M609,7 L609,13 L609,14 C609,14.5522847 608.552285,15 608,15 L602,15 C601.447715,15 601,14.5522847 601,14 L601,12 L601,7 L600.5,7 C600.223858,7 600,6.77614237 600,6.5 C600,6.22385763 600.223858,6 600.5,6 L603,6 L603.707107,5.29289322 C603.894643,5.10535684 604.148997,5 604.414214,5 L605.585786,5 C605.851003,5 606.105357,5.10535684 606.292893,5.29289322 L607,6 L609.5,6 C609.776142,6 610,6.22385763 610,6.5 C610,6.77614237 609.776142,7 609.5,7 L609,7 Z M602,7 L602,14 L608,14 L608,7 L602,7 Z M609,4 L608,4 L599,4 L599,12 L599,14 C598.447715,14 598,13.5522847 598,13 L598,4 C598,3.44771525 598.447715,3 599,3 L608,3 C608.552285,3 609,3.44771525 609,4 Z M607,2 L606,2 L597,2 L597,10 L597,12 C596.447715,12 596,11.5522847 596,11 L596,2 C596,1.44771525 596.447715,1 597,1 L606,1 C606.552285,1 607,1.44771525 607,2 Z M603.5,8 C603.776142,8 604,8.22385763 604,8.5 L604,12.5 C604,12.7761424 603.776142,13 603.5,13 C603.223858,13 603,12.7761424 603,12.5 L603,8.5 C603,8.22385763 603.223858,8 603.5,8 Z M606.5,8 C606.776142,8 607,8.22385763 607,8.5 L607,12.5 C607,12.7761424 606.776142,13 606.5,13 C606.223858,13 606,12.7761424 606,12.5 L606,8.5 C606,8.22385763 606.223858,8 606.5,8 Z" id="remove_all_records"></path>
                </g>
            </g>
        </g>
    </g>
</svg>