<?xml version="1.0" encoding="utf-8"?>
<!-- Generator: Adobe Illustrator 21.0.2, SVG Export Plug-In . SVG Version: 6.00 Build 0)  -->
<svg version="1.1" id="Слой_1" xmlns="http://www.w3.org/2000/svg" xmlns:xlink="http://www.w3.org/1999/xlink" x="0px" y="0px"
	 viewBox="0 0 30 30" style="enable-background:new 0 0 30 30;" xml:space="preserve">
<path d="M12.3,18.2h15.7v1.1H12.3V18.2z M12.3,20.9h15.7v1.1H12.3V20.9z M12.3,26.3h15.7v1.1H12.3V26.3z M12.3,28.9h15.7V30H12.3
	V28.9z M19.1,11.2h1.1v2.4h-1.1V11.2z M21.3,5.6h1.1v8.1h-1.1V5.6z M23.4,1.5h1.1v12.1h-1.1V1.5z M25.5,5.4h1.1v8.3h-1.1V5.4z
	 M27.7,9.3h1.1v4.4h-1.1V9.3z M3.7,19.9l-1.4-1.4l-0.9,1l2.5,2.4l4.4-5.3l-1.1-0.9L3.7,19.9z M3.7,27.9l-1.4-1.4l-0.9,1L3.8,30
	l4.4-5.3l-1.1-0.9L3.7,27.9z M8.2,14.8c3.8,0,6.9-3.1,6.9-6.9H8.2V1C4.4,1,1.3,4.1,1.3,7.9S4.4,14.8,8.2,14.8z M6.7,2.7v5.2v1.5h1.5
	h5.2c-0.7,2.2-2.7,3.9-5.2,3.9c-3,0-5.4-2.4-5.4-5.4C2.8,5.4,4.4,3.4,6.7,2.7z M9.2,0v6.9h6.9C16.1,3.1,13,0,9.2,0z"/>
</svg>
