<svg xmlns="http://www.w3.org/2000/svg" width="26" height="26" viewBox="0 0 26 26"><title>save</title><path d="M19.5,5H6.5A1.5,1.5,0,0,0,5,6.5v13A1.5,1.5,0,0,0,6.5,21h13A1.5,1.5,0,0,0,21,19.5V6.5A1.5,1.5,0,0,0,19.5,5ZM9,6h8V9.38a.623.623,0,0,1-.62.62H9.62A.623.623,0,0,1,9,9.38Zm8,14H9V18.37A.363.363,0,0,1,9.37,18h7.26a.363.363,0,0,1,.37.37Zm3-.5a.5.5,0,0,1-.5.5H18V18.37A1.366,1.366,0,0,0,16.63,17H9.37A1.366,1.366,0,0,0,8,18.37V20H6.5a.5.5,0,0,1-.5-.5V6.5A.5.5,0,0,1,6.5,6H8V9.38A1.626,1.626,0,0,0,9.62,11h6.76A1.626,1.626,0,0,0,18,9.38V6h1.5a.5.5,0,0,1,.5.5Z" fill="#323232"/></svg>