<svg xmlns="http://www.w3.org/2000/svg" width="26" height="26" viewBox="0 0 26 26"><title>settings</title><path d="M23.406,11.1h-2.37a7.322,7.322,0,0,0-.54-1.29l1.68-1.68a.5.5,0,0,0,0-.71l-2.69-2.69a.513.513,0,0,0-.71,0L17.1,6.41a7.322,7.322,0,0,0-1.29-.54V3.5a.5.5,0,0,0-.5-.5h-3.8a.5.5,0,0,0-.5.5V5.87a7.322,7.322,0,0,0-1.29.54L8.036,4.73a.513.513,0,0,0-.71,0L4.636,7.42a.491.491,0,0,0-.15.36.469.469,0,0,0,.15.35l1.68,1.68a7.322,7.322,0,0,0-.54,1.29H3.406a.5.5,0,0,0-.5.5v3.8a.5.5,0,0,0,.5.5h2.37a7.322,7.322,0,0,0,.54,1.29l-1.68,1.68a.469.469,0,0,0-.15.35.491.491,0,0,0,.15.36l2.69,2.69a.508.508,0,0,0,.36.15.5.5,0,0,0,.35-.15l1.68-1.68a7.322,7.322,0,0,0,1.29.54V23.5a.5.5,0,0,0,.5.5h3.8a.5.5,0,0,0,.5-.5V21.13a7.322,7.322,0,0,0,1.29-.54l1.68,1.68a.5.5,0,0,0,.35.15.508.508,0,0,0,.36-.15l2.69-2.69a.5.5,0,0,0,0-.71L20.5,17.19a7.322,7.322,0,0,0,.54-1.29h2.37a.5.5,0,0,0,.5-.5V11.6A.5.5,0,0,0,23.406,11.1Zm-.5,3.8h-2.64a6.753,6.753,0,0,1-.29,1,2.581,2.581,0,0,1-.23.54,4.755,4.755,0,0,1-.5.91l.72.72,1.15,1.15-1.99,1.99-1.87-1.87a4.755,4.755,0,0,1-.91.5,2.581,2.581,0,0,1-.54.23,6.753,6.753,0,0,1-1,.29V23h-2.8V20.36a6.753,6.753,0,0,1-1-.29,2.581,2.581,0,0,1-.54-.23,4.755,4.755,0,0,1-.91-.5l-1.87,1.87L5.7,19.22l1.15-1.15.72-.72a4.755,4.755,0,0,1-.5-.91,2.581,2.581,0,0,1-.23-.54,6.753,6.753,0,0,1-.29-1H3.906V12.1h2.64a6.753,6.753,0,0,1,.29-1,2.581,2.581,0,0,1,.23-.54,4.755,4.755,0,0,1,.5-.91L5.7,7.78l1.99-1.99,1.15,1.15.72.72a4.755,4.755,0,0,1,.91-.5,2.581,2.581,0,0,1,.54-.23,6.753,6.753,0,0,1,1-.29V4h2.8V6.64a6.753,6.753,0,0,1,1,.29,2.581,2.581,0,0,1,.54.23,4.755,4.755,0,0,1,.91.5l.72-.72,1.15-1.15,1.99,1.99-1.87,1.87a4.755,4.755,0,0,1,.5.91,2.581,2.581,0,0,1,.23.54,6.753,6.753,0,0,1,.29,1h2.64Zm-9.5,2.433A3.833,3.833,0,1,1,17.239,13.5,3.837,3.837,0,0,1,13.406,17.333Zm0-6.666A2.833,2.833,0,1,0,16.239,13.5,2.836,2.836,0,0,0,13.406,10.667Z" fill="#323232"/></svg>