<svg xmlns="http://www.w3.org/2000/svg" width="26" height="26" viewBox="0 0 26 26"><title>start-debug</title><path d="M19.5,21H6.5A1.5,1.5,0,0,1,5,19.5V6.5A1.5,1.5,0,0,1,6.5,5h13A1.5,1.5,0,0,1,21,6.5v13A1.5,1.5,0,0,1,19.5,21ZM6.5,6a.5.5,0,0,0-.5.5v13a.5.5,0,0,0,.5.5h13a.5.5,0,0,0,.5-.5V6.5a.5.5,0,0,0-.5-.5Zm5,12.5a.508.508,0,0,1-.191-.038A.5.5,0,0,1,11,18V9a.5.5,0,0,1,.309-.462.505.505,0,0,1,.545.108l4.5,4.5a.5.5,0,0,1,0,.708l-4.5,4.5A.5.5,0,0,1,11.5,18.5Zm.5-8.293v6.586L15.293,13.5Z" fill="#323232"/></svg>