<svg xmlns="http://www.w3.org/2000/svg" width="26" height="26" viewBox="0 0 26 26"><title>switch-settings</title><path d="M9.95,19a2.5,2.5,0,0,0-4.9,0,2.734,2.734,0,0,0-.05.5v.04a2.315,2.315,0,0,0,.05.46,2.5,2.5,0,0,0,4.9,0H21V19ZM7.5,21a1.5,1.5,0,0,1-1.41-1,1.434,1.434,0,0,1,0-1,1.494,1.494,0,0,1,2.82,0,1.434,1.434,0,0,1,0,1A1.5,1.5,0,0,1,7.5,21ZM9.95,7a2.5,2.5,0,0,0-4.9,0A2.734,2.734,0,0,0,5,7.5v.04A2.315,2.315,0,0,0,5.05,8a2.5,2.5,0,0,0,4.9,0H21V7ZM7.5,9A1.5,1.5,0,0,1,6.09,8a1.434,1.434,0,0,1,0-1A1.494,1.494,0,0,1,8.91,7a1.434,1.434,0,0,1,0,1A1.5,1.5,0,0,1,7.5,9Zm13.45,4a2.5,2.5,0,0,0-4.9,0H5v1H16.05a2.5,2.5,0,0,0,4.9,0,2.525,2.525,0,0,0,0-1ZM18.5,15a1.5,1.5,0,0,1-1.41-1,1.434,1.434,0,0,1,0-1,1.494,1.494,0,0,1,2.82,0,1.434,1.434,0,0,1,0,1A1.5,1.5,0,0,1,18.5,15Z" fill="#323232"/></svg>