<svg xmlns="http://www.w3.org/2000/svg" width="26" height="26" viewBox="0 0 26 26"><title>take-off</title><path d="M8.153,8.517l-2.1-2.1.707-.707,2.1,2.1ZM20.053,19l-2.1-2.1-.707.707,2.1,2.1ZM12,5H11V8h1Zm3,13H14v3h1ZM8,11H5v1H8Zm13,3H18v1h3Zm-1.69-2.642a2.915,2.915,0,0,0,.829-2.3A3.777,3.777,0,0,0,16.7,5.625a2.948,2.948,0,0,0-2.3.829L11.651,9.209l.707.707,2.755-2.755a1.932,1.932,0,0,1,1.525-.538,2.777,2.777,0,0,1,2.5,2.5,1.931,1.931,0,0,1-.538,1.525l-2.755,2.755.707.707ZM10.7,19.973l3.061-3.061L13.05,16.2,9.989,19.266a1.917,1.917,0,0,1-1.526.538,2.777,2.777,0,0,1-2.5-2.5A1.938,1.938,0,0,1,6.5,15.775l3.061-3.061-.707-.707L5.791,15.068a2.926,2.926,0,0,0-.829,2.3A3.777,3.777,0,0,0,8.4,20.8c.075,0,.15.008.224.008A2.889,2.889,0,0,0,10.7,19.973Z" fill="#323232"/></svg>