<svg xmlns="http://www.w3.org/2000/svg" width="26" height="26" viewBox="0 0 26 26"><title>place-order</title><path d="M19,9.618a.505.505,0,0,1,.146-.354.511.511,0,0,1,.707-.006.5.5,0,0,1,.147.36V21.907l2.628-2.621a.471.471,0,0,1,.353-.147.483.483,0,0,1,.354.147.5.5,0,0,1,0,.707l-3.482,3.481a.516.516,0,0,1-.707,0l-3.487-3.485a.5.5,0,0,1-.147-.354.477.477,0,0,1,.153-.353.5.5,0,0,1,.354-.147.508.508,0,0,1,.353.147l2.2,2.211.427.426ZM8,17.2a.474.474,0,0,0,.146.353.5.5,0,0,0,.708,0A.493.493,0,0,0,9,17.2V4.91l2.628,2.627a.518.518,0,0,0,.707,0,.49.49,0,0,0,.012-.694l-.012-.013L8.854,3.342a.505.505,0,0,0-.708,0C6.44,5.056,4.932,6.563,4.665,6.823a.5.5,0,0,0,0,.707.492.492,0,0,0,.7.011l.011-.011L8,4.91Z" fill="#323232"/></svg>