<?xml version="1.0" encoding="utf-8"?>
<!-- Generator: Adobe Illustrator 21.0.2, SVG Export Plug-In . SVG Version: 6.00 Build 0)  -->
<svg version="1.1" id="Слой_1" xmlns="http://www.w3.org/2000/svg" xmlns:xlink="http://www.w3.org/1999/xlink" x="0px" y="0px"
	 viewBox="0 0 30 30" style="enable-background:new 0 0 30 30;" xml:space="preserve">
<path d="M15,0c-4.5,0-8.2,3.7-8.2,8.2s3.7,8.2,8.2,8.2s8.2-3.7,8.2-8.2S19.5,0,15,0z M15,14.9c-3.7,0-6.8-3-6.8-6.8s3-6.8,6.8-6.8
	s6.8,3,6.8,6.8S18.7,14.9,15,14.9z M15.7,2.8h-1.4v6.7h5.5V8.1h-4.1V2.8z M18.8,30l0-3.5H8.6v-3l18.1,0L18.8,30z M9.4,25.7h10.2
	l0,2.6l4.9-4l-15.1,0V25.7z M21.8,22.2H3.2l7.9-6.4l0.4,3.4h10.2L21.8,22.2z M5.5,21.4H21l0-1.4H10.8l-0.3-2.7L5.5,21.4z"/>
</svg>
