<svg xmlns="http://www.w3.org/2000/svg" width="26" height="26" viewBox="0 0 26 26"><title>wallets-user</title><path d="M23,13.27A2,2,0,0,0,22,13H19a1.665,1.665,0,0,0-.39.04,1.985,1.985,0,0,0-1.1.64A1.94,1.94,0,0,0,17,15a1.909,1.909,0,0,0,.2.86,1.991,1.991,0,0,0,.79.86A1.941,1.941,0,0,0,19,17h3a2,2,0,0,0,1-3.73ZM22,16H19a1.03,1.03,0,0,1-.76-.35,1.005,1.005,0,0,1,.21-1.49A1.04,1.04,0,0,1,19,14h3a1,1,0,0,1,0,2Zm.69-5a1.615,1.615,0,0,1,.31.02V9.12A2.121,2.121,0,0,0,20.88,7H19.47l.12-.83a1.508,1.508,0,0,0-1.27-1.7L8.55,3.02a1.5,1.5,0,0,0-1.12.28,1.457,1.457,0,0,0-.58.99L6.46,7H5.12A2.121,2.121,0,0,0,3,9.12V21.88A2.121,2.121,0,0,0,5.12,24H20.88A2.121,2.121,0,0,0,23,21.88v-2.9a1.615,1.615,0,0,1-.31.02H22v2.88A1.118,1.118,0,0,1,20.88,23H16.74A6.991,6.991,0,0,0,5.26,23H5.12A1.118,1.118,0,0,1,4,21.88V9.12A1.118,1.118,0,0,1,5.12,8H20.88A1.118,1.118,0,0,1,22,9.12V11ZM11,21a5.947,5.947,0,0,1,4.46,2H6.54A5.947,5.947,0,0,1,11,21ZM18.46,7H7.47l.37-2.57a.489.489,0,0,1,.19-.33.539.539,0,0,1,.3-.1.22.22,0,0,1,.08.01l9.77,1.45a.5.5,0,0,1,.42.57ZM7,13.5a4,4,0,1,1,4,4A4,4,0,0,1,7,13.5Zm4-3a3,3,0,1,0,3,3A3.009,3.009,0,0,0,11,10.5Z" fill="#323232"/></svg>