<svg xmlns="http://www.w3.org/2000/svg" width="26" height="26" viewBox="0 0 26 26"><title>watchlist-trade-manager</title><path d="M20.151,18.187l-2.56,2.568a.9.9,0,0,1-.6.245.8.8,0,0,1-.574-.235l-2.588-2.578a.824.824,0,0,1-.244-.593.811.811,0,0,1,.263-.6.839.839,0,0,1,.584-.236.825.825,0,0,1,.592.245l1.13,1.138V10.207a.886.886,0,0,1,.244-.593A.85.85,0,0,1,17.572,9.6a.869.869,0,0,1,.264.622v7.922L18.965,17a.759.759,0,0,1,.6-.245h.01a.845.845,0,0,1,.583.254A.833.833,0,0,1,20.151,18.187ZM12.164,7.817,9.6,5.239a.844.844,0,0,0-1.186.009C7.158,6.509,6.048,7.619,5.841,7.817A.842.842,0,0,0,7.036,9L8.165,7.874V15.8a.817.817,0,0,0,.254.593.829.829,0,0,0,1.177,0A.817.817,0,0,0,9.85,15.8V7.874l1.138,1.138a.858.858,0,0,0,1.176,0A.837.837,0,0,0,12.164,7.817Z" fill="#323232"/></svg>