<svg xmlns="http://www.w3.org/2000/svg" width="26" height="26" viewBox="0 0 26 26"><title>watchlist-alert</title><path d="M20.474,16.1a2,2,0,0,1-.366,1.14A1.8,1.8,0,0,1,19,17.96a1.473,1.473,0,0,1-.366.04H16.785a3.294,3.294,0,0,1-6.57,0H8.366A1.473,1.473,0,0,1,8,17.96a1.8,1.8,0,0,1-1.108-.72,2,2,0,0,1-.366-1.14A1.9,1.9,0,0,1,8,14.23V10.76a2.546,2.546,0,0,1,.019-.38A5.577,5.577,0,0,1,13.5,5.05a5.577,5.577,0,0,1,5.481,5.33,2.546,2.546,0,0,1,.019.38v3.47A1.9,1.9,0,0,1,20.474,16.1Z" fill="#323232"/></svg>