<svg xmlns="http://www.w3.org/2000/svg" width="26" height="26" viewBox="0 0 26 26"><title>watchlist-order-book</title><path d="M7.89,14h6.22a.893.893,0,0,0,.89-.89V11.885A.909.909,0,0,0,14.067,11H7.933A.909.909,0,0,0,7,11.885V13.11A.893.893,0,0,0,7.89,14Zm10.078,4H8.022A1.028,1.028,0,0,0,7,19.023v.954A1.028,1.028,0,0,0,8.022,21h9.946A1.03,1.03,0,0,0,19,19.977v-.954A1.03,1.03,0,0,0,17.968,18Zm0-13H8.022A1.028,1.028,0,0,0,7,6.023v.954A1.028,1.028,0,0,0,8.022,8h9.946A1.03,1.03,0,0,0,19,6.977V6.023A1.03,1.03,0,0,0,17.968,5Z" fill="#323232"/></svg>