<svg xmlns="http://www.w3.org/2000/svg" width="26" height="26" viewBox="0 0 26 26"><title>website</title><path d="M9.26,7.217c.885.291,1.763.6,2.654.868a14.993,14.993,0,0,0,2.7.706,2.562,2.562,0,0,0,2.574-1.808c.187-.567.475-.393.8-.187a6.064,6.064,0,0,1,2.542,3.455,14.174,14.174,0,0,1,.4,2.832,1.123,1.123,0,0,1-.754,1.089c-2.57,1.337-4.922.834-7.234-.714a24.275,24.275,0,0,0-4-2.187,6.56,6.56,0,0,0-2.426-.194c-.9-.006-1.22-.335-.865-1.139C6.378,8.284,7.162,7.372,9.26,7.217ZM5.074,13.754C5.064,12.36,5.109,12.4,6.1,12.17c2.033-.479,3.684.309,5.277,1.409a12.68,12.68,0,0,0,3.745,2.082,7.271,7.271,0,0,0,4.64-.181,2.685,2.685,0,0,1,.718-.062,3.375,3.375,0,0,1-.116.718c-.945,2.415-3.743,2.893-6.06,1.877a15.761,15.761,0,0,0-2.1-.813,2.8,2.8,0,0,0-3.392,1.578c-.262.6-.5.537-.927.219A7.246,7.246,0,0,1,5.074,13.754Zm11.954,6.285c-.974.3-1.771.6-2.593.795a6.113,6.113,0,0,1-4.061-.437,1.028,1.028,0,0,1-.23-1.822,2.093,2.093,0,0,1,2.2-.334,14.949,14.949,0,0,0,4.192,1.38C16.635,19.627,16.729,19.781,17.028,20.039ZM9.3,5.845a17.218,17.218,0,0,1,2.219-.7,6.8,6.8,0,0,1,3.761.258c.558.22.974.562.944,1.175A1.152,1.152,0,0,1,15.16,7.656a4.7,4.7,0,0,1-1.868-.1c-1.235-.36-2.433-.848-3.645-1.286-.1-.037-.2-.091-.3-.137Z" fill="#ddd"/></svg>