<svg xmlns="http://www.w3.org/2000/svg" width="26" height="26" viewBox="0 0 26 26"><title>withdraws</title><path d="M22.5,3H4.5A1.5,1.5,0,0,0,3,4.5v6A1.5,1.5,0,0,0,4.5,12H7V22.5A1.5,1.5,0,0,0,8.5,24h10A1.5,1.5,0,0,0,20,22.5V12h2.5A1.5,1.5,0,0,0,24,10.5v-6A1.5,1.5,0,0,0,22.5,3ZM19,22.5a.5.5,0,0,1-.5.5H8.5a.5.5,0,0,1-.5-.5V9H19Zm4-12a.5.5,0,0,1-.5.5H20V9h1.5a.5.5,0,0,0,0-1H5.5a.5.5,0,0,0,0,1H7v2H4.5a.5.5,0,0,1-.5-.5v-6A.5.5,0,0,1,4.5,4h18a.5.5,0,0,1,.5.5ZM11.5,20a.5.5,0,0,1-.5-.5v-1a.5.5,0,0,1,1,0v1A.5.5,0,0,1,11.5,20Zm0-4a.5.5,0,0,1-.5-.5v-4a.5.5,0,0,1,1,0v4A.5.5,0,0,1,11.5,16Z" fill="#323232"/></svg>