<?xml version="1.0" encoding="UTF-8" standalone="no"?>
<svg
   xmlns:dc="http://purl.org/dc/elements/1.1/"
   xmlns:cc="http://creativecommons.org/ns#"
   xmlns:rdf="http://www.w3.org/1999/02/22-rdf-syntax-ns#"
   xmlns:svg="http://www.w3.org/2000/svg"
   xmlns="http://www.w3.org/2000/svg"
   xmlns:sodipodi="http://sodipodi.sourceforge.net/DTD/sodipodi-0.dtd"
   xmlns:inkscape="http://www.inkscape.org/namespaces/inkscape"
   width="4.8683333mm"
   height="4.6566668mm"
   viewBox="0 0 4.8683333 4.6566668"
   version="1.1"
   id="svg8"
   sodipodi:docname="circle_half.svg"
   inkscape:version="1.0.1 (3bc2e813f5, 2020-09-07)">
  <defs
     id="defs2" />
  <sodipodi:namedview
     id="base"
     pagecolor="#ffffff"
     bordercolor="#666666"
     borderopacity="1.0"
     inkscape:pageopacity="0.0"
     inkscape:pageshadow="2"
     inkscape:zoom="44.8"
     inkscape:cx="8.1356723"
     inkscape:cy="8.7537511"
     inkscape:document-units="mm"
     inkscape:current-layer="layer1"
     inkscape:document-rotation="0"
     showgrid="false"
     inkscape:window-width="3840"
     inkscape:window-height="1533"
     inkscape:window-x="-9"
     inkscape:window-y="-9"
     inkscape:window-maximized="1">
    <inkscape:grid
       type="xygrid"
       id="grid46" />
  </sodipodi:namedview>
  <metadata
     id="metadata5">
    <rdf:RDF>
      <cc:Work
         rdf:about="">
        <dc:format>image/svg+xml</dc:format>
        <dc:type
           rdf:resource="http://purl.org/dc/dcmitype/StillImage" />
        <dc:title></dc:title>
      </cc:Work>
    </rdf:RDF>
  </metadata>
  <g
     inkscape:label="Layer 1"
     inkscape:groupmode="layer"
     id="layer1"
     transform="translate(-112.47059,-133.7431)"
     style="opacity:0.5">
    <path
       fill="currentColor"
       d="m 115.92135,135.90786 -1.58629,-0.96439 c -0.14241,-0.0793 -0.32176,0.0225 -0.32176,0.18927 v 1.87471 c 0,0.16584 0.17845,0.26858 0.32176,0.18927 l 1.58629,-0.91031 c 0.14781,-0.082 0.14781,-0.29563 0,-0.37855 z m 1.19242,0.16224 c 0,-1.23479 -1.00045,-2.23523 -2.23522,-2.23523 -1.23479,0 -2.23523,1.00044 -2.23523,2.23523 0,1.23477 1.00044,2.23522 2.23523,2.23522 1.23477,0 2.23522,-1.00045 2.23522,-2.23522 z m -4.03783,0 c 0,-0.99594 0.80667,-1.80261 1.80261,-1.80261 0.99593,0 1.8026,0.80667 1.8026,1.80261 0,0.99593 -0.80667,1.8026 -1.8026,1.8026 -0.99594,0 -1.80261,-0.80667 -1.80261,-1.8026 z"
       id="path35"
       style="stroke-width:0.00901299;fill:#ffffff" />
  </g>
</svg>
