<?xml version="1.0" encoding="utf-8"?>
<!-- Generator: Adobe Illustrator 22.1.0, SVG Export Plug-In . SVG Version: 6.00 Build 0)  -->
<svg version="1.1" id="Layer_1" xmlns="http://www.w3.org/2000/svg" xmlns:xlink="http://www.w3.org/1999/xlink" x="0px" y="0px"
	 viewBox="0 0 918 120" style="enable-background:new 0 0 918 120;" xml:space="preserve">
<style type="text/css">
	.st0{fill:#54B27E;stroke:#7D8BA9;}
	.st1{fill:#FFFFFF;}
	.st2{fill:#FFFFFF;stroke:#7D8BA9;}
	.st3{fill:#000003;}
</style>
<title>5 Stars</title>
<desc>Created with Sketch.</desc>
<g id="Page-1">
	<g id="_x35_-Stars">
		<g id="Group">
			<path id="Rectangle" class="st0" d="M5.5,0.5h109c2.8,0,5,2.2,5,5v109c0,2.8-2.2,5-5,5H5.5c-2.8,0-5-2.2-5-5V5.5
				C0.5,2.7,2.7,0.5,5.5,0.5z"/>
			<polygon id="Path-2" class="st1" points="26.7,110 39.2,72.3 7,48.4 46.8,48.4 59.4,10 71.6,48.4 112.1,48.4 59.4,86.5 
				82.2,80.5 91.9,110 59.5,86.5 			"/>
		</g>
		<g id="Group_1_" transform="translate(140.000000, 0.000000)">
			<path id="Rectangle_1_" class="st0" d="M5.5,0.5h109c2.8,0,5,2.2,5,5v109c0,2.8-2.2,5-5,5H5.5c-2.8,0-5-2.2-5-5V5.5
				C0.5,2.7,2.7,0.5,5.5,0.5z"/>
			<polygon id="Path-2_1_" class="st1" points="26.7,110 39.2,72.3 7,48.4 46.8,48.4 59.4,10 71.6,48.4 112.1,48.4 59.4,86.5 
				82.2,80.5 91.9,110 59.5,86.5 			"/>
		</g>
		<g id="Group_2_" transform="translate(280.000000, 0.000000)">
			<path id="Rectangle_2_" class="st0" d="M5.5,0.5h109c2.8,0,5,2.2,5,5v109c0,2.8-2.2,5-5,5H5.5c-2.8,0-5-2.2-5-5V5.5
				C0.5,2.7,2.7,0.5,5.5,0.5z"/>
			<polygon id="Path-2_2_" class="st1" points="26.7,110 39.2,72.3 7,48.4 46.8,48.4 59.4,10 71.6,48.4 112.1,48.4 59.4,86.5 
				82.2,80.5 91.9,110 59.5,86.5 			"/>
		</g>
		<g id="Group_3_" transform="translate(420.000000, 0.000000)">
			<path id="Rectangle_3_" class="st0" d="M5.5,0.5h109c2.8,0,5,2.2,5,5v109c0,2.8-2.2,5-5,5H5.5c-2.8,0-5-2.2-5-5V5.5
				C0.5,2.7,2.7,0.5,5.5,0.5z"/>
			<polygon id="Path-2_3_" class="st1" points="26.7,110 39.2,72.3 7,48.4 46.8,48.4 59.4,10 71.6,48.4 112.1,48.4 59.4,86.5 
				82.2,80.5 91.9,110 59.5,86.5 			"/>
		</g>
		<g id="Group_4_" transform="translate(560.000000, 0.000000)">
			<path id="Rectangle_4_" class="st0" d="M5.5,0.5h109c2.8,0,5,2.2,5,5v109c0,2.8-2.2,5-5,5H5.5c-2.8,0-5-2.2-5-5V5.5
				C0.5,2.7,2.7,0.5,5.5,0.5z"/>
			<polygon id="Path-2_4_" class="st1" points="26.7,110 39.2,72.3 7,48.4 46.8,48.4 59.4,10 71.6,48.4 112.1,48.4 59.4,86.5 
				82.2,80.5 91.9,110 59.5,86.5 			"/>
		</g>
		<g id="Group_5_" transform="translate(700.000000, 0.000000)">
			<path id="Rectangle_5_" class="st2" d="M5.5,0.5h207c2.8,0,5,2.2,5,5v109c0,2.8-2.2,5-5,5H5.5c-2.8,0-5-2.2-5-5V5.5
				C0.5,2.7,2.7,0.5,5.5,0.5z"/>
			<path id="_x34_.8" class="st3" d="M68.1,98V77.5H35.6v-7.3l32.5-44.5h9v43.9h9.7v7.9h-9.7V98H68.1z M45,69.7h23.7V37.6L45,69.7z
				 M103.4,98V85.9h12.1V98H103.4z M148.3,58.6c-7.1-4.9-10.6-10.4-10.6-16.3c0-5.5,2-9.9,6-13.3s9.2-5.1,15.7-5.1
				c6,0,10.8,1.4,14.5,4.3s5.5,6.7,5.5,11.3c0,7-4.5,13.4-13.5,19.1c10.9,5.3,16.4,12.2,16.4,20.7c0,6.1-2.3,11-6.9,14.8
				s-10.5,5.7-17.7,5.7c-7.1,0-12.8-1.8-17.2-5.4s-6.6-8.3-6.6-14.2C134,71.6,138.7,64.4,148.3,58.6z M160.6,55.6
				c6.7-4.4,10.1-9.4,10.1-14.8c0-2.9-1.1-5.2-3.4-7s-5.2-2.7-8.9-2.7c-3.5,0-6.4,0.9-8.6,2.6s-3.3,4-3.3,6.8c0,2.7,1,5.1,3,7.3
				S155.2,52.5,160.6,55.6z M153.5,62.6c-3.9,3-6.5,5.6-7.9,7.8s-2.1,5-2.1,8.3c0,4.1,1.3,7.5,4,10s6.2,3.8,10.5,3.8
				c4.2,0,7.6-1.1,10.3-3.3s4-5,4-8.5c0-2.8-0.8-5.2-2.5-7.1s-4.8-4.3-9.5-7.1L153.5,62.6z"/>
		</g>
	</g>
</g>
</svg>
