<svg xmlns="http://www.w3.org/2000/svg" width="26" height="26" viewBox="0 0 26 26">
  <title>adjust-all</title>
  <path d="M14.22,4.478a1.5,1.5,0,0,1-1.5,1.5,1.458,1.458,0,0,1-1.09-.48L6.24,7.847a.375.375,0,0,1,.01.11,1.5,1.5,0,1,1-1.5-1.5,1.458,1.458,0,0,1,1.09.48l5.39-2.36a.34.34,0,0,1-.01-.1,1.5,1.5,0,1,1,3,0Zm-2.15,8.56v6.42a.5.5,0,0,1-.5.5h-2v3.08h-1v-3.08h-2a.5.5,0,0,1-.5-.5v-6.42a.5.5,0,0,1,.5-.5h2V9.728h1v2.81h2A.5.5,0,0,1,12.07,13.037Zm-1,.5h-4v5.42h4Zm10.83,4.74-1.98,1.97V4.668l1.98,1.97a.485.485,0,0,0,.35.15.469.469,0,0,0,.35-.15.5.5,0,0,0,0-.71L19.78,3.1a.534.534,0,0,0-.71,0l-2.83,2.83a.513.513,0,0,0,0,.71.5.5,0,0,0,.71,0l1.97-1.97v15.58l-1.97-1.97a.5.5,0,0,0-.71,0,.5.5,0,0,0,0,.7l2.83,2.83a.5.5,0,0,0,.35.15.508.508,0,0,0,.36-.15l2.82-2.83a.495.495,0,1,0-.7-.7Z" fill="#323232"/>
</svg>
