<svg xmlns="http://www.w3.org/2000/svg" width="26" height="26" viewBox="0 0 26 26">
  <title>adjust-OHLC</title>
  <path d="M9.16,5.42h-2V2.5h-1V5.42h-2a.5.5,0,0,0-.5.5v14a.5.5,0,0,0,.5.5h2V23.5h1V20.42h2a.5.5,0,0,0,.5-.5v-14A.5.5,0,0,0,9.16,5.42Zm-.5,14h-4v-13h4Zm13.53-.68a.5.5,0,0,1,0,.71l-2.82,2.83a.542.542,0,0,1-.36.14.518.518,0,0,1-.35-.14l-2.83-2.83a.513.513,0,0,1,0-.71.5.5,0,0,1,.71,0l1.97,1.97V5.13L16.54,7.1a.5.5,0,0,1-.71,0,.5.5,0,0,1,0-.7l2.83-2.83a.513.513,0,0,1,.71,0L22.19,6.4a.483.483,0,0,1,0,.7.483.483,0,0,1-.7,0L19.51,5.13V20.71l1.98-1.97A.483.483,0,0,1,22.19,18.74Z" fill="#323232"/>
</svg>
