<svg xmlns="http://www.w3.org/2000/svg" width="26" height="26" viewBox="0 0 26 26">
  <title>andrews-pitchfork</title>
  <path d="M15.185,19.525a1.372,1.372,0,0,1,.15.64,1.5,1.5,0,1,1-3,0,1.332,1.332,0,0,1,.15-.63l-2.65-2.65-4.16,4.15a1.372,1.372,0,0,1,.15.64,1.5,1.5,0,1,1-1.5-1.5,1.372,1.372,0,0,1,.64.15l4.16-4.15-2.6-2.6a1.255,1.255,0,0,1-.51.1,1.5,1.5,0,1,1,0-3,1.255,1.255,0,0,1,.51.1l7.95-7.95.7.7L7.295,11.4a1.457,1.457,0,0,1,0,1.54l2.53,2.52,8.69-8.69.71.71-8.69,8.69,2.65,2.65a1.332,1.332,0,0,1,.65-.16,1.372,1.372,0,0,1,.64.15l8-7.99.7.7Z" fill="#323232"/>
</svg>
