<svg xmlns="http://www.w3.org/2000/svg" width="26" height="26" viewBox="0 0 26 26">
  <title>arrow</title>
  <path d="M22.37,13.54,14.38,4.67V4.66a1.354,1.354,0,0,0,.12-.57,1.5,1.5,0,1,0-3,0,1.354,1.354,0,0,0,.12.57v.01L3.63,13.54a.491.491,0,0,0-.09.53.505.505,0,0,0,.46.3H8.8v7.5a.5.5,0,0,0,.5.5h2.28a1.489,1.489,0,0,0,2.84,0H16.7a.5.5,0,0,0,.5-.5v-7.5H22a.505.505,0,0,0,.46-.3A.491.491,0,0,0,22.37,13.54Zm-6.17-.17v8H14.39a1.486,1.486,0,0,0-2.78,0H9.8v-8H5.12L12.3,5.4a1.385,1.385,0,0,0,1.4,0l7.18,7.97Z" fill="#323232"/>
</svg>
