<svg xmlns="http://www.w3.org/2000/svg" width="26" height="26" viewBox="0 0 26 26">
  <title>balloon</title>
  <path d="M19.47,10.52a.5.5,0,0,1,.5.5.5.5,0,0,1-.5.5H6.53a.5.5,0,0,1-.5-.5.5.5,0,0,1,.5-.5Zm3-5.67V17.22a1.5,1.5,0,0,1-1.5,1.5H17.13L13.35,22.5a.483.483,0,0,1-.7,0L8.87,18.72H5.03a1.5,1.5,0,0,1-1.5-1.5V4.85a1.5,1.5,0,0,1,1.5-1.5H20.97A1.5,1.5,0,0,1,22.47,4.85Zm-1,0a.508.508,0,0,0-.5-.5H5.03a.508.508,0,0,0-.5.5V17.22a.508.508,0,0,0,.5.5H9.28l1,1L13,21.44l2.72-2.72,1-1h4.25a.508.508,0,0,0,.5-.5Z" fill="#323232"/>
</svg>
