<svg xmlns="http://www.w3.org/2000/svg" viewBox="0 0 134.515 87.854"><title>Business-Client</title><path d="M31.191,27.237a.964.964,0,1,1,0,1.363A.964.964,0,0,1,31.191,27.237ZM19.776,25.363a.964.964,0,1,1,0,1.363A.964.964,0,0,1,19.776,25.363Zm6.644,6.645a.964.964,0,1,1,0,1.363A.963.963,0,0,1,26.42,32.008ZM25.482,26.3a.964.964,0,1,1,0,1.363A.966.966,0,0,1,25.482,26.3Zm7.583,12.353a.964.964,0,1,1,0,1.364A.964.964,0,0,1,33.065,38.652Zm-.938-5.708a.964.964,0,1,1,0,1.363A.964.964,0,0,1,32.127,32.944ZM8.36,23.489a.964.964,0,1,1,0,1.363A.963.963,0,0,1,8.36,23.489Zm6.645,6.645a.964.964,0,1,1,0,1.363A.963.963,0,0,1,15.005,30.134Zm-.938-5.709a.964.964,0,1,1,0,1.363A.964.964,0,0,1,14.067,24.425ZM21.65,36.778a.964.964,0,1,1,0,1.363A.964.964,0,0,1,21.65,36.778Zm-.938-5.708a.964.964,0,1,1,0,1.363A.964.964,0,0,1,20.712,31.07Zm7.582,12.353a.964.964,0,1,1,0,1.363A.964.964,0,0,1,28.294,43.423Zm-.937-5.708a.964.964,0,1,1,0,1.363A.963.963,0,0,1,27.357,37.715Zm7.582,12.353a.964.964,0,1,1,0,1.363A.963.963,0,0,1,34.939,50.068ZM34,44.359a.964.964,0,1,1,0,1.364A.964.964,0,0,1,34,44.359ZM10.234,34.9a.964.964,0,1,1,0,1.363A.964.964,0,0,1,10.234,34.9ZM9.3,29.2a.964.964,0,1,1,0,1.363A.963.963,0,0,1,9.3,29.2Zm7.582,12.353a.964.964,0,1,1,0,1.363A.964.964,0,0,1,16.879,41.549Zm-.938-5.708a.964.964,0,1,1,0,1.363A.963.963,0,0,1,15.941,35.841Zm7.583,12.353a.964.964,0,1,1,0,1.363A.963.963,0,0,1,23.524,48.194Zm-.938-5.709a.964.964,0,1,1,0,1.363A.964.964,0,0,1,22.586,42.485Zm6.645,6.645a.964.964,0,1,1,0,1.363A.964.964,0,0,1,29.231,49.13ZM12.109,46.32a.964.964,0,1,1,0,1.363A.963.963,0,0,1,12.109,46.32Zm-.938-5.709a.964.964,0,1,1,0,1.363A.964.964,0,0,1,11.171,40.611Zm6.644,6.645a.964.964,0,1,1,0,1.363A.966.966,0,0,1,17.815,47.256Z" fill="#fff"/><path d="M79.167,35a.964.964,0,1,1,0,1.363A.964.964,0,0,1,79.167,35ZM67.751,33.126a.964.964,0,1,1,0,1.363A.964.964,0,0,1,67.751,33.126ZM74.4,39.771a.964.964,0,1,1,0,1.363A.963.963,0,0,1,74.4,39.771Zm-.938-5.709a.964.964,0,1,1,0,1.363A.964.964,0,0,1,73.458,34.062Zm7.583,12.353a.964.964,0,1,1,0,1.364A.964.964,0,0,1,81.041,46.415ZM80.1,40.707a.964.964,0,1,1,0,1.363A.964.964,0,0,1,80.1,40.707ZM56.336,31.252a.964.964,0,1,1,0,1.363A.963.963,0,0,1,56.336,31.252ZM62.981,37.9a.964.964,0,1,1,0,1.363A.963.963,0,0,1,62.981,37.9Zm-.938-5.709a.964.964,0,1,1,0,1.363A.964.964,0,0,1,62.043,32.188Zm7.583,12.353a.964.964,0,1,1,0,1.363A.964.964,0,0,1,69.626,44.541Zm-.938-5.708a.964.964,0,1,1,0,1.363A.964.964,0,0,1,68.688,38.833ZM76.27,51.186a.964.964,0,1,1,0,1.363A.964.964,0,0,1,76.27,51.186Zm-.937-5.708a.964.964,0,1,1,0,1.363A.963.963,0,0,1,75.333,45.478Zm7.582,12.353a.964.964,0,1,1,0,1.363A.963.963,0,0,1,82.915,57.831Zm-.938-5.709a.964.964,0,1,1,0,1.364A.964.964,0,0,1,81.977,52.122ZM58.21,42.667a.964.964,0,1,1,0,1.363A.964.964,0,0,1,58.21,42.667Zm-.937-5.708a.964.964,0,1,1,0,1.363A.963.963,0,0,1,57.273,36.959Zm7.582,12.353a.964.964,0,1,1,0,1.363A.964.964,0,0,1,64.855,49.312ZM63.917,43.6a.964.964,0,1,1,0,1.363A.963.963,0,0,1,63.917,43.6ZM71.5,55.957a.964.964,0,1,1,0,1.363A.963.963,0,0,1,71.5,55.957Zm-.938-5.709a.964.964,0,1,1,0,1.363A.964.964,0,0,1,70.562,50.248Zm6.645,6.645a.964.964,0,1,1,0,1.363A.964.964,0,0,1,77.207,56.893Zm-17.123-2.81a.964.964,0,1,1,0,1.363A.963.963,0,0,1,60.084,54.083Zm-.937-5.709a.964.964,0,1,1,0,1.363A.964.964,0,0,1,59.147,48.374Zm6.644,6.645a.964.964,0,1,1,0,1.363A.964.964,0,0,1,65.791,55.019Z" fill="#fff"/><path d="M19.258,86.8C7.7,75.278-.562,55.429.03,40.63.68,24.356,10.358,9.27,24.111,3.09,38.77-3.5,57.7.747,68.137,12.961A75.346,75.346,0,0,1,76.1,25.175c1.614,2.866,3.283,5.828,5.174,8.566C83.93,37.584,91.167,46.5,101.05,46.064a31.565,31.565,0,0,0,7.712-1.648,30.112,30.112,0,0,1,8.272-1.678,17.644,17.644,0,0,1,16.182,11.285c3,8,1.054,22.2-8.462,32.768l-.371-.334c9.383-10.42,11.313-24.395,8.365-32.255a17.141,17.141,0,0,0-15.716-10.964,29.752,29.752,0,0,0-8.126,1.657,31.99,31.99,0,0,1-7.835,1.669c-.23.01-.461.014-.687.015-9.775,0-16.88-8.731-19.522-12.554-1.9-2.756-3.578-5.73-5.2-8.6a74.969,74.969,0,0,0-7.907-12.133C57.455,1.234,38.78-2.955,24.316,3.546,10.732,9.65,1.173,24.561.53,40.649c-.588,14.675,7.616,34.364,19.081,45.8Z" fill="#fff"/><path d="M80.179,24.773a7.264,7.264,0,1,1,6.89-9.541h0a7.264,7.264,0,0,1-6.892,9.541Zm-.011-13.9a6.638,6.638,0,1,0,6.31,4.559,6.639,6.639,0,0,0-6.31-4.559Z"/><rect x="94.201" y="21.514" width="33.71" height="37.773" fill="#fff"/><rect x="94.201" y="21.514" width="33.71" height="4.364" fill="#6987f3"/><path d="M107.581,49.316a5.091,5.091,0,0,1-3.038-.947l.372-.5a5.143,5.143,0,0,0,6.609-.884,6.763,6.763,0,0,0,1.157-6.592,12.694,12.694,0,0,1-5.555.93,6.95,6.95,0,0,1-4.69-1.906,3.667,3.667,0,0,1-.192-4.91c1.363-1.367,3.649-1.02,5.334-.239a10.826,10.826,0,0,1,5.454,5.3,12.9,12.9,0,0,0,7.037-7.944l.6.173a13.54,13.54,0,0,1-7.41,8.345,7.4,7.4,0,0,1-1.268,7.259A5.994,5.994,0,0,1,107.581,49.316ZM104.72,34.2a2.777,2.777,0,0,0-2.033.745,3.072,3.072,0,0,0,.21,4.047,6.346,6.346,0,0,0,4.27,1.7,12.083,12.083,0,0,0,5.291-.885,10.2,10.2,0,0,0-5.143-4.979A6.419,6.419,0,0,0,104.72,34.2Z" fill="#6987f3"/><path d="M80.216,22.134A4.579,4.579,0,1,0,77.3,27.917h0A4.58,4.58,0,0,0,80.216,22.134Z" fill="#fff"/><path d="M119.389,67.068l-.4-.359,2.344-11.738.581-.087,5.07,9.376-.18.447Zm2.386-11.125L119.7,66.312l6.55-2.086Z"/><polygon points="87.621 73.387 29.908 73.387 52.993 86.623 110.707 86.623 87.621 73.387" fill="#6987f3"/><rect x="48.949" y="73.682" width="0.625" height="11.016" transform="translate(-43.94 82.538) rotate(-60.173)"/><polygon points="119.941 45.223 62.227 45.223 52.993 86.623 110.707 86.623 119.941 45.223" fill="#6987f3"/><rect x="36.402" y="65.611" width="42.417" height="0.625" transform="translate(-19.268 107.811) rotate(-77.433)"/><circle cx="86.467" cy="65.923" r="5.281" fill="#fff"/><path d="M86.469,69.391c-.066,0-.133,0-.2-.006l.035-.624a2.844,2.844,0,0,0,3-2.677h0l.624.036A3.467,3.467,0,0,1,86.469,69.391Z"/><path d="M34.127,24.632A20.757,20.757,0,0,1,33.3,33.3a9.218,9.218,0,0,1-1.39,2.687l-2.2-1.619,1.441,2.513a7.24,7.24,0,0,1-4.431,2.242,10.861,10.861,0,0,1,6.129-14.085,10.644,10.644,0,0,1,1.282-.415Z" fill="#fff"/><path d="M11.826,22.156l2.8.69-2.706.477c.033.269.072.532.12.786a11.8,11.8,0,0,0,2.5,5.576,8.193,8.193,0,0,0,5.729,2.766,12.434,12.434,0,0,0-8.443-14.91C11.817,18.974,11.74,20.611,11.826,22.156Z" fill="#27cf6d"/><path d="M25.441,58.765c-.73-8.845-.7-18.3,4.435-27.553l.546.3c-5.052,9.1-5.08,18.452-4.358,27.2Z"/><path d="M23.794,58.359l-.62-.078C24.294,49.334,22,34.45,16.213,25.028l.532-.327C22.6,34.24,24.927,49.305,23.794,58.359Z"/><ellipse cx="24.589" cy="70.944" rx="17.962" ry="15.679" fill="#fff"/><rect x="20.784" y="51.916" width="7.611" height="6.85" fill="#fff"/><polygon points="52.943 45.891 49.088 57.726 40.824 49.463 52.943 45.891" fill="#27cf6d"/><rect x="40.818" y="52.731" width="6.811" height="3.193" transform="translate(-25.463 47.183) rotate(-45)" fill="#27cf6d"/><path d="M85.587,86.624c.012-6.551,3.434-9.264,6.085-9.739a7.2,7.2,0,0,1,7.148,3.553c2.531-5.136,5.934-9.942,10.459-11.9a9.478,9.478,0,0,1,12.477,4.9c.029.067.058.135.086.2,1.66,3.891,1.178,8.622.651,12.993" fill="#27cf6d"/><path d="M78.817,87.854l-.369-1.13c-.037-.115-3.846-11.554-11.863-10.932l-.049-.623c7.062-.551,10.986,7.548,12.142,10.394.642-2.3,1.743-3.687,3.282-4.119,4-1.124,9.436,4.682,9.664,4.93l-.458.424c-.054-.058-5.4-5.773-9.038-4.752-1.5.423-2.54,1.985-3.076,4.644Z" fill="#fff"/><path d="M62,35.224H37.835l-.312-.313V18.8l.312-.313H62l.313.313v16.11ZM38.148,34.6H61.689V19.116H38.148Z"/><path d="M11.852,64.829c-.08,0-.159,0-.238-.007a3.875,3.875,0,1,1,.238.007Zm-.01-7.129A3.25,3.25,0,1,0,14.28,58.8h0a3.23,3.23,0,0,0-2.238-1.088C11.975,57.7,11.908,57.7,11.842,57.7Z"/><path d="M43.778,37.46a1.288,1.288,0,0,1-1.286-1.29V23.185a1.3,1.3,0,0,1,1.143-1.292h19.9a1.3,1.3,0,0,1,1.143,1.292V36.168a1.288,1.288,0,0,1-1.284,1.292H43.778Z" fill="#6987f3"/><path d="M48.8,30.078a4.118,4.118,0,0,1-2.946-1.239c-1.526-1.559-3.365-3.458-3.365-3.458v-2.2a1.3,1.3,0,0,1,1.143-1.292h19.9a1.3,1.3,0,0,1,1.143,1.292v2.2s-1.839,1.9-3.365,3.458a4.125,4.125,0,0,1-2.942,1.239Z" fill="#fff"/><path d="M53.584,20.879a4.306,4.306,0,0,0-2.289.655.472.472,0,0,1-.61-.063h0a.437.437,0,0,1,.151-.6.39.39,0,0,1,.035-.019,5.129,5.129,0,0,1,5.426,0,.438.438,0,0,1,.2.585c-.005.011-.011.022-.017.033h0a.472.472,0,0,1-.61.063A4.311,4.311,0,0,0,53.584,20.879Z"/></svg>