<svg xmlns="http://www.w3.org/2000/svg" width="26" height="26" viewBox="0 0 26 26">
  <title>circle</title>
  <path d="M22.39,11.56a9.506,9.506,0,0,0-7.95-7.95,1.489,1.489,0,0,0-2.88,0,9.506,9.506,0,0,0-7.95,7.95,1.489,1.489,0,0,0,0,2.88,9.506,9.506,0,0,0,7.95,7.95,1.489,1.489,0,0,0,2.88,0,9.506,9.506,0,0,0,7.95-7.95,1.489,1.489,0,0,0,0-2.88Zm-1,2.8a8.515,8.515,0,0,1-7.03,7.03,1.484,1.484,0,0,0-2.72,0,8.515,8.515,0,0,1-7.03-7.03,1.484,1.484,0,0,0,0-2.72,8.515,8.515,0,0,1,7.03-7.03,1.484,1.484,0,0,0,2.72,0,8.515,8.515,0,0,1,7.03,7.03,1.484,1.484,0,0,0,0,2.72Z" fill="#323232"/>
</svg>
