<svg xmlns="http://www.w3.org/2000/svg" width="26" height="26" viewBox="0 0 26 26">
  <title>copy</title>
  <path d="M15.12,15.08v1H7.65v-1ZM7.65,12.24v1h7.47v-1Zm0-2.84v1h7.47v-1ZM21.12,5V18.16a1.5,1.5,0,0,1-1.5,1.5H17.88V21a1.5,1.5,0,0,1-1.5,1.5h-10A1.5,1.5,0,0,1,4.88,21V7.84a1.511,1.511,0,0,1,1.5-1.5H8.12V5a1.5,1.5,0,0,1,1.5-1.5h10A1.511,1.511,0,0,1,21.12,5ZM16.88,7.84a.5.5,0,0,0-.5-.5h-10a.508.508,0,0,0-.5.5V21a.5.5,0,0,0,.5.5h10a.5.5,0,0,0,.5-.5ZM20.12,5a.508.508,0,0,0-.5-.5h-10a.5.5,0,0,0-.5.5V6.34h7.26a1.5,1.5,0,0,1,1.5,1.5V18.66h1.74a.5.5,0,0,0,.5-.5Z" fill="#323232"/>
</svg>
