<svg xmlns="http://www.w3.org/2000/svg" width="26" height="26" viewBox="0 0 26 26">
  <title>ellipse</title>
  <path d="M22.32,11.54c-.77-3.08-3.93-5.48-7.88-5.95a1.5,1.5,0,0,0-2.88,0c-3.95.47-7.11,2.87-7.88,5.95a1.493,1.493,0,0,0,0,2.92c.77,3.08,3.93,5.48,7.88,5.95h.01a1.483,1.483,0,0,0,2.86,0h.01c3.95-.47,7.11-2.87,7.88-5.95a1.493,1.493,0,0,0,0-2.92Zm-1,2.79c-.71,2.61-3.48,4.65-6.95,5.08a1.486,1.486,0,0,0-2.74,0c-3.47-.43-6.24-2.47-6.95-5.08a1.489,1.489,0,0,0,0-2.66c.71-2.61,3.48-4.65,6.95-5.08a1.486,1.486,0,0,0,2.74,0c3.47.43,6.24,2.47,6.95,5.08a1.489,1.489,0,0,0,0,2.66Z" fill="#323232"/>
</svg>
