<svg xmlns="http://www.w3.org/2000/svg" width="26" height="26" viewBox="0 0 26 26">
  <title>fibonacci-retracements</title>
  <path d="M23.38,4.12a1.5,1.5,0,0,1-1.5,1.5,1.483,1.483,0,0,1-1.04-.42l.32.32-.7.7-.7-.72.7-.69.34.34a1.4,1.4,0,0,1-.33-.53H3.29v-1H20.47a1.5,1.5,0,0,1,1.41-1A1.511,1.511,0,0,1,23.38,4.12ZM5.59,21.62a1.337,1.337,0,0,0-.23-.58l.3-.29-.7-.72-.42.42a1.157,1.157,0,0,0-.42-.07,1.5,1.5,0,0,0,0,3,1.461,1.461,0,0,0,1.29-.76H22.29v-1Zm16.7-10.66H15.43l-.61-.61-.62.61H3.29v1h9.89l-.47.46.7.72.71-.7-.48-.48h8.65ZM7.07,19.36l-.71.7-.7-.72.71-.69Zm1.41-1.38-.71.69-.7-.71.71-.69ZM9.89,16.6l-.71.69-.7-.72.71-.69Zm7.05-6.92-.71.69-.7-.72.7-.69Zm1.4-1.39-.7.69-.7-.71.7-.69Zm1.41-1.38-.7.69-.7-.71.7-.7Zm-7.51,7.38.47-.46-.7-.72-.71.7.47.48H3.29v1h6.7l.6.61.63-.61H22.29v-1Z" fill="#323232"/>
</svg>
