<svg xmlns="http://www.w3.org/2000/svg" width="26" height="26" viewBox="0 0 26 26">
  <title>fibonacci-arcs</title>
  <path d="M15.4,9.93l-.66.66.71.71.66-.67Zm1.84-.43.19-.2-.72-.7-.18.18A5.5,5.5,0,1,0,18.5,13,5.451,5.451,0,0,0,17.24,9.5ZM13,17.5A4.5,4.5,0,1,1,17.5,13,4.507,4.507,0,0,1,13,17.5ZM20.65,7.36a1.367,1.367,0,0,0,.18-.69,1.5,1.5,0,0,0-1.5-1.5,1.367,1.367,0,0,0-.69.18A9.506,9.506,0,0,0,5.35,18.64a1.315,1.315,0,0,0-.19.7,1.5,1.5,0,0,0,1.5,1.5,1.315,1.315,0,0,0,.7-.19A9.505,9.505,0,0,0,20.65,7.36ZM13,21.5a8.409,8.409,0,0,1-4.95-1.6,1.471,1.471,0,0,0,.11-.56,1.5,1.5,0,0,0-1.5-1.5,1.471,1.471,0,0,0-.56.11A8.409,8.409,0,0,1,4.5,13,8.5,8.5,0,0,1,17.95,6.09a1.368,1.368,0,0,0-.12.58,1.332,1.332,0,0,0,.16.65l-.62.61.71.71.61-.62a1.45,1.45,0,0,0,1.22.03A8.5,8.5,0,0,1,13,21.5Zm1.74-9.49a1.91,1.91,0,0,0-.33-.42,2.056,2.056,0,0,0-.37-.29A1.945,1.945,0,0,0,13,11a2,2,0,1,0,2,2A1.95,1.95,0,0,0,14.74,12.01ZM13,14a1,1,0,1,1,1-1A1,1,0,0,1,13,14Z" fill="#323232"/>
</svg>
