<svg xmlns="http://www.w3.org/2000/svg" width="26" height="26" viewBox="0 0 26 26">
  <title>fibonacci-fan</title>
  <path d="M5.82,8.75a1.5,1.5,0,1,1,1.5,1.5A1.5,1.5,0,0,1,5.82,8.75Zm-.07,9.01-.98-.22-.21.93.97.22Zm.85-3.7-.97-.22-.22.93.98.22Zm-.42,1.85-.98-.22-.21.93.97.22Zm16.24-5.84L7.34,19.36,23,3.7,22.3,3,7,18.3,15.32,4.42l-.86-.51L5.08,19.56l-.73-.17-.15.64A1.5,1.5,0,1,0,6,21.5a.569.569,0,0,0-.01-.13L22.94,10.92ZM5.84,12.91l.98.23.21-.93-.98-.22Zm1.62-2.55-.98-.22-.21.92.97.23Z" fill="#323232"/>
</svg>
