<svg xmlns="http://www.w3.org/2000/svg" width="26" height="26" viewBox="0 0 26 26">
  <title>fibonacci-ellipses</title>
  <path d="M16.86,9.88l.57-.58-.72-.7-.65.66.23.23A6.282,6.282,0,0,0,13,8.61c-3.03,0-5.5,1.97-5.5,4.39s2.47,4.39,5.5,4.39,5.5-1.97,5.5-4.39A3.989,3.989,0,0,0,16.86,9.88ZM13,16.39c-2.48,0-4.5-1.52-4.5-3.39S10.52,9.61,13,9.61a5.627,5.627,0,0,1,2.26.46l-.52.52.71.71.66-.67-.25-.25A3.171,3.171,0,0,1,17.5,13C17.5,14.87,15.48,16.39,13,16.39Zm1.67-4.31.12-.12-.71-.7-.23.23a2.379,2.379,0,0,0-.85-.16A1.862,1.862,0,0,0,11,13a1.862,1.862,0,0,0,2,1.67A1.862,1.862,0,0,0,15,13,1.459,1.459,0,0,0,14.67,12.08ZM13,13.67c-.54,0-1-.31-1-.67s.46-.67,1-.67,1,.31,1,.67S13.54,13.67,13,13.67Zm6.97-5.76a1.265,1.265,0,0,0,.09-.47,1.5,1.5,0,0,0-1.5-1.5,1.479,1.479,0,0,0-1.07.45A11.49,11.49,0,0,0,13,5.5C7.76,5.5,3.5,8.86,3.5,13a6.7,6.7,0,0,0,2.55,5.11,1.337,1.337,0,0,0-.06.4,1.5,1.5,0,0,0,1.5,1.5,1.427,1.427,0,0,0,1.02-.41,11.316,11.316,0,0,0,4.49.9c5.24,0,9.5-3.36,9.5-7.5A6.7,6.7,0,0,0,19.97,7.91ZM13,19.5a10.525,10.525,0,0,1-4.03-.78,1.467,1.467,0,0,0-1.48-1.71,1.436,1.436,0,0,0-.87.28A5.694,5.694,0,0,1,4.5,13c0-3.58,3.81-6.5,8.5-6.5a10.511,10.511,0,0,1,4.07.8.614.614,0,0,0-.01.14A1.5,1.5,0,0,0,19.37,8.7,5.708,5.708,0,0,1,21.5,13C21.5,16.58,17.69,19.5,13,19.5Z" fill="#323232"/>
</svg>
