<svg xmlns="http://www.w3.org/2000/svg" width="26" height="26" viewBox="0 0 26 26">
  <title>fibonacci-extensions</title>
  <path d="M23.38,21.38a1.511,1.511,0,0,1-1.5,1.5,1.461,1.461,0,0,1-1.29-.76H8.29v-1H20.41a.282.282,0,0,1,.04-.15l-.58-.44.61-.79.54.42a1.428,1.428,0,0,1,.86-.28A1.5,1.5,0,0,1,23.38,21.38Zm-5.81-2.62.61-.79-.76-.6-.61.8Zm4.72-4.97H11.63l.43-.56-.77-.59-.61.79.46.36H8.29v1h4.14l.55.42.32-.42h8.99Zm-14-1.33a1.468,1.468,0,0,0,1-.39l-.14.18.76.59.61-.79-.76-.59H22.29v-1H9.7a1.5,1.5,0,0,0-2.91.5,1.457,1.457,0,0,0,.64,1.22l-.19-.08-.4.89.92.4.39-.89-.16-.07A1.452,1.452,0,0,0,8.29,12.46Zm-3.5,7.59.2-.45-.91-.41-.33.74a1.492,1.492,0,0,0-1.13,1.45,1.5,1.5,0,0,0,3,0A1.464,1.464,0,0,0,4.79,20.05Zm11.25-2.47.61-.8-.76-.59-.61.79ZM4.47,18.3l.92.41.39-.89-.91-.4Zm10.04-1.91.61-.79-.76-.59-.62.79Zm4.6,3.55.61-.79-.77-.59-.61.79ZM5.26,16.53l.92.41.39-.89-.91-.41Zm.79-1.77.92.4.39-.88-.91-.41ZM22.29,3.12h-14v1h14Z" fill="#323232"/>
</svg>
