<svg xmlns="http://www.w3.org/2000/svg" width="26" height="26" viewBox="0 0 26 26">
  <title>fibonacci-time-zones</title>
  <path d="M9.12,13.72l-.85.52-.49-.81.85-.52ZM22,3.5v19h1V3.5ZM11.92,17.06V3.5h-1V16.69l-.32-.53-.86.52.5.81.11-.07a1.473,1.473,0,0,0-.43,1.05,1.5,1.5,0,0,0,1,1.41V22.5h1V19.88a1.494,1.494,0,0,0,0-2.82ZM5.68,8.04l-.11.07A1.473,1.473,0,0,0,6,7.06,1.5,1.5,0,0,0,5,5.65V3.5H4V5.65A1.494,1.494,0,0,0,4,8.47V22.5H5V8.85l.32.52.85-.52Zm1.97,3.25-.86.52.49.81.86-.52ZM6.66,9.67l-.85.51L6.3,11l.86-.52Zm2.96,4.87-.86.51.49.82.86-.52Z" fill="#323232"/>
</svg>
