<svg xmlns="http://www.w3.org/2000/svg" width="26" height="26" viewBox="0 0 26 26">
  <title>free-hand</title>
  <path d="M15.072,14.189l-.057,0a.5.5,0,0,1-.414-.329A3.243,3.243,0,0,0,12.643,11.9a.5.5,0,0,1-.131-.872,27.094,27.094,0,0,0,5.717-5.539c.5-.687,1.319-1.813,2.454-1.813l.1,0a2.307,2.307,0,0,1,2.044,2.054c.036,1.167-1.162,1.958-1.878,2.43l-.118.079a19.311,19.311,0,0,0-5.336,5.719A.5.5,0,0,1,15.072,14.189Zm-1.31-2.857a4.227,4.227,0,0,1,1.375,1.356,19.563,19.563,0,0,1,5.136-5.28l.122-.081c.506-.334,1.448-.956,1.429-1.564a1.307,1.307,0,0,0-1.1-1.087h0C20.067,4.637,19.44,5.524,19.1,6A27.294,27.294,0,0,1,13.762,11.332ZM8.818,22.325a7.152,7.152,0,0,1-5.542-2.771.5.5,0,0,1,.4-.8,2.106,2.106,0,0,0,2.071-2.071A4.362,4.362,0,0,1,10.1,12.325a4.415,4.415,0,0,1,4.357,4.349A5.651,5.651,0,0,1,8.818,22.325ZM4.627,19.582a6.153,6.153,0,0,0,4.191,1.743,4.648,4.648,0,0,0,4.643-4.643A3.408,3.408,0,0,0,10.1,13.325a3.321,3.321,0,0,0-3.357,3.357A3.057,3.057,0,0,1,4.627,19.582Z" fill="#323232"/>
</svg>
