<svg xmlns="http://www.w3.org/2000/svg" width="26" height="26" viewBox="0 0 26 26"><title>images</title><path d="M18,7.435a2.5,2.5,0,1,0,2.5,2.5A2.507,2.507,0,0,0,18,7.435Zm0,4a1.5,1.5,0,1,1,1.5-1.5A1.5,1.5,0,0,1,18,11.435Zm0-4a2.5,2.5,0,1,0,2.5,2.5A2.507,2.507,0,0,0,18,7.435Zm0,4a1.5,1.5,0,1,1,1.5-1.5A1.5,1.5,0,0,1,18,11.435Zm0-4a2.5,2.5,0,1,0,2.5,2.5A2.507,2.507,0,0,0,18,7.435Zm0,4a1.5,1.5,0,1,1,1.5-1.5A1.5,1.5,0,0,1,18,11.435Zm2.97-6.12H5.03a1.5,1.5,0,0,0-1.5,1.5v12.37a1.5,1.5,0,0,0,1.5,1.5H20.97a1.5,1.5,0,0,0,1.5-1.5V6.815A1.5,1.5,0,0,0,20.97,5.315ZM4.53,6.815a.508.508,0,0,1,.5-.5H20.97a.508.508,0,0,1,.5.5v10.62l-4.16-1.62a.469.469,0,0,0-.33-.01l-3.76,1.15-4-4.35a.506.506,0,0,0-.37-.16.484.484,0,0,0-.36.16L4.53,16.9Zm16.94,12.37a.508.508,0,0,1-.5.5H5.03a.508.508,0,0,1-.5-.5v-.81l4.32-4.69,3.84,4.18a.5.5,0,0,0,.52.14l3.9-1.2,4.36,1.71Z" fill="#323232"/></svg>