<svg xmlns="http://www.w3.org/2000/svg" width="26" height="26" viewBox="0 0 26 26">
  <title>in-drawing-mode</title>
  <path d="M22.329,9.666l-6-6a.513.513,0,0,0-.71,0L4.749,14.536l-.28,1.7-.35,2.09-.2,1.21-.39,2.35a.507.507,0,0,0,.49.59c.03,0,.06-.01.08-.01l2.36-.39,1.21-.2,2.09-.35,1.7-.28,10.87-10.87A.5.5,0,0,0,22.329,9.666Zm-9.96,9.25-.7.71-.7.69-4.17.69-1.21.2-.96.16.16-.96.2-1.21.69-4.17.7-.69.7-.71,8.9-8.9,5.29,5.29Zm-1.941-2.654a.485.485,0,0,1-.35.15.469.469,0,0,1-.35-.15.483.483,0,0,1,0-.7l6.8-6.8a.495.495,0,1,1,.7.7Zm-.71,2.28a.5.5,0,0,1,0,.71.5.5,0,0,1-.35.15.508.508,0,0,1-.36-.15l-2.27-2.27a.5.5,0,0,1,.71-.71Z" fill="#323232"/>
</svg>
