<svg xmlns="http://www.w3.org/2000/svg" width="26" height="26" viewBox="0 0 26 26">
  <title>insert-indicator</title>
  <path d="M5.38,11.909a10.644,10.644,0,0,1-1-.42V7H7.09V3.759h1V7H10.8v5.11a9.738,9.738,0,0,1-1,.26V8H5.38Zm17.87.83a11.322,11.322,0,0,0-5.62-1.6h-.42a11.512,11.512,0,0,0-4.36,1.21,10.369,10.369,0,0,1-3.99,1.13,10.488,10.488,0,0,1-5.62-1.46.5.5,0,0,0-.68.19.509.509,0,0,0,.2.68,11.369,11.369,0,0,0,6.15,1.59,11.458,11.458,0,0,0,4.35-1.21,10.369,10.369,0,0,1,3.99-1.13,10.22,10.22,0,0,1,5.5,1.47.5.5,0,0,0,.5-.87ZM16.3,7.3h4.42v3.28c.33.1.67.21,1,.34V6.3H19.01V3.069h-1V6.3H15.3v4.11a7.7,7.7,0,0,1,1-.18ZM8.047,16.931h-3v5h3v-5Zm1-1v7h-5v-7Zm12.96,1h-3v5h3v-5Zm1-1v7h-5v-7Zm-7.96.407h-3v5.593h3V16.338Zm1-1v7.593h-5V15.338Z" fill="#323232"/>
</svg>
