<svg xmlns="http://www.w3.org/2000/svg" xmlns:xlink="http://www.w3.org/1999/xlink" viewBox="0 0 133.252 95.225"><defs><linearGradient id="a" x1="98.449" y1="89.28" x2="58.223" y2="28.69" gradientTransform="matrix(1, 0, 0, -1, 0, 99.379)" gradientUnits="userSpaceOnUse"><stop offset="0.05" stop-color="#00c1ce"/><stop offset="1" stop-color="#82eba1"/></linearGradient></defs><title>Institutionl-Investor</title><path d="M114.479,95.225l-.363-.343c10.835-11.466,17.4-28.168,17.567-44.678.082-8.114-1.544-14.8-4.833-19.855-4.021-6.188-10.971-9.838-17.309-9.095-3.487.413-6.726,2.049-9.858,3.631a33.82,33.82,0,0,1-9.174,3.567c-6.959,1.231-14.847-1.959-22.79-9.228-1.58-1.446-3.14-2.986-4.647-4.476-4.42-4.365-8.99-8.879-14.629-11.559-9.692-4.6-22.014-3.218-31.39,3.525C8.448,12.9,2.587,23.113.971,34.729c-1.42,10.212.382,21.426,5.213,32.429,3.932,8.955,9.737,17.769,18.27,27.738l-.38.325C15.508,85.214,9.678,76.36,5.726,67.359.858,56.271-.957,44.964.476,34.659,2.111,22.908,8.046,12.575,16.761,6.308,26.283-.54,38.8-1.941,48.658,2.737,54.373,5.453,58.973,10,63.423,14.392c1.5,1.487,3.06,3.023,4.633,4.463,5.455,4.992,13.768,10.623,22.366,9.105a33.464,33.464,0,0,0,9.036-3.521c3.171-1.6,6.449-3.259,10.024-3.681,6.507-.768,13.664,2.975,17.788,9.319,3.343,5.144,5,11.917,4.913,20.133C132.016,66.842,125.4,83.67,114.479,95.225Z" fill="#fff"/><path d="M34.969,30.6a.964.964,0,1,1-1.133-.757A.964.964,0,0,1,34.969,30.6Zm7.9-8.453a.964.964,0,1,1-1.134-.757A.963.963,0,0,1,42.866,22.15ZM33.65,23.987a.964.964,0,1,1-1.133-.757A.963.963,0,0,1,33.65,23.987Zm5.269,2.389a.964.964,0,1,1-1.134-.756A.964.964,0,0,1,38.919,26.376Zm-14.485-.552a.964.964,0,1,1-1.133-.757A.962.962,0,0,1,24.434,25.824ZM29.7,28.213a.964.964,0,1,1-1.134-.756A.964.964,0,0,1,29.7,28.213ZM50.763,13.7a.964.964,0,1,1-1.134-.756A.964.964,0,0,1,50.763,13.7Zm-9.216,1.837a.964.964,0,1,1-1.133-.756A.964.964,0,0,1,41.547,15.533Zm5.268,2.39a.964.964,0,1,1-1.133-.757A.964.964,0,0,1,46.815,17.923ZM32.331,17.37a.964.964,0,1,1-1.133-.756A.964.964,0,0,1,32.331,17.37ZM37.6,19.76A.964.964,0,1,1,36.466,19,.965.965,0,0,1,37.6,19.76Zm-14.484-.553a.964.964,0,1,1-1.134-.756A.964.964,0,0,1,23.116,19.207Zm5.268,2.39a.964.964,0,1,1-1.134-.757A.965.965,0,0,1,28.384,21.6ZM13.9,21.044a.964.964,0,1,1-1.134-.756A.964.964,0,0,1,13.9,21.044Zm5.268,2.39a.964.964,0,1,1-1.134-.757A.963.963,0,0,1,19.168,23.434ZM40.228,8.917A.964.964,0,1,1,39.1,8.16.964.964,0,0,1,40.228,8.917ZM45.5,11.306a.964.964,0,1,1-1.134-.756A.964.964,0,0,1,45.5,11.306Zm-14.484-.552A.964.964,0,1,1,29.879,10,.965.965,0,0,1,31.013,10.754Zm5.268,2.389a.964.964,0,1,1-1.134-.756A.964.964,0,0,1,36.281,13.143ZM21.8,12.591a.964.964,0,1,1-1.134-.757A.965.965,0,0,1,21.8,12.591Zm5.268,2.389a.964.964,0,1,1-1.134-.756A.964.964,0,0,1,27.065,14.98Zm-9.216,1.837a.964.964,0,1,1-1.133-.756A.964.964,0,0,1,17.849,16.817ZM29.694,4.137a.964.964,0,1,1-1.134-.756A.964.964,0,0,1,29.694,4.137Zm5.268,2.39a.964.964,0,1,1-1.134-.757A.964.964,0,0,1,34.962,6.527ZM25.746,8.364a.964.964,0,1,1-1.133-.757A.964.964,0,0,1,25.746,8.364Z" fill="#fff"/><path d="M105.787,91.526a.964.964,0,1,1-1.133-.757A.963.963,0,0,1,105.787,91.526Zm7.9-8.454a.964.964,0,1,1-1.133-.756A.964.964,0,0,1,113.684,83.072Zm-9.216,1.837a.964.964,0,1,1-1.133-.757A.964.964,0,0,1,104.468,84.909Zm5.269,2.39a.964.964,0,1,1-1.134-.757A.963.963,0,0,1,109.737,87.3Zm-14.484-.553a.964.964,0,1,1-1.134-.757A.964.964,0,0,1,95.253,86.746Zm5.268,2.39a.964.964,0,1,1-1.134-.757A.963.963,0,0,1,100.521,89.136Zm21.06-14.517a.964.964,0,1,1-1.134-.757A.963.963,0,0,1,121.581,74.619Zm-9.216,1.837a.964.964,0,1,1-1.133-.757A.963.963,0,0,1,112.365,76.456Zm5.269,2.389a.964.964,0,1,1-1.134-.756A.964.964,0,0,1,117.634,78.845Zm-14.485-.552a.964.964,0,1,1-1.133-.757A.962.962,0,0,1,103.149,78.293Zm5.269,2.389a.964.964,0,1,1-1.134-.756A.964.964,0,0,1,108.418,80.682ZM93.934,80.13a.964.964,0,1,1-1.134-.757A.963.963,0,0,1,93.934,80.13ZM99.2,82.519a.964.964,0,1,1-1.134-.756A.964.964,0,0,1,99.2,82.519Zm-14.484-.552a.964.964,0,1,1-1.134-.757A.963.963,0,0,1,84.718,81.967Zm5.268,2.389a.964.964,0,1,1-1.133-.756A.964.964,0,0,1,89.986,84.356Zm21.06-14.517a.964.964,0,1,1-1.133-.756A.964.964,0,0,1,111.046,69.839Zm5.269,2.39a.964.964,0,1,1-1.134-.757A.965.965,0,0,1,116.315,72.229Zm-14.484-.553a.964.964,0,1,1-1.134-.756A.964.964,0,0,1,101.831,71.676Zm5.268,2.39a.964.964,0,1,1-1.134-.757A.965.965,0,0,1,107.1,74.066Zm-14.484-.553a.964.964,0,1,1-1.134-.756A.964.964,0,0,1,92.615,73.513Zm5.268,2.39a.964.964,0,1,1-1.134-.757A.965.965,0,0,1,97.883,75.9ZM88.667,77.74a.964.964,0,1,1-1.133-.757A.964.964,0,0,1,88.667,77.74Zm11.845-12.68a.964.964,0,1,1-1.134-.757A.965.965,0,0,1,100.512,65.06Zm5.268,2.389a.964.964,0,1,1-1.134-.756A.964.964,0,0,1,105.78,67.449Zm-9.216,1.837a.964.964,0,1,1-1.133-.756A.964.964,0,0,1,96.564,69.286Z" fill="#fff"/><rect x="1.698" y="53.672" width="37.632" height="41.38" fill="#27cf6d"/><path d="M39.645,58.333H1.385V53.36h38.26ZM2.01,57.708H39.018V53.989H2.01Z"/><rect x="5.296" y="62.791" width="30.436" height="6.147" fill="#fff"/><rect x="5.296" y="73.436" width="30.436" height="6.147" fill="#fff"/><rect x="5.296" y="83.931" width="30.436" height="6.147" fill="#fff"/><path d="M57.329,17.828v52.7a2.12,2.12,0,0,0,2.12,2.12h70.2a2.12,2.12,0,0,0,2.12-2.12V16a2.119,2.119,0,0,0-2.121-2.119h-.055l-70.2,1.832A2.12,2.12,0,0,0,57.329,17.828Z" fill="#6987f3"/><path d="M125.5,27.049c-.026.055-.894-.448-2.6-.986a16.7,16.7,0,0,0-7.447-.553,16.3,16.3,0,0,0-4.906,1.579,23.164,23.164,0,0,0-4.83,3.474c-1.583,1.4-3.155,2.985-4.969,4.452A17.159,17.159,0,0,1,94.4,38.448a9.615,9.615,0,0,1-3.7.223,11.974,11.974,0,0,1-3.432-1.06,59.564,59.564,0,0,1-5.755-3.422,17.953,17.953,0,0,0-5.406-2.424,16.1,16.1,0,0,0-5.143-.394,16.56,16.56,0,0,0-7.1,2.318c-1.523.931-2.241,1.632-2.282,1.582a3.478,3.478,0,0,1,.515-.507,12.328,12.328,0,0,1,1.653-1.257,16.2,16.2,0,0,1,12.463-2.18,18.239,18.239,0,0,1,5.564,2.435,61.649,61.649,0,0,0,5.71,3.361,9.78,9.78,0,0,0,6.773.792A16.726,16.726,0,0,0,100.4,34.6c1.785-1.434,3.364-3.011,4.971-4.411a23.242,23.242,0,0,1,4.96-3.5,16.469,16.469,0,0,1,5.063-1.556,16.285,16.285,0,0,1,7.57.735,13.169,13.169,0,0,1,1.908.821A3.588,3.588,0,0,1,125.5,27.049Z"/><path d="M133.252,76.672l-8.887,14.519-3.729-14.2ZM124.6,89.618l7.522-12.293-10.679.27Z"/><rect x="73.908" y="39.429" width="6.866" height="18.57" fill="#fff"/><rect x="103.043" y="39.429" width="6.866" height="18.57" fill="#fff"/><rect x="112.755" y="28.524" width="6.866" height="29.475" fill="#fff"/><rect x="65.022" y="52.153" width="6.866" height="6.249" fill="url(#a)"/><rect x="83.62" y="47.814" width="6.866" height="10.184" fill="#fff"/><rect x="93.331" y="45.477" width="6.866" height="12.522" fill="#fff"/><rect x="49.225" y="51.996" width="33.584" height="37.632" fill="#fff"/><rect x="49.225" y="51.996" width="33.584" height="4.348" fill="#6987f3"/><path d="M60.485,83.335c-.155,0-.308,0-.462-.015a6.575,6.575,0,0,1-6.088-5.969l.625-.018A5.926,5.926,0,0,0,60.066,82.7a7.787,7.787,0,0,0,6.812-3.676,14.452,14.452,0,0,1-4.786-4.349A7.894,7.894,0,0,1,60.5,69.14a4.125,4.125,0,0,1,4.231-3.6c1.422.168,3.2,1.463,3.945,4.594a12.322,12.322,0,0,1-.931,8.655,14.8,14.8,0,0,0,12.187.741l.235.579a15.445,15.445,0,0,1-12.739-.785A8.518,8.518,0,0,1,60.485,83.335Zm3.875-17.2a3.65,3.65,0,0,0-3.243,3.1,7.3,7.3,0,0,0,1.491,5.076,13.836,13.836,0,0,0,4.588,4.17,11.7,11.7,0,0,0,.872-8.214c-.437-1.846-1.561-3.9-3.41-4.117a2.7,2.7,0,0,0-.3-.011Z" fill="#6987f3"/><rect x="20.289" y="35.354" width="41.381" height="44.229" fill="#6987f3"/><rect x="20.289" y="35.354" width="41.381" height="4.348" fill="#27cf6d"/><path d="M25.034,37.528a1.023,1.023,0,1,1-1.023-1.023h0A1.023,1.023,0,0,1,25.034,37.528Z" fill="#ff8a5b"/><path d="M28.359,37.528a1.023,1.023,0,1,1-1.023-1.023h0A1.023,1.023,0,0,1,28.359,37.528Z" fill="#fff"/><path d="M31.684,37.528a1.023,1.023,0,1,1-1.023-1.023h0A1.023,1.023,0,0,1,31.684,37.528Z" fill="#fff"/><path d="M37.831,72.249a10.658,10.658,0,1,1,10.658-10.66A10.657,10.657,0,0,1,37.831,72.249Zm0-20.69A10.033,10.033,0,1,0,47.864,61.592v0A10.046,10.046,0,0,0,37.831,51.559Z"/><polygon points="40.979 60.092 44.878 43.9 56.122 55.894 40.979 60.092" fill="#fff"/><circle cx="14.106" cy="26.883" r="3.823" fill="#27cf6d"/><path d="M42.429,90.932a19.827,19.827,0,0,1-2.5,4.094H18.322a16.143,16.143,0,0,1-3.241-5.521c-.583-2.131-.14-4.7,1.641-6.014A4.131,4.131,0,0,1,23.3,86.67a14.817,14.817,0,0,1,3.949-9.209,10.035,10.035,0,0,1,9.34-2.865,9.877,9.877,0,0,1,6.677,6.7A13.878,13.878,0,0,1,42.429,90.932Z" fill="#fff"/><path d="M31.445,95.2l-.459-.425c.214-.231,5.295-5.665,9.048-4.61,1.429.4,2.456,1.676,3.06,3.8a23.571,23.571,0,0,1,2.44-4.546c2.512-3.6,5.59-5.368,8.9-5.111l-.049.623c-7.473-.58-11.024,10.09-11.059,10.2l-.6-.034c-.5-2.476-1.46-3.93-2.858-4.322C36.478,89.812,31.5,95.145,31.445,95.2Z"/><path d="M50.011,27.937l-15.4-7.254L48.326,15.43ZM36.2,20.742l13.038,6.14L47.808,16.3Z"/></svg>