<svg xmlns="http://www.w3.org/2000/svg" width="26" height="26" viewBox="0 0 26 26">
  <title>measure</title>
  <path d="M22.859,8.771l-5.63-5.63a.513.513,0,0,0-.71,0L3.149,16.511a.5.5,0,0,0,0,.71l5.63,5.63a.485.485,0,0,0,.35.15.469.469,0,0,0,.35-.15l13.38-13.37A.513.513,0,0,0,22.859,8.771Zm-2.33,1.62-2.82-2.82-.71.71,2.82,2.82-1.54,1.55-1.29-1.29-.71.7,1.29,1.29-1.55,1.55-2.82-2.82-.71.71,2.82,2.82-1.55,1.55-1.29-1.29-.7.7,1.29,1.29-1.55,1.55-2.82-2.82-.71.71,2.82,2.82-1.67,1.67-4.92-4.92L16.869,4.2l4.92,4.93Z" fill="#323232"/>
</svg>
