<svg xmlns="http://www.w3.org/2000/svg" width="26" height="26" viewBox="0 0 26 26">
  <title>note</title>
  <path d="M19.49,9.26a6.529,6.529,0,0,0-.26-1.61,5.093,5.093,0,0,0-.4-1,6.481,6.481,0,0,0-11.66,0,5.093,5.093,0,0,0-.4,1,6.529,6.529,0,0,0-.26,1.61,1.924,1.924,0,0,0-.01.24,6.488,6.488,0,0,0,.79,3.1c.08.14.16.28.24.41l4.34,7.52a1.413,1.413,0,0,0-.37.97,1.5,1.5,0,0,0,3,0,1.413,1.413,0,0,0-.37-.97l4.34-7.52.24-.41a6.488,6.488,0,0,0,.79-3.1A1.924,1.924,0,0,0,19.49,9.26ZM13.27,20.03a1.231,1.231,0,0,0-.54,0L9.96,15.24l-1.8-3.12h.01A5.4,5.4,0,0,1,7.5,9.5a5.185,5.185,0,0,1,.33-1.85,4.6,4.6,0,0,1,.48-1,5.475,5.475,0,0,1,9.38,0,4.6,4.6,0,0,1,.48,1A5.185,5.185,0,0,1,18.5,9.5a5.455,5.455,0,0,1-.68,2.64l.01.01-1.79,3.09ZM13,8a1.5,1.5,0,1,1-1.5,1.5A1.5,1.5,0,0,1,13,8Z" fill="#323232"/>
</svg>
