<svg xmlns="http://www.w3.org/2000/svg" width="26" height="26" viewBox="0 0 26 26">
  <title>open-OHLC-panel</title>
  <path d="M18.89,15.19l.88.47-.07.11a2.114,2.114,0,0,1-1.86,1.03,2.462,2.462,0,0,1-1.72-.66,2.411,2.411,0,0,1,1.72-4.11,2.135,2.135,0,0,1,1.86,1.04l.07.11-.88.47-.06-.11a1.164,1.164,0,0,0-.99-.58,1.375,1.375,0,0,0-1.39,1.46,1.372,1.372,0,0,0,1.39,1.45,1.143,1.143,0,0,0,.99-.58Zm-5.66.61V12.11H12.22v4.62h2.94V15.8Zm-2.9-7.41a2.351,2.351,0,0,1-2.41,2.44A2.346,2.346,0,0,1,5.51,8.39,2.338,2.338,0,0,1,7.92,5.96,2.343,2.343,0,0,1,10.33,8.39Zm-1.05,0a1.366,1.366,0,1,0-2.72,0,1.366,1.366,0,1,0,2.72,0Zm4.67-2.36V7.86H11.88V6.03H10.85v4.72h1.03V8.8h2.07v1.95h1.04V6.03Zm8.52-.61V17.8a1.5,1.5,0,0,1-1.5,1.5H9.31L4.27,22.02a.532.532,0,0,1-.24.06A.607.607,0,0,1,3.77,22a.491.491,0,0,1-.24-.42V5.42a1.5,1.5,0,0,1,1.5-1.5H20.97A1.5,1.5,0,0,1,22.47,5.42Zm-1,0a.508.508,0,0,0-.5-.5H5.03a.508.508,0,0,0-.5.5V20.74L7.21,19.3l1.86-1h11.9a.515.515,0,0,0,.5-.5Z" fill="#323232"/>
</svg>
