<svg xmlns="http://www.w3.org/2000/svg" width="26" height="26" viewBox="0 0 26 26">
  <title>options</title>
  <path d="M23,10.6H20.63a7.323,7.323,0,0,0-.54-1.29l1.68-1.68a.5.5,0,0,0,0-.71L19.08,4.23a.513.513,0,0,0-.71,0L16.69,5.91a7.325,7.325,0,0,0-1.29-.54V3a.5.5,0,0,0-.5-.5H11.1a.5.5,0,0,0-.5.5V5.37a7.325,7.325,0,0,0-1.29.54L7.63,4.23a.513.513,0,0,0-.71,0L4.23,6.92a.491.491,0,0,0-.15.36.469.469,0,0,0,.15.35L5.91,9.31a7.323,7.323,0,0,0-.54,1.29H3a.5.5,0,0,0-.5.5v3.8a.5.5,0,0,0,.5.5H5.37a7.326,7.326,0,0,0,.54,1.29L4.23,18.37a.469.469,0,0,0-.15.35.491.491,0,0,0,.15.36l2.69,2.69a.508.508,0,0,0,.36.15.5.5,0,0,0,.35-.15l1.68-1.68a7.321,7.321,0,0,0,1.29.54V23a.5.5,0,0,0,.5.5h3.8a.5.5,0,0,0,.5-.5V20.63a7.321,7.321,0,0,0,1.29-.54l1.68,1.68a.5.5,0,0,0,.35.15.508.508,0,0,0,.36-.15l2.69-2.69a.5.5,0,0,0,0-.71l-1.68-1.68a7.326,7.326,0,0,0,.54-1.29H23a.5.5,0,0,0,.5-.5V11.1A.5.5,0,0,0,23,10.6Zm-.5,3.8H19.86a6.754,6.754,0,0,1-.29,1,2.583,2.583,0,0,1-.23.54,4.757,4.757,0,0,1-.5.91l.72.72,1.15,1.15-1.99,1.99-1.87-1.87a4.754,4.754,0,0,1-.91.5,2.578,2.578,0,0,1-.54.23,6.756,6.756,0,0,1-1,.29V22.5H11.6V19.86a6.756,6.756,0,0,1-1-.29,2.578,2.578,0,0,1-.54-.23,4.754,4.754,0,0,1-.91-.5L7.28,20.71,5.29,18.72l1.15-1.15.72-.72a4.757,4.757,0,0,1-.5-.91,2.583,2.583,0,0,1-.23-.54,6.754,6.754,0,0,1-.29-1H3.5V11.6H6.14a6.756,6.756,0,0,1,.29-1,2.581,2.581,0,0,1,.23-.54,4.759,4.759,0,0,1,.5-.91L5.29,7.28,7.28,5.29,8.43,6.44l.72.72a4.754,4.754,0,0,1,.91-.5,2.581,2.581,0,0,1,.54-.23,6.748,6.748,0,0,1,1-.29V3.5h2.8V6.14a6.748,6.748,0,0,1,1,.29,2.581,2.581,0,0,1,.54.23,4.754,4.754,0,0,1,.91.5l.72-.72,1.15-1.15,1.99,1.99L18.84,9.15a4.759,4.759,0,0,1,.5.91,2.581,2.581,0,0,1,.23.54,6.756,6.756,0,0,1,.29,1H22.5ZM13,16.833A3.833,3.833,0,1,1,16.833,13,3.838,3.838,0,0,1,13,16.833Zm0-6.667A2.833,2.833,0,1,0,15.833,13,2.837,2.837,0,0,0,13,10.167Z" fill="#323232"/>
</svg>
