<svg xmlns="http://www.w3.org/2000/svg" width="14" height="14" viewBox="0 0 14 14">
  <title>tcdPanel-options</title>
  <path d="M9.38,7A2.38,2.38,0,1,1,7,4.62,2.386,2.386,0,0,1,9.38,7ZM14,12V2a2.006,2.006,0,0,0-2-2H2A2.006,2.006,0,0,0,0,2V12a2.006,2.006,0,0,0,2,2H12A2.006,2.006,0,0,0,14,12ZM3.04,5.82a3.8,3.8,0,0,1,.33-.78l-.54-.7a.683.683,0,0,1-.19-.47.651.651,0,0,1,.21-.49l.53-.54a.7.7,0,0,1,.49-.2.708.708,0,0,1,.48.19l.69.53a4.41,4.41,0,0,1,.78-.32l.11-.87a.7.7,0,0,1,.7-.67h.75a.694.694,0,0,1,.69.67l.12.87a4.643,4.643,0,0,1,.77.32l.7-.53a.688.688,0,0,1,.96.01l.54.54a.688.688,0,0,1,.01.96l-.53.7a4.41,4.41,0,0,1,.32.78l.87.11a.694.694,0,0,1,.67.69v.76a.694.694,0,0,1-.67.69l-.87.11a3.8,3.8,0,0,1-.33.78l.54.7a.683.683,0,0,1,.19.47.651.651,0,0,1-.21.49l-.53.54a.688.688,0,0,1-.96.01l-.7-.53a4.41,4.41,0,0,1-.78.32l-.11.87a.694.694,0,0,1-.69.67H6.62a.694.694,0,0,1-.69-.67l-.11-.87a4.41,4.41,0,0,1-.78-.32l-.7.53a.665.665,0,0,1-.47.19.68.68,0,0,1-.49-.2l-.53-.54a.651.651,0,0,1-.21-.49.683.683,0,0,1,.19-.47l.54-.7a3.8,3.8,0,0,1-.33-.78l-.87-.11a.694.694,0,0,1-.67-.69V6.62a.694.694,0,0,1,.67-.69Z" fill="#323232"/>
</svg>
