<svg xmlns="http://www.w3.org/2000/svg" width="14" height="14" viewBox="0 0 14 14">
  <title>tcdPanel-toggle </title>
  <path d="M7,4.91a2.038,2.038,0,0,1,.89.2L5.11,7.89A2.038,2.038,0,0,1,4.91,7,2.1,2.1,0,0,1,7,4.91ZM9.09,7a2.038,2.038,0,0,0-.2-.89L6.11,8.89a2.038,2.038,0,0,0,.89.2A2.1,2.1,0,0,0,9.09,7ZM2.5,12.2A.738.738,0,0,1,2,12a.719.719,0,0,1,0-1L3.5,9.5A5.711,5.711,0,0,1,1.41,7.28L1.27,7l.14-.28A6.286,6.286,0,0,1,7,3.5a6.411,6.411,0,0,1,2.14.36h.01L11,2a.707.707,0,0,1,1,1L10.5,4.5a5.711,5.711,0,0,1,2.09,2.22l.14.28-.14.28A6.286,6.286,0,0,1,7,10.5a6.411,6.411,0,0,1-2.14-.36L3,12A.738.738,0,0,1,2.5,12.2ZM12,0H2A2.006,2.006,0,0,0,0,2V12a2.006,2.006,0,0,0,2,2H12a2.006,2.006,0,0,0,2-2V2A2.006,2.006,0,0,0,12,0Z" fill="#323232"/>
</svg>
