<svg xmlns="http://www.w3.org/2000/svg" width="14" height="14" viewBox="0 0 14 14">
  <title>tcdPanel-up</title>
  <path d="M14,2V12a2.006,2.006,0,0,1-2,2H2a2.006,2.006,0,0,1-2-2V2A2.006,2.006,0,0,1,2,0H12A2.006,2.006,0,0,1,14,2ZM11.21,7.71a1.008,1.008,0,0,0,0-1.42l-3.5-3.5a.988.988,0,0,0-.32-.21.326.326,0,0,0-.14-.04.852.852,0,0,0-.5,0,.326.326,0,0,0-.14.04.988.988,0,0,0-.32.21c-.01.01-.02.02-.02.03-.02.01-.03.03-.04.04L2.79,6.29a1.008,1.008,0,0,0,0,1.42,1.014,1.014,0,0,0,1.42,0L6,5.91V10.5a1,1,0,0,0,2,0V5.92L9.79,7.71a1.014,1.014,0,0,0,1.42,0Z" fill="#323232"/>
</svg>
