<svg xmlns="http://www.w3.org/2000/svg" width="14" height="14" viewBox="0 0 14 14">
  <title>tcdPanel-down</title>
  <path d="M0,12V2A2.006,2.006,0,0,1,2,0H12a2.006,2.006,0,0,1,2,2V12a2.006,2.006,0,0,1-2,2H2A2.006,2.006,0,0,1,0,12ZM2.79,6.29a1.008,1.008,0,0,0,0,1.42l3.5,3.5a.988.988,0,0,0,.32.21.326.326,0,0,0,.14.04.852.852,0,0,0,.5,0,.326.326,0,0,0,.14-.04.988.988,0,0,0,.32-.21c.01-.01.02-.02.02-.03.02-.01.03-.03.04-.04l3.44-3.43a1.008,1.008,0,0,0,0-1.42,1.014,1.014,0,0,0-1.42,0L8,8.09V3.5a1,1,0,0,0-2,0V8.08L4.21,6.29a1.014,1.014,0,0,0-1.42,0Z" fill="#323232"/>
</svg>
