<svg xmlns="http://www.w3.org/2000/svg" width="14" height="14" viewBox="0 0 14 14">
  <title>tcdPanel-close</title>
  <path d="M10.5,11.5a1.024,1.024,0,0,0,.71-.29,1.008,1.008,0,0,0,0-1.42L8.42,7l2.79-2.79A1,1,0,1,0,9.79,2.79L7,5.58,4.21,2.79A1,1,0,0,0,2.79,4.21L5.58,7,2.79,9.79a1.008,1.008,0,0,0,0,1.42,1.014,1.014,0,0,0,1.42,0L7,8.42l2.79,2.79A1.024,1.024,0,0,0,10.5,11.5ZM2,0H12a2.006,2.006,0,0,1,2,2V12a2.006,2.006,0,0,1-2,2H2a2.006,2.006,0,0,1-2-2V2A2.006,2.006,0,0,1,2,0Z" fill="#323232"/>
</svg>
