<svg xmlns="http://www.w3.org/2000/svg" viewBox="0 0 134.515 87.652"><title>Personal-User</title><path d="M14.816,20.028a.964.964,0,1,1,1.363,0A.964.964,0,0,1,14.816,20.028ZM12.942,31.443a.964.964,0,1,1,1.363,0A.963.963,0,0,1,12.942,31.443ZM19.587,24.8a.964.964,0,1,1,1.363,0A.963.963,0,0,1,19.587,24.8Zm-5.709.938a.964.964,0,1,1,1.363,0A.964.964,0,0,1,13.878,25.736Zm12.353-7.582a.964.964,0,1,1,1.363,0A.964.964,0,0,1,26.231,18.154Zm-5.708.937a.964.964,0,1,1,1.363,0A.964.964,0,0,1,20.523,19.091ZM11.068,42.858a.964.964,0,1,1,1.363,0A.963.963,0,0,1,11.068,42.858Zm6.644-6.644a.964.964,0,1,1,1.363,0A.964.964,0,0,1,17.712,36.214ZM12,37.152a.964.964,0,1,1,1.363,0A.966.966,0,0,1,12,37.152Zm12.353-7.583a.964.964,0,1,1,1.363,0A.964.964,0,0,1,24.357,29.569Zm-5.708.938a.964.964,0,1,1,1.363,0A.963.963,0,0,1,18.649,30.507ZM31,22.924a.964.964,0,1,1,1.363,0A.963.963,0,0,1,31,22.924Zm-5.708.938a.964.964,0,1,1,1.363,0A.963.963,0,0,1,25.294,23.862ZM37.647,16.28a.964.964,0,1,1,1.363,0A.963.963,0,0,1,37.647,16.28Zm-5.709.937a.964.964,0,1,1,1.363,0A.964.964,0,0,1,31.938,17.217ZM22.483,40.984a.964.964,0,1,1,1.363,0A.964.964,0,0,1,22.483,40.984Zm-5.708.938a.964.964,0,1,1,1.363,0A.963.963,0,0,1,16.775,41.922ZM29.128,34.34a.964.964,0,1,1,1.363,0A.963.963,0,0,1,29.128,34.34Zm-5.709.937a.964.964,0,1,1,1.363,0A.964.964,0,0,1,23.419,35.277ZM35.772,27.7a.964.964,0,1,1,1.363,0A.964.964,0,0,1,35.772,27.7Zm-5.708.938a.964.964,0,1,1,1.363,0A.964.964,0,0,1,30.064,28.633Zm6.645-6.645a.964.964,0,1,1,1.363,0A.963.963,0,0,1,36.709,21.988ZM33.9,39.11a.964.964,0,1,1,1.363,0A.964.964,0,0,1,33.9,39.11Zm-5.708.938a.964.964,0,1,1,1.363,0A.964.964,0,0,1,28.19,40.048ZM34.835,33.4a.964.964,0,1,1,1.363,0A.963.963,0,0,1,34.835,33.4Z" fill="#fff"/><path d="M110.511,47.281a.964.964,0,1,1,.964.964A.965.965,0,0,1,110.511,47.281Zm-9.4,6.747a.964.964,0,1,1,.964.963A.964.964,0,0,1,101.114,54.028Zm9.4,0a.964.964,0,1,1,.964.963A.964.964,0,0,1,110.511,54.028Zm-4.7-3.374a.964.964,0,1,1,.964.964A.963.963,0,0,1,105.812,50.654Zm14.1,3.374a.964.964,0,1,1,.964.963A.964.964,0,0,1,119.908,54.028Zm-4.7-3.374a.964.964,0,1,1,.964.964A.963.963,0,0,1,115.209,50.654ZM91.717,60.774a.964.964,0,1,1,.964.964A.965.965,0,0,1,91.717,60.774Zm9.4,0a.964.964,0,1,1,.964.964A.965.965,0,0,1,101.114,60.774Zm-4.7-3.373a.964.964,0,1,1,.964.964A.964.964,0,0,1,96.415,57.4Zm14.1,3.373a.964.964,0,1,1,.964.964A.965.965,0,0,1,110.511,60.774Zm-4.7-3.373a.964.964,0,1,1,.964.964A.964.964,0,0,1,105.812,57.4Zm14.1,3.373a.964.964,0,1,1,.964.964A.965.965,0,0,1,119.908,60.774Zm-4.7-3.373a.964.964,0,1,1,.964.964A.964.964,0,0,1,115.209,57.4Zm14.1,3.373a.964.964,0,1,1,.964.964A.965.965,0,0,1,129.305,60.774Zm-4.7-3.373a.964.964,0,1,1,.964.964A.964.964,0,0,1,124.606,57.4Zm-23.492,10.12a.964.964,0,1,1,.964.964A.965.965,0,0,1,101.114,67.521Zm-4.7-3.373a.964.964,0,1,1,.964.963A.963.963,0,0,1,96.415,64.148Zm14.1,3.373a.964.964,0,1,1,.964.964A.965.965,0,0,1,110.511,67.521Zm-4.7-3.373a.964.964,0,1,1,.964.963A.963.963,0,0,1,105.812,64.148Zm14.1,3.373a.964.964,0,1,1,.964.964A.965.965,0,0,1,119.908,67.521Zm-4.7-3.373a.964.964,0,1,1,.964.963A.963.963,0,0,1,115.209,64.148Zm9.4,0a.964.964,0,1,1,.964.963A.963.963,0,0,1,124.606,64.148Zm-14.095,10.12a.964.964,0,1,1,.964.963A.964.964,0,0,1,110.511,74.268Zm-4.7-3.374a.964.964,0,1,1,.964.964A.964.964,0,0,1,105.812,70.894Zm9.4,0a.964.964,0,1,1,.964.964A.964.964,0,0,1,115.209,70.894Z" fill="#fff"/><path d="M19.258,86.8C7.7,75.278-.562,55.429.03,40.63.68,24.356,10.358,9.27,24.111,3.09,38.77-3.5,57.7.747,68.137,12.961A75.346,75.346,0,0,1,76.1,25.175c1.614,2.866,3.283,5.828,5.174,8.566C83.93,37.584,91.167,46.5,101.05,46.064a31.565,31.565,0,0,0,7.712-1.648,30.112,30.112,0,0,1,8.272-1.678,17.644,17.644,0,0,1,16.182,11.285c3,8,1.054,22.2-8.462,32.768l-.371-.334c9.383-10.42,11.313-24.395,8.365-32.255a17.141,17.141,0,0,0-15.716-10.964,29.752,29.752,0,0,0-8.126,1.657,31.99,31.99,0,0,1-7.835,1.669c-.23.01-.461.014-.687.015-9.775,0-16.88-8.731-19.522-12.554-1.9-2.756-3.578-5.73-5.2-8.6a74.969,74.969,0,0,0-7.907-12.133C57.455,1.234,38.78-2.955,24.316,3.546,10.732,9.65,1.173,24.561.53,40.649c-.588,14.675,7.616,34.364,19.081,45.8Z" fill="#fff"/><path d="M29.385,32.734a4.407,4.407,0,1,0,0,.008Z" fill="#fff"/><path d="M119.482,66.866l-.4-.359,2.344-11.738.581-.087,5.07,9.376-.18.447Zm2.386-11.125L119.8,66.11l6.55-2.086Z"/><polygon points="52.596 48.353 48.741 60.189 40.478 51.926 52.596 48.353" fill="#27cf6d"/><path d="M35.1,23.065c-.079,0-.158,0-.238-.007a3.875,3.875,0,1,1,.238.007Zm-.01-7.129a3.254,3.254,0,1,0,2.438,1.1h0a3.232,3.232,0,0,0-2.238-1.089A1.49,1.49,0,0,0,35.087,15.936Z"/><path d="M114.641,46.988A29.38,29.38,0,0,1,85.062,76.16c-.938,0-1.867-.042-2.78-.127A29.356,29.356,0,0,1,55.494,47.972q-.018-.492-.018-.984,0-1.1.083-2.192a29.66,29.66,0,0,1,57.9-5.988c.063.217.126.432.186.656q.329,1.227.556,2.494A28.954,28.954,0,0,1,114.641,46.988Z" fill="#fff"/><path d="M60.627,36.205l-.542-.252A27.709,27.709,0,0,1,85.037,19.775,27.086,27.086,0,0,1,98.71,23.486l-.3.517a26.484,26.484,0,0,0-13.371-3.63A27.113,27.113,0,0,0,60.627,36.205Z"/><path d="M114.641,47.4a29.583,29.583,0,0,1-59.149,1,28.129,28.129,0,0,0,10-1.113c3.455-1.189,6.413-3.465,9.594-5.266C83.633,37.2,93.832,35.9,103.6,36.858a36.623,36.623,0,0,1,9.868,2.233,29.591,29.591,0,0,1,1.182,8.3Z" fill="#6987f3" opacity="0.4" style="isolation:isolate"/><path d="M114.641,47.4A29.582,29.582,0,0,1,85.062,76.983c-.938,0-1.867-.042-2.78-.128A29.586,29.586,0,0,1,65.811,51.322a28.129,28.129,0,0,0,10-1.113c3.456-1.189,6.412-3.465,9.593-5.266,8.469-4.777,18.56-6.092,28.244-5.188q.329,1.244.555,2.529A29.849,29.849,0,0,1,114.641,47.4Z" fill="#6987f3" opacity="0.4" style="isolation:isolate"/><path d="M114.641,47.4a29.583,29.583,0,1,1-59.166,0q0-1.119.083-2.223a23.488,23.488,0,0,1,6.755,1.88c3.469,1.557,6.555,3.949,10.164,5.15a28.522,28.522,0,0,0,8.2,1.17A28.6,28.6,0,0,0,90.94,52.271c3.455-1.189,6.411-3.465,9.594-5.258A42.063,42.063,0,0,1,114.2,42.29,29.777,29.777,0,0,1,114.641,47.4Z" fill="#6987f3"/><path d="M80.523,62.751c3.328-.614,3.339-5.464,3.339-5.464-.147.693-.488.76-2.221,1.316a5.759,5.759,0,0,0-2.779,2.348c-5.179-5.905-9.632.525-9.632.525a6.141,6.141,0,0,0,3.1,2.4c-.2.5-.422,1.2-.167,1.454.3.292,1.1-.608,1.527-1.147.128.015.257.028.386.037a7.6,7.6,0,0,1,.858,2.573s1.413-.108,1.235-2.684a10.635,10.635,0,0,0,2.6-.774s-.146,4.018,1.024,4.229A5.007,5.007,0,0,1,82.11,69.2C83.846,65.81,80.523,62.751,80.523,62.751Z" fill="#fff"/><path d="M103.277,57.192c3.318.664,5.13-3.835,5.13-3.835-.387.585-.731.525-2.549.393a5.732,5.732,0,0,0-3.451,1.144c-2.62-7.4-9.14-3.071-9.14-3.071A6.14,6.14,0,0,0,95.256,55.2c-.376.39-.835.957-.693,1.288.164.387,1.239-.158,1.838-.5.114.063.23.122.346.177a7.623,7.623,0,0,1-.157,2.709s1.353.423,2.141-2.036a10.6,10.6,0,0,0,2.687.246s-1.629,3.676-.614,4.309a4.971,4.971,0,0,1,1.545,2.377C105.223,61.261,103.277,57.192,103.277,57.192Z" fill="#fff"/><path d="M38.969,86.422c.012-6.551,3.434-9.264,6.085-9.739A7.2,7.2,0,0,1,52.2,80.236c2.53-5.136,5.934-9.942,10.459-11.9a9.478,9.478,0,0,1,12.477,4.9c.03.068.058.135.086.2,1.659,3.891,1.178,8.622.651,12.993" fill="#27cf6d"/><path d="M78.91,87.652l-.369-1.13c-.037-.115-3.846-11.554-11.863-10.932l-.049-.623c7.062-.551,10.986,7.548,12.142,10.394.642-2.3,1.743-3.687,3.282-4.119,4-1.124,9.436,4.682,9.664,4.93l-.458.424c-.054-.058-5.4-5.773-9.038-4.752-1.5.423-2.54,1.985-3.076,4.644Z" fill="#fff"/><rect x="6.078" y="53.911" width="29.014" height="32.511" fill="#fff"/><rect x="6.078" y="53.911" width="29.014" height="3.756" fill="#6987f3"/><path d="M12.187,69.122a2.392,2.392,0,0,0-1.525,1.073,2.643,2.643,0,0,0,1.085,3.314,5.453,5.453,0,0,0,3.93.455,10.4,10.4,0,0,0,4.2-1.926,8.776,8.776,0,0,0-5.393-2.979A5.542,5.542,0,0,0,12.187,69.122Z" fill="#27cf6d"/><path d="M27.933,75.077A2.387,2.387,0,0,0,29.454,74a2.644,2.644,0,0,0-1.086-3.315,5.463,5.463,0,0,0-3.93-.454,10.4,10.4,0,0,0-4.2,1.926,8.779,8.779,0,0,0,5.392,2.979A5.519,5.519,0,0,0,27.933,75.077Z" fill="#27cf6d"/><path d="M25.037,65.071a2.4,2.4,0,0,0-.663-1.742,2.644,2.644,0,0,0-3.481.224,5.456,5.456,0,0,0-1.421,3.692,10.411,10.411,0,0,0,.817,4.544,8.771,8.771,0,0,0,4.231-4.478A5.509,5.509,0,0,0,25.037,65.071Z" fill="#27cf6d"/><path d="M15.336,78.83A2.387,2.387,0,0,0,16,80.572a2.644,2.644,0,0,0,3.481-.223A5.456,5.456,0,0,0,20.9,76.656a10.383,10.383,0,0,0-.818-4.544,8.785,8.785,0,0,0-4.23,4.478A5.529,5.529,0,0,0,15.336,78.83Z" fill="#27cf6d"/><path d="M44.585,42.235H37.162V23.1h7.425Zm-6.865-.561h6.305V23.665h-6.3Z"/><path d="M54.3,42.235H46.871V12.2H54.3Zm-6.866-.561h6.306V12.761H47.431Z"/><rect x="35.44" y="27.384" width="6.866" height="18.57" fill="#6987f3"/><rect x="45.151" y="16.48" width="6.866" height="29.475" fill="#6987f3"/><rect x="25.728" y="33.432" width="6.866" height="12.522" fill="#6987f3"/><path d="M120.045,84.706c-.875-1.622.292-3.508,1.066-4.488l.308-.385c.84-1.044,1.709-2.123,1.689-3.37-.03-1.878-1.98-3.086-3.7-4.152l-.357-.221a20.732,20.732,0,0,1-3.824-3.074,5.815,5.815,0,0,1-1.212-1.624,6.624,6.624,0,0,1-.377-2.9c.081-3.108.235-6.25.455-9.338l.6.042c-.221,3.08-.374,6.212-.455,9.312a5.947,5.947,0,0,0,.32,2.625,5.223,5.223,0,0,0,1.09,1.452,20.055,20.055,0,0,0,3.722,2.994l.355.22c1.85,1.147,3.947,2.446,3.982,4.651.024,1.463-.955,2.681-1.82,3.755l-.305.381c-.683.865-1.721,2.512-1.008,3.833Z"/><path d="M110.884,55a3.394,3.394,0,0,1,1.692-2.779l.76,1.505-.023-1.819A3.4,3.4,0,1,1,110.884,55Z" fill="#27cf6d"/><path d="M116.945,78.007a3.4,3.4,0,0,0,6.416-1.4,3.346,3.346,0,0,0-.227-1.378,3.4,3.4,0,0,0-6.369.036l2.125,1.729-2.336-.541A3.329,3.329,0,0,0,116.945,78.007Z" fill="#27cf6d"/><path d="M118.621,71.408a3.41,3.41,0,0,0,3.555-3.236,3.319,3.319,0,0,0-.293-1.549A3.41,3.41,0,0,0,119.7,64.74l.016,1.4-.774-1.524h0a3.411,3.411,0,0,0-3.552,3.236,3.349,3.349,0,0,0,.145,1.16A3.413,3.413,0,0,0,118.621,71.408Z" fill="#27cf6d"/><path d="M110.721,65.913a3.395,3.395,0,1,0-1.5-6.361l.6,1.646-1.235-1.187a3.4,3.4,0,0,0,2.138,5.9Z" fill="#27cf6d"/><path d="M125.433,83.022s-2.683-.084-3.491-.659-4.128-1.263-4.321-.339-4.031,4.592-1,4.615,7.037-.471,7.844-.962S125.433,83.022,125.433,83.022Z" fill="#6987f3"/></svg>