<svg xmlns="http://www.w3.org/2000/svg" width="26" height="26" viewBox="0 0 26 26">
  <title>polygon</title>
  <path d="M22.5,20.59V5.41A1.5,1.5,0,1,0,20.5,4a1.372,1.372,0,0,0,.15.64l-7.01,7.01a1.441,1.441,0,0,0-1.28,0L5.35,4.64A1.372,1.372,0,0,0,5.5,4a1.5,1.5,0,1,0-2,1.41V20.59A1.5,1.5,0,1,0,5.41,22.5H20.59a1.5,1.5,0,1,0,1.91-1.91Zm-18,0V5.41a.423.423,0,0,0,.14-.06l7.01,7.01a1.372,1.372,0,0,0-.15.64,1.5,1.5,0,0,0,3,0,1.372,1.372,0,0,0-.15-.64l7.01-7.01a.423.423,0,0,0,.14.06V20.59a1.468,1.468,0,0,0-.91.91H5.41A1.468,1.468,0,0,0,4.5,20.59Z" fill="#323232"/>
</svg>
