<svg xmlns="http://www.w3.org/2000/svg" width="26" height="26" viewBox="0 0 26 26">
  <title>priceStyle-line</title>
  <path d="M4.455,22.633l-.993-.113c.72-6.307,1.768-9.2,3.4-9.378,1.069-.11,1.793.97,2.5,2.019.549.821,1.17,1.75,1.766,1.75h.025c1.379-.059,2.546-4.335,3.4-7.458,1.058-3.878,1.722-6.084,2.984-6.084h.029c1.422.038,2.1,2.934,3.288,8.479a102.528,102.528,0,0,1,1.7,10.678l-.994.1a101.588,101.588,0,0,0-1.68-10.572c-.645-3.023-1.619-7.591-2.337-7.688-.582.068-1.482,3.373-2.021,5.347-1.086,3.984-2.209,8.1-4.318,8.194-1.17.054-1.962-1.142-2.665-2.193-.512-.766-1.119-1.653-1.555-1.58C6.6,14.176,5.336,14.907,4.455,22.633Z" fill="#323232"/>
</svg>
