<svg xmlns="http://www.w3.org/2000/svg" width="26" height="26" viewBox="0 0 26 26">
  <title>priceStyle-point-figure</title>
  <path d="M13,22.928a3,3,0,1,1,3-3A3,3,0,0,1,13,22.928Zm0-5a2,2,0,1,0,2,2A2,2,0,0,0,13,17.928Zm0-2a3,3,0,1,1,3-3A3,3,0,0,1,13,15.928Zm0-5a2,2,0,1,0,2,2A2,2,0,0,0,13,10.928ZM8.85,3.782l-.7-.71L6,5.222,3.85,3.072l-.7.71L5.3,5.932,3.15,8.072l.7.71L6,6.632l2.15,2.15.7-.71L6.71,5.932Zm-.7,6.29L6,12.222l-2.15-2.15-.7.71,2.15,2.15-2.15,2.14.7.71L6,13.632l2.15,2.15.7-.71-2.14-2.14,2.14-2.15Zm0,7L6,19.222l-2.15-2.15-.7.71,2.15,2.15-2.15,2.14.7.71L6,20.632l2.15,2.15.7-.71-2.14-2.14,2.14-2.15Zm14.7-13.29-.7-.71L20,5.222l-2.15-2.15-.7.71,2.15,2.15-2.15,2.14.7.71L20,6.632l2.15,2.15.7-.71-2.14-2.14Zm-.7,6.29L20,12.222l-2.15-2.15-.7.71,2.15,2.15-2.15,2.14.7.71L20,13.632l2.15,2.15.7-.71-2.14-2.14,2.14-2.15Z" fill="#323232"/>
</svg>
