<svg xmlns="http://www.w3.org/2000/svg" width="26" height="26" viewBox="0 0 26 26">
  <title>priceStyle-candles-volume</title>
  <path d="M9.5,15.5h-5a.575.575,0,0,0-.36.14A.575.575,0,0,0,4,16v7a.5.5,0,0,0,.5.5h5A.5.5,0,0,0,10,23V16A.5.5,0,0,0,9.5,15.5ZM5,16.5h.98L5,17.48Zm4,5.47-.53.53H5.64L9,19.14Zm0-4.25-4,4V18.9l2.4-2.4H9ZM21.5,2.5h-5A.5.5,0,0,0,16,3v7a.5.5,0,0,0-.5-.5h-2V6.14h-1V9.5h-2a.5.5,0,0,0-.5.5v6a.49.49,0,0,0,.28.45.545.545,0,0,0,.22.05h2v3.23h1V16.5h2A.5.5,0,0,0,16,16V13a.5.5,0,0,0,.5.5h5a.517.517,0,0,0,.32-.11l.07-.07A.517.517,0,0,0,22,13V3A.5.5,0,0,0,21.5,2.5ZM11,10.5h.99l-.99.98Zm4,5H12.64L15,13.13Zm0-3.77L11.22,15.5H11V12.9l2.39-2.4H15ZM17,3.5h1.99L17,5.49Zm4,9H19.88L21,11.38Zm0-2.53L18.47,12.5H17V11.13l4-4Zm0-4.24-4,4V6.89L20.39,3.5H21Z" fill="#323232"/>
</svg>
