<svg xmlns="http://www.w3.org/2000/svg" width="26" height="26" viewBox="0 0 26 26">
  <title>priceStyle-candles</title>
  <path d="M22,5.42H20V2.5H19V5.42H17a.5.5,0,0,0-.5.5v14a.5.5,0,0,0,.5.5h2V23.5h1V20.42h2a.5.5,0,0,0,.5-.5v-14A.5.5,0,0,0,22,5.42Zm-.5,14h-4v-13h4ZM9,9.42H7V6.06H6V9.42H4a.5.5,0,0,0-.5.5v10a.5.5,0,0,0,.5.5H6V23.5H7V20.42H9a.5.5,0,0,0,.5-.5v-10A.5.5,0,0,0,9,9.42Zm-.5,1v1.77l-4,4.01V13.72l3.3-3.3Zm-4,0H6.38L4.5,12.3Zm0,9V17.6l4-3.99v2.47L5.16,19.42Zm4,0H6.58L8.5,17.5Z" fill="#323232"/>
</svg>
