<svg xmlns="http://www.w3.org/2000/svg" width="26" height="26" viewBox="0 0 26 26">
  <title>priceStyle-mountain</title>
  <path d="M22.42,21.5v-.05c-.05-.42-.1-.85-.15-1.27-.11-.83-.22-1.65-.35-2.47-.06-.41-.13-.83-.2-1.23q-.195-1.2-.42-2.4c-.08-.39-.15-.78-.24-1.17-.06-.37-.14-.71-.21-1.06-.1-.45-.19-.89-.28-1.29s-.17-.78-.25-1.15c-.19-.85-.37-1.61-.56-2.29-.1-.4-.2-.76-.31-1.1a7.5,7.5,0,0,0-.86-1.96,1.611,1.611,0,0,0-.45-.48.99.99,0,0,0-.58-.22h-.03a1.043,1.043,0,0,0-.62.22A4.13,4.13,0,0,0,15.74,5.5c-.22.58-.44,1.28-.68,2.09-.16.57-.34,1.19-.52,1.87-.18.64-.37,1.36-.57,2.06s-.42,1.41-.65,2.06c-.64,1.83-1.37,3.3-2.17,3.33h-.03a1.128,1.128,0,0,1-.74-.39,6.2,6.2,0,0,1-.63-.8c-.13-.18-.26-.37-.39-.56a10.021,10.021,0,0,0-.79-1.08,2.9,2.9,0,0,0-.73-.68,1.545,1.545,0,0,0-.98-.26c-1.02.12-1.81,1.29-2.44,3.68v.01c-.14.54-.27,1.13-.4,1.79-.18.98-.34,2.08-.49,3.33-.02.11-.03.25-.05.37a1.51,1.51,0,0,1-.02.2l.25.02.25.04.32.04.18.02a.128.128,0,0,1,.01-.06.88.88,0,0,1,.02-.17l5.18-5.19a2.056,2.056,0,0,0,1.52.69,1.911,1.911,0,0,0,1.02-.4L7.14,22.58H8.56L19.72,11.41c.06.21.1.44.15.65.12.56.23,1.13.34,1.7l-8.82,8.82H12.8l7.63-7.63c.16.8.3,1.61.42,2.41l-5.22,5.22h1.41l4-3.99q.18,1.245.33,2.49l-1.5,1.5h1.42l.23-.23a1.784,1.784,0,0,1,.02.23.076.076,0,0,1,.01.04l.5-.04.37-.04.12-.01C22.5,22.19,22.47,21.84,22.42,21.5ZM6.97,14.14a.081.081,0,0,1,.11.02L6.05,15.19C6.46,14.3,6.81,14.16,6.97,14.14ZM4.7,20.78c.21-1.45.43-2.59.65-3.48l2.51-2.51a9.638,9.638,0,0,1,.67.93c.16.24.33.49.5.73ZM15.51,9.72c.29-1.08.7-2.55,1.09-3.68l1.3-1.29a11.224,11.224,0,0,1,.75,2.09l-3.24,3.24C15.44,9.96,15.48,9.84,15.51,9.72Zm-2.76,7.24a15.1,15.1,0,0,0,2.1-4.92l4.09-4.1c.19.75.37,1.54.53,2.31Z" fill="#323232"/>
</svg>
