<svg xmlns="http://www.w3.org/2000/svg" width="26" height="26" viewBox="0 0 26 26">
  <title>priceStyle-equi-volume-shadow</title>
  <path d="M9.5,15.5h-5A.5.5,0,0,0,4,16v7a.5.5,0,0,0,.5.5h5A.5.5,0,0,0,10,23V16A.5.5,0,0,0,9.5,15.5ZM5,16.5H9v1.23H5Zm4,6H5V18.73H9Zm12.5-20h-5A.5.5,0,0,0,16,3v7a.5.5,0,0,0-.5-.5h-5a.5.5,0,0,0-.5.5v6a.5.5,0,0,0,.5.5h5A.5.5,0,0,0,16,16V13a.5.5,0,0,0,.5.5h5A.5.5,0,0,0,22,13V3A.5.5,0,0,0,21.5,2.5ZM15,15.5H11V12.73h4Zm0-3.77H11V10.5h4Zm6,.77H17V10.73h4Zm0-2.77H17V3.5h4Z" fill="#323232"/>
</svg>
