<svg xmlns="http://www.w3.org/2000/svg" width="26" height="26" viewBox="0 0 26 26">
  <title>quadrant-lines</title>
  <path d="M22.292,4.5h-19v-1h19Zm-1.822,9H19.24c.76,3.17,1.4,5.88,1.89,8h1.16v1h-19v-1h.62c1.47-5.77,2.58-6.51,3.46-6.5,1.19.04,1.74,1.85,2.33,3.77.29.95.77,2.54,1.11,2.67.74-.23,1.74-4.97,2.36-7.94H5.53a1.5,1.5,0,1,1,0-1h7.85c1.09-5.21,1.67-7.31,2.86-7.31.87.02,1.15.71,2.75,7.31h1.48a1.5,1.5,0,1,1,0,1Zm-6.07-1h3.57a38.516,38.516,0,0,0-1.8-6.28C15.66,6.67,14.94,9.89,14.4,12.5Zm-4.78,9a13.946,13.946,0,0,1-.88-2.44C8.42,18,7.81,16.02,7.34,16c-.07.03-1,.12-2.4,5.5Zm8.59-8H14.19c-.86,4.14-1.46,6.73-2.19,8h8.1C19.61,19.37,18.98,16.66,18.21,13.5Z" fill="#323232"/>
</svg>
