<svg xmlns="http://www.w3.org/2000/svg" width="26" height="26" viewBox="0 0 26 26">
  <title>raff-regression</title>
  <path d="M14.85,3.86l-11,11-.71-.71,11-11Zm7.3,7.28-11,11,.71.71,11-11ZM17.88,8.83a1.455,1.455,0,0,0,.63.14,1.5,1.5,0,1,0-1.5-1.5,1.332,1.332,0,0,0,.16.65L8.14,17.15A1.372,1.372,0,0,0,7.5,17,1.5,1.5,0,1,0,9,18.5a1.372,1.372,0,0,0-.15-.64Zm3.26,11.49c.75,1.13,1.24,1.85,1.47,2.18H21.43l-1.19-1.92h-.56V22.5H18.62v-5h1.45a2.484,2.484,0,0,1,1.51.38A1.3,1.3,0,0,1,22.07,19a1.342,1.342,0,0,1-.24.79A1.493,1.493,0,0,1,21.14,20.32ZM21,19.03a.54.54,0,0,0-.25-.51,1.454,1.454,0,0,0-.75-.15h-.32v1.35h.34a1.334,1.334,0,0,0,.74-.16A.613.613,0,0,0,21,19.03Z" fill="#323232"/>
</svg>
