<svg xmlns="http://www.w3.org/2000/svg" width="26" height="26" viewBox="0 0 26 26">
  <title>undo</title>
  <path d="M15.636,8.212v2a.5.5,0,0,1-.366.478C10.6,11.87,7.314,13.912,5.515,16.747l-.335.528.549-.315a18.138,18.138,0,0,1,5.253-2.042,21.557,21.557,0,0,1,2.845-.427c.833-.061,1.24-.051,1.341-.051a.5.5,0,0,1,.467.5V16.93l5.579-4.359Zm6.859,4.3a.473.473,0,0,1-.1.366.309.309,0,0,1-.081.081l-6.869,5.365a.517.517,0,0,1-.366.1.5.5,0,0,1-.325-.193.492.492,0,0,1-.1-.295v-2.5l-.274.01c-.122,0-.2.01-.467.03a21,21,0,0,0-2.713.406,15.814,15.814,0,0,0-6.889,3.282.445.445,0,0,1-.356.112.48.48,0,0,1-.427-.64c1.362-4.217,5.07-7.164,11.015-8.769l.112-.03V7.206a.488.488,0,0,1,.488-.488H15.2a.522.522,0,0,1,.244.1l6.869,5.365A.5.5,0,0,1,22.495,12.51Z" fill="#323232"/>
</svg>
