<svg xmlns="http://www.w3.org/2000/svg" width="26" height="26" viewBox="0 0 26 26">
  <title>toggle-drawings</title>
  <path d="M23.408,13.2A11.607,11.607,0,0,1,13,19.745,11.352,11.352,0,0,1,8.955,19l.716-.716A10.6,10.6,0,0,0,22.481,13,10.545,10.545,0,0,0,18.946,9l.661-.661a11.523,11.523,0,0,1,3.8,4.463L23.5,13ZM17.137,13a3.962,3.962,0,0,0-.413-1.772l-.7.7A2.974,2.974,0,0,1,16.218,13,3.217,3.217,0,0,1,13,16.209a2.974,2.974,0,0,1-1.074-.193l-.7.707A4.124,4.124,0,0,0,17.137,13ZM14.079,9.975l.707-.707A4.132,4.132,0,0,0,8.873,13a3.962,3.962,0,0,0,.413,1.772l.7-.7A3.01,3.01,0,0,1,9.791,13,3.217,3.217,0,0,1,13,9.782,2.974,2.974,0,0,1,14.079,9.975ZM13,6.25A11.643,11.643,0,0,0,2.6,12.8l-.1.2.1.2a11.422,11.422,0,0,0,3.8,4.45l.66-.66A10.666,10.666,0,0,1,3.52,13a8.3,8.3,0,0,1,.44-.78A10.691,10.691,0,0,1,13,7.16a10.4,10.4,0,0,1,3.34.56l.72-.73A11.328,11.328,0,0,0,13,6.25Zm9.677-2.278-.649-.649-18.7,18.7.649.649Z" fill="#323232"/>
</svg>
