<svg xmlns="http://www.w3.org/2000/svg" width="26" height="26" viewBox="0 0 26 26">
  <title>trend-angle</title>
  <path d="M15.1,19.67l-.98.19a9.02,9.02,0,0,0-.22-.93l.96-.28C14.95,18.98,15.04,19.32,15.1,19.67ZM21.7,2.8a1.5,1.5,0,0,0-1.5,1.5,1.332,1.332,0,0,0,.16.65L4.95,20.36a1.332,1.332,0,0,0-.65-.16,1.5,1.5,0,1,0,1.5,1.5,1.372,1.372,0,0,0-.15-.64L21.06,5.65a1.372,1.372,0,0,0,.64.15,1.5,1.5,0,1,0,0-3ZM14.07,16.69l-.88.46q.21.42.39.87l.93-.37A10.46,10.46,0,0,0,14.07,16.69Zm-.52-.92a10.249,10.249,0,0,0-.62-.85l-.78.61c.19.26.38.51.55.79ZM8.3,22.27h1v-1h-1Zm6.95-1.56-.99.1c.03.31.04.63.04.92v.54h1v-1h-.01C15.28,21.08,15.27,20.89,15.25,20.71ZM12.3,22.27h1v-1h-1Zm-2,0h1v-1h-1Zm-4,0h1v-1h-1Zm12.776-5.376h-.6V13.753H17.5l-2.191,3.227v.735h2.133V18.75h1.033V17.715h.6Zm-2.838,0,.916-1.385a3.74,3.74,0,0,0,.3-.547h.027c-.007.043-.016.2-.027.469s-.018.474-.018.615v.848Zm4.528-1.289-.119.023.092-.98h1.785v-.9H19.813L19.626,16.3l.42.227a2.83,2.83,0,0,1,.355-.077,2.434,2.434,0,0,1,.4-.036q1,0,1,.756,0,.792-.968.793a3.037,3.037,0,0,1-1.309-.325v.913a2.9,2.9,0,0,0,1.347.27,2.174,2.174,0,0,0,1.477-.451,1.622,1.622,0,0,0,.517-1.289,1.46,1.46,0,0,0-.43-1.113,1.606,1.606,0,0,0-1.153-.407A2.342,2.342,0,0,0,20.766,15.605Z" fill="#323232"/>
</svg>
