<svg xmlns="http://www.w3.org/2000/svg" width="26" height="26" viewBox="0 0 26 26">
  <title>redo</title>
  <path d="M4.785,12.571l5.579,4.359V14.939a.5.5,0,0,1,.467-.5c.1,0,.508-.01,1.341.051a21.557,21.557,0,0,1,2.845.427,18.138,18.138,0,0,1,5.253,2.042l.549.315-.335-.528c-1.8-2.835-5.081-4.877-9.755-6.056a.5.5,0,0,1-.366-.478v-2Zm-1.1-.386L10.557,6.82a.522.522,0,0,1,.244-.1h.061a.488.488,0,0,1,.488.488V9.838l.112.03c5.944,1.605,9.653,4.552,11.015,8.769a.48.48,0,0,1-.427.64.445.445,0,0,1-.356-.112A15.814,15.814,0,0,0,14.8,15.884a21,21,0,0,0-2.713-.406c-.264-.02-.345-.03-.467-.03l-.274-.01v2.5a.492.492,0,0,1-.1.295.5.5,0,0,1-.325.193.517.517,0,0,1-.366-.1L3.688,12.957a.309.309,0,0,1-.081-.081.473.473,0,0,1-.1-.366A.5.5,0,0,1,3.688,12.185Z" fill="#323232"/>
</svg>
