<svg xmlns="http://www.w3.org/2000/svg" width="26" height="26" viewBox="0 0 26 26">
  <title>zoom-by-area</title>
  <path d="M22.374,21.66l-4.89-4.89a7.642,7.642,0,0,0,1.19-1.79,6.768,6.768,0,0,0,.41-1,8.013,8.013,0,0,0,0-5,6.768,6.768,0,0,0-.41-1,7.953,7.953,0,0,0-3.69-3.69,6.765,6.765,0,0,0-1-.41,8.012,8.012,0,0,0-5,0,7.244,7.244,0,0,0-1,.41,7.954,7.954,0,0,0-3.69,3.69,6.768,6.768,0,0,0-.41,1,8.012,8.012,0,0,0,0,5,6.768,6.768,0,0,0,.41,1,7.954,7.954,0,0,0,3.69,3.69,6.768,6.768,0,0,0,1,.41,8.012,8.012,0,0,0,5,0,6.765,6.765,0,0,0,1-.41,7.645,7.645,0,0,0,1.79-1.19l4.89,4.89a.508.508,0,0,0,.36.15.5.5,0,0,0,.35-.15A.513.513,0,0,0,22.374,21.66ZM14.984,5.42a6.984,6.984,0,0,1,2.56,2.56h-2.56Zm3.03,3.56a6.884,6.884,0,0,1,0,5h-3.03v-5ZM8.984,4.95a6.884,6.884,0,0,1,5,0V7.98h-5Zm5,4.03v5h-5v-5Zm-6-3.56V7.98H5.424A6.985,6.985,0,0,1,7.984,5.42Zm-3.5,6.06a6.7,6.7,0,0,1,.47-2.5h3.03v5H4.954A6.7,6.7,0,0,1,4.484,11.48Zm.94,3.5h2.56v2.56A6.985,6.985,0,0,1,5.424,14.98Zm6.06,3.5a6.7,6.7,0,0,1-2.5-.47V14.98h5v3.03A6.7,6.7,0,0,1,11.484,18.48Zm3.5-.94V14.98h2.56A6.984,6.984,0,0,1,14.984,17.54Z" fill="#323232"/>
</svg>
