<svg xmlns="http://www.w3.org/2000/svg" width="26" height="26" viewBox="0 0 26 26">
  <title>zoom</title>
  <path d="M22.37,21.66l-4.89-4.89a8,8,0,1,0-.71.71l4.89,4.89a.508.508,0,0,0,.36.15.485.485,0,0,0,.35-.15A.5.5,0,0,0,22.37,21.66ZM11.48,18.48a7,7,0,1,1,7-7A7.008,7.008,0,0,1,11.48,18.48Zm4.5-7a.5.5,0,0,1-.5.5h-3.5v3.5a.5.5,0,0,1-.5.5.5.5,0,0,1-.5-.5v-3.5H7.48a.5.5,0,0,1-.5-.5.508.508,0,0,1,.5-.5h3.5V7.48a.508.508,0,0,1,.5-.5.5.5,0,0,1,.5.5v3.5h3.5A.5.5,0,0,1,15.98,11.48Z" fill="#323232"/>
</svg>
