<svg xmlns="http://www.w3.org/2000/svg" viewBox="0 0 15 15"><title>facebook</title><path d="M15,1.259V13.74A1.262,1.262,0,0,1,13.741,15h-3.8V8.664H12.1l0-2.587H10.042V5.042a.547.547,0,0,1,.572-.621h1.452V2.2l-2-.009A2.526,2.526,0,0,0,7.343,4.907v1.17H6.06V8.664H7.354V15H1.26A1.263,1.263,0,0,1,0,13.74V1.259A1.263,1.263,0,0,1,1.26,0H13.741A1.262,1.262,0,0,1,15,1.259Z" fill="#425f9c"/><path d="M12.1,6.077l0,2.587H9.941V15H7.354V8.664H6.06V6.077H7.343V4.907a2.526,2.526,0,0,1,2.724-2.713l2,.009V4.421H10.614a.547.547,0,0,0-.572.621V6.077Z" fill="#fefefe"/></svg>