<svg xmlns="http://www.w3.org/2000/svg" xmlns:xlink="http://www.w3.org/1999/xlink" viewBox="0 0 492.87 319.25">
    <style type="text/css">
        .color-change {animation: col 3s linear infinite;}
        .color-change2 {animation: col 2s linear infinite;}

        @keyframes col {
        0%,30% {fill:#2adc7d}
        31% {fill:#453C9E}
        75%,100% {fill:#2adc7d}
        }
    </style>
    <defs>
        <linearGradient id="a" x1="17.672" y1="205.881" x2="110.827" y2="205.881"
                        gradientTransform="matrix(1, 0, 0, -1, 0, 322)" gradientUnits="userSpaceOnUse">
            <stop offset="0" stop-color="#fff"/>
            <stop offset="0.698" stop-color="#f2f6fb"/>
            <stop offset="1" stop-color="#ebf1f8"/>
        </linearGradient>
        <linearGradient id="b" x1="-2915.985" y1="17.403" x2="-2915.985" y2="200.733"
                        gradientTransform="translate(-2875.025 322) rotate(180)" xlink:href="#a"/>
        <linearGradient id="c" x1="-2945.601" y1="175.099" x2="-2941.119" y2="175.099"
                        gradientTransform="translate(-2875.025 322) rotate(180)" gradientUnits="userSpaceOnUse">
            <stop offset="0" stop-color="#c0bff6"/>
            <stop offset="0.294" stop-color="#c5c4f7"/>
            <stop offset="0.64" stop-color="#d3d2f9"/>
            <stop offset="1" stop-color="#e9e9fd"/>
        </linearGradient>
        <linearGradient id="d" x1="-2946.146" y1="174.644" x2="-2942.44" y2="174.644"
                        gradientTransform="translate(-2875.025 322) rotate(180)" gradientUnits="userSpaceOnUse">
            <stop offset="0" stop-color="#5761d7"/>
            <stop offset="0.178" stop-color="#5c66d9"/>
            <stop offset="0.388" stop-color="#6a73df"/>
            <stop offset="0.613" stop-color="#8289e8"/>
            <stop offset="0.849" stop-color="#a3a7f5"/>
            <stop offset="1" stop-color="#bcbeff"/>
        </linearGradient>
        <linearGradient id="e" x1="-2984.665" y1="199.1" x2="-2980.184" y2="199.1" xlink:href="#c"/>
        <linearGradient id="f" x1="-2985.21" y1="198.646" x2="-2981.504" y2="198.646" xlink:href="#d"/>
        <linearGradient id="g" x1="-2976.023" y1="185.725" x2="-2973.255" y2="185.725"
                        gradientTransform="translate(-2875.025 322) rotate(180)" gradientUnits="userSpaceOnUse">
            <stop offset="0" stop-color="#2adc7d"/>
            <stop offset="1" stop-color="#2adc7d"/>
        </linearGradient>
        <linearGradient id="h" x1="-2976.023" y1="173.55" x2="-2973.255" y2="173.55" xlink:href="#g"/>
        <linearGradient id="i" x1="-2966.362" y1="167.972" x2="-2963.594" y2="167.972" xlink:href="#g"/>
        <linearGradient id="j" x1="-2966.362" y1="161.885" x2="-2963.594" y2="161.885" xlink:href="#g"/>
        <linearGradient id="k" x1="-2961.531" y1="159.096" x2="-2958.763" y2="159.096" xlink:href="#g"/>
        <linearGradient id="l" x1="-2980.854" y1="164.165" x2="-2978.086" y2="164.165" xlink:href="#g"/>
        <linearGradient id="m" x1="-2976.023" y1="161.376" x2="-2973.255" y2="161.376" xlink:href="#g"/>
        <linearGradient id="n" x1="-2980.854" y1="158.078" x2="-2978.086" y2="158.078" xlink:href="#g"/>
        <linearGradient id="o" x1="-2951.87" y1="141.343" x2="-2949.102" y2="141.343" xlink:href="#g"/>
        <linearGradient id="p" x1="-2971.193" y1="146.412" x2="-2968.425" y2="146.412" xlink:href="#g"/>
        <linearGradient id="q" x1="-2966.362" y1="131.449" x2="-2963.594" y2="131.449" xlink:href="#g"/>
        <linearGradient id="r" x1="-2966.362" y1="125.362" x2="-2963.594" y2="125.362" xlink:href="#g"/>
        <linearGradient id="s" x1="-2956.701" y1="119.784" x2="-2953.933" y2="119.784" xlink:href="#g"/>
        <linearGradient id="t" x1="-2976.023" y1="124.852" x2="-2973.255" y2="124.852" xlink:href="#g"/>
        <linearGradient id="u" x1="69.246" y1="108.118" x2="72.014" y2="108.118"
                        gradientTransform="matrix(1, 0, 0, -1, 0, 322)" xlink:href="#g"/>
        <linearGradient id="v" x1="-2956.701" y1="107.609" x2="-2953.933" y2="107.609" xlink:href="#g"/>
        <linearGradient id="w" x1="-2966.362" y1="101.012" x2="-2963.594" y2="101.012" xlink:href="#g"/>
        <linearGradient id="x" x1="-2966.362" y1="94.925" x2="-2963.594" y2="94.925" xlink:href="#g"/>
        <linearGradient id="y" x1="-2951.87" y1="86.558" x2="-2949.102" y2="86.558" xlink:href="#g"/>
        <linearGradient id="z" x1="-2966.362" y1="88.838" x2="-2963.594" y2="88.838" xlink:href="#g"/>
        <linearGradient id="aa" x1="-2966.362" y1="76.663" x2="-2963.594" y2="76.663" xlink:href="#g"/>
        <linearGradient id="ab" x1="-2971.193" y1="73.365" x2="-2968.425" y2="73.365" xlink:href="#g"/>
        <linearGradient id="ac" x1="-2947.039" y1="59.42" x2="-2944.271" y2="59.42" xlink:href="#g"/>
        <linearGradient id="ad" x1="-2976.023" y1="70.067" x2="-2973.255" y2="70.067" xlink:href="#g"/>
        <linearGradient id="ae" x1="-2961.531" y1="61.699" x2="-2958.763" y2="61.699" xlink:href="#g"/>
        <linearGradient id="af" x1="-2951.87" y1="56.122" x2="-2949.102" y2="56.122" xlink:href="#g"/>
        <linearGradient id="ag" x1="-2976.023" y1="63.979" x2="-2973.255" y2="63.979" xlink:href="#g"/>
        <linearGradient id="ah" x1="-2951.87" y1="50.034" x2="-2949.102" y2="50.034" xlink:href="#g"/>
        <linearGradient id="ai" x1="-2971.193" y1="55.103" x2="-2968.425" y2="55.103" xlink:href="#g"/>
        <linearGradient id="aj" x1="-2966.362" y1="46.227" x2="-2963.594" y2="46.227" xlink:href="#g"/>
        <linearGradient id="ak" x1="-2951.87" y1="37.86" x2="-2949.102" y2="37.86" xlink:href="#g"/>
        <linearGradient id="al" x1="-2976.023" y1="21.368" x2="-2973.255" y2="21.368" xlink:href="#g"/>
        <linearGradient id="am" x1="-2971.193" y1="18.579" x2="-2968.425" y2="18.579" xlink:href="#g"/>
        <linearGradient id="an" x1="-2966.362" y1="15.79" x2="-2963.594" y2="15.79" xlink:href="#g"/>
        <linearGradient id="ao" x1="-2971.193" y1="6.405" x2="-2968.425" y2="6.405" xlink:href="#g"/>
        <linearGradient id="ap" x1="-2966.362" y1="4.722" x2="-2963.594" y2="4.722" xlink:href="#g"/>
        <linearGradient id="aq" x1="-2980.854" y1="5.895" x2="-2978.086" y2="5.895" xlink:href="#g"/>
        <linearGradient id="ar" x1="-2976.023" y1="179.638" x2="-2973.255" y2="179.638" xlink:href="#g"/>
        <linearGradient id="as" x1="69.246" y1="162.904" x2="72.014" y2="162.904"
                        gradientTransform="matrix(1, 0, 0, -1, 0, 322)" xlink:href="#g"/>
        <linearGradient id="at" x1="104.993" y1="233.051" x2="396.522" y2="233.051"
                        gradientTransform="matrix(1, 0, 0, -1, 0, 322)" xlink:href="#g"/>
        <linearGradient id="au" x1="85.2" y1="89.13" x2="222.868" y2="89.13"
                        gradientTransform="matrix(1, 0, 0, -1, 0, 322)" xlink:href="#g"/>
        <linearGradient id="av" x1="-385.864" y1="120.894" x2="-376.056" y2="120.894"
                        gradientTransform="translate(-124.543 -106.75) rotate(-112.025)" xlink:href="#a"/>
        <linearGradient id="aw" x1="-767.981" y1="415.756" x2="-753.222" y2="415.756"
                        gradientTransform="translate(-490.843 738.015) rotate(168.823)" xlink:href="#a"/>
        <linearGradient id="ax" x1="90.334" y1="14.869" x2="90.334" y2="63.91"
                        gradientTransform="translate(226.163 242.401) rotate(180) scale(0.778 1.059)" xlink:href="#a"/>
        <linearGradient id="ay" x1="-426.558" y1="165.276" x2="-413.608" y2="165.276"
                        gradientTransform="translate(-250.5 322) rotate(180)" xlink:href="#a"/>
        <linearGradient id="az" x1="-408.54" y1="138.277" x2="-403.128" y2="176.784"
                        gradientTransform="matrix(-1, 0, 0, -1, -250.714, 321.666)" xlink:href="#a"/>
        <linearGradient id="ba" x1="-396.892" y1="145.071" x2="-391.412" y2="160.126"
                        gradientTransform="translate(-250.5 322) rotate(180)" xlink:href="#a"/>
        <linearGradient id="bb" x1="-396.38" y1="151.016" x2="-385.408" y2="151.016"
                        gradientTransform="translate(-273.627 106.308) rotate(-149.999)" xlink:href="#a"/>
        <linearGradient id="bc" x1="-723.918" y1="409.032" x2="-713.886" y2="419.864"
                        gradientTransform="translate(-490.621 737.746) rotate(168.814)" xlink:href="#a"/>
        <linearGradient id="bd" x1="-501.248" y1="49.05" x2="-490.105" y2="49.05"
                        gradientTransform="matrix(-0.911, 0.109, -0.136, -1.14, -317.105, 327.516)" xlink:href="#a"/>
        <linearGradient id="be" x1="-446.162" y1="133.579" x2="-428.545" y2="133.579"
                        gradientTransform="translate(-250.5 322) rotate(180)" xlink:href="#a"/>
        <linearGradient id="bf" x1="-2881.775" y1="558.84" x2="-2888.453" y2="549.921"
                        gradientTransform="matrix(-0.441, 0.805, -1.007, -0.552, -517.089, 2822.615)" xlink:href="#a"/>
    </defs>
    <title>bg-start-anim</title>
    <path d="M492.87,0,260.76,148.08a6.8,6.8,0,0,0-2.76,8.03,6.8,6.8,0,0,0,2.96,8.16l70.81,41.83a6.671,6.671,0,0,1,2.96,3.58,6.724,6.724,0,0,1-3.04,3.61L147.27,319.15H0V0Z"
          fill="#180d5b"/>
    <path d="M331.77,201.52a6.809,6.809,0,0,1,2.96,8.16,6.671,6.671,0,0,0-2.96-3.58l-70.81-41.83a6.8,6.8,0,0,1-2.96-8.16,6.711,6.711,0,0,0,2.96,3.58Z"
          fill="#453c9e"/>
    <polygon points="64.249 143.011 110.827 116.119 64.25 89.228 17.672 116.12 64.249 143.011" fill="url(#a)"/>
    <polygon points="106.598 319.25 64.25 192.453 21.901 319.25 106.598 319.25" fill="#fff"/>
    <polygon points="64.249 319.25 64.249 143.011 17.672 116.12 17.672 319.25 64.249 319.25" fill="url(#b)"/>
    <polygon points="110.827 319.25 110.827 116.119 64.249 143.011 64.249 319.25 110.827 319.25" fill="#24126a"/>
    <g opacity="0.51">
        <polygon points="107.671 319.25 107.671 122.968 67.404 146.216 67.404 319.25 107.671 319.25" fill="#453c9e"/>
    </g>
    <polygon points="24.659 141.06 24.659 143.788 57.262 162.612 57.262 159.884 24.659 141.06" fill="#453c9e"/>
    <polygon points="24.659 152.596 24.659 155.324 57.262 174.148 57.262 171.42 24.659 152.596" fill="#453c9e"/>
    <polygon points="24.659 164.132 24.659 166.861 57.262 185.684 57.262 182.956 24.659 164.132" fill="#453c9e"/>
    <polygon points="24.659 175.668 24.659 178.397 57.262 197.22 57.262 194.492 24.659 175.668" fill="#706ec4"/>
    <polygon points="24.659 187.205 24.659 189.933 57.262 208.757 57.262 206.028 24.659 187.205" fill="#453c9e"/>
    <polygon points="24.659 198.741 24.659 201.469 57.262 220.293 57.262 217.564 24.659 198.741" fill="#706ec4"/>
    <polygon points="24.659 210.277 24.659 213.005 57.262 231.829 57.262 229.101 24.659 210.277" fill="#453c9e"/>
    <polygon points="24.659 221.813 24.659 224.541 57.262 243.365 57.262 240.637 24.659 221.813" fill="#453c9e"/>
    <polygon points="24.659 233.349 24.659 236.078 57.262 254.901 57.262 252.173 24.659 233.349" fill="#453c9e"/>
    <polygon points="24.659 244.885 24.659 247.614 57.262 266.437 57.262 263.709 24.659 244.885" fill="#453c9e"/>
    <polygon points="24.659 256.422 24.659 259.15 57.262 277.974 57.262 275.245 24.659 256.422" fill="#453c9e"/>
    <polygon points="24.659 267.958 24.659 270.686 57.262 289.51 57.262 286.781 24.659 267.958" fill="#453c9e"/>
    <polygon points="24.659 279.494 24.659 282.222 57.262 301.046 57.262 298.318 24.659 279.494" fill="#453c9e"/>
    <polygon points="24.659 291.03 24.659 293.758 57.262 312.582 57.262 309.854 24.659 291.03" fill="#453c9e"/>
    <polygon points="53.556 319.25 24.659 302.566 24.659 305.295 48.83 319.25 53.556 319.25" fill="#453c9e"/>
    <polygon points="33.575 319.25 24.659 314.102 24.659 316.831 28.849 319.25 33.575 319.25" fill="#453c9e"/>
    <polygon points="24.659 152.596 24.659 155.324 57.262 174.148 57.262 171.42 24.659 152.596" fill="#453c9e"/>
    <g opacity="0.51">
        <polygon points="110.827 261.421 64.249 174.908 64.249 143.011 110.827 116.119 110.827 261.421" fill="#453c9e"/>
    </g>
    <path d="M66.094,147.653a4.1,4.1,0,0,1,1.853-3.21,1.3,1.3,0,0,1,1.316-.126h0l1.313.768-.812.027a2.15,2.15,0,0,1,.037.4,4.1,4.1,0,0,1-1.854,3.21,2.046,2.046,0,0,1-.4.179l.378.706-1.285-.751h0A1.3,1.3,0,0,1,66.094,147.653Z"
          fill="url(#c)"/>
    <path d="M67.415,148.426c0,1.182.83,1.661,1.853,1.07a4.1,4.1,0,0,0,1.853-3.21c0-1.182-.829-1.661-1.853-1.07A4.1,4.1,0,0,0,67.415,148.426Z"
          fill="url(#d)"/>
    <path d="M68.2,147.971c0,.68.477.956,1.066.616a2.361,2.361,0,0,0,1.066-1.847c0-.68-.477-.955-1.066-.615A2.357,2.357,0,0,0,68.2,147.971Z"
          fill="#3f21d3"/>
    <path d="M105.158,123.651a4.1,4.1,0,0,1,1.853-3.21,1.3,1.3,0,0,1,1.316-.125h0l1.313.768-.812.028a2.237,2.237,0,0,1,.036.4,4.1,4.1,0,0,1-1.853,3.21,2.046,2.046,0,0,1-.4.179l.379.706-1.286-.751h0A1.3,1.3,0,0,1,105.158,123.651Z"
          fill="url(#e)"/>
    <path d="M106.479,124.424c0,1.182.829,1.661,1.853,1.07a4.1,4.1,0,0,0,1.853-3.21c0-1.182-.83-1.661-1.853-1.07A4.1,4.1,0,0,0,106.479,124.424Z"
          fill="url(#f)"/>
    <path d="M107.266,123.97c0,.679.477.955,1.066.615a2.357,2.357,0,0,0,1.066-1.846c0-.68-.477-.956-1.066-.616A2.361,2.361,0,0,0,107.266,123.97Z"
          fill="#3f21d3"/>
    <polygon points="103.061 136.563 105.829 134.965 105.829 130.409 103.061 132.007 103.061 136.563" fill="#453c9e"/>
    <polygon class="color-change2" points="98.23 139.352 100.998 137.754 100.998 133.198 98.23 134.796 98.23 139.352" fill="url(#g)"/>
    <polygon points="93.4 142.141 96.168 140.543 96.168 135.987 93.4 137.585 93.4 142.141" fill="#453c9e"/>
    <polygon points="88.569 144.93 91.337 143.332 91.337 138.776 88.569 140.374 88.569 144.93" fill="#453c9e"/>
    <polygon points="83.738 147.719 86.506 146.121 86.506 141.565 83.738 143.163 83.738 147.719" fill="#453c9e"/>
    <polygon points="78.908 150.508 81.676 148.91 81.676 144.354 78.908 145.952 78.908 150.508" fill="#453c9e"/>
    <polygon points="74.077 153.297 76.845 151.699 76.845 147.143 74.077 148.741 74.077 153.297" fill="#453c9e"/>
    <polygon points="69.246 156.086 72.014 154.488 72.014 149.932 69.246 151.53 69.246 156.086" fill="#453c9e"/>
    <polygon points="103.061 142.65 105.829 141.052 105.829 136.496 103.061 138.095 103.061 142.65" fill="#453c9e"/>
    <polygon points="98.23 145.439 100.998 143.841 100.998 139.285 98.23 140.884 98.23 145.439" fill="#453c9e"/>
    <polygon points="93.4 148.228 96.168 146.63 96.168 142.074 93.4 143.673 93.4 148.228" fill="#453c9e"/>
    <polygon points="88.569 151.017 91.337 149.419 91.337 144.863 88.569 146.462 88.569 151.017" fill="#453c9e"/>
    <polygon points="83.738 153.806 86.506 152.208 86.506 147.652 83.738 149.251 83.738 153.806" fill="#453c9e"/>
    <polygon points="78.908 156.595 81.676 154.997 81.676 150.441 78.908 152.04 78.908 156.595" fill="#453c9e"/>
    <polygon points="74.077 159.384 76.845 157.786 76.845 153.23 74.077 154.829 74.077 159.384" fill="#453c9e"/>
    <polygon points="69.246 162.173 72.014 160.575 72.014 156.019 69.246 157.618 69.246 162.173" fill="#453c9e"/>
    <polygon points="103.061 148.737 105.829 147.139 105.829 142.584 103.061 144.182 103.061 148.737" fill="#453c9e"/>
    <polygon class="color-change" points="98.23 151.526 100.998 149.928 100.998 145.373 98.23 146.971 98.23 151.526" fill="url(#h)"/>
    <polygon points="93.4 154.315 96.168 152.717 96.168 148.162 93.4 149.76 93.4 154.315" fill="#453c9e"/>
    <polygon class="color-change2" points="88.569 157.104 91.337 155.506 91.337 150.951 88.569 152.549 88.569 157.104" fill="url(#i)"/>
    <polygon points="83.738 159.893 86.506 158.295 86.506 153.74 83.738 155.338 83.738 159.893" fill="#453c9e"/>
    <polygon points="78.908 162.682 81.676 161.084 81.676 156.529 78.908 158.127 78.908 162.682" fill="#453c9e"/>
    <polygon points="74.077 165.471 76.845 163.873 76.845 159.318 74.077 160.916 74.077 165.471" fill="#453c9e"/>
    <polygon points="69.246 168.26 72.014 166.662 72.014 162.107 69.246 163.705 69.246 168.26" fill="#453c9e"/>
    <polygon points="103.061 154.825 105.829 153.227 105.829 148.671 103.061 150.269 103.061 154.825" fill="#453c9e"/>
    <polygon points="98.23 157.614 100.998 156.016 100.998 151.46 98.23 153.058 98.23 157.614" fill="#453c9e"/>
    <polygon points="93.4 160.403 96.168 158.805 96.168 154.249 93.4 155.847 93.4 160.403" fill="#453c9e"/>
    <polygon class="color-change2" points="88.569 163.192 91.337 161.594 91.337 157.038 88.569 158.636 88.569 163.192" fill="url(#j)"/>
    <polygon class="color-change" points="83.738 165.981 86.506 164.383 86.506 159.827 83.738 161.425 83.738 165.981" fill="url(#k)"/>
    <polygon points="78.908 168.77 81.676 167.172 81.676 162.616 78.908 164.214 78.908 168.77" fill="#453c9e"/>
    <polygon points="74.077 171.559 76.845 169.961 76.845 165.405 74.077 167.003 74.077 171.559" fill="#453c9e"/>
    <polygon points="69.246 174.348 72.014 172.75 72.014 168.194 69.246 169.792 69.246 174.348" fill="#453c9e"/>
    <polygon points="103.061 160.912 105.829 159.314 105.829 154.758 103.061 156.356 103.061 160.912" fill="url(#l)"/>
    <polygon class="color-change2" points="98.23 163.701 100.998 162.103 100.998 157.547 98.23 159.145 98.23 163.701" fill="url(#m)"/>
    <polygon points="93.4 166.49 96.168 164.892 96.168 160.336 93.4 161.934 93.4 166.49" fill="#453c9e"/>
    <polygon points="88.569 169.279 91.337 167.681 91.337 163.125 88.569 164.723 88.569 169.279" fill="#453c9e"/>
    <polygon points="83.738 172.068 86.506 170.47 86.506 165.914 83.738 167.512 83.738 172.068" fill="#453c9e"/>
    <polygon points="78.908 174.857 81.676 173.259 81.676 168.703 78.908 170.301 78.908 174.857" fill="#453c9e"/>
    <polygon points="74.077 177.646 76.845 176.048 76.845 171.492 74.077 173.09 74.077 177.646" fill="#453c9e"/>
    <polygon points="69.246 180.435 72.014 178.837 72.014 174.281 69.246 175.879 69.246 180.435" fill="#453c9e"/>
    <polygon class="color-change" points="103.061 166.999 105.829 165.401 105.829 160.846 103.061 162.444 103.061 166.999" fill="url(#n)"/>
    <polygon points="98.23 169.788 100.998 168.19 100.998 163.635 98.23 165.233 98.23 169.788" fill="#453c9e"/>
    <polygon points="93.4 172.577 96.168 170.979 96.168 166.424 93.4 168.022 93.4 172.577" fill="#453c9e"/>
    <polygon points="88.569 175.366 91.337 173.768 91.337 169.213 88.569 170.811 88.569 175.366" fill="#453c9e"/>
    <polygon points="83.738 178.155 86.506 176.557 86.506 172.002 83.738 173.6 83.738 178.155" fill="#453c9e"/>
    <polygon points="78.908 180.944 81.676 179.346 81.676 174.791 78.908 176.389 78.908 180.944" fill="#453c9e"/>
    <polygon class="color-change" points="74.077 183.733 76.845 182.135 76.845 177.58 74.077 179.178 74.077 183.733" fill="url(#o)"/>
    <polygon points="69.246 186.522 72.014 184.924 72.014 180.369 69.246 181.967 69.246 186.522" fill="#453c9e"/>
    <polygon points="103.061 173.087 105.829 171.488 105.829 166.933 103.061 168.531 103.061 173.087" fill="#453c9e"/>
    <polygon points="98.23 175.876 100.998 174.277 100.998 169.722 98.23 171.32 98.23 175.876" fill="#453c9e"/>
    <polygon class="color-change2" points="93.4 178.665 96.168 177.066 96.168 172.511 93.4 174.109 93.4 178.665" fill="url(#p)"/>
    <polygon points="88.569 181.454 91.337 179.855 91.337 175.3 88.569 176.898 88.569 181.454" fill="#453c9e"/>
    <polygon points="83.738 184.243 86.506 182.644 86.506 178.089 83.738 179.687 83.738 184.243" fill="#453c9e"/>
    <polygon points="78.908 187.032 81.676 185.433 81.676 180.878 78.908 182.476 78.908 187.032" fill="#453c9e"/>
    <polygon points="74.077 189.821 76.845 188.222 76.845 183.667 74.077 185.265 74.077 189.821" fill="#453c9e"/>
    <polygon points="69.246 192.61 72.014 191.011 72.014 186.456 69.246 188.054 69.246 192.61" fill="#453c9e"/>
    <polygon points="103.061 179.174 105.829 177.576 105.829 173.02 103.061 174.618 103.061 179.174" fill="#453c9e"/>
    <polygon points="98.23 181.963 100.998 180.365 100.998 175.809 98.23 177.407 98.23 181.963" fill="#453c9e"/>
    <polygon points="93.4 184.752 96.168 183.154 96.168 178.598 93.4 180.196 93.4 184.752" fill="#453c9e"/>
    <polygon points="88.569 187.541 91.337 185.943 91.337 181.387 88.569 182.985 88.569 187.541" fill="#453c9e"/>
    <polygon points="83.738 190.33 86.506 188.732 86.506 184.176 83.738 185.774 83.738 190.33" fill="#453c9e"/>
    <polygon points="78.908 193.119 81.676 191.521 81.676 186.965 78.908 188.563 78.908 193.119" fill="#453c9e"/>
    <polygon points="74.077 195.908 76.845 194.31 76.845 189.754 74.077 191.352 74.077 195.908" fill="#453c9e"/>
    <polygon points="69.246 198.697 72.014 197.099 72.014 192.543 69.246 194.141 69.246 198.697" fill="#453c9e"/>
    <polygon points="103.061 185.261 105.829 183.663 105.829 179.107 103.061 180.706 103.061 185.261" fill="#453c9e"/>
    <polygon points="98.23 188.05 100.998 186.452 100.998 181.896 98.23 183.495 98.23 188.05" fill="#453c9e"/>
    <polygon points="93.4 190.839 96.168 189.241 96.168 184.685 93.4 186.284 93.4 190.839" fill="#453c9e"/>
    <polygon class="color-change" points="88.569 193.628 91.337 192.03 91.337 187.474 88.569 189.073 88.569 193.628" fill="url(#q)"/>
    <polygon points="83.738 196.417 86.506 194.819 86.506 190.263 83.738 191.862 83.738 196.417" fill="#453c9e"/>
    <polygon points="78.908 199.206 81.676 197.608 81.676 193.052 78.908 194.651 78.908 199.206" fill="#453c9e"/>
    <polygon points="74.077 201.995 76.845 200.397 76.845 195.841 74.077 197.44 74.077 201.995" fill="#453c9e"/>
    <polygon points="69.246 204.784 72.014 203.186 72.014 198.63 69.246 200.229 69.246 204.784" fill="#453c9e"/>
    <polygon points="103.061 191.348 105.829 189.75 105.829 185.195 103.061 186.793 103.061 191.348" fill="#453c9e"/>
    <polygon points="98.23 194.137 100.998 192.539 100.998 187.984 98.23 189.582 98.23 194.137" fill="#453c9e"/>
    <polygon points="93.4 196.926 96.168 195.328 96.168 190.773 93.4 192.371 93.4 196.926" fill="#453c9e"/>
    <polygon class="color-change" points="88.569 199.715 91.337 198.117 91.337 193.562 88.569 195.16 88.569 199.715" fill="url(#r)"/>
    <polygon points="83.738 202.504 86.506 200.906 86.506 196.351 83.738 197.949 83.738 202.504" fill="#453c9e"/>
    <polygon class="color-change" points="78.908 205.293 81.676 203.695 81.676 199.14 78.908 200.738 78.908 205.293" fill="url(#s)"/>
    <polygon points="74.077 208.082 76.845 206.484 76.845 201.929 74.077 203.527 74.077 208.082" fill="#453c9e"/>
    <polygon points="69.246 210.871 72.014 209.273 72.014 204.718 69.246 206.316 69.246 210.871" fill="#453c9e"/>
    <polygon points="103.061 197.436 105.829 195.838 105.829 191.282 103.061 192.88 103.061 197.436" fill="#453c9e"/>
    <polygon class="color-change2" points="98.23 200.225 100.998 198.627 100.998 194.071 98.23 195.669 98.23 200.225" fill="url(#t)"/>
    <polygon points="93.4 203.014 96.168 201.416 96.168 196.86 93.4 198.458 93.4 203.014" fill="#453c9e"/>
    <polygon points="88.569 205.803 91.337 204.205 91.337 199.649 88.569 201.247 88.569 205.803" fill="#453c9e"/>
    <polygon points="83.738 208.592 86.506 206.994 86.506 202.438 83.738 204.036 83.738 208.592" fill="#453c9e"/>
    <polygon points="78.908 211.381 81.676 209.783 81.676 205.227 78.908 206.825 78.908 211.381" fill="#453c9e"/>
    <polygon points="74.077 214.17 76.845 212.572 76.845 208.016 74.077 209.614 74.077 214.17" fill="#453c9e"/>
    <polygon class="color-change" points="69.246 216.959 72.014 215.361 72.014 210.805 69.246 212.403 69.246 216.959" fill="url(#u)"/>
    <polygon points="103.061 203.523 105.829 201.925 105.829 197.369 103.061 198.967 103.061 203.523" fill="#453c9e"/>
    <polygon points="98.23 206.312 100.998 204.714 100.998 200.158 98.23 201.756 98.23 206.312" fill="#453c9e"/>
    <polygon points="93.4 209.101 96.168 207.503 96.168 202.947 93.4 204.545 93.4 209.101" fill="#453c9e"/>
    <polygon points="88.569 211.89 91.337 210.292 91.337 205.736 88.569 207.334 88.569 211.89" fill="#453c9e"/>
    <polygon points="83.738 214.679 86.506 213.081 86.506 208.525 83.738 210.123 83.738 214.679" fill="#453c9e"/>
    <polygon class="color-change2" points="78.908 217.468 81.676 215.87 81.676 211.314 78.908 212.912 78.908 217.468" fill="url(#v)"/>
    <polygon points="74.077 220.257 76.845 218.659 76.845 214.103 74.077 215.701 74.077 220.257" fill="#453c9e"/>
    <polygon points="69.246 223.046 72.014 221.448 72.014 216.892 69.246 218.49 69.246 223.046" fill="#453c9e"/>
    <polygon points="103.061 209.61 105.829 208.012 105.829 203.457 103.061 205.055 103.061 209.61" fill="#453c9e"/>
    <polygon points="98.23 212.399 100.998 210.801 100.998 206.246 98.23 207.844 98.23 212.399" fill="#453c9e"/>
    <polygon points="93.4 215.188 96.168 213.59 96.168 209.035 93.4 210.633 93.4 215.188" fill="#453c9e"/>
    <polygon points="88.569 217.977 91.337 216.379 91.337 211.824 88.569 213.422 88.569 217.977" fill="#453c9e"/>
    <polygon points="83.738 220.766 86.506 219.168 86.506 214.613 83.738 216.211 83.738 220.766" fill="#453c9e"/>
    <polygon points="78.908 223.555 81.676 221.957 81.676 217.402 78.908 219 78.908 223.555" fill="#453c9e"/>
    <polygon points="74.077 226.344 76.845 224.746 76.845 220.191 74.077 221.789 74.077 226.344" fill="#453c9e"/>
    <polygon points="69.246 229.133 72.014 227.535 72.014 222.98 69.246 224.578 69.246 229.133" fill="#453c9e"/>
    <polygon points="103.061 215.698 105.829 214.099 105.829 209.544 103.061 211.142 103.061 215.698" fill="#453c9e"/>
    <polygon points="98.23 218.487 100.998 216.888 100.998 212.333 98.23 213.931 98.23 218.487" fill="#453c9e"/>
    <polygon points="93.4 221.276 96.168 219.677 96.168 215.122 93.4 216.72 93.4 221.276" fill="#453c9e"/>
    <polygon class="color-change" points="88.569 224.065 91.337 222.466 91.337 217.911 88.569 219.509 88.569 224.065" fill="url(#w)"/>
    <polygon points="83.738 226.854 86.506 225.255 86.506 220.7 83.738 222.298 83.738 226.854" fill="#453c9e"/>
    <polygon points="78.908 229.643 81.676 228.044 81.676 223.489 78.908 225.087 78.908 229.643" fill="#453c9e"/>
    <polygon points="74.077 232.432 76.845 230.833 76.845 226.278 74.077 227.876 74.077 232.432" fill="#453c9e"/>
    <polygon points="69.246 235.221 72.014 233.622 72.014 229.067 69.246 230.665 69.246 235.221" fill="#453c9e"/>
    <polygon points="103.061 221.785 105.829 220.187 105.829 215.631 103.061 217.229 103.061 221.785" fill="#453c9e"/>
    <polygon points="98.23 224.574 100.998 222.976 100.998 218.42 98.23 220.018 98.23 224.574" fill="#453c9e"/>
    <polygon points="93.4 227.363 96.168 225.765 96.168 221.209 93.4 222.807 93.4 227.363" fill="#453c9e"/>
    <polygon class="color-change2" points="88.569 230.152 91.337 228.554 91.337 223.998 88.569 225.596 88.569 230.152" fill="url(#x)"/>
    <polygon points="83.738 232.941 86.506 231.343 86.506 226.787 83.738 228.385 83.738 232.941" fill="#453c9e"/>
    <polygon points="78.908 235.73 81.676 234.132 81.676 229.576 78.908 231.174 78.908 235.73" fill="#453c9e"/>
    <polygon class="color-change2" points="74.077 238.519 76.845 236.921 76.845 232.365 74.077 233.963 74.077 238.519" fill="url(#y)"/>
    <polygon points="69.246 241.308 72.014 239.71 72.014 235.154 69.246 236.752 69.246 241.308" fill="#453c9e"/>
    <polygon points="103.061 227.872 105.829 226.274 105.829 221.718 103.061 223.317 103.061 227.872" fill="#453c9e"/>
    <polygon points="98.23 230.661 100.998 229.063 100.998 224.507 98.23 226.106 98.23 230.661" fill="#453c9e"/>
    <polygon points="93.4 233.45 96.168 231.852 96.168 227.296 93.4 228.895 93.4 233.45" fill="#453c9e"/>
    <polygon class="color-change" points="88.569 236.239 91.337 234.641 91.337 230.085 88.569 231.684 88.569 236.239" fill="url(#z)"/>
    <polygon points="83.738 239.028 86.506 237.43 86.506 232.874 83.738 234.473 83.738 239.028" fill="#453c9e"/>
    <polygon points="78.908 241.817 81.676 240.219 81.676 235.663 78.908 237.262 78.908 241.817" fill="#453c9e"/>
    <polygon points="74.077 244.606 76.845 243.008 76.845 238.452 74.077 240.051 74.077 244.606" fill="#453c9e"/>
    <polygon points="69.246 247.395 72.014 245.797 72.014 241.241 69.246 242.84 69.246 247.395" fill="#453c9e"/>
    <polygon points="103.061 233.959 105.829 232.361 105.829 227.806 103.061 229.404 103.061 233.959" fill="#453c9e"/>
    <polygon points="98.23 236.748 100.998 235.15 100.998 230.595 98.23 232.193 98.23 236.748" fill="#453c9e"/>
    <polygon points="93.4 239.537 96.168 237.939 96.168 233.384 93.4 234.982 93.4 239.537" fill="#453c9e"/>
    <polygon points="88.569 242.326 91.337 240.728 91.337 236.173 88.569 237.771 88.569 242.326" fill="#453c9e"/>
    <polygon points="83.738 245.115 86.506 243.517 86.506 238.962 83.738 240.56 83.738 245.115" fill="#453c9e"/>
    <polygon points="78.908 247.904 81.676 246.306 81.676 241.751 78.908 243.349 78.908 247.904" fill="#453c9e"/>
    <polygon points="74.077 250.693 76.845 249.095 76.845 244.54 74.077 246.138 74.077 250.693" fill="#453c9e"/>
    <polygon points="69.246 253.482 72.014 251.884 72.014 247.329 69.246 248.927 69.246 253.482" fill="#453c9e"/>
    <polygon points="103.061 240.047 105.829 238.449 105.829 233.893 103.061 235.491 103.061 240.047" fill="#453c9e"/>
    <polygon points="98.23 242.836 100.998 241.238 100.998 236.682 98.23 238.28 98.23 242.836" fill="#453c9e"/>
    <polygon points="93.4 245.625 96.168 244.027 96.168 239.471 93.4 241.069 93.4 245.625" fill="#453c9e"/>
    <polygon class="color-change2" points="88.569 248.414 91.337 246.816 91.337 242.26 88.569 243.858 88.569 248.414" fill="url(#aa)"/>
    <polygon points="83.738 251.203 86.506 249.605 86.506 245.049 83.738 246.647 83.738 251.203" fill="#453c9e"/>
    <polygon points="78.908 253.992 81.676 252.394 81.676 247.838 78.908 249.436 78.908 253.992" fill="#453c9e"/>
    <polygon points="74.077 256.781 76.845 255.183 76.845 250.627 74.077 252.225 74.077 256.781" fill="#453c9e"/>
    <polygon points="69.246 259.57 72.014 257.972 72.014 253.416 69.246 255.014 69.246 259.57" fill="#453c9e"/>
    <polygon points="103.061 246.134 105.829 244.536 105.829 239.98 103.061 241.578 103.061 246.134" fill="#453c9e"/>
    <polygon points="98.23 248.923 100.998 247.325 100.998 242.769 98.23 244.367 98.23 248.923" fill="#453c9e"/>
    <polygon class="color-change2" points="93.4 251.712 96.168 250.114 96.168 245.558 93.4 247.156 93.4 251.712" fill="url(#ab)"/>
    <polygon points="88.569 254.501 91.337 252.903 91.337 248.347 88.569 249.945 88.569 254.501" fill="#453c9e"/>
    <polygon points="83.738 257.29 86.506 255.692 86.506 251.136 83.738 252.734 83.738 257.29" fill="#453c9e"/>
    <polygon points="78.908 260.079 81.676 258.481 81.676 253.925 78.908 255.523 78.908 260.079" fill="#453c9e"/>
    <polygon points="74.077 262.868 76.845 261.27 76.845 256.714 74.077 258.312 74.077 262.868" fill="#453c9e"/>
    <polygon class="color-change" points="69.246 265.657 72.014 264.059 72.014 259.503 69.246 261.101 69.246 265.657" fill="url(#ac)"/>
    <polygon points="103.061 252.221 105.829 250.623 105.829 246.068 103.061 247.666 103.061 252.221" fill="#453c9e"/>
    <polygon class="color-change2" points="98.23 255.01 100.998 253.412 100.998 248.857 98.23 250.455 98.23 255.01" fill="url(#ad)"/>
    <polygon points="93.4 257.799 96.168 256.201 96.168 251.646 93.4 253.244 93.4 257.799" fill="#453c9e"/>
    <polygon points="88.569 260.588 91.337 258.99 91.337 254.435 88.569 256.033 88.569 260.588" fill="#453c9e"/>
    <polygon class="color-change" points="83.738 263.377 86.506 261.779 86.506 257.224 83.738 258.822 83.738 263.377" fill="url(#ae)"/>
    <polygon points="78.908 266.166 81.676 264.568 81.676 260.013 78.908 261.611 78.908 266.166" fill="#453c9e"/>
    <polygon class="color-change2" points="74.077 268.955 76.845 267.357 76.845 262.802 74.077 264.4 74.077 268.955" fill="url(#af)"/>
    <polygon points="69.246 271.744 72.014 270.146 72.014 265.591 69.246 267.189 69.246 271.744" fill="#453c9e"/>
    <polygon points="103.061 258.309 105.829 256.71 105.829 252.155 103.061 253.753 103.061 258.309" fill="#453c9e"/>
    <polygon class="color-change" points="98.23 261.098 100.998 259.499 100.998 254.944 98.23 256.542 98.23 261.098" fill="url(#ag)"/>
    <polygon points="93.4 263.887 96.168 262.288 96.168 257.733 93.4 259.331 93.4 263.887" fill="#453c9e"/>
    <polygon points="88.569 266.676 91.337 265.077 91.337 260.522 88.569 262.12 88.569 266.676" fill="#453c9e"/>
    <polygon points="83.738 269.465 86.506 267.866 86.506 263.311 83.738 264.909 83.738 269.465" fill="#453c9e"/>
    <polygon points="78.908 272.254 81.676 270.655 81.676 266.1 78.908 267.698 78.908 272.254" fill="#453c9e"/>
    <polygon class="color-change2" points="74.077 275.043 76.845 273.444 76.845 268.889 74.077 270.487 74.077 275.043" fill="url(#ah)"/>
    <polygon points="69.246 277.832 72.014 276.233 72.014 271.678 69.246 273.276 69.246 277.832" fill="#453c9e"/>
    <polygon points="103.061 264.396 105.829 262.798 105.829 258.242 103.061 259.84 103.061 264.396" fill="#453c9e"/>
    <polygon points="98.23 267.185 100.998 265.587 100.998 261.031 98.23 262.629 98.23 267.185" fill="#453c9e"/>
    <polygon class="color-change" points="93.4 269.974 96.168 268.376 96.168 263.82 93.4 265.418 93.4 269.974" fill="url(#ai)"/>
    <polygon points="88.569 272.763 91.337 271.165 91.337 266.609 88.569 268.207 88.569 272.763" fill="#453c9e"/>
    <polygon points="83.738 275.552 86.506 273.954 86.506 269.398 83.738 270.996 83.738 275.552" fill="#453c9e"/>
    <polygon points="78.908 278.341 81.676 276.743 81.676 272.187 78.908 273.785 78.908 278.341" fill="#453c9e"/>
    <polygon points="74.077 281.13 76.845 279.532 76.845 274.976 74.077 276.574 74.077 281.13" fill="#453c9e"/>
    <polygon points="69.246 283.919 72.014 282.321 72.014 277.765 69.246 279.363 69.246 283.919" fill="#453c9e"/>
    <polygon points="103.061 270.483 105.829 268.885 105.829 264.329 103.061 265.928 103.061 270.483" fill="#453c9e"/>
    <polygon points="98.23 273.272 100.998 271.674 100.998 267.118 98.23 268.717 98.23 273.272" fill="#453c9e"/>
    <polygon points="93.4 276.061 96.168 274.463 96.168 269.907 93.4 271.506 93.4 276.061" fill="#453c9e"/>
    <polygon class="color-change2" points="88.569 278.85 91.337 277.252 91.337 272.696 88.569 274.295 88.569 278.85" fill="url(#aj)"/>
    <polygon points="83.738 281.639 86.506 280.041 86.506 275.485 83.738 277.084 83.738 281.639" fill="#453c9e"/>
    <polygon points="78.908 284.428 81.676 282.83 81.676 278.274 78.908 279.873 78.908 284.428" fill="#453c9e"/>
    <polygon class="color-change" points="74.077 287.217 76.845 285.619 76.845 281.063 74.077 282.662 74.077 287.217" fill="url(#ak)"/>
    <polygon points="69.246 290.006 72.014 288.408 72.014 283.852 69.246 285.451 69.246 290.006" fill="#453c9e"/>
    <polygon points="103.061 276.571 105.829 274.972 105.829 270.417 103.061 272.015 103.061 276.571" fill="#453c9e"/>
    <polygon points="98.23 279.359 100.998 277.761 100.998 273.206 98.23 274.804 98.23 279.359" fill="#453c9e"/>
    <polygon points="93.4 282.148 96.168 280.55 96.168 275.995 93.4 277.593 93.4 282.148" fill="#453c9e"/>
    <polygon points="88.569 284.937 91.337 283.339 91.337 278.784 88.569 280.382 88.569 284.937" fill="#453c9e"/>
    <polygon points="83.738 287.726 86.506 286.128 86.506 281.573 83.738 283.171 83.738 287.726" fill="#453c9e"/>
    <polygon points="78.908 290.515 81.676 288.917 81.676 284.362 78.908 285.96 78.908 290.515" fill="#453c9e"/>
    <polygon points="74.077 293.304 76.845 291.706 76.845 287.151 74.077 288.749 74.077 293.304" fill="#453c9e"/>
    <polygon points="69.246 296.093 72.014 294.495 72.014 289.94 69.246 291.538 69.246 296.093" fill="#453c9e"/>
    <polygon points="103.061 282.658 105.829 281.06 105.829 276.504 103.061 278.102 103.061 282.658" fill="#453c9e"/>
    <polygon points="98.23 285.447 100.998 283.849 100.998 279.293 98.23 280.891 98.23 285.447" fill="#453c9e"/>
    <polygon points="93.4 288.236 96.168 286.638 96.168 282.082 93.4 283.68 93.4 288.236" fill="#453c9e"/>
    <polygon points="88.569 291.025 91.337 289.427 91.337 284.871 88.569 286.469 88.569 291.025" fill="#453c9e"/>
    <polygon points="83.738 293.814 86.506 292.216 86.506 287.66 83.738 289.258 83.738 293.814" fill="#453c9e"/>
    <polygon points="78.908 296.603 81.676 295.005 81.676 290.449 78.908 292.047 78.908 296.603" fill="#453c9e"/>
    <polygon points="74.077 299.392 76.845 297.794 76.845 293.238 74.077 294.836 74.077 299.392" fill="#453c9e"/>
    <polygon points="69.246 302.181 72.014 300.583 72.014 296.027 69.246 297.625 69.246 302.181" fill="#453c9e"/>
    <polygon points="103.061 288.745 105.829 287.147 105.829 282.591 103.061 284.189 103.061 288.745" fill="#453c9e"/>
    <polygon points="98.23 291.534 100.998 289.936 100.998 285.38 98.23 286.978 98.23 291.534" fill="#453c9e"/>
    <polygon points="93.4 294.323 96.168 292.725 96.168 288.169 93.4 289.767 93.4 294.323" fill="#453c9e"/>
    <polygon points="88.569 297.112 91.337 295.514 91.337 290.958 88.569 292.556 88.569 297.112" fill="#453c9e"/>
    <polygon points="83.738 299.901 86.506 298.303 86.506 293.747 83.738 295.345 83.738 299.901" fill="#453c9e"/>
    <polygon points="78.908 302.69 81.676 301.092 81.676 296.536 78.908 298.134 78.908 302.69" fill="#453c9e"/>
    <polygon points="74.077 305.479 76.845 303.881 76.845 299.325 74.077 300.923 74.077 305.479" fill="#453c9e"/>
    <polygon points="69.246 308.268 72.014 306.67 72.014 302.114 69.246 303.712 69.246 308.268" fill="#453c9e"/>
    <polygon points="103.061 294.832 105.829 293.234 105.829 288.679 103.061 290.277 103.061 294.832" fill="#453c9e"/>
    <polygon points="98.23 297.621 100.998 296.023 100.998 291.468 98.23 293.066 98.23 297.621" fill="#453c9e"/>
    <polygon points="93.4 300.41 96.168 298.812 96.168 294.257 93.4 295.855 93.4 300.41" fill="#453c9e"/>
    <polygon points="88.569 303.199 91.337 301.601 91.337 297.046 88.569 298.644 88.569 303.199" fill="#453c9e"/>
    <polygon points="83.738 305.988 86.506 304.39 86.506 299.835 83.738 301.433 83.738 305.988" fill="#453c9e"/>
    <polygon points="78.908 308.777 81.676 307.179 81.676 302.624 78.908 304.222 78.908 308.777" fill="#453c9e"/>
    <polygon points="74.077 311.566 76.845 309.968 76.845 305.413 74.077 307.011 74.077 311.566" fill="#453c9e"/>
    <polygon points="69.246 314.355 72.014 312.757 72.014 308.202 69.246 309.8 69.246 314.355" fill="#453c9e"/>
    <polygon points="103.061 300.92 105.829 299.321 105.829 294.766 103.061 296.364 103.061 300.92" fill="#453c9e"/>
    <polygon class="color-change2" points="98.23 303.709 100.998 302.11 100.998 297.555 98.23 299.153 98.23 303.709" fill="url(#al)"/>
    <polygon points="93.4 306.498 96.168 304.899 96.168 300.344 93.4 301.942 93.4 306.498" fill="url(#am)"/>
    <polygon points="88.569 309.287 91.337 307.688 91.337 303.133 88.569 304.731 88.569 309.287" fill="url(#an)"/>
    <polygon points="83.738 312.076 86.506 310.477 86.506 305.922 83.738 307.52 83.738 312.076" fill="#453c9e"/>
    <polygon points="78.908 314.865 81.676 313.266 81.676 308.711 78.908 310.309 78.908 314.865" fill="#453c9e"/>
    <polygon points="74.077 317.654 76.845 316.055 76.845 311.5 74.077 313.098 74.077 317.654" fill="#453c9e"/>
    <polygon points="71.311 319.25 72.014 318.844 72.014 314.289 69.246 315.887 69.246 319.25 71.311 319.25"
             fill="#453c9e"/>
    <polygon points="103.061 307.007 105.829 305.409 105.829 300.853 103.061 302.451 103.061 307.007" fill="#453c9e"/>
    <polygon points="98.23 309.796 100.998 308.198 100.998 303.642 98.23 305.24 98.23 309.796" fill="#453c9e"/>
    <polygon points="93.4 312.585 96.168 310.987 96.168 306.431 93.4 308.029 93.4 312.585" fill="#453c9e"/>
    <polygon points="88.569 315.374 91.337 313.776 91.337 309.22 88.569 310.818 88.569 315.374" fill="#453c9e"/>
    <polygon points="83.738 318.163 86.506 316.565 86.506 312.009 83.738 313.607 83.738 318.163" fill="#453c9e"/>
    <polygon points="81.676 319.25 81.676 314.798 78.908 316.396 78.908 319.25 81.676 319.25" fill="#453c9e"/>
    <polygon points="103.061 313.094 105.829 311.496 105.829 306.94 103.061 308.539 103.061 313.094" fill="#453c9e"/>
    <polygon points="98.23 315.883 100.998 314.285 100.998 309.729 98.23 311.328 98.23 315.883" fill="#453c9e"/>
    <polygon points="93.4 318.672 96.168 317.074 96.168 312.518 93.4 314.117 93.4 318.672" fill="url(#ao)"/>
    <polygon class="color-change" points="91.337 319.25 91.337 315.307 88.569 316.906 88.569 319.25 91.337 319.25" fill="url(#ap)"/>
    <polygon points="103.061 319.182 105.829 317.583 105.829 313.028 103.061 314.626 103.061 319.182" fill="url(#aq)"/>
    <polygon points="100.998 319.25 100.998 315.817 98.23 317.415 98.23 319.25 100.998 319.25" fill="#453c9e"/>
    <polygon points="103.061 142.65 105.829 141.052 105.829 136.496 103.061 138.095 103.061 142.65" fill="#453c9e"/>
    <polygon points="98.23 145.439 100.998 143.841 100.998 139.285 98.23 140.884 98.23 145.439" fill="url(#ar)"/>
    <polygon points="93.4 148.228 96.168 146.63 96.168 142.074 93.4 143.673 93.4 148.228" fill="#453c9e"/>
    <polygon points="88.569 151.017 91.337 149.419 91.337 144.863 88.569 146.462 88.569 151.017" fill="#453c9e"/>
    <polygon points="83.738 153.806 86.506 152.208 86.506 147.652 83.738 149.251 83.738 153.806" fill="#453c9e"/>
    <polygon points="78.908 156.595 81.676 154.997 81.676 150.441 78.908 152.04 78.908 156.595" fill="#453c9e"/>
    <polygon points="74.077 159.384 76.845 157.786 76.845 153.23 74.077 154.829 74.077 159.384" fill="#453c9e"/>
    <polygon class="color-change" points="69.246 162.173 72.014 160.575 72.014 156.019 69.246 157.618 69.246 162.173" fill="url(#as)"/>
    <path d="M105.015,179.383a17.229,17.229,0,0,1,8.652-16.069L396.522.005h-37.5L101.883,149.418A33.147,33.147,0,0,0,85.2,179.582C91.8,179.7,98.409,179.767,105.015,179.383Z"
          fill="#453c9e"/>
    <path d="M113.667,162.46A17.2,17.2,0,0,0,105,177.893a17.182,17.182,0,0,1,8.668-14.579L396.522.005h-1.48Z"
          fill="url(#at)"/>
    <path d="M193.033,252.631l-6.61-11.447c-3.27-5.664-7.705-10.346-12.33-13.016l-60.4-34.757a17.176,17.176,0,0,1-8.674-14.028c-6.606.384-13.211.313-19.817.2a33.085,33.085,0,0,0,16.685,27.762l54.107,31.239c4.624,2.67,9.06,7.352,12.33,13.016l6.609,11.447c3.27,5.664,7.7,10.346,12.33,13.016l17.483,10.094,18.124-10.4-17.5-10.1A35.7,35.7,0,0,1,193.033,252.631Z"
          fill="#453c9e"/>
    <path d="M204.742,285.031l-17.483-10.094c-4.625-2.67-9.06-7.352-12.33-13.016l-6.609-11.447c-3.27-5.664-7.706-10.346-12.33-13.016l-54.107-31.239a33.038,33.038,0,0,1-16.611-26.636H85.2a33.085,33.085,0,0,0,16.685,27.762l54.107,31.239c4.624,2.67,9.06,7.352,12.33,13.016l6.609,11.447c3.27,5.664,7.7,10.346,12.33,13.016l17.483,10.094,18.124-10.4-.977-.564Z"
          fill="url(#au)"/>
    <path d="M205.36,260.65l23.16,13.37-18.1,10.41-23.16-13.37c-4.63-2.67-9.06-7.35-12.33-13.01l-6.61-11.45c-3.27-5.67-7.71-10.35-12.33-13.02l-54.11-31.24a33.44,33.44,0,0,1,0-57.92L352.02,0h35.83L113.67,158.31a17.366,17.366,0,0,0,.02,30.1l60.4,34.76c4.63,2.67,9.06,7.35,12.33,13.01l6.61,11.45C196.3,253.3,200.74,257.98,205.36,260.65Z"
          fill="#fff"/>
    <g opacity="0.3">
        <path d="M185.74,142.793a122.723,122.723,0,0,0-34.75-4.469q-2.52.021-4.99.131c-11.181,1.022-15.158,12.83-8.417,18,3.094,2.371,6.824,2.346,8.417,2.335q2.469-.109,4.99-.131a122.723,122.723,0,0,1,34.75,4.469c10.183,2.48,10.785-7.868,7.224-14.2a12.867,12.867,0,0,0-7.224-6.134Z"
              fill="#3d61cc"/>
        <path d="M216.178,188.741A16.6,16.6,0,0,0,212.4,178.53c-6.917-10.206-5.52-22.068-1.7-21.521a3.806,3.806,0,0,1,1.7,1.189,16.875,16.875,0,0,1,3.768,9.676c.007.178.01.357.01.535Z"
              fill="#3d61cc"/>
    </g>
    <g opacity="0.3">
        <path d="M144.338,143.58a.18.18,0,0,0,.18-.167c0-.084,0-.049-.06-.114s-.167-.141-.263-.227-.251-.216-.367-.307a.067.067,0,0,0-.028-.022c-.026-.012-.033-.042-.1-.021s-.17.057-.165.176c.015.342.025.741.036,1.078s.019.624.033.953a.784.784,0,0,0,.006.117l-.13.017c-.05.006-.108.005-.163.009a1.014,1.014,0,0,0-.146.011c-.072.012-.172.059-.166.164a.156.156,0,0,0,.158.154h.014c.424-.015.8-.032,1.227-.064a.166.166,0,0,0,.163-.169v0c-.007-.1-.09-.141-.18-.146s-.218.014-.293.013-.083,0-.145,0v-.124c-.008-.226-.016-.424-.022-.652s-.011-.459-.022-.7c0-.075-.01-.2-.011-.286l.232.177a.558.558,0,0,1,.06.049c.022.02.026.03.045.039s-.009,0,.007,0A.453.453,0,0,0,144.338,143.58Z"
              fill="#3d61cc" stroke="#2adc7d" stroke-miterlimit="10" stroke-width="0.264"/>
        <path d="M146.207,143.922a.141.141,0,0,0-.06-.14c-.049-.045-.066-.041-.153-.047a.219.219,0,0,0-.195.195.182.182,0,0,0,.059.14c.034.045.114.045.139.048s.009,0,.012,0A.206.206,0,0,0,146.207,143.922Z"
              fill="#3d61cc" stroke="#2adc7d" stroke-miterlimit="10" stroke-width="0.264"/>
        <path d="M145.976,142.94a.737.737,0,0,0-.732.727,2.5,2.5,0,0,0,.014.586.733.733,0,0,0,.775.671h.014a.776.776,0,0,0,.722-.741,4.342,4.342,0,0,0-.007-.535.486.486,0,0,0,0-.054.718.718,0,0,0-.776-.655Zm.083,2.3a.089.089,0,0,1-.023,0,1.077,1.077,0,0,1-1.122-.988,2.05,2.05,0,0,1-.012-.542,1.1,1.1,0,0,1,1.076-1.074,1.028,1.028,0,0,1,1.119.928l0,.029a2.042,2.042,0,0,1,.013.541,1.15,1.15,0,0,1-1.053,1.1Z"
              fill="#3d61cc" stroke="#2adc7d" stroke-miterlimit="10" stroke-width="0.264"/>
        <path d="M148.807,143.358c.067,0,.186-.083.174-.166s.008-.051-.058-.115-.163-.139-.258-.225-.25-.217-.366-.309a.056.056,0,0,0-.029-.021c-.025-.012-.033-.046-.1-.02s-.175.037-.171.179.006.418.01.571c.01.5.018.961.031,1.452v.117l-.13.015c-.05.006-.1.006-.161.01a1.048,1.048,0,0,0-.148.007c-.072.012-.18.063-.175.168a.156.156,0,0,0,.158.154h.013c.428-.012.809-.034,1.239-.062a.176.176,0,0,0,.169-.175c0-.105-.107-.137-.169-.141a.557.557,0,0,0-.1,0h-.062c-.038,0-.1.006-.145.006h-.137v-.127c-.007-.277-.012-.542-.017-.817,0-.18,0-.344-.009-.532,0-.077-.007-.2-.008-.283.061.046.182.142.229.177s.029.028.058.048.017.023.052.041A.169.169,0,0,0,148.807,143.358Z"
              fill="#3d61cc" stroke="#2adc7d" stroke-miterlimit="10" stroke-width="0.264"/>
        <path d="M150.684,143.709a.17.17,0,0,0-.06-.137.211.211,0,0,0-.15-.052h0a.212.212,0,0,0-.2.2.153.153,0,0,0,.056.136.191.191,0,0,0,.146.051h.02C150.56,143.907,150.7,143.795,150.684,143.709Z"
              fill="#3d61cc" stroke="#2adc7d" stroke-miterlimit="10" stroke-width="0.264"/>
        <path d="M150.47,142.41a1.083,1.083,0,0,1,1.134.984.235.235,0,0,1,0,.053,2.944,2.944,0,0,1-.007.488,1.148,1.148,0,0,1-1.114,1.072,1.036,1.036,0,0,1-1.116-.949l0-.023a1.944,1.944,0,0,1-.01-.544,1.153,1.153,0,0,1,1.088-1.08A.062.062,0,0,1,150.47,142.41Zm.04,2.3a.775.775,0,0,0,.733-.733,2.7,2.7,0,0,0,0-.582.736.736,0,0,0-.782-.676h-.015a.769.769,0,0,0-.732.728,2.436,2.436,0,0,0,.01.585.733.733,0,0,0,.775.677Z"
              fill="#3d61cc" stroke="#2adc7d" stroke-miterlimit="10" stroke-width="0.264"/>
        <path d="M153.316,143.211a.186.186,0,0,0,.2-.163c0-.086.011-.047-.051-.114s-.168-.147-.261-.237-.247-.223-.362-.317a.053.053,0,0,0-.028-.023c-.026-.013-.033-.047-.1-.025s-.177.042-.177.174c0,.666-.008,1.355-.01,2.031v.117l-.128.009h-.164a.742.742,0,0,0-.149,0c-.069.01-.19.053-.178.16s.052.152.175.154c.4.008.833-.013,1.232-.013a.174.174,0,0,0,.185-.162v0c.008-.079,0-.057-.028-.1s-.094-.049-.145-.055a1.353,1.353,0,0,0-.156,0h-.29v-1.759c.059.045.18.146.224.182a.68.68,0,0,1,.057.05c.022.022.029.023.047.042A.265.265,0,0,0,153.316,143.211Z"
              fill="#3d61cc" stroke="#2adc7d" stroke-miterlimit="10" stroke-width="0.264"/>
        <path d="M155.4,143.219c.069-.008.2-.049.189-.171,0-.041.012-.053-.051-.108s-.151-.146-.246-.236a4.635,4.635,0,0,0-.379-.349c-.043-.032-.039-.051-.114-.036s-.183.034-.185.167c0,.307-.012.591-.019.927s-.017.754-.022,1.11v.117c-.047,0-.08.005-.131.007s-.107,0-.162,0a1.285,1.285,0,0,0-.152,0c-.069.007-.191.048-.179.155s.045.157.176.161c.405.012.819.011,1.244.013a.173.173,0,0,0,.18-.164h0c0-.107-.1-.142-.169-.152a.877.877,0,0,0-.162,0h-.15l-.14-.006v-.127c0-.419.013-.8.023-1.231,0-.107.006-.288.011-.405.057.049.172.154.219.191s.03.032.057.053.015.026.049.043S155.336,143.227,155.4,143.219Z"
              fill="#3d61cc" stroke="#2adc7d" stroke-miterlimit="10" stroke-width="0.264"/>
        <path d="M157.291,143.692c0-.088,0-.093-.051-.144s-.067-.047-.153-.06a.218.218,0,0,0-.216.179c0,.088,0,.091.051.141s.069.051.156.063A.217.217,0,0,0,157.291,143.692Z"
              fill="#3d61cc" stroke="#2adc7d" stroke-miterlimit="10" stroke-width="0.264"/>
        <path d="M156.32,143.359a2.307,2.307,0,0,0-.019.587.767.767,0,0,0,.747.736.235.235,0,0,0,.053,0,.757.757,0,0,0,.736-.673,2.528,2.528,0,0,0,.025-.583.728.728,0,0,0-.726-.73h-.017A.74.74,0,0,0,156.32,143.359Zm-.376.573a1.921,1.921,0,0,1,.018-.546,1.138,1.138,0,0,1,1.1-1.013.305.305,0,0,1,.074,0,1.1,1.1,0,0,1,1.076,1.075,2.064,2.064,0,0,1-.024.544,1.129,1.129,0,0,1-2.248-.06Z"
              fill="#3d61cc" stroke="#2adc7d" stroke-miterlimit="10" stroke-width="0.264"/>
        <path d="M159.856,144.006a.224.224,0,0,0,.22-.173c0-.088,0-.092-.05-.144s-.066-.052-.153-.068a.217.217,0,0,0-.217.175c0,.088,0,.094.048.145S159.771,143.993,159.856,144.006Z"
              fill="#3d61cc" stroke="#2adc7d" stroke-miterlimit="10" stroke-width="0.264"/>
        <path d="M159.924,142.831a.718.718,0,0,0-.806.618l0,.02a2.473,2.473,0,0,0-.035.589.775.775,0,0,0,.733.76.167.167,0,0,0,.063,0,.747.747,0,0,0,.739-.655,2.531,2.531,0,0,0,.037-.583A.742.742,0,0,0,159.924,142.831Zm-.132,2.293a1.116,1.116,0,0,1-1.063-1.1,1.889,1.889,0,0,1,.029-.546,1.133,1.133,0,0,1,2.252.139,1.934,1.934,0,0,1-.039.547,1.084,1.084,0,0,1-1.179.96Z"
              fill="#3d61cc" stroke="#2adc7d" stroke-miterlimit="10" stroke-width="0.264"/>
        <path d="M162.75,143.606c.067.01.195-.063.192-.148s.015-.051-.047-.125-.148-.159-.24-.26-.239-.272-.356-.376c-.039-.035-.033-.049-.108-.04s-.182.02-.19.158-.031.4-.041.541c-.037.513-.072.991-.105,1.5,0,.032-.006.084-.007.12h-.132c-.051,0-.107-.009-.163-.013a1.259,1.259,0,0,0-.15-.01c-.073,0-.194.038-.192.148a.16.16,0,0,0,.144.174h.021c.419.046.82.084,1.248.121a.165.165,0,0,0,.185-.142v-.011c.011-.107-.088-.162-.162-.178a.861.861,0,0,0-.16-.017c-.056-.006-.1-.009-.15-.016l-.137-.018a.719.719,0,0,1,.007-.124c.019-.313.038-.561.061-.887.016-.217.036-.532.054-.764.057.052.171.167.214.209s.028.034.054.059.012.025.047.047A.183.183,0,0,0,162.75,143.606Z"
              fill="#3d61cc" stroke="#2adc7d" stroke-miterlimit="10" stroke-width="0.264"/>
        <path d="M164.8,143.825a.173.173,0,0,0,.2-.141v0c.007-.088.011-.054-.046-.13s-.139-.156-.225-.26-.233-.275-.346-.386a.1.1,0,0,0-.028-.025c-.025-.016-.028-.049-.1-.037s-.179.023-.19.151c-.055.682-.114,1.38-.163,2.071,0,.031-.006.086-.008.12l-.134-.007a1.434,1.434,0,0,1-.163-.019c-.05-.007-.1-.011-.15-.013-.074,0-.185.032-.19.141a.172.172,0,0,0,.156.187h0c.435.054.82.1,1.257.142a.165.165,0,0,0,.185-.142v-.007c.009-.107-.088-.162-.162-.18a1.118,1.118,0,0,0-.163-.021c-.056-.008-.1-.011-.15-.019s-.088-.012-.136-.019c0-.035,0-.094.008-.125.019-.286.043-.576.066-.855s.041-.544.066-.817c.055.059.169.177.211.222a.6.6,0,0,1,.053.06c.021.026.025.028.043.051A.268.268,0,0,0,164.8,143.825Z"
              fill="#3d61cc" stroke="#2adc7d" stroke-miterlimit="10" stroke-width="0.264"/>
        <path d="M166.6,144.639c.057-.042.06-.053.075-.142a.233.233,0,0,0-.188-.219c-.089,0-.107-.009-.162.034s-.06.056-.074.143a.236.236,0,0,0,.187.22C166.524,144.68,166.543,144.682,166.6,144.639Z"
              fill="#3d61cc" stroke="#2adc7d" stroke-miterlimit="10" stroke-width="0.264"/>
        <path d="M166.544,143.469a.694.694,0,0,0-.818.54q-.006.03-.009.06a2.57,2.57,0,0,0-.049.6.833.833,0,0,0,.7.83.391.391,0,0,0,.108.009.709.709,0,0,0,.722-.619,2.813,2.813,0,0,0,.052-.6A.8.8,0,0,0,166.544,143.469Zm-.2,2.342a1.192,1.192,0,0,1-1.034-1.208,2.155,2.155,0,0,1,.045-.555,1.048,1.048,0,0,1,1.044-.921.524.524,0,0,1,.172.016,1.226,1.226,0,0,1,1.04,1.226,2.006,2.006,0,0,1-.051.557,1.031,1.031,0,0,1-1.151.9l-.062-.01Z"
              fill="#3d61cc" stroke="#2adc7d" stroke-miterlimit="10" stroke-width="0.264"/>
        <path d="M169.581,144.4c.009-.088.009-.053-.047-.134s-.151-.182-.237-.292-.23-.279-.334-.4l-.023-.026a.125.125,0,0,0-.114-.053c-.074,0-.178.007-.19.132-.063.688-.132,1.386-.2,2.081,0,.031-.01.088-.013.123a1.093,1.093,0,0,1-.135-.015c-.052-.006-.107-.019-.165-.029a.974.974,0,0,0-.153-.023.165.165,0,0,0-.193.13c-.016.109.1.188.164.2.405.075.884.158,1.237.213.192.03.168-.022.213-.127s-.1-.173-.163-.2a1.274,1.274,0,0,0-.174-.034c-.054-.012-.09-.015-.137-.024l-.134-.028c0-.04.011-.087.014-.123l.059-.57c.024-.231.055-.541.081-.8.007-.073.018-.218.028-.3.054.059.167.188.209.234a.492.492,0,0,1,.05.061c.021.026.034.03.044.053s0-.017,0,.009.087.066.107.068C169.48,144.537,169.572,144.487,169.581,144.4Z"
              fill="#3d61cc" stroke="#2adc7d" stroke-miterlimit="10" stroke-width="0.264"/>
        <path d="M171.474,144.952c.1.019.2-.023.21-.11s.011-.054-.045-.135-.138-.174-.225-.288-.243-.317-.354-.436c-.043-.046-.042-.071-.121-.063s-.176-.041-.2.132-.063.554-.086.757c-.05.443-.095.851-.146,1.286,0,.033-.011.087-.014.123l-.135-.019c-.052-.007-.11-.021-.166-.031a1.114,1.114,0,0,0-.153-.028c-.069,0-.193.011-.191.122s.029.172.168.2c.391.084.842.179,1.242.256.12.023.171-.016.2-.123s-.089-.177-.16-.2a1.076,1.076,0,0,0-.159-.036c-.056-.013-.1-.021-.153-.034l-.129-.034a1.092,1.092,0,0,1,.015-.12c.053-.449.1-.872.154-1.326.01-.086.025-.234.038-.327l.2.236a.417.417,0,0,1,.049.062c.02.028.03.032.046.058A.36.36,0,0,0,171.474,144.952Z"
              fill="#3d61cc" stroke="#2adc7d" stroke-miterlimit="10" stroke-width="0.264"/>
        <path d="M172.9,145.72a.272.272,0,0,0,.187.238.233.233,0,0,0,.17-.014c.055-.024.062-.086.071-.115s0-.026,0-.039a.247.247,0,0,0-.2-.219.088.088,0,0,0-.053-.007.132.132,0,0,0-.107.027A.163.163,0,0,0,172.9,145.72Z"
              fill="#3d61cc" stroke="#2adc7d" stroke-miterlimit="10" stroke-width="0.264"/>
        <path d="M172.307,145.886a.864.864,0,0,0,.669.877.485.485,0,0,0,.177.027.666.666,0,0,0,.692-.548,2.583,2.583,0,0,0,.078-.587.841.841,0,0,0-.669-.877.668.668,0,0,0-.845.422.777.777,0,0,0-.024.095A2.458,2.458,0,0,0,172.307,145.886Zm-.357-.114a2.074,2.074,0,0,1,.069-.543.991.991,0,0,1,1.014-.806.739.739,0,0,1,.256.037,1.3,1.3,0,0,1,.994,1.316,1.823,1.823,0,0,1-.074.544.982.982,0,0,1-1.154.775.892.892,0,0,1-.113-.029,1.259,1.259,0,0,1-.992-1.294Z"
              fill="#3d61cc" stroke="#2adc7d" stroke-miterlimit="10" stroke-width="0.264"/>
        <path d="M176.111,146.51c.021-.086-.094-.23-.181-.245s-.1-.02-.162.016-.057.038-.077.124a.262.262,0,0,0,.18.243c.087.013.107.023.165-.014S176.091,146.6,176.111,146.51Z"
              fill="#3d61cc" stroke="#2adc7d" stroke-miterlimit="10" stroke-width="0.264"/>
        <path d="M176.062,145.474a.661.661,0,0,0-.875.505,2.516,2.516,0,0,0-.088.585.859.859,0,0,0,.645.886.5.5,0,0,0,.191.032.662.662,0,0,0,.683-.537,2.715,2.715,0,0,0,.089-.587A.832.832,0,0,0,176.062,145.474Zm-.35,2.281a1.267,1.267,0,0,1-.966-1.312,1.9,1.9,0,0,1,.077-.546.97.97,0,0,1,1.138-.766.911.911,0,0,1,.136.037,1.252,1.252,0,0,1,.963,1.322,2.007,2.007,0,0,1-.087.544.961.961,0,0,1-1.131.756.862.862,0,0,1-.13-.035Z"
              fill="#3d61cc" stroke="#2adc7d" stroke-miterlimit="10" stroke-width="0.264"/>
        <path d="M178.7,146.722a.349.349,0,0,0,.109.085c.1.023.2-.014.206-.1s.018-.051-.035-.134-.129-.179-.211-.3-.228-.328-.333-.458c-.04-.049-.042-.062-.116-.074s-.175,0-.193.1l-.02.111c-.108.639-.218,1.269-.318,1.911a1.267,1.267,0,0,1-.018.128l-.139-.028c-.05-.01-.112-.029-.162-.042a.916.916,0,0,0-.146-.036c-.049-.007-.117-.018-.153.02s-.041.01-.044.091a.2.2,0,0,0,.165.21c.385.1.823.229,1.211.324.122.03.168,0,.2-.1s-.082-.181-.151-.209a1.093,1.093,0,0,0-.158-.045c-.055-.017-.1-.027-.149-.043s-.079-.024-.123-.042c.031-.172.072-.41.1-.569.055-.317.1-.567.148-.878.014-.081.035-.209.052-.3.051.063.155.2.191.248.016.021.032.043.046.065S178.688,146.7,178.7,146.722Z"
              fill="#3d61cc" stroke="#2adc7d" stroke-miterlimit="10" stroke-width="0.264"/>
        <path d="M179.146,146.78l-.01.022Z" fill="#3d61cc" stroke="#2adc7d" stroke-miterlimit="10"
              stroke-width="0.264"/>
        <path d="M180.347,147.868c.087.014.109.022.165-.014s.063-.036.077-.122a.23.23,0,0,0-.178-.241.132.132,0,0,0-.059-.008.126.126,0,0,0-.1.025.156.156,0,0,0-.075.121A.257.257,0,0,0,180.347,147.868Z"
              fill="#3d61cc" stroke="#2adc7d" stroke-miterlimit="10" stroke-width="0.264"/>
        <path d="M181.085,148.16a2.664,2.664,0,0,0,.1-.575.8.8,0,0,0-.622-.875.671.671,0,0,0-.858.405.682.682,0,0,0-.023.077,2.373,2.373,0,0,0-.1.579.835.835,0,0,0,.62.887.49.49,0,0,0,.2.033A.677.677,0,0,0,181.085,148.16Zm-.925.8a1.23,1.23,0,0,1-.925-1.316,2.087,2.087,0,0,1,.1-.537.993.993,0,0,1,.988-.76.768.768,0,0,1,.3.048,1.246,1.246,0,0,1,.923,1.317,1.939,1.939,0,0,1-.1.534.988.988,0,0,1-1.182.742.949.949,0,0,1-.1-.03Z"
              fill="#3d61cc" stroke="#2adc7d" stroke-miterlimit="10" stroke-width="0.264"/>
        <path d="M181.7,149.405c.421.117.8.212,1.218.308a.151.151,0,0,0,.193-.092.128.128,0,0,0,.007-.028c.023-.106-.071-.175-.143-.2a1.265,1.265,0,0,0-.158-.041c-.055-.014-.1-.022-.146-.035s-.082-.022-.128-.036c.007-.034.017-.088.023-.119.042-.227.086-.442.128-.667s.079-.434.123-.667c.015-.079.036-.209.055-.294.049.062.152.194.188.242a.593.593,0,0,1,.045.064c.018.028.025.033.038.056a.309.309,0,0,0,.095.074c.1.019.2-.024.211-.109s.017-.052-.034-.134-.134-.186-.208-.3-.192-.286-.288-.407c0-.006,0-.009-.023-.028s-.028-.057-.1-.054-.172,0-.194.121c-.123.663-.255,1.339-.379,2.01-.006.032-.016.088-.022.123l-.136-.026c-.052-.009-.109-.027-.164-.04a1.16,1.16,0,0,0-.144-.034c-.071-.009-.174,0-.194.1A.187.187,0,0,0,181.7,149.405Z"
              fill="#3d61cc" stroke="#2adc7d" stroke-miterlimit="10" stroke-width="0.264"/>
        <path d="M185,148.806a.222.222,0,0,0-.162-.224c-.084-.012-.106-.016-.164.021s-.061.041-.083.125a.229.229,0,0,0,.164.229c.084.011.1.015.157-.021S184.975,148.89,185,148.806Z"
              fill="#3d61cc" stroke="#2adc7d" stroke-miterlimit="10" stroke-width="0.264"/>
        <path d="M185.822,149.249a1.086,1.086,0,0,1-1.27.8c-.695-.138-.893-.642-.9-1.255a1.72,1.72,0,0,1,.1-.541,1.024,1.024,0,0,1,1.225-.772l.054.014a1.1,1.1,0,0,1,.889,1.229A2.232,2.232,0,0,1,185.822,149.249Zm-.23-.61a.747.747,0,0,0-.609-.842.7.7,0,0,0-.868.475l-.011.041a2.563,2.563,0,0,0-.111.576.775.775,0,0,0,.608.864.418.418,0,0,0,.161.017.74.74,0,0,0,.716-.561,2.572,2.572,0,0,0,.114-.57Z"
              fill="#3d61cc" stroke="#2adc7d" stroke-miterlimit="10" stroke-width="0.264"/>
    </g>
    <g opacity="0.3">
        <path d="M144.338,147.8a.181.181,0,0,0,.18-.168c0-.084,0-.049-.06-.114s-.167-.141-.263-.227-.251-.216-.367-.307a.067.067,0,0,0-.028-.022c-.026-.012-.033-.042-.1-.021s-.17.057-.165.176c.015.343.025.741.036,1.078s.019.624.033.953a.784.784,0,0,0,.006.117l-.13.017c-.05.006-.108,0-.163.009a1.014,1.014,0,0,0-.146.011c-.072.012-.172.06-.166.164a.156.156,0,0,0,.158.154h.014c.424-.014.8-.032,1.227-.064a.166.166,0,0,0,.163-.169v0c-.007-.1-.09-.14-.18-.146s-.218.014-.293.013-.083,0-.145,0v-.125c-.008-.225-.016-.424-.022-.652s-.011-.458-.022-.7c0-.075-.01-.2-.011-.286.06.046.186.143.232.177a.558.558,0,0,1,.06.049c.022.021.026.031.045.039s-.009,0,.007,0A.484.484,0,0,0,144.338,147.8Z"
              fill="#3d61cc" stroke="#2adc7d" stroke-miterlimit="10" stroke-width="0.264"/>
        <path d="M146.207,148.139a.141.141,0,0,0-.06-.14c-.049-.045-.066-.041-.153-.047a.221.221,0,0,0-.195.2.18.18,0,0,0,.059.139c.034.046.114.045.139.048s.009,0,.012,0A.206.206,0,0,0,146.207,148.139Z"
              fill="#3d61cc" stroke="#2adc7d" stroke-miterlimit="10" stroke-width="0.264"/>
        <path d="M145.976,147.157a.737.737,0,0,0-.732.727,2.5,2.5,0,0,0,.014.586.733.733,0,0,0,.775.671h.014a.776.776,0,0,0,.722-.741,4.342,4.342,0,0,0-.007-.535.486.486,0,0,0,0-.054.718.718,0,0,0-.776-.655Zm.083,2.3a.089.089,0,0,1-.023,0,1.079,1.079,0,0,1-1.122-.989,2.042,2.042,0,0,1-.012-.541,1.1,1.1,0,0,1,1.076-1.075,1.028,1.028,0,0,1,1.119.928l0,.029a2.042,2.042,0,0,1,.013.541,1.15,1.15,0,0,1-1.053,1.105Z"
              fill="#3d61cc" stroke="#2adc7d" stroke-miterlimit="10" stroke-width="0.264"/>
        <path d="M148.807,147.575c.067,0,.186-.082.174-.166s.008-.051-.058-.115-.163-.139-.258-.225-.25-.217-.366-.309a.056.056,0,0,0-.029-.021c-.025-.012-.033-.046-.1-.02s-.175.037-.171.179.006.418.01.571c.01.5.018.961.031,1.452v.117l-.13.016a1,1,0,0,0-.161.009,1.049,1.049,0,0,0-.148.008c-.072.011-.18.063-.175.167a.156.156,0,0,0,.158.154h.013c.428-.012.809-.034,1.239-.062a.175.175,0,0,0,.169-.175c0-.1-.107-.136-.169-.141a.557.557,0,0,0-.1,0h-.062c-.038,0-.1.006-.145.006h-.137v-.127c-.007-.277-.012-.542-.017-.816,0-.18,0-.345-.009-.533,0-.077-.007-.2-.008-.283.061.046.182.142.229.177s.029.028.058.049.017.022.052.041A.17.17,0,0,0,148.807,147.575Z"
              fill="#3d61cc" stroke="#2adc7d" stroke-miterlimit="10" stroke-width="0.264"/>
        <path d="M150.684,147.926a.168.168,0,0,0-.06-.136.207.207,0,0,0-.15-.053h0a.214.214,0,0,0-.2.195.152.152,0,0,0,.056.136.191.191,0,0,0,.146.051h.02C150.56,148.119,150.7,148.012,150.684,147.926Z"
              fill="#3d61cc" stroke="#2adc7d" stroke-miterlimit="10" stroke-width="0.264"/>
        <path d="M150.47,146.627a1.084,1.084,0,0,1,1.134.984.244.244,0,0,1,0,.054,2.934,2.934,0,0,1-.007.487,1.148,1.148,0,0,1-1.114,1.072,1.035,1.035,0,0,1-1.116-.947l0-.025a1.937,1.937,0,0,1-.01-.543,1.154,1.154,0,0,1,1.088-1.081A.082.082,0,0,1,150.47,146.627Zm.04,2.3a.775.775,0,0,0,.733-.733,2.7,2.7,0,0,0,0-.582.737.737,0,0,0-.782-.676h-.015a.769.769,0,0,0-.732.728,2.436,2.436,0,0,0,.01.585.735.735,0,0,0,.775.678Z"
              fill="#3d61cc" stroke="#2adc7d" stroke-miterlimit="10" stroke-width="0.264"/>
        <path d="M153.316,147.428a.186.186,0,0,0,.2-.163c0-.086.011-.047-.051-.114s-.168-.146-.261-.236-.247-.224-.362-.318a.07.07,0,0,0-.028-.023c-.026-.013-.033-.047-.1-.025s-.177.042-.177.174c0,.666-.008,1.355-.01,2.031v.118a.71.71,0,0,0-.128.008,1.122,1.122,0,0,1-.164,0,.742.742,0,0,0-.149,0c-.069.01-.19.053-.178.16s.052.152.175.155c.4.008.833-.014,1.232-.014a.173.173,0,0,0,.185-.16v0c.008-.079,0-.057-.028-.1s-.094-.05-.145-.056a1.353,1.353,0,0,0-.156,0h-.29V147.1c.059.046.18.146.224.182a.7.7,0,0,1,.057.05.512.512,0,0,1,.047.043A.286.286,0,0,0,153.316,147.428Z"
              fill="#3d61cc" stroke="#2adc7d" stroke-miterlimit="10" stroke-width="0.264"/>
        <path d="M155.4,147.436c.069-.008.2-.049.189-.171,0-.041.012-.053-.051-.108s-.151-.145-.246-.236a5,5,0,0,0-.379-.349c-.043-.032-.039-.051-.114-.035s-.183.033-.185.166c0,.307-.012.592-.019.927s-.017.754-.022,1.11v.117a.743.743,0,0,0-.131.008,1.1,1.1,0,0,1-.162,0,1.285,1.285,0,0,0-.152,0c-.069.007-.191.048-.179.155s.045.158.176.161c.405.012.819.011,1.244.013a.172.172,0,0,0,.18-.164h0c0-.108-.1-.143-.169-.153a1.1,1.1,0,0,0-.162,0h-.15l-.14-.007v-.127c0-.419.013-.805.023-1.23,0-.108.006-.289.011-.405.057.049.172.154.219.19s.03.032.057.054.015.025.049.042S155.336,147.444,155.4,147.436Z"
              fill="#3d61cc" stroke="#2adc7d" stroke-miterlimit="10" stroke-width="0.264"/>
        <path d="M157.291,147.91c0-.089,0-.094-.051-.144s-.067-.048-.153-.061a.219.219,0,0,0-.216.179c0,.088,0,.091.051.141s.069.051.156.063A.216.216,0,0,0,157.291,147.91Z"
              fill="#3d61cc" stroke="#2adc7d" stroke-miterlimit="10" stroke-width="0.264"/>
        <path d="M156.32,147.577a2.3,2.3,0,0,0-.019.586.767.767,0,0,0,.747.736.235.235,0,0,0,.053,0,.758.758,0,0,0,.736-.673,2.537,2.537,0,0,0,.025-.584.728.728,0,0,0-.726-.73h-.017A.741.741,0,0,0,156.32,147.577Zm-.376.572a1.921,1.921,0,0,1,.018-.546,1.138,1.138,0,0,1,1.1-1.013.305.305,0,0,1,.074,0,1.1,1.1,0,0,1,1.076,1.074,2.064,2.064,0,0,1-.024.544,1.129,1.129,0,0,1-2.248-.06Z"
              fill="#3d61cc" stroke="#2adc7d" stroke-miterlimit="10" stroke-width="0.264"/>
        <path d="M159.856,148.223a.222.222,0,0,0,.22-.172c0-.088,0-.093-.05-.145s-.066-.052-.153-.067a.215.215,0,0,0-.217.174c0,.088,0,.094.048.145S159.771,148.21,159.856,148.223Z"
              fill="#3d61cc" stroke="#2adc7d" stroke-miterlimit="10" stroke-width="0.264"/>
        <path d="M159.924,147.048a.718.718,0,0,0-.806.618l0,.02a2.484,2.484,0,0,0-.035.59.776.776,0,0,0,.733.76.331.331,0,0,0,.063,0,.749.749,0,0,0,.739-.656,2.531,2.531,0,0,0,.037-.583A.744.744,0,0,0,159.924,147.048Zm-.132,2.293a1.116,1.116,0,0,1-1.063-1.1,1.889,1.889,0,0,1,.029-.546,1.133,1.133,0,0,1,2.252.139,1.939,1.939,0,0,1-.039.548,1.084,1.084,0,0,1-1.179.959Z"
              fill="#3d61cc" stroke="#2adc7d" stroke-miterlimit="10" stroke-width="0.264"/>
        <path d="M162.75,147.823c.067.01.195-.063.192-.148s.015-.051-.047-.124-.148-.16-.24-.261-.239-.272-.356-.376c-.039-.034-.033-.049-.108-.039s-.182.019-.19.158-.031.4-.041.54c-.037.513-.072.991-.105,1.5,0,.032-.006.085-.007.12h-.132c-.051,0-.107-.009-.163-.013a.944.944,0,0,0-.15-.009c-.073,0-.194.038-.192.147a.159.159,0,0,0,.142.174h.023c.419.046.82.085,1.248.121a.165.165,0,0,0,.185-.142v-.011c.011-.107-.088-.162-.162-.178a1.072,1.072,0,0,0-.16-.017c-.056-.006-.1-.008-.15-.015l-.137-.018a.725.725,0,0,1,.007-.125c.019-.312.038-.561.061-.887.016-.217.036-.532.054-.763.057.052.171.166.214.208s.028.034.054.059.012.025.047.047A.209.209,0,0,0,162.75,147.823Z"
              fill="#3d61cc" stroke="#2adc7d" stroke-miterlimit="10" stroke-width="0.264"/>
        <path d="M164.8,148.042a.173.173,0,0,0,.2-.141v0c.007-.088.011-.055-.046-.13s-.139-.156-.225-.261-.233-.275-.346-.386a.092.092,0,0,0-.028-.024c-.025-.017-.028-.05-.1-.038s-.179.023-.19.151c-.055.682-.114,1.38-.163,2.071,0,.031-.006.086-.008.12a.886.886,0,0,1-.134-.007c-.052-.007-.106-.012-.163-.018a1.087,1.087,0,0,0-.15-.014c-.074,0-.185.032-.19.141a.172.172,0,0,0,.156.187h0c.435.054.82.1,1.257.142a.165.165,0,0,0,.185-.142v-.007c.009-.107-.088-.162-.162-.18a1.118,1.118,0,0,0-.163-.021c-.056-.008-.1-.01-.15-.019s-.088-.011-.136-.019c0-.035,0-.093.008-.125.019-.286.043-.576.066-.855s.041-.543.066-.817c.055.059.169.177.211.222a.63.63,0,0,1,.053.06c.021.026.025.028.043.051A.268.268,0,0,0,164.8,148.042Z"
              fill="#3d61cc" stroke="#2adc7d" stroke-miterlimit="10" stroke-width="0.264"/>
        <path d="M166.6,148.857c.057-.043.06-.054.075-.143a.233.233,0,0,0-.188-.219c-.089,0-.107-.008-.162.034s-.06.056-.074.143a.238.238,0,0,0,.187.221C166.524,148.9,166.543,148.9,166.6,148.857Z"
              fill="#3d61cc" stroke="#2adc7d" stroke-miterlimit="10" stroke-width="0.264"/>
        <path d="M166.544,147.687a.692.692,0,0,0-.817.538c0,.021-.008.041-.01.062a2.625,2.625,0,0,0-.049.6.833.833,0,0,0,.7.83.391.391,0,0,0,.108.009.708.708,0,0,0,.722-.618,2.813,2.813,0,0,0,.052-.6A.8.8,0,0,0,166.544,147.687Zm-.2,2.342a1.193,1.193,0,0,1-1.034-1.209,2.155,2.155,0,0,1,.045-.555,1.048,1.048,0,0,1,1.044-.921.524.524,0,0,1,.172.016,1.226,1.226,0,0,1,1.04,1.226,2.006,2.006,0,0,1-.051.557,1.031,1.031,0,0,1-1.152.9.6.6,0,0,1-.061-.009Z"
              fill="#3d61cc" stroke="#2adc7d" stroke-miterlimit="10" stroke-width="0.264"/>
        <path d="M169.581,148.616c.009-.089.009-.054-.047-.135s-.151-.182-.237-.292-.23-.279-.334-.4c0-.006,0-.006-.023-.026a.12.12,0,0,0-.114-.053c-.074,0-.178.006-.19.131-.063.689-.132,1.386-.2,2.081,0,.032-.01.088-.013.123a1.093,1.093,0,0,1-.135-.015c-.052-.006-.107-.019-.165-.028a.975.975,0,0,0-.153-.024.166.166,0,0,0-.193.131c-.016.109.1.187.164.2.405.075.884.159,1.237.214.192.029.168-.023.213-.128s-.1-.173-.163-.2a1.141,1.141,0,0,0-.174-.035c-.054-.011-.09-.014-.137-.024l-.134-.028c0-.039.011-.087.014-.123l.059-.57c.024-.231.055-.541.081-.8.007-.074.018-.218.028-.3.054.059.167.189.209.234a.424.424,0,0,1,.05.062c.021.026.034.03.044.052s0-.016,0,.009.087.067.107.069A.176.176,0,0,0,169.581,148.616Z"
              fill="#3d61cc" stroke="#2adc7d" stroke-miterlimit="10" stroke-width="0.264"/>
        <path d="M171.474,149.17c.1.018.2-.023.21-.111s.011-.053-.045-.134-.138-.175-.225-.289-.243-.317-.354-.435c-.043-.046-.042-.072-.121-.064s-.176-.041-.2.132-.063.554-.086.757c-.05.443-.095.851-.146,1.286,0,.033-.011.087-.014.123l-.135-.019c-.052-.007-.11-.021-.166-.031a.98.98,0,0,0-.153-.027c-.069-.006-.193.01-.191.121s.029.172.168.2c.391.084.842.18,1.242.256.12.023.171-.015.2-.122s-.089-.177-.16-.2a1.076,1.076,0,0,0-.159-.036c-.056-.012-.1-.021-.153-.034l-.129-.034a1.1,1.1,0,0,1,.015-.119c.053-.449.1-.873.154-1.327.01-.086.025-.234.038-.326.053.06.163.189.2.235a.417.417,0,0,1,.049.062c.02.028.03.033.046.058A.36.36,0,0,0,171.474,149.17Z"
              fill="#3d61cc" stroke="#2adc7d" stroke-miterlimit="10" stroke-width="0.264"/>
        <path d="M172.9,149.937a.272.272,0,0,0,.187.238.224.224,0,0,0,.17-.014c.055-.024.062-.086.071-.115s0-.026,0-.039a.247.247,0,0,0-.2-.219.1.1,0,0,0-.053-.007.132.132,0,0,0-.107.027A.163.163,0,0,0,172.9,149.937Z"
              fill="#3d61cc" stroke="#2adc7d" stroke-miterlimit="10" stroke-width="0.264"/>
        <path d="M172.307,150.1a.862.862,0,0,0,.669.876.509.509,0,0,0,.177.028.666.666,0,0,0,.692-.549,2.528,2.528,0,0,0,.078-.587.841.841,0,0,0-.669-.877.668.668,0,0,0-.845.422.777.777,0,0,0-.024.095A2.459,2.459,0,0,0,172.307,150.1Zm-.357-.115a2.074,2.074,0,0,1,.069-.543.989.989,0,0,1,1.014-.805.694.694,0,0,1,.256.036,1.3,1.3,0,0,1,.994,1.316,1.823,1.823,0,0,1-.074.544.982.982,0,0,1-1.154.775.892.892,0,0,1-.113-.029,1.257,1.257,0,0,1-.992-1.29Z"
              fill="#3d61cc" stroke="#2adc7d" stroke-miterlimit="10" stroke-width="0.264"/>
        <path d="M176.111,150.727c.021-.086-.094-.23-.181-.245s-.1-.02-.162.016-.057.039-.077.125a.262.262,0,0,0,.18.242c.087.013.107.023.165-.014S176.091,150.813,176.111,150.727Z"
              fill="#3d61cc" stroke="#2adc7d" stroke-miterlimit="10" stroke-width="0.264"/>
        <path d="M176.062,149.691a.662.662,0,0,0-.847.4.761.761,0,0,0-.028.1,2.516,2.516,0,0,0-.088.585.859.859,0,0,0,.645.886.5.5,0,0,0,.191.032.661.661,0,0,0,.683-.537,2.715,2.715,0,0,0,.089-.587A.831.831,0,0,0,176.062,149.691Zm-.35,2.281a1.267,1.267,0,0,1-.966-1.312,1.9,1.9,0,0,1,.077-.546.97.97,0,0,1,1.138-.766.911.911,0,0,1,.136.037,1.252,1.252,0,0,1,.963,1.322,2.007,2.007,0,0,1-.087.544.961.961,0,0,1-1.131.756.862.862,0,0,1-.13-.035Z"
              fill="#3d61cc" stroke="#2adc7d" stroke-miterlimit="10" stroke-width="0.264"/>
        <path d="M178.7,150.94a.37.37,0,0,0,.109.084c.1.023.2-.014.206-.1s.018-.05-.035-.134-.129-.179-.211-.3-.228-.328-.333-.458c-.04-.049-.042-.062-.116-.074s-.175,0-.193.1l-.02.111c-.108.639-.218,1.269-.318,1.911a1.267,1.267,0,0,1-.018.128l-.139-.028c-.05-.01-.112-.029-.162-.042a1.244,1.244,0,0,0-.146-.036c-.049-.007-.117-.018-.153.02s-.041.011-.044.091a.2.2,0,0,0,.165.21c.385.1.823.229,1.211.324.122.03.168,0,.2-.1s-.082-.182-.151-.21a1.425,1.425,0,0,0-.158-.045c-.055-.017-.1-.027-.149-.042a1.263,1.263,0,0,1-.123-.043c.031-.172.072-.41.1-.569.055-.317.1-.567.148-.878.014-.081.035-.209.052-.3.051.063.155.2.191.248s.027.037.046.065A.378.378,0,0,1,178.7,150.94Z"
              fill="#3d61cc" stroke="#2adc7d" stroke-miterlimit="10" stroke-width="0.264"/>
        <path d="M179.146,151l-.01.023Z" fill="#3d61cc" stroke="#2adc7d" stroke-miterlimit="10" stroke-width="0.264"/>
        <path d="M180.347,152.085c.087.014.109.022.165-.014s.063-.036.077-.122a.232.232,0,0,0-.178-.241.132.132,0,0,0-.059-.008.126.126,0,0,0-.1.025.156.156,0,0,0-.075.121A.257.257,0,0,0,180.347,152.085Z"
              fill="#3d61cc" stroke="#2adc7d" stroke-miterlimit="10" stroke-width="0.264"/>
        <path d="M181.085,152.378a2.684,2.684,0,0,0,.1-.576.8.8,0,0,0-.622-.875.671.671,0,0,0-.858.405.682.682,0,0,0-.023.077,2.373,2.373,0,0,0-.1.579.837.837,0,0,0,.62.888.506.506,0,0,0,.2.032A.675.675,0,0,0,181.085,152.378Zm-.925.8a1.23,1.23,0,0,1-.925-1.316,2.088,2.088,0,0,1,.1-.536.994.994,0,0,1,.988-.761.769.769,0,0,1,.3.049,1.243,1.243,0,0,1,.923,1.316,1.953,1.953,0,0,1-.1.535.987.987,0,0,1-1.184.739.738.738,0,0,1-.1-.029Z"
              fill="#3d61cc" stroke="#2adc7d" stroke-miterlimit="10" stroke-width="0.264"/>
        <path d="M181.7,153.622c.421.117.8.212,1.218.308a.151.151,0,0,0,.193-.092.128.128,0,0,0,.007-.028c.023-.1-.071-.175-.143-.2a1.218,1.218,0,0,0-.158-.04c-.055-.015-.1-.022-.146-.036s-.082-.022-.128-.036c.007-.034.017-.088.023-.119.042-.227.086-.442.128-.667s.079-.434.123-.667c.015-.079.036-.209.055-.293.049.061.152.193.188.242s.027.036.045.063a.625.625,0,0,1,.038.057.343.343,0,0,0,.095.074c.1.018.2-.025.211-.11s.017-.052-.034-.134-.134-.186-.208-.3-.192-.286-.288-.407c0-.006,0-.008-.023-.028s-.028-.057-.1-.054-.172,0-.194.121c-.123.663-.255,1.339-.379,2.01-.006.032-.016.088-.022.123l-.136-.026c-.052-.009-.109-.027-.164-.04a1.371,1.371,0,0,0-.144-.034c-.071-.009-.174,0-.194.1A.187.187,0,0,0,181.7,153.622Z"
              fill="#3d61cc" stroke="#2adc7d" stroke-miterlimit="10" stroke-width="0.264"/>
        <path d="M185,153.024a.222.222,0,0,0-.162-.225c-.084-.011-.106-.016-.164.021s-.061.041-.083.125a.229.229,0,0,0,.164.229c.084.011.1.015.157-.021S184.975,153.107,185,153.024Z"
              fill="#3d61cc" stroke="#2adc7d" stroke-miterlimit="10" stroke-width="0.264"/>
        <path d="M185.822,153.466a1.086,1.086,0,0,1-1.27.8c-.695-.137-.893-.642-.9-1.255a1.72,1.72,0,0,1,.1-.541,1.024,1.024,0,0,1,1.225-.772l.054.014a1.1,1.1,0,0,1,.889,1.229A2.232,2.232,0,0,1,185.822,153.466Zm-.23-.61a.747.747,0,0,0-.609-.842.7.7,0,0,0-.868.475l-.011.041a2.563,2.563,0,0,0-.111.576.777.777,0,0,0,.608.865.418.418,0,0,0,.161.016.739.739,0,0,0,.716-.56,2.581,2.581,0,0,0,.114-.571Z"
              fill="#3d61cc" stroke="#2adc7d" stroke-miterlimit="10" stroke-width="0.264"/>
    </g>
    <g opacity="0.3">
        <path d="M144.338,152.278a.18.18,0,0,0,.18-.167c0-.084,0-.049-.06-.114s-.167-.141-.263-.227-.251-.216-.367-.307a.067.067,0,0,0-.028-.022c-.026-.012-.033-.042-.1-.021s-.17.057-.165.176c.015.342.025.741.036,1.078s.019.624.033.953a.784.784,0,0,0,.006.117l-.13.017c-.05.006-.108,0-.163.009a1.014,1.014,0,0,0-.146.011c-.072.012-.172.059-.166.164a.156.156,0,0,0,.158.154h.014c.424-.015.8-.032,1.227-.064a.166.166,0,0,0,.163-.169v0c-.007-.1-.09-.141-.18-.146s-.218.014-.293.013-.083,0-.145,0V153.6c-.008-.226-.016-.424-.022-.652s-.011-.459-.022-.7c0-.075-.01-.2-.011-.286l.232.177a.558.558,0,0,1,.06.049c.022.02.026.03.045.039s-.009,0,.007,0A.453.453,0,0,0,144.338,152.278Z"
              fill="#3d61cc" stroke="#2adc7d" stroke-miterlimit="10" stroke-width="0.264"/>
        <path d="M146.207,152.62a.141.141,0,0,0-.06-.14c-.049-.045-.066-.041-.153-.047a.219.219,0,0,0-.195.195.182.182,0,0,0,.059.14c.034.045.114.045.139.048s.009,0,.012,0A.206.206,0,0,0,146.207,152.62Z"
              fill="#3d61cc" stroke="#2adc7d" stroke-miterlimit="10" stroke-width="0.264"/>
        <path d="M145.976,151.638a.737.737,0,0,0-.732.727,2.5,2.5,0,0,0,.014.586.733.733,0,0,0,.775.671h.014a.776.776,0,0,0,.722-.741,4.342,4.342,0,0,0-.007-.535.486.486,0,0,0,0-.054.718.718,0,0,0-.776-.655Zm.083,2.3a.089.089,0,0,1-.023,0,1.077,1.077,0,0,1-1.122-.988,2.05,2.05,0,0,1-.012-.542,1.1,1.1,0,0,1,1.076-1.074,1.028,1.028,0,0,1,1.119.928l0,.029a2.042,2.042,0,0,1,.013.541,1.15,1.15,0,0,1-1.053,1.1Z"
              fill="#3d61cc" stroke="#2adc7d" stroke-miterlimit="10" stroke-width="0.264"/>
        <path d="M148.807,152.056c.067,0,.186-.083.174-.166s.008-.051-.058-.115-.163-.139-.258-.225-.25-.218-.366-.309a.056.056,0,0,0-.029-.021c-.025-.012-.033-.046-.1-.02s-.175.037-.171.179.006.418.01.571c.01.5.018.961.031,1.452v.117l-.13.015c-.05.006-.1.006-.161.01a1.048,1.048,0,0,0-.148.007c-.072.012-.18.063-.175.168a.156.156,0,0,0,.158.154h.013c.428-.012.809-.034,1.239-.062a.176.176,0,0,0,.169-.175c0-.1-.107-.137-.169-.141a.557.557,0,0,0-.1,0h-.062c-.038,0-.1.006-.145.006h-.137v-.128c-.007-.276-.012-.542-.017-.816,0-.18,0-.344-.009-.532,0-.077-.007-.2-.008-.283.061.046.182.142.229.177s.029.028.058.048.017.023.052.041A.169.169,0,0,0,148.807,152.056Z"
              fill="#3d61cc" stroke="#2adc7d" stroke-miterlimit="10" stroke-width="0.264"/>
        <path d="M150.684,152.407a.17.17,0,0,0-.06-.137.211.211,0,0,0-.15-.052h0a.213.213,0,0,0-.2.2.153.153,0,0,0,.056.136.191.191,0,0,0,.146.051h.02C150.56,152.6,150.7,152.493,150.684,152.407Z"
              fill="#3d61cc" stroke="#2adc7d" stroke-miterlimit="10" stroke-width="0.264"/>
        <path d="M150.47,151.108a1.083,1.083,0,0,1,1.134.984.235.235,0,0,1,0,.053,2.944,2.944,0,0,1-.007.488,1.148,1.148,0,0,1-1.114,1.072,1.036,1.036,0,0,1-1.116-.949l0-.023a1.944,1.944,0,0,1-.01-.544,1.153,1.153,0,0,1,1.088-1.08A.062.062,0,0,1,150.47,151.108Zm.04,2.3a.775.775,0,0,0,.733-.733,2.7,2.7,0,0,0,0-.582.736.736,0,0,0-.782-.676h-.015a.769.769,0,0,0-.732.728,2.436,2.436,0,0,0,.01.585.733.733,0,0,0,.775.677Z"
              fill="#3d61cc" stroke="#2adc7d" stroke-miterlimit="10" stroke-width="0.264"/>
        <path d="M153.316,151.908a.185.185,0,0,0,.2-.162c0-.086.011-.047-.051-.114s-.168-.147-.261-.237-.247-.223-.362-.317a.053.053,0,0,0-.028-.023c-.026-.013-.033-.047-.1-.025s-.177.042-.177.174c0,.666-.008,1.355-.01,2.031v.117l-.128.009c-.05,0-.109,0-.164.005a.742.742,0,0,0-.149,0c-.069.01-.19.053-.178.16s.052.152.175.154c.4.008.833-.013,1.232-.013a.174.174,0,0,0,.185-.162v0c.008-.079,0-.057-.028-.1s-.094-.049-.145-.055a1.353,1.353,0,0,0-.156,0h-.29v-1.759c.059.045.18.145.224.182a.68.68,0,0,1,.057.05c.022.022.029.023.047.042A.248.248,0,0,0,153.316,151.908Z"
              fill="#3d61cc" stroke="#2adc7d" stroke-miterlimit="10" stroke-width="0.264"/>
        <path d="M155.4,151.917c.069-.008.2-.049.189-.171,0-.041.012-.053-.051-.108s-.151-.146-.246-.236a4.635,4.635,0,0,0-.379-.349c-.043-.032-.039-.051-.114-.036s-.183.034-.185.167c0,.307-.012.591-.019.927s-.017.754-.022,1.11v.117a.847.847,0,0,0-.131.007,1.251,1.251,0,0,1-.162,0,1.285,1.285,0,0,0-.152,0c-.069.007-.191.048-.179.155s.045.157.176.161c.405.012.819.011,1.244.013a.172.172,0,0,0,.18-.164h0c0-.107-.1-.142-.169-.152a1.1,1.1,0,0,0-.162,0h-.15l-.14-.006v-.127c0-.419.013-.8.023-1.231,0-.107.006-.288.011-.405.057.049.172.154.219.191s.03.032.057.053.015.026.049.043S155.336,151.925,155.4,151.917Z"
              fill="#3d61cc" stroke="#2adc7d" stroke-miterlimit="10" stroke-width="0.264"/>
        <path d="M157.291,152.39c0-.088,0-.093-.051-.144s-.067-.047-.153-.06a.218.218,0,0,0-.216.179c0,.088,0,.091.051.141s.069.051.156.062A.215.215,0,0,0,157.291,152.39Z"
              fill="#3d61cc" stroke="#2adc7d" stroke-miterlimit="10" stroke-width="0.264"/>
        <path d="M156.32,152.057a2.3,2.3,0,0,0-.019.586.767.767,0,0,0,.747.737.235.235,0,0,0,.053,0,.757.757,0,0,0,.736-.673,2.528,2.528,0,0,0,.025-.583.728.728,0,0,0-.726-.73h-.017A.74.74,0,0,0,156.32,152.057Zm-.376.573a1.921,1.921,0,0,1,.018-.546,1.138,1.138,0,0,1,1.1-1.013.305.305,0,0,1,.074,0,1.1,1.1,0,0,1,1.076,1.075,2.064,2.064,0,0,1-.024.544,1.129,1.129,0,0,1-2.248-.06Z"
              fill="#3d61cc" stroke="#2adc7d" stroke-miterlimit="10" stroke-width="0.264"/>
        <path d="M159.856,152.7a.224.224,0,0,0,.22-.173c0-.088,0-.092-.05-.144s-.066-.052-.153-.068a.217.217,0,0,0-.217.175c0,.088,0,.094.048.145S159.771,152.691,159.856,152.7Z"
              fill="#3d61cc" stroke="#2adc7d" stroke-miterlimit="10" stroke-width="0.264"/>
        <path d="M159.924,151.529a.718.718,0,0,0-.806.618l0,.02a2.473,2.473,0,0,0-.035.589.775.775,0,0,0,.733.76.167.167,0,0,0,.063,0,.747.747,0,0,0,.739-.655,2.531,2.531,0,0,0,.037-.583A.742.742,0,0,0,159.924,151.529Zm-.132,2.293a1.116,1.116,0,0,1-1.063-1.1,1.889,1.889,0,0,1,.029-.546,1.133,1.133,0,0,1,2.252.139,1.934,1.934,0,0,1-.039.547,1.084,1.084,0,0,1-1.179.96Z"
              fill="#3d61cc" stroke="#2adc7d" stroke-miterlimit="10" stroke-width="0.264"/>
        <path d="M162.75,152.3c.067.01.195-.063.192-.148s.015-.051-.047-.125-.148-.159-.24-.26-.239-.272-.356-.376c-.039-.035-.033-.05-.108-.04s-.182.02-.19.158-.031.4-.041.541c-.037.513-.072.991-.105,1.5,0,.032-.006.084-.007.12h-.132c-.051,0-.107-.009-.163-.013a1.08,1.08,0,0,0-.15-.01c-.073,0-.194.038-.192.148a.16.16,0,0,0,.144.174h.021c.419.046.82.084,1.248.121a.165.165,0,0,0,.185-.142v-.011c.011-.107-.088-.162-.162-.178a.861.861,0,0,0-.16-.017c-.056-.006-.1-.009-.15-.016l-.137-.018a.719.719,0,0,1,.007-.124c.019-.313.038-.561.061-.887.016-.217.036-.532.054-.764.057.052.171.167.214.209s.028.034.054.059.012.025.047.047A.183.183,0,0,0,162.75,152.3Z"
              fill="#3d61cc" stroke="#2adc7d" stroke-miterlimit="10" stroke-width="0.264"/>
        <path d="M164.8,152.523a.173.173,0,0,0,.2-.141v0c.007-.088.011-.054-.046-.13s-.139-.156-.225-.26-.233-.275-.346-.386a.1.1,0,0,0-.028-.025c-.025-.016-.028-.049-.1-.037s-.179.023-.19.151c-.055.682-.114,1.38-.163,2.071,0,.031-.006.086-.008.12l-.134-.007a1.434,1.434,0,0,1-.163-.019c-.05-.007-.1-.011-.15-.013-.074,0-.185.031-.19.141a.172.172,0,0,0,.156.187h0c.435.054.82.1,1.257.142a.165.165,0,0,0,.185-.142v-.007c.009-.107-.088-.162-.162-.18a1.118,1.118,0,0,0-.163-.021c-.056-.008-.1-.011-.15-.019s-.088-.012-.136-.019c0-.035,0-.094.008-.125.019-.286.043-.576.066-.855s.041-.544.066-.817c.055.059.169.177.211.222a.6.6,0,0,1,.053.06c.021.026.025.027.043.051A.268.268,0,0,0,164.8,152.523Z"
              fill="#3d61cc" stroke="#2adc7d" stroke-miterlimit="10" stroke-width="0.264"/>
        <path d="M166.6,153.337c.057-.042.06-.053.075-.142a.233.233,0,0,0-.188-.219c-.089,0-.107-.009-.162.034s-.06.056-.074.143a.236.236,0,0,0,.187.22C166.524,153.378,166.543,153.38,166.6,153.337Z"
              fill="#3d61cc" stroke="#2adc7d" stroke-miterlimit="10" stroke-width="0.264"/>
        <path d="M166.544,152.167a.694.694,0,0,0-.818.541.558.558,0,0,0-.009.059,2.57,2.57,0,0,0-.049.6.833.833,0,0,0,.7.83.391.391,0,0,0,.108.009.709.709,0,0,0,.722-.619,2.813,2.813,0,0,0,.052-.6A.8.8,0,0,0,166.544,152.167Zm-.2,2.342a1.192,1.192,0,0,1-1.034-1.208,2.155,2.155,0,0,1,.045-.555,1.048,1.048,0,0,1,1.044-.921.524.524,0,0,1,.172.016,1.226,1.226,0,0,1,1.04,1.226,2.006,2.006,0,0,1-.051.557,1.031,1.031,0,0,1-1.151.9l-.062-.01Z"
              fill="#3d61cc" stroke="#2adc7d" stroke-miterlimit="10" stroke-width="0.264"/>
        <path d="M169.581,153.1c.009-.088.009-.053-.047-.134s-.151-.182-.237-.292-.23-.279-.334-.4l-.023-.026a.125.125,0,0,0-.114-.053c-.074,0-.178.007-.19.132-.063.688-.132,1.386-.2,2.081,0,.031-.01.088-.013.123a1.093,1.093,0,0,1-.135-.015c-.052-.006-.107-.019-.165-.029a.974.974,0,0,0-.153-.023.165.165,0,0,0-.193.13c-.016.109.1.188.164.2.405.075.884.158,1.237.213.192.03.168-.022.213-.127s-.1-.173-.163-.2a1.274,1.274,0,0,0-.174-.034c-.054-.012-.09-.015-.137-.024l-.134-.028c0-.04.011-.087.014-.123l.059-.57c.024-.231.055-.541.081-.8.007-.073.018-.218.028-.3.054.059.167.188.209.234a.492.492,0,0,1,.05.061c.021.026.034.03.044.053s0-.017,0,.009.087.066.107.068C169.48,153.235,169.572,153.185,169.581,153.1Z"
              fill="#3d61cc" stroke="#2adc7d" stroke-miterlimit="10" stroke-width="0.264"/>
        <path d="M171.474,153.65c.1.019.2-.023.21-.11s.011-.054-.045-.135-.138-.174-.225-.288-.243-.317-.354-.436c-.043-.046-.042-.071-.121-.063s-.176-.041-.2.132-.063.554-.086.757c-.05.443-.095.85-.146,1.286,0,.033-.011.087-.014.123l-.135-.019c-.052-.007-.11-.021-.166-.031a1.114,1.114,0,0,0-.153-.028c-.069,0-.193.01-.191.122s.029.172.168.2c.391.084.842.179,1.242.256.12.023.171-.016.2-.123s-.089-.177-.16-.2a1.076,1.076,0,0,0-.159-.036c-.056-.013-.1-.021-.153-.034l-.129-.034a1.092,1.092,0,0,1,.015-.12c.053-.449.1-.872.154-1.326.01-.086.025-.234.038-.327l.2.236a.417.417,0,0,1,.049.062c.02.028.03.032.046.058A.36.36,0,0,0,171.474,153.65Z"
              fill="#3d61cc" stroke="#2adc7d" stroke-miterlimit="10" stroke-width="0.264"/>
        <path d="M172.9,154.418a.272.272,0,0,0,.187.238.233.233,0,0,0,.17-.014c.055-.024.062-.086.071-.115s0-.026,0-.039a.247.247,0,0,0-.2-.219.088.088,0,0,0-.053-.007.132.132,0,0,0-.107.027A.163.163,0,0,0,172.9,154.418Z"
              fill="#3d61cc" stroke="#2adc7d" stroke-miterlimit="10" stroke-width="0.264"/>
        <path d="M172.307,154.584a.864.864,0,0,0,.669.877.485.485,0,0,0,.177.027.666.666,0,0,0,.692-.548,2.583,2.583,0,0,0,.078-.587.841.841,0,0,0-.669-.877.668.668,0,0,0-.845.422.777.777,0,0,0-.024.095A2.458,2.458,0,0,0,172.307,154.584Zm-.357-.114a2.074,2.074,0,0,1,.069-.543.991.991,0,0,1,1.014-.806.739.739,0,0,1,.256.037,1.3,1.3,0,0,1,.994,1.316,1.823,1.823,0,0,1-.074.544.982.982,0,0,1-1.154.775.892.892,0,0,1-.113-.029,1.259,1.259,0,0,1-.992-1.294Z"
              fill="#3d61cc" stroke="#2adc7d" stroke-miterlimit="10" stroke-width="0.264"/>
        <path d="M176.111,155.208c.021-.086-.094-.23-.181-.245s-.1-.02-.162.016-.057.038-.077.124a.262.262,0,0,0,.18.243c.087.013.107.023.165-.014S176.091,155.294,176.111,155.208Z"
              fill="#3d61cc" stroke="#2adc7d" stroke-miterlimit="10" stroke-width="0.264"/>
        <path d="M176.062,154.172a.662.662,0,0,0-.847.4.761.761,0,0,0-.028.1,2.516,2.516,0,0,0-.088.585.859.859,0,0,0,.645.886.5.5,0,0,0,.191.032.662.662,0,0,0,.683-.537,2.715,2.715,0,0,0,.089-.587A.831.831,0,0,0,176.062,154.172Zm-.35,2.281a1.267,1.267,0,0,1-.966-1.312,1.9,1.9,0,0,1,.077-.546.97.97,0,0,1,1.138-.766.911.911,0,0,1,.136.037,1.252,1.252,0,0,1,.963,1.322,2.007,2.007,0,0,1-.087.544.961.961,0,0,1-1.131.756.862.862,0,0,1-.13-.035Z"
              fill="#3d61cc" stroke="#2adc7d" stroke-miterlimit="10" stroke-width="0.264"/>
        <path d="M178.7,155.42a.349.349,0,0,0,.109.085c.1.023.2-.014.206-.1s.018-.051-.035-.134-.129-.179-.211-.3-.228-.328-.333-.458c-.04-.049-.042-.062-.116-.074s-.175,0-.193.105l-.02.111c-.108.639-.218,1.269-.318,1.911a1.267,1.267,0,0,1-.018.128l-.139-.028c-.05-.01-.112-.029-.162-.042a.916.916,0,0,0-.146-.036c-.049-.007-.117-.018-.153.02s-.041.01-.044.091a.2.2,0,0,0,.165.21c.385.1.823.229,1.211.324.122.03.168,0,.2-.1s-.082-.181-.151-.209a1.093,1.093,0,0,0-.158-.045c-.055-.017-.1-.027-.149-.043s-.079-.024-.123-.042c.031-.172.072-.41.1-.569.055-.317.1-.567.148-.878.014-.081.035-.209.052-.3.051.063.155.2.191.248.016.021.032.043.046.065A.279.279,0,0,1,178.7,155.42Z"
              fill="#3d61cc" stroke="#2adc7d" stroke-miterlimit="10" stroke-width="0.264"/>
        <path d="M179.146,155.478l-.01.022Z" fill="#3d61cc" stroke="#2adc7d" stroke-miterlimit="10"
              stroke-width="0.264"/>
        <path d="M180.347,156.566c.087.014.109.022.165-.014s.063-.036.077-.122a.23.23,0,0,0-.178-.241.132.132,0,0,0-.059-.008.126.126,0,0,0-.1.025.156.156,0,0,0-.075.121A.257.257,0,0,0,180.347,156.566Z"
              fill="#3d61cc" stroke="#2adc7d" stroke-miterlimit="10" stroke-width="0.264"/>
        <path d="M181.085,156.858a2.664,2.664,0,0,0,.1-.575.8.8,0,0,0-.622-.875.671.671,0,0,0-.858.405.682.682,0,0,0-.023.077,2.373,2.373,0,0,0-.1.579.835.835,0,0,0,.62.887.49.49,0,0,0,.2.033A.677.677,0,0,0,181.085,156.858Zm-.925.8a1.23,1.23,0,0,1-.925-1.316,2.087,2.087,0,0,1,.1-.537.993.993,0,0,1,.988-.76.768.768,0,0,1,.3.048,1.246,1.246,0,0,1,.923,1.317,1.939,1.939,0,0,1-.1.534.988.988,0,0,1-1.182.742.949.949,0,0,1-.1-.03Z"
              fill="#3d61cc" stroke="#2adc7d" stroke-miterlimit="10" stroke-width="0.264"/>
        <path d="M181.7,158.1c.421.117.8.212,1.218.308a.151.151,0,0,0,.193-.092.128.128,0,0,0,.007-.028c.023-.106-.071-.175-.143-.2a1.265,1.265,0,0,0-.158-.041c-.055-.014-.1-.022-.146-.035s-.082-.022-.128-.036c.007-.034.017-.088.023-.119.042-.227.086-.442.128-.667s.079-.434.123-.667c.015-.079.036-.209.055-.294.049.062.152.194.188.242a.593.593,0,0,1,.045.064c.018.028.025.033.038.056a.309.309,0,0,0,.095.074c.1.019.2-.024.211-.109s.017-.052-.034-.134-.134-.186-.208-.3-.192-.286-.288-.407c0-.006,0-.009-.023-.028s-.028-.057-.1-.054-.172,0-.194.121c-.123.663-.255,1.339-.379,2.01-.006.032-.016.088-.022.123l-.136-.026c-.052-.009-.109-.027-.164-.04a1.16,1.16,0,0,0-.144-.034c-.071-.009-.174,0-.194.1A.187.187,0,0,0,181.7,158.1Z"
              fill="#3d61cc" stroke="#2adc7d" stroke-miterlimit="10" stroke-width="0.264"/>
        <path d="M185,157.5a.222.222,0,0,0-.162-.224c-.084-.012-.106-.016-.164.021s-.061.041-.083.125a.229.229,0,0,0,.164.229c.084.011.1.015.157-.021S184.975,157.588,185,157.5Z"
              fill="#3d61cc" stroke="#2adc7d" stroke-miterlimit="10" stroke-width="0.264"/>
        <path d="M185.822,157.947a1.086,1.086,0,0,1-1.27.8c-.695-.138-.893-.642-.9-1.255a1.72,1.72,0,0,1,.1-.541,1.024,1.024,0,0,1,1.225-.772l.054.014a1.1,1.1,0,0,1,.889,1.229A2.232,2.232,0,0,1,185.822,157.947Zm-.23-.61a.747.747,0,0,0-.609-.842.7.7,0,0,0-.868.475l-.011.041a2.563,2.563,0,0,0-.111.576.775.775,0,0,0,.608.864.418.418,0,0,0,.161.017.74.74,0,0,0,.716-.561,2.572,2.572,0,0,0,.114-.57Z"
              fill="#3d61cc" stroke="#2adc7d" stroke-miterlimit="10" stroke-width="0.264"/>
    </g>
    <rect x="120.255" y="199.899" width="20.279" height="2.376" transform="translate(-104.924 246.518) rotate(-67.966)"
          fill="url(#av)"/>
    <circle cx="174.941" cy="182.488" r="7.381" fill="url(#aw)"/>
    <path d="M136.825,196.485c0,16.7,8.532,30.234,19.058,30.234s19.058-13.536,19.058-30.234-8.533-21.7-19.058-21.7S136.825,179.788,136.825,196.485Z"
          fill="url(#ax)"/>
    <ellipse cx="155.883" cy="182.487" rx="13.007" ry="7.509" fill="#30363d"/>
    <path d="M165.08,179.178c-5.079-2.933-13.315-2.933-18.394,0a7.12,7.12,0,0,0-3.692,4.31c-.519-2.24.71-4.589,3.692-6.311,5.079-2.932,13.315-2.932,18.394,0,2.981,1.722,4.21,4.07,3.692,6.31A7.118,7.118,0,0,0,165.08,179.178Z"
          fill="#30363d"/>
    <path d="M170.9,164.643l-2.353-4.055a13.105,13.105,0,0,1-3.052-5.258l-2.383-4.106,3.427-1.968a2.75,2.75,0,0,1,.344-.2h0a3.985,3.985,0,0,1,3.691.482,12.128,12.128,0,0,1,5.486,9.5,3.855,3.855,0,0,1-1.6,3.551h0Z"
          fill="url(#ay)"/>
    <circle cx="155.127" cy="164.563" r="19.437" fill="url(#az)"/>
    <path d="M144.249,177.709l-2.353-4.054a13.127,13.127,0,0,1-3.052-5.259l-2.383-4.106,3.427-1.968a2.75,2.75,0,0,1,.344-.2h0a3.979,3.979,0,0,1,3.691.483,12.122,12.122,0,0,1,5.486,9.5,3.855,3.855,0,0,1-1.6,3.551h0Z"
          fill="url(#ba)"/>
    <ellipse cx="140.395" cy="170.977" rx="4.479" ry="7.758" transform="translate(-66.68 93.108) rotate(-30.001)"
             fill="url(#bb)"/>
    <path d="M145.63,174.188a12.122,12.122,0,0,0-5.486-9.5,4.618,4.618,0,0,0-2.864-.722,4.411,4.411,0,0,1,3.116.677,12.122,12.122,0,0,1,5.486,9.5c0,2.286-1.049,3.683-2.622,3.889C144.692,177.715,145.63,176.349,145.63,174.188Z"
          fill="#fff"/>
    <path d="M136.475,168.711A8.667,8.667,0,0,0,140.4,175.5c2.166,1.251,3.921.237,3.921-2.264a8.665,8.665,0,0,0-3.921-6.791C138.23,165.2,136.475,166.211,136.475,168.711Z"
          fill="#30363d"/>
    <path d="M138.143,165.97a3.211,3.211,0,0,0-.642,2.111,8.665,8.665,0,0,0,3.921,6.792,3.129,3.129,0,0,0,2.253.478c-.7.827-1.907.944-3.279.152a8.665,8.665,0,0,1-3.921-6.792C136.475,167.179,137.134,166.207,138.143,165.97Z"
          fill="#30363d"/>
    <path d="M161.191,173.77c.5,3.822,3.381,5.023,6.443,2.682a13.364,13.364,0,0,0,4.646-11.161c-.5-3.822-3.382-5.023-6.444-2.681A13.358,13.358,0,0,0,161.191,173.77Z"
          fill="#30363d"/>
    <path d="M166.164,175.9a12.829,12.829,0,0,0,4.461-7.605,8.23,8.23,0,0,0,.184-3.556,7.323,7.323,0,0,0-1.648-3.305c1.6.151,2.813,1.509,3.119,3.862a13.364,13.364,0,0,1-4.646,11.161c-1.813,1.387-3.565,1.53-4.795.623A4.85,4.85,0,0,0,166.164,175.9Z"
          opacity="0.1" style="isolation:isolate"/>
    <path d="M167.371,176.327a13.358,13.358,0,0,0,4.645-11.16,4.415,4.415,0,0,0-2.006-3.53c1.171.482,2.021,1.738,2.27,3.654a13.364,13.364,0,0,1-4.646,11.161c-1.644,1.257-3.235,1.489-4.435.847C164.364,177.778,165.845,177.494,167.371,176.327Z"
          opacity="0.05" style="isolation:isolate"/>
    <path d="M126.957,193.123a7.382,7.382,0,1,0,5.809-8.674h0A7.382,7.382,0,0,0,126.957,193.123Z" fill="url(#bc)"/>
    <path d="M122.426,216.146c.418,3.507,3.516,10.151,6.32,9.816s4.251-7.52,3.832-11.028-3.03-6.079-5.834-5.745S122.007,212.638,122.426,216.146Z"
          fill="url(#bd)"/>
    <path d="M194.473,193.58a1.188,1.188,0,0,0,.551-2.241l-15.24-7.976a1.188,1.188,0,0,0-1.1,2.1l15.241,7.976A1.181,1.181,0,0,0,194.473,193.58Z"
          fill="url(#be)"/>
    <path d="M194.2,198.007c3.1,1.7,10.3,3.038,11.661.562s-3.648-7.83-6.746-9.528-6.709-1.068-8.066,1.408S191.107,196.309,194.2,198.007Z"
          fill="url(#bf)"/>
    <g opacity="0.5">
        <path d="M208.73,194.7c.464,3.732,2.4,5.953,4.434,3.173a16.4,16.4,0,0,0,3.014-9.133V168.409a16.148,16.148,0,0,1-3.014,9.133c-4.3,7.113-4.81,14.133-4.434,17.159Z"
              fill="#3d61cc"/>
        <path d="M148.368,198.428q2.408.065,4.858.045a119.751,119.751,0,0,0,34.512-5.071c9.874-2.638,10.47,7.694,7.024,14.075a12.562,12.562,0,0,1-7.024,6.257,119.785,119.785,0,0,1-34.512,5.071q-2.45.019-4.858-.046c-11.6-.855-14.64-12-9.218-17.2,1.513-1.451,4.341-3.173,9.218-3.133Z"
              fill="#3d61cc"/>
    </g>
    <path d="M186.518,125.324a1.552,1.552,0,1,0,1.552-1.552,1.552,1.552,0,0,0-1.552,1.552Z" fill="#3d61cc"/>
    <path d="M126.342,108.194a2.142,2.142,0,1,0,3.029,0h0A2.143,2.143,0,0,0,126.342,108.194Z" fill="#3d61cc"/>
    <path d="M127.857,159.461a.986.986,0,1,0,.986-.987.985.985,0,0,0-.986.987Z" fill="#3d61cc"/>
    <path d="M199.945,209.16a.987.987,0,1,0,.988-.986h0A.985.985,0,0,0,199.945,209.16Z" fill="#3d61cc"/>
    <circle cx="181.11" cy="169.989" r="0.515" fill="#3d61cc"/>
    <path d="M164.362,166.229l.527,1.581q.526,2.767,1.054,5.535.658-3.69,1.318-7.38l.309,2.412.482-.83.263,1.317"
          fill="none" stroke="#2adc7d" stroke-linecap="round" stroke-linejoin="round" stroke-width="0.264"/>
    <path d="M190.851,198.517l-5.272,9.225-5.8-3.163L171.61,211.7l-7.117-8.434-8.961,3.163-4.217,4.744-7.908-5.535"
          fill="none" stroke="#2adc7d" stroke-linecap="round" stroke-linejoin="round" stroke-width="0.605"/>
    <path d="M114.562,188.318a1.552,1.552,0,1,0,1.553-1.551h0a1.55,1.55,0,0,0-1.552,1.55Z" fill="#3d61cc"/>
</svg>