<svg xmlns="http://www.w3.org/2000/svg" xmlns:xlink="http://www.w3.org/1999/xlink" viewBox="0 0 15 15"><defs><clipPath id="a"><path d="M14.85,7.67a8.684,8.684,0,0,0-.136-1.534H7.65v2.9h4.036a3.448,3.448,0,0,1-1.5,2.263v1.882h2.424A7.315,7.315,0,0,0,14.85,7.67Zm0,0" fill="none" clip-rule="evenodd"/></clipPath><clipPath id="b"><path d="M7.65,15a7.163,7.163,0,0,0,4.964-1.817L10.19,11.3A4.525,4.525,0,0,1,3.453,8.925H.948v1.943A7.5,7.5,0,0,0,7.65,15Zm0,0" fill="none" clip-rule="evenodd"/></clipPath><clipPath id="c"><path d="M3.453,8.925a4.438,4.438,0,0,1,0-2.85V4.132H.948a7.506,7.506,0,0,0,0,6.736L3.453,8.925Zm0,0" fill="none" clip-rule="evenodd"/></clipPath><clipPath id="d"><path d="M7.65,2.983a4.048,4.048,0,0,1,2.867,1.122l2.151-2.152A7.208,7.208,0,0,0,7.65,0a7.5,7.5,0,0,0-6.7,4.132L3.453,6.075a4.47,4.47,0,0,1,4.2-3.092Zm0,0" fill="none" clip-rule="evenodd"/></clipPath></defs><title>google</title><g clip-path="url(#a)"><rect x="3.483" y="1.97" width="15.533" height="15.38" fill="#3e82f1"/></g><g clip-path="url(#b)"><rect x="-3.219" y="4.758" width="19.999" height="14.408" fill="#32a753"/></g><g clip-path="url(#c)"><rect x="-4.017" y="-0.035" width="11.637" height="15.07" fill="#f9bb00"/></g><g clip-path="url(#d)"><rect x="-3.219" y="-4.167" width="20.054" height="14.408" fill="#e74133"/></g></svg>